<svg width="129" height="37" viewBox="0 0 129 37" fill="none" xmlns="http://www.w3.org/2000/svg">
<path d="M4.34713 24.8831C-0.768621 21.3021 2.21557 8.04348 4.34713 1.86182C53.8336 11.7483 106.82 5.9812 127.127 1.86182V24.8831C58.0634 35.7543 10.7418 29.3595 4.34713 24.8831Z" fill="#7C4035"/>
<path fill-rule="evenodd" clip-rule="evenodd" d="M128.649 0V26.1846L127.364 26.387C92.7366 31.8376 63.5418 32.9629 42.1789 32.1597C31.4993 31.7583 22.7607 30.8742 16.269 29.8024C13.0246 29.2667 10.3217 28.6809 8.20841 28.0782C6.14123 27.4887 4.49366 26.8441 3.47396 26.1303C1.76058 24.9309 0.851917 23.0114 0.402428 20.9725C-0.049312 18.9233 -0.0809175 16.5693 0.112074 14.2231C0.498511 9.52502 1.81459 4.53626 2.90785 1.36577L3.34127 0.108798L4.6451 0.36928C53.8746 10.2045 106.647 4.46324 126.824 0.370166L128.649 0ZM5.373 3.61539C4.43962 6.59362 3.45907 10.6692 3.14622 14.4726C2.96618 16.6614 3.01451 18.6799 3.37543 20.3171C3.7386 21.9644 4.37532 23.0451 5.21982 23.6363C5.79879 24.0416 7.02886 24.576 9.04335 25.1506C11.0117 25.7119 13.5945 26.2752 16.7649 26.7987C23.1027 27.8451 31.71 28.7196 42.2932 29.1175C63.1919 29.9032 91.7318 28.8277 125.605 23.5804V3.71156C104.163 7.77919 53.3151 12.9148 5.373 3.61539Z" fill="black"/>
<path fill-rule="evenodd" clip-rule="evenodd" d="M37.5649 6.02709C41.3873 6.20372 45.8406 6.80469 48.7735 7.30162L50.029 7.51434L50.4763 8.70658C51.7224 12.0278 53.4368 17.1165 54.5199 21.5895C55.0576 23.8102 55.4666 25.986 55.5554 27.7546C55.5994 28.6293 55.5732 29.5347 55.3788 30.3442C55.1946 31.1111 54.7549 32.2073 53.6339 32.8227C52.9386 33.2044 52.113 33.3677 51.4172 33.4551C50.6679 33.5493 49.8121 33.5834 48.9097 33.5795C47.1016 33.5717 44.925 33.4094 42.6836 33.1715C38.1911 32.6946 33.2456 31.893 30.0576 31.2998L29.3436 31.1669L28.847 30.6369C27.6186 29.3257 27.0637 27.4719 26.7968 25.7341C26.5199 23.9314 26.5018 21.8943 26.6187 19.886C26.8523 15.8738 27.6456 11.6574 28.3085 8.97343C28.5928 7.74671 29.5316 7.09466 30.1729 6.78156C30.8473 6.45232 31.6236 6.27499 32.3462 6.16778C33.816 5.94972 35.672 5.93962 37.5649 6.02709ZM32.0988 10.7688C32.0987 10.7688 32.1008 10.7676 32.1053 10.7652C32.1011 10.7677 32.0989 10.7688 32.0988 10.7688ZM32.4595 10.6496C32.5951 10.6163 32.7717 10.5806 32.9959 10.5473C34.037 10.3929 35.553 10.3663 37.3605 10.4498C40.4407 10.5922 44.0269 11.0355 46.7732 11.4624C47.9195 14.629 49.3111 18.8909 50.2168 22.6315C50.7336 24.7661 51.0656 26.6243 51.1335 27.9769C51.1567 28.4379 51.1456 28.7819 51.1198 29.025C51.0468 29.0373 50.9623 29.05 50.8653 29.0622C50.3752 29.1238 49.7267 29.1555 48.9288 29.1521C47.3363 29.1452 45.3279 28.9998 43.1509 28.7687C39.1971 28.3491 34.8446 27.6642 31.7475 27.1079C31.5312 26.6733 31.319 26.0127 31.173 25.0619C30.9613 23.6836 30.9314 21.9871 31.0387 20.1433C31.2357 16.7597 31.8775 13.1492 32.4595 10.6496ZM51.0466 29.4009C51.0464 29.4004 51.0487 29.3933 51.0543 29.3807C51.0497 29.3951 51.0469 29.4013 51.0466 29.4009Z" fill="#FFF2C9"/>
<path fill-rule="evenodd" clip-rule="evenodd" d="M52.2647 4.80546L53.3273 7.63731C54.5982 11.0246 56.3571 16.2383 57.4794 20.8732C58.0315 23.1535 58.4933 25.5476 58.5966 27.602C58.6471 28.6075 58.6311 29.8414 58.3396 31.0553C58.0749 32.1574 57.3279 34.2683 55.0995 35.4916C53.8905 36.1553 52.6017 36.3749 51.7974 36.476L51.4178 33.4553C52.1136 33.3679 52.9392 33.2046 53.6345 32.8229C54.7555 32.2075 55.1952 31.1113 55.3794 30.3444C55.5738 29.5349 55.6 28.6295 55.556 27.7548C55.4672 25.9862 55.0582 23.8104 54.5205 21.5897C53.4374 17.1167 51.723 12.028 50.4769 8.70678L50.0296 7.51453L48.774 7.30181C45.8411 6.80489 41.3879 6.20392 37.5655 6.02729C35.6726 5.93982 33.8166 5.94991 32.3468 6.16798C31.6242 6.27518 30.8479 6.45252 30.1735 6.78176C29.5321 7.09486 28.5934 7.74691 28.3091 8.97363C27.6462 11.6576 26.8529 15.874 26.6193 19.8862C26.5024 21.8945 26.5205 23.9316 26.7974 25.7343C27.0643 27.4721 27.6192 29.3259 28.8476 30.6371L26.6259 32.7185C24.7659 30.7331 24.0864 28.1377 23.7883 26.1964C23.4666 24.1021 23.4565 21.8309 23.5801 19.7092C23.8267 15.4721 24.6553 11.075 25.349 8.26184C25.9425 5.74636 27.8506 4.52796 28.8379 4.04597C29.9176 3.51889 31.0455 3.28333 31.9 3.15655C33.6644 2.89479 35.754 2.89594 37.706 2.98614C41.6963 3.17053 46.2816 3.79175 49.2826 4.3002L52.2647 4.80546ZM29.3442 31.1671L28.8476 30.6371L26.6259 32.7185L27.8052 33.9774L29.5012 34.293C32.7409 34.8959 37.7686 35.7114 42.3628 36.1991C44.6487 36.4417 46.9407 36.6157 48.8972 36.6241C49.8716 36.6283 50.8699 36.5925 51.7974 36.476L51.4178 33.4553C50.6685 33.5495 49.8127 33.5836 48.9103 33.5797C47.1021 33.5719 44.9256 33.4096 42.6841 33.1717C38.1916 32.6948 33.2462 31.8932 30.0582 31.3L29.3442 31.1671ZM31.8173 13.8002C31.4653 15.7806 31.1637 18.0073 31.0393 20.1435C30.932 21.9872 30.9619 23.6838 31.1736 25.0621C31.3196 26.0129 31.5318 26.6735 31.7481 27.1081C34.8452 27.6644 39.1977 28.3493 43.1515 28.7689C44.93 28.9577 46.5959 29.0893 48.0145 29.1349C48.3324 29.1451 48.6379 29.151 48.9294 29.1523C49.4292 29.1545 49.8704 29.1428 50.2507 29.1186C50.3158 29.1145 50.379 29.11 50.4405 29.1052C50.5395 29.0973 50.6338 29.0886 50.7234 29.079L50.3805 28.9465L51.1204 29.0252L50.6722 26.3795C50.7662 26.3679 50.8641 26.3603 50.9658 26.3577C50.8075 25.2719 50.551 24.0093 50.2174 22.6317C49.3116 18.8911 47.9201 14.6292 46.7738 11.4626C44.0275 11.0357 40.4413 10.5924 37.3611 10.45C36.5512 10.4126 35.7997 10.3973 35.1234 10.4057C35.1621 10.7256 35.1445 11.0167 35.1029 11.2651L32.4601 10.6498L32.7247 11.7284L32.3635 11.0725C32.3563 11.1046 32.3491 11.1368 32.3419 11.1692C32.3392 11.1813 32.3365 11.1934 32.3338 11.2055C32.1593 11.9926 31.9828 12.8692 31.8173 13.8002ZM34.9777 13.4528C34.5754 15.5414 34.2134 18.0032 34.0785 20.3204C33.9827 21.966 34.0124 23.369 34.159 24.4369C36.9573 24.9072 40.3516 25.4103 43.4728 25.7415C45.0981 25.9141 46.5841 26.0328 47.8383 26.0823C47.6995 25.2877 47.5061 24.3709 47.2585 23.3481C46.54 20.381 45.4927 17.035 44.5158 14.2084C42.1807 13.8862 39.5329 13.598 37.2206 13.4912C36.356 13.4512 35.6056 13.4403 34.9777 13.4528ZM51.0549 29.3809C51.0493 29.3935 51.047 29.4006 51.0472 29.4011C51.0471 29.4012 51.0472 29.4011 51.0472 29.4011C51.0479 29.4002 51.0508 29.3937 51.0549 29.3809Z" fill="black"/>
<path d="M39.7289 10.4453C39.5296 10.2858 39.4796 7.48707 39.4795 6.10767C40.7558 6.10767 47.0911 7.07157 50.0993 7.55352C50.9468 10.3123 52.7816 16.2088 53.34 17.7245C53.8984 19.2402 55.0352 25.0038 55.5338 27.6961C55.8529 31.0066 54.5366 32.3661 53.8386 32.632C52.8813 34.3072 44.9971 33.5959 41.1747 33.0309V28.5437C43.9667 29.1021 48.925 29.0709 51.0551 28.9855C51.119 26.9405 48.284 16.5045 46.8585 11.5421C44.565 11.243 39.9283 10.6048 39.7289 10.4453Z" fill="#A9B3B9"/>
<path d="M20.7635 8.94952C16.1007 9.11629 7.308 7.21184 3.4945 6.23877L2.44336 8.94952C8.92978 12.3895 17.3594 10.3829 20.7635 8.94952Z" fill="black"/>
<path d="M24.5698 11.8613C21.9274 12.7238 11.4458 13.4275 7.12983 13.0681C4.88389 17.111 24.4377 16.5721 24.5698 15.8982C24.6755 15.3592 25.0102 12.5801 24.5698 11.8613Z" fill="black"/>
<path d="M77.1503 18.7384C74.5079 19.4195 64.0263 19.9753 59.7103 19.6915C57.4644 22.8844 76.6285 22.095 77.1503 21.9266C79.1293 21.2876 85.6129 18.3836 77.1503 18.7384Z" fill="black"/>
<path d="M18.5738 19.2095C16.5586 18.3568 10.2415 18.8542 7.33484 19.2095C8.49761 22.7942 16.8297 21.8255 18.5738 21.7287C20.3179 21.6318 21.0928 20.2753 18.5738 19.2095Z" fill="black"/>
<path d="M58.8905 13.9541C75.6238 13.0727 111.836 10.2193 122.817 5.85674C111.923 10.4287 83.8859 18.449 58.8905 13.9541Z" fill="black"/>
<path d="M81.84 22.5955C92.5658 21.7141 115.777 18.8606 122.816 14.4981C115.833 19.0701 97.8618 27.0903 81.84 22.5955Z" fill="black"/>
</svg>
