<svg width="56" height="55" viewBox="0 0 56 55" fill="none" xmlns="http://www.w3.org/2000/svg">
<path d="M50.4834 32.2089C47.7693 44.3899 35.3681 51.9916 22.7846 49.1878C10.201 46.384 2.20026 34.2365 4.91434 22.0555C7.62842 9.8746 20.0296 2.27292 32.6131 5.0767C45.1967 7.88049 53.1974 20.028 50.4834 32.2089Z" fill="#D9D9D9"/>
<path fill-rule="evenodd" clip-rule="evenodd" d="M23.7777 44.7305C34.0373 47.0165 43.8907 40.7995 46.0261 31.2158C48.1615 21.6321 41.8796 11.82 31.62 9.53398C21.3604 7.24801 11.507 13.4649 9.37162 23.0487C7.23623 32.6324 13.5181 42.4445 23.7777 44.7305ZM22.7846 49.1878C35.3681 51.9916 47.7693 44.3899 50.4834 32.2089C53.1974 20.028 45.1967 7.88049 32.6131 5.0767C20.0296 2.27292 7.62842 9.8746 4.91434 22.0555C2.20026 34.2365 10.201 46.384 22.7846 49.1878Z" fill="black"/>
<path d="M30.0506 28.552C27.9097 33.3925 18.6286 25.2073 18.2975 24.7284C19.5306 22.3727 28.1362 17.7726 30.0506 18.2902C32.4437 18.9371 32.1915 23.7114 30.0506 28.552Z" fill="white"/>
<path d="M27.151 28.9013C27.4501 26.6732 33.2693 23.0283 31.3406 19.7896C33.1251 20.3442 35.1083 21.6394 34.9925 23.0283C34.8478 24.7646 26.6559 32.588 27.151 28.9013Z" fill="#D9D9D9"/>
<path d="M29.5724 27.7478C25.9553 26.8798 30.4406 19.4284 30.7298 19.1389C32.5143 19.6936 36.0543 21.1501 35.9386 22.5391C35.7939 24.2753 33.1896 28.6159 29.5724 27.7478Z" fill="#D9D9D9"/>
<path d="M32.1723 26.264C28.8906 30.8004 22.8922 27.7519 20.1977 26.2639C18.3881 28.9181 20.1977 39.294 29.4876 37.4843C38.7774 35.6746 35.5971 25.4073 34.6319 24.2009C33.8598 23.2357 32.5342 25.8618 32.1723 26.264Z" fill="#929BA8"/>
<path fill-rule="evenodd" clip-rule="evenodd" d="M25.7778 35.756C30.8442 36.8849 35.6655 33.8115 36.7066 29.139C37.7477 24.4664 34.6873 19.6369 29.6209 18.508C24.5545 17.3791 19.7332 20.4525 18.6921 25.1251C17.651 29.7976 20.7114 34.6272 25.7778 35.756ZM25.1157 38.7276C31.7314 40.2016 38.2512 36.2051 39.6781 29.8011C41.1051 23.397 36.8987 17.0105 30.283 15.5365C23.6673 14.0624 17.1475 18.0589 15.7206 24.463C14.2936 30.867 18.5 37.2535 25.1157 38.7276Z" fill="black"/>
<path d="M38.4846 36.5659C44.5048 31.2024 42.9997 22.0172 41.4946 18.095C46.1701 23.252 44.1782 31.5783 42.5978 35.0968C40.9815 38.0881 35.4186 43.9116 26.0973 43.2747C16.7759 42.6378 11.8637 33.2464 10.5728 28.6303C18.2348 42.8598 30.9593 43.2703 38.4846 36.5659Z" fill="#929BA8"/>
</svg>
