<svg width="109" height="122" viewBox="0 0 109 122" fill="none" xmlns="http://www.w3.org/2000/svg">
<path d="M43.7728 13.3771C68.7566 14.813 119.452 49.1358 85.0582 99.9603C72.8634 63.6731 31.0421 41.8969 43.7728 13.3771Z" fill="#A2A6A9"/>
<path fill-rule="evenodd" clip-rule="evenodd" d="M44.5062 14.5822C39.0067 27.8674 45.7568 39.725 55.9809 53.0558C57.8744 55.5247 59.8833 58.0383 61.9395 60.611C70.6097 71.4594 80.1208 83.36 85.3684 97.3966C92.911 85.6034 95.7635 74.8129 95.4807 65.2258C95.1825 55.1182 91.3962 46.2443 85.7665 38.8443C74.7072 24.3073 56.6507 15.6063 44.5062 14.5822ZM97.7802 65.158C98.095 75.828 94.7192 87.7361 86.0106 100.605L84.7081 102.53L83.9677 100.327C79.0701 85.753 69.3427 73.5731 60.2385 62.1734C58.1565 59.5665 56.1071 57.0004 54.1555 54.4558C43.7914 40.9425 36.0555 27.8432 42.7222 12.9082L43.0459 12.1832L43.8386 12.2287C56.6831 12.9669 75.9068 22.0846 87.5974 37.4514C93.4653 45.1646 97.4655 54.4908 97.7802 65.158Z" fill="black"/>
<path d="M76.1557 115.437C83.611 110.311 86.599 87.0869 87.1611 76.1158C88.4762 70.4586 86.4518 59.8956 85.2752 55.3213C76.9366 51.7142 53.3676 25.8374 42.6255 13.3499C40.3308 14.0292 31.154 16.9374 12.804 23.1358C-5.54601 29.3341 -14.1841 42.734 -16.2094 48.6592C25.439 21.1459 65.2303 73.994 66.4812 75.6962C67.4819 77.058 66.5823 97.2911 66.0074 107.237C66.2838 112.107 68.7004 120.564 76.1557 115.437Z" fill="#D9D9D9"/>
<path fill-rule="evenodd" clip-rule="evenodd" d="M43.0127 12.0358L43.4979 12.5998C48.8579 18.8307 57.4191 28.403 65.6752 36.8624C69.8042 41.0929 73.8452 45.0332 77.3648 48.1346C80.9225 51.2696 83.8354 53.445 85.7323 54.2656L86.2493 54.4892L86.3896 55.0348C86.9885 57.3631 87.7987 61.1959 88.2943 65.1702C88.7797 69.0626 88.9842 73.2416 88.305 76.2746C88.016 81.8101 87.1224 90.3697 85.3662 98.2194C84.4831 102.167 83.374 105.971 81.9964 109.133C80.6335 112.261 78.942 114.918 76.8079 116.385C74.8123 117.758 72.9859 118.338 71.3319 118.147C69.6547 117.952 68.3874 116.993 67.4716 115.779C65.6936 113.422 65.0017 109.81 64.8594 107.303L64.8557 107.237L64.8595 107.171C65.1465 102.205 65.5145 94.6729 65.6857 88.2172C65.7714 84.987 65.8075 82.0409 65.7606 79.8247C65.7372 78.7138 65.6932 77.8075 65.6276 77.1486C65.5946 76.8174 65.5583 76.5726 65.5227 76.4063C65.5123 76.3577 65.5034 76.3227 65.4968 76.2992C64.4772 74.9321 54.4389 61.8264 39.657 52.1853C24.5332 42.3213 4.70252 36.2234 -15.575 49.6189L-18.3878 51.4771L-17.2974 48.2872C-15.1669 42.0542 -6.28152 28.3686 12.4363 22.046C30.7862 15.8477 39.9816 12.9332 42.2994 12.247L43.0127 12.0358ZM42.2426 14.6671C39.0963 15.63 29.9986 18.5419 13.1725 24.2255C-1.86871 29.3062 -10.1993 39.3125 -13.6456 45.7371C6.6007 34.2466 26.1909 40.656 40.9137 50.2585C56.3959 60.3563 66.7539 74.1243 67.4085 75.0151C67.6301 75.3166 67.7229 75.6941 67.7723 75.9249C67.8332 76.2095 67.8797 76.5487 67.9167 76.9205C67.9912 77.6676 68.0366 78.6432 68.0606 79.7761C68.1086 82.0473 68.0714 85.0365 67.9854 88.2782C67.8141 94.737 67.4473 102.256 67.16 107.237C67.3022 109.59 67.9573 112.603 69.3082 114.393C69.9629 115.261 70.715 115.759 71.5963 115.861C72.5009 115.966 73.7723 115.681 75.5044 114.49C77.0979 113.394 78.5756 111.225 79.8873 108.214C81.1844 105.237 82.2552 101.588 83.1213 97.7171C84.8528 89.9778 85.7341 81.496 86.0128 76.057L86.018 75.9549L86.0411 75.8554C86.6494 73.239 86.4983 69.3582 86.0116 65.4548C85.5654 61.8768 84.855 58.4095 84.2937 56.1324C82.071 55.0288 79.121 52.7484 75.8439 49.8606C72.2633 46.7054 68.1773 42.7196 64.0289 38.4692C55.9773 30.2194 47.6471 20.9274 42.2426 14.6671Z" fill="black"/>
<path d="M15.8743 37.3594C17.7431 31.7023 26.3982 22.718 26.5745 22.6402C19.1034 23.878 15.7058 26.2315 14.9408 27.2535C14.0426 28.5083 12.0459 31.3351 11.2445 32.6045C10.2427 34.1912 9.05501 36.407 9.75322 36.8067C10.3118 37.1264 14.0667 37.3084 15.8743 37.3594Z" fill="#94989D"/>
<path fill-rule="evenodd" clip-rule="evenodd" d="M15.173 27.4238C14.2726 28.6816 12.2833 31.4982 11.4878 32.7582C10.9896 33.5474 10.4524 34.4819 10.1269 35.2617C9.96295 35.6546 9.86168 35.9874 9.83712 36.2334C9.81099 36.4953 9.87785 36.5469 9.89625 36.5574C9.92532 36.574 10.0077 36.6045 10.1653 36.6398C10.3141 36.673 10.5049 36.7053 10.7303 36.7361C11.1805 36.7978 11.752 36.8516 12.3669 36.8973C13.5031 36.9818 14.7738 37.0379 15.6711 37.0659C16.6789 34.2121 19.2752 30.6178 21.6366 27.7259C22.8504 26.2393 24.011 24.928 24.8795 23.983C25.206 23.6278 25.4915 23.3241 25.7233 23.0819C22.4693 23.6863 20.0632 24.5014 18.364 25.2889C16.5048 26.1506 15.515 26.9685 15.173 27.4238ZM18.1221 24.7671C20.028 23.8838 22.7706 22.9792 26.5277 22.3568L26.6907 22.9036C26.7136 22.8935 26.7314 22.8815 26.7393 22.8757C26.7371 22.8775 26.7329 22.8812 26.7262 22.8872C26.7086 22.9031 26.6821 22.928 26.6464 22.9627C26.5755 23.0316 26.4746 23.1328 26.347 23.2638C26.0921 23.5257 25.7341 23.9031 25.303 24.3722C24.4406 25.3105 23.2876 26.6133 22.082 28.0897C19.6611 31.0545 17.0633 34.6777 16.1476 37.4499L16.0804 37.6532L15.8664 37.6471C14.9597 37.6215 13.5644 37.5631 12.3242 37.4708C11.7046 37.4247 11.1196 37.3699 10.6523 37.3059C10.4189 37.274 10.2105 37.2392 10.0399 37.201C9.87823 37.1649 9.72111 37.1198 9.61055 37.0565L9.74867 36.8152L9.61055 37.0565C9.27984 36.8672 9.23334 36.4919 9.26485 36.1763C9.29792 35.8449 9.42528 35.4497 9.59619 35.0402C9.94043 34.2155 10.498 33.2488 11.0015 32.4512C11.8083 31.1734 13.8103 28.3394 14.7072 27.0864L14.7107 27.0815L14.7108 27.0815C15.1354 26.5142 16.2267 25.6456 18.1221 24.7671ZM26.7409 22.8744C26.7454 22.8708 26.7445 22.8719 26.7393 22.8757C26.7401 22.8751 26.7406 22.8746 26.7409 22.8744Z" fill="black"/>
<path d="M6.56531 36.4191C6.97487 35.2162 9.56402 29.2198 10.8074 26.3719C8.35524 26.4508 3.9353 29.2364 3.78051 29.7277C3.65668 30.1208 1.9 35.1993 1.03713 37.6894C1.11586 37.3508 4.75538 36.7014 6.56531 36.4191Z" fill="#94989D"/>
<path fill-rule="evenodd" clip-rule="evenodd" d="M11.2535 26.0699L11.0714 26.487C9.82423 29.3434 7.24248 35.3237 6.83795 36.5117L6.7819 36.6763L6.61007 36.7031C5.7079 36.8439 4.3508 37.076 3.2114 37.3146C2.64065 37.4341 2.13093 37.5539 1.76184 37.6634C1.57591 37.7186 1.43547 37.7683 1.34335 37.8105C1.29745 37.8316 1.27393 37.8461 1.26516 37.8526C1.27426 37.8441 1.29465 37.8215 1.30893 37.7835L0.757482 37.6243C0.761497 37.607 0.766687 37.5907 0.772766 37.5753C1.6395 35.074 3.3848 30.0282 3.50668 29.6413C3.53524 29.5507 3.59572 29.4735 3.642 29.4206C3.69483 29.3602 3.76158 29.2959 3.83701 29.2296C3.98844 29.0966 4.19276 28.9405 4.43468 28.7715C4.91959 28.4327 5.57301 28.0302 6.29693 27.6418C7.02083 27.2534 7.82056 26.8763 8.59795 26.5905C9.37139 26.3063 10.1408 26.1057 10.7986 26.0845L11.2535 26.0699ZM1.53533 37.131C1.556 37.1247 1.57698 37.1184 1.59825 37.1121C1.99027 36.9957 2.51831 36.8721 3.09352 36.7516C4.17646 36.5249 5.44931 36.3048 6.35213 36.1615C6.88064 34.7212 9.10453 29.5613 10.349 26.7046C9.88093 26.7762 9.35157 26.9263 8.79635 27.1304C8.0505 27.4045 7.27579 27.7693 6.56883 28.1485C5.8619 28.5278 5.22805 28.9187 4.76406 29.2429C4.53152 29.4054 4.34599 29.5481 4.21649 29.6618C4.15147 29.7189 4.10499 29.7648 4.07487 29.7993C4.06116 29.8149 4.05367 29.8251 4.05014 29.83C3.9019 30.2901 2.43376 34.5369 1.53533 37.131ZM1.26463 37.853C1.2648 37.8528 1.26498 37.8527 1.26516 37.8526C1.25973 37.8576 1.25832 37.8577 1.26463 37.853Z" fill="black"/>
<path d="M16.0848 29.082C16.4922 28.3479 20.3891 27.4021 22.2866 27.021L25.7919 23.0395C23.9201 23.5175 19.7929 24.6485 18.2586 25.3482C16.3406 26.2228 15.0011 27.5607 14.9349 27.6799C14.8688 27.799 10.7826 33.8811 10.3157 34.7317C9.94221 35.4123 9.88147 36.2138 9.8978 36.5296C10.2288 36.7562 12.0846 36.7678 12.9712 36.7452C13.8393 34.4967 15.6773 29.8161 16.0848 29.082Z" fill="#444D56"/>
<path d="M64.6575 46.4914C63.8797 46.8505 58.6268 54.6013 56.0976 58.4319C56.5422 59.1458 57.8447 60.9107 59.4979 62.259C61.5644 63.9445 64.2558 60.0391 64.612 59.5435C64.9682 59.0479 70.3977 50.6215 70.0403 49.6708C69.6829 48.7201 65.6297 46.0426 64.6575 46.4914Z" fill="#798088"/>
<path d="M56.3872 36.0369C55.8776 36.0727 49.9344 44.7878 47.0264 49.1409C46.2384 51.0785 47.7171 53.0131 50.2036 53.9286C52.1928 54.6609 52.8836 54.1499 52.9804 53.8029C54.7193 51.2989 58.3129 46.1251 58.7757 45.4615C59.3542 44.6319 61.9988 41.3423 61.7393 40.7999C61.4797 40.2576 57.0242 35.9922 56.3872 36.0369Z" fill="#798088"/>
<path d="M48.6943 28.0215C45.5772 28.7075 39.0814 39.1153 36.2231 44.2334C36.8019 45.9037 42.7636 48.1499 43.7753 47.4679C44.787 46.7859 53.3742 33.0909 53.1018 32.0607C52.8839 31.2365 50.0727 29.0245 48.6943 28.0215Z" fill="#798088"/>
<path d="M46.1328 23.4225C45.7869 23.9864 36.6133 35.8855 32.0698 41.7646C31.1428 42.2859 27.4388 40.995 25.7026 40.2844C26.2143 38.9492 27.6135 35.4131 29.1165 31.9503C30.9953 27.6218 41.5954 17.5353 42.4017 17.6556C43.208 17.776 46.5651 22.7176 46.1328 23.4225Z" fill="#798088"/>
<path fill-rule="evenodd" clip-rule="evenodd" d="M46.7458 23.2349C46.7476 23.3646 46.7296 23.5491 46.6228 23.7232C46.5616 23.8229 46.3576 24.0998 46.0756 24.4762C45.7814 24.8688 45.3759 25.4043 44.8858 26.048C43.9054 27.3357 42.5837 29.0605 41.1312 30.9508C38.2262 34.7315 34.7966 39.1765 32.5246 42.1163L32.4532 42.2087L32.3514 42.2659C32.1292 42.3909 31.8728 42.4377 31.6402 42.4536C31.3996 42.47 31.1343 42.4562 30.8612 42.4244C30.3149 42.3608 29.679 42.2177 29.0368 42.041C27.7494 41.6867 26.3668 41.1778 25.4845 40.8167L24.9641 40.6037L25.1653 40.0786C25.6793 38.7375 27.0817 35.1934 28.5887 31.7213C29.0925 30.5607 30.1521 29.0663 31.4262 27.5095C32.7108 25.94 34.2495 24.2641 35.7502 22.7322C37.2511 21.2002 38.721 19.805 39.8706 18.7972C40.4441 18.2945 40.9456 17.8813 41.3354 17.5945C41.5287 17.4523 41.7069 17.3319 41.8597 17.2466C41.9355 17.2043 42.0188 17.1628 42.1037 17.1324C42.1717 17.108 42.317 17.0615 42.4864 17.0868C42.6506 17.1113 42.7897 17.1847 42.8858 17.2448C42.9901 17.31 43.0931 17.3911 43.1911 17.4774C43.3874 17.6503 43.6026 17.8781 43.822 18.1339C44.2627 18.6477 44.7587 19.319 45.2111 20.0024C45.6627 20.6847 46.0829 21.3974 46.3654 21.9953C46.5054 22.2919 46.6215 22.5807 46.6865 22.8344C46.719 22.961 46.7439 23.0984 46.7458 23.2349ZM42.3638 18.284C42.2763 18.3371 42.1609 18.4152 42.017 18.521C41.6654 18.7797 41.1918 19.1686 40.6288 19.6622C39.5054 20.6471 38.0567 22.0215 36.5719 23.5371C35.087 25.0528 33.573 26.7026 32.3164 28.238C31.0494 29.786 30.0795 31.1757 29.6438 32.1793C28.3138 35.2437 27.0647 38.3669 26.4442 39.9605C27.2689 40.2796 28.3409 40.6565 29.342 40.9319C29.9587 41.1016 30.5311 41.2279 30.9943 41.2819C31.226 41.3089 31.4157 41.316 31.5619 41.306C31.6278 41.3015 31.6768 41.2941 31.7122 41.2866C33.9836 38.3473 37.3563 33.9758 40.2191 30.2499C41.6713 28.3601 42.9918 26.6369 43.9706 25.3512C44.4602 24.7082 44.8636 24.1756 45.1551 23.7865C45.3009 23.5919 45.4178 23.4344 45.503 23.3177C45.5377 23.2702 45.5665 23.2304 45.5894 23.1981C45.5859 23.1779 45.5805 23.1521 45.5723 23.1201C45.5334 22.9681 45.4518 22.7543 45.3253 22.4866C45.0747 21.956 44.6863 21.2935 44.2519 20.6373C43.8183 19.9822 43.3509 19.3514 42.9489 18.8828C42.7469 18.6473 42.5709 18.4639 42.431 18.3407C42.4063 18.319 42.3839 18.3002 42.3638 18.284ZM42.254 18.2077C42.254 18.2076 42.2549 18.208 42.2568 18.2089C42.255 18.2082 42.254 18.2077 42.254 18.2077ZM45.5957 23.251C45.5957 23.2535 45.5956 23.2546 45.5956 23.2546C45.5956 23.2545 45.5955 23.2533 45.5957 23.251ZM48.8232 27.4042L49.0325 27.5565C49.7305 28.0644 50.7914 28.8784 51.7095 29.6734C52.1676 30.0701 52.5998 30.4704 52.9356 30.8309C53.1033 31.0109 53.2547 31.1892 53.375 31.3585C53.4888 31.5187 53.6039 31.7105 53.6576 31.9137C53.6957 32.0579 53.6829 32.1939 53.6706 32.2776C53.6565 32.3726 53.6315 32.4705 53.6026 32.5646C53.5447 32.7536 53.4555 32.9777 53.3461 33.224C53.1262 33.7191 52.8007 34.3569 52.4068 35.0815C51.6173 36.5336 50.532 38.373 49.4096 40.1964C48.2869 42.0204 47.1227 43.8355 46.174 45.2397C45.7001 45.9411 45.2768 46.5447 44.9377 46.9973C44.7684 47.2231 44.616 47.4168 44.486 47.5683C44.3698 47.7038 44.2319 47.8536 44.0965 47.9448C43.8231 48.1292 43.4741 48.1677 43.1851 48.1684C42.8725 48.1691 42.5138 48.1238 42.1378 48.0493C41.3833 47.8997 40.4896 47.6182 39.6205 47.2657C38.7515 46.9133 37.8839 46.4805 37.1871 46.0188C36.8389 45.788 36.5216 45.5423 36.2658 45.287C36.0154 45.0371 35.7921 44.7467 35.6795 44.4217L35.5951 44.1781L35.7208 43.953C37.1568 41.3817 39.5065 37.4811 41.893 34.1317C43.0854 32.4581 44.2966 30.9086 45.4149 29.7286C45.974 29.1388 46.5193 28.6311 47.036 28.2446C47.5452 27.8637 48.0648 27.5711 48.5705 27.4598L48.8232 27.4042ZM48.5859 28.6555C48.3483 28.7489 48.0609 28.9143 47.725 29.1657C47.2786 29.4996 46.7827 29.9576 46.2498 30.5199C45.1841 31.6443 44.0083 33.1452 42.8298 34.7991C40.5568 37.9892 38.3098 41.6981 36.8772 44.2424C36.9262 44.3095 36.9918 44.3866 37.0783 44.4729C37.2633 44.6575 37.5147 44.856 37.8225 45.06C38.438 45.4678 39.2325 45.8672 40.0528 46.1998C40.8729 46.5324 41.6955 46.789 42.3614 46.921C42.6957 46.9872 42.9732 47.0186 43.1825 47.0181C43.3692 47.0177 43.444 46.9917 43.4557 46.9885C43.4561 46.9882 43.4564 46.9879 43.4568 46.9875C43.4707 46.9743 43.5204 46.9274 43.613 46.8194C43.7199 46.6948 43.8554 46.5234 44.0173 46.3074C44.3403 45.8764 44.7517 45.2902 45.2209 44.5958C46.1584 43.2081 47.3137 41.4072 48.4301 39.5934C49.547 37.779 50.6205 35.9589 51.3962 34.5321C51.7848 33.8172 52.0934 33.2107 52.2949 32.7571C52.3962 32.5289 52.4646 32.3525 52.503 32.2273C52.5115 32.1996 52.5178 32.1767 52.5224 32.1584C52.5039 32.1241 52.4763 32.0796 52.4373 32.0247C52.3568 31.9114 52.242 31.7738 52.094 31.6149C51.7983 31.2974 51.4007 30.9275 50.9565 30.5429C50.1649 29.8574 49.2559 29.1513 48.5859 28.6555ZM52.5336 32.1011C52.5337 32.1012 52.5336 32.1031 52.533 32.1071C52.5332 32.1031 52.5335 32.1011 52.5336 32.1011ZM56.3042 36.5988C56.3041 36.5986 56.3068 36.5994 56.3127 36.6016C56.3073 36.6001 56.3043 36.599 56.3042 36.5988ZM56.4904 36.6979C56.6466 36.7949 56.8532 36.9441 57.1 37.1381C57.5948 37.5271 58.2073 38.0619 58.8151 38.6214C59.4216 39.1798 60.0153 39.7553 60.4713 40.2224C60.6998 40.4563 60.8899 40.6593 61.0285 40.8172C61.0796 40.8753 61.1216 40.9251 61.1549 40.9663C61.1199 41.0608 61.0575 41.1926 60.9638 41.3616C60.7589 41.7312 60.4491 42.1987 60.1015 42.6915C59.7562 43.1811 59.3838 43.6813 59.059 44.1143C59.0031 44.1888 58.9484 44.2617 58.8952 44.3324C58.6443 44.6663 58.4293 44.9525 58.3037 45.1325C57.8405 45.7968 54.2464 50.9713 52.5078 53.4748L52.4523 53.5547L52.4355 53.615C52.4144 53.6339 52.3514 53.6766 52.1976 53.7048C51.9054 53.7585 51.3469 53.7367 50.4021 53.3889C49.2394 52.9608 48.3579 52.3099 47.8596 51.5906C47.383 50.9024 47.2539 50.1561 47.5386 49.4092C48.9915 47.2349 51.1821 44.0015 53.0768 41.3002C54.0322 39.9381 54.9089 38.7162 55.5767 37.8346C55.9116 37.3926 56.1879 37.0442 56.3923 36.8085C56.4284 36.7668 56.461 36.7301 56.4904 36.6979ZM52.4444 53.6054C52.4445 53.6054 52.4439 53.6064 52.4423 53.6082C52.4436 53.6062 52.4444 53.6053 52.4444 53.6054ZM62.0986 40.3054C62.1488 40.3705 62.2136 40.4594 62.2578 40.5517C62.3372 40.7176 62.3377 40.8808 62.3273 40.9881C62.3163 41.1017 62.287 41.2109 62.2546 41.3064C62.1899 41.4977 62.0866 41.7086 61.9698 41.9193C61.7338 42.3449 61.3949 42.8534 61.0415 43.3545C60.6858 43.8588 60.3048 44.3704 59.9791 44.8045C59.9202 44.8831 59.8633 44.9588 59.809 45.0311C59.5582 45.365 59.3599 45.6289 59.2472 45.7904C58.7887 46.448 55.2511 51.5411 53.4962 54.0681C53.3358 54.4597 52.9326 54.7393 52.4053 54.8362C51.8306 54.9417 51.0491 54.8528 50.0047 54.4683C48.6809 53.9809 47.5798 53.2067 46.9141 52.2455C46.2377 51.269 46.0162 50.0977 46.4935 48.9242L46.5155 48.87L46.548 48.8214C48.0033 46.6428 50.2187 43.3719 52.1351 40.6397C53.0927 39.2744 53.9791 38.0387 54.6599 37.1401C54.9993 36.692 55.2937 36.3197 55.5232 36.055C55.6367 35.924 55.7441 35.8081 55.8392 35.7201C55.8859 35.6768 55.9417 35.629 56.0026 35.5881C56.0427 35.5611 56.1709 35.4756 56.3467 35.4632C56.529 35.4504 56.6892 35.5115 56.7752 35.5482C56.8797 35.5929 56.9875 35.6529 57.0918 35.7174C57.3018 35.8473 57.5484 36.0275 57.811 36.2339C58.3389 36.649 58.9759 37.2061 59.5941 37.7751C60.2134 38.3453 60.8221 38.9351 61.2944 39.4189C61.5301 39.6603 61.7357 39.8792 61.8928 40.0582C61.9712 40.1475 62.0414 40.2311 62.0986 40.3054ZM64.904 47.0171C64.8929 47.0265 64.877 47.0405 64.8561 47.0603C64.7922 47.1208 64.7076 47.2099 64.6019 47.3301C64.3913 47.5697 64.1215 47.9052 63.8038 48.3197C63.1698 49.1471 62.3667 50.2616 61.5049 51.4901C59.8748 53.8141 58.0477 56.5276 56.786 58.4331C57.3332 59.2326 58.4722 60.6804 59.8612 61.8133C60.2208 62.1066 60.5849 62.1558 60.9793 62.0575C61.4043 61.9514 61.8659 61.6693 62.3241 61.2806C63.1876 60.5481 63.8811 59.577 64.1099 59.2566C64.1231 59.2381 64.1347 59.2218 64.1448 59.2079C64.3075 58.9815 65.7434 56.7689 67.0989 54.4844C67.7753 53.3444 68.4232 52.2007 68.8781 51.2882C69.1064 50.8302 69.2788 50.4449 69.3823 50.1545C69.4344 50.0084 69.4632 49.9024 69.4756 49.8325C69.4759 49.8309 69.4762 49.8294 69.4764 49.8279C69.4712 49.8196 69.4652 49.8105 69.4582 49.8004C69.4262 49.754 69.3803 49.6962 69.3185 49.6275C69.1943 49.4895 69.0234 49.3269 68.813 49.1485C68.3928 48.7922 67.846 48.3987 67.2759 48.0449C66.704 47.6899 66.128 47.3868 65.6501 47.2013C65.4102 47.1081 65.2129 47.0517 65.0638 47.0283C64.9779 47.0148 64.9277 47.0155 64.904 47.0171ZM69.4819 49.7807C69.482 49.7808 69.482 49.7821 69.4818 49.7848C69.4818 49.782 69.4819 49.7806 69.4819 49.7807ZM70.1736 48.8582C70.3332 49.0356 70.4949 49.2464 70.5784 49.4684C70.6576 49.6791 70.6323 49.897 70.6082 50.0333C70.5801 50.1916 70.5286 50.3646 70.4657 50.5408C70.3394 50.8952 70.1434 51.328 69.9075 51.8014C69.4337 52.7517 68.769 53.9238 68.0881 55.0713C66.7293 57.3615 65.2723 59.6099 65.0788 59.8792C65.069 59.8929 65.0571 59.9095 65.0432 59.929C64.8146 60.2499 64.0468 61.3276 63.0681 62.1578C62.5506 62.5967 61.9297 63.0058 61.2577 63.1735C60.5551 63.3488 59.8078 63.2541 59.1342 62.7047C57.4193 61.306 56.0774 59.4876 55.6092 58.7359L55.4142 58.4228L55.6174 58.115C56.8838 56.197 58.8325 53.2969 60.5633 50.8296C61.4281 49.5967 62.2421 48.4667 62.8908 47.6201C63.2145 47.1977 63.5024 46.8388 63.7379 46.5708C63.8552 46.4373 63.9657 46.3193 64.0654 46.2249C64.1513 46.1436 64.2755 46.0342 64.4162 45.9693C64.6916 45.8421 64.9976 45.8536 65.2422 45.892C65.5023 45.9328 65.784 46.0194 66.0663 46.129C66.633 46.349 67.2749 46.6905 67.8825 47.0676C68.4919 47.4459 69.0862 47.8721 69.5569 48.2712C69.7918 48.4704 70.0038 48.6695 70.1736 48.8582Z" fill="black"/>
<path d="M65.5229 49.6696C64.7482 49.5469 60.0309 56.4266 57.7691 59.8818L56.5749 58.3847C58.7343 54.547 63.3923 46.8932 64.7495 46.9792C66.1068 47.0652 68.5605 48.8933 69.6178 49.7966L68.6874 51.9474C67.9554 51.2393 66.2977 49.7923 65.5229 49.6696Z" fill="#444D56"/>
<path d="M73.4288 53.8489C71.8898 53.6944 66.5383 61.7294 64.0549 65.7662C63.8085 66.1647 67.255 70.5739 68.3954 70.585C69.5357 70.5961 78.0358 60.2537 78.1996 59.2758C78.3635 58.298 75.3525 54.0421 73.4288 53.8489Z" fill="#94989D"/>
<path fill-rule="evenodd" clip-rule="evenodd" d="M73.3841 54.4225C73.3759 54.4241 73.3543 54.4291 73.317 54.4445C73.2463 54.4737 73.1478 54.5284 73.0202 54.6193C72.7646 54.8016 72.4484 55.0889 72.0808 55.4747C71.3487 56.2434 70.4746 57.3368 69.5591 58.5773C67.7877 60.9774 65.902 63.8723 64.6617 65.8784C64.7197 65.9982 64.8161 66.1649 64.9508 66.3714C65.2413 66.8168 65.6696 67.3865 66.145 67.9499C66.621 68.5141 67.1307 69.0555 67.5812 69.4512C67.8073 69.6497 68.006 69.8004 68.1688 69.8986C68.2623 69.955 68.3257 69.9828 68.3629 69.9966C68.3721 69.9915 68.3828 69.9853 68.3948 69.9781C68.4849 69.9237 68.6099 69.8329 68.7704 69.6997C69.0895 69.4349 69.4996 69.0445 69.9741 68.5584C70.9205 67.5888 72.0852 66.278 73.2248 64.9299C74.3637 63.5828 75.4705 62.2069 76.3007 61.1099C76.7164 60.5606 77.0585 60.0869 77.2995 59.7244C77.4205 59.5425 77.5112 59.3959 77.572 59.2859C77.6046 59.227 77.6218 59.1903 77.6301 59.1719C77.627 59.1449 77.6169 59.0759 77.5755 58.9523C77.5188 58.7828 77.4226 58.5666 77.2873 58.3142C77.0175 57.811 76.6171 57.2108 76.1491 56.6284C75.6805 56.0454 75.158 55.4975 74.6493 55.0894C74.1309 54.6735 73.6949 54.4582 73.3841 54.4225ZM78.6663 58.5872C78.7435 58.818 78.8119 59.1037 78.7672 59.3708C78.7387 59.5405 78.6481 59.7168 78.5788 59.8422C78.4965 59.9911 78.3866 60.1669 78.2573 60.3614C77.9977 60.7517 77.6399 61.2463 77.2179 61.804C76.3726 62.9209 75.2524 64.3132 74.1032 65.6725C72.9548 67.0309 71.7705 68.3647 70.7972 69.3618C70.312 69.8589 69.8696 70.2823 69.5049 70.5849C69.3236 70.7353 69.1488 70.8665 68.989 70.9629C68.8571 71.0425 68.6358 71.1624 68.3901 71.16C68.0888 71.1571 67.8004 71.0197 67.5746 70.8835C67.3315 70.7368 67.0759 70.5382 66.8223 70.3155C66.3136 69.8688 65.7632 69.281 65.2659 68.6917C64.7679 68.1015 64.3095 67.4936 63.9874 66.9998C63.828 66.7554 63.6916 66.5233 63.6016 66.3271C63.5575 66.2312 63.5139 66.1213 63.4893 66.01C63.473 65.9361 63.4234 65.6955 63.5654 65.4648M78.6663 58.5872C78.5822 58.336 78.455 58.0578 78.301 57.7707L78.6663 58.5872ZM78.301 57.7707C77.9922 57.1949 77.5503 56.5357 77.0456 55.9078L78.301 57.7707ZM77.0456 55.9078C76.5415 55.2805 75.9608 54.667 75.369 54.1922L77.0456 55.9078ZM75.369 54.1922C74.794 53.7309 74.1369 53.342 73.4866 53.2767L75.369 54.1922ZM73.4866 53.2767C73.2627 53.2542 73.0525 53.3093 72.878 53.3813L73.4866 53.2767ZM72.878 53.3813C72.7 53.4548 72.5234 53.5609 72.3525 53.6827L72.878 53.3813ZM72.3525 53.6827C72.0112 53.926 71.6374 54.2726 71.248 54.6814L72.3525 53.6827ZM71.248 54.6814C70.4663 55.502 69.5588 56.6406 68.6336 57.8942L71.248 54.6814ZM68.6336 57.8942C66.7803 60.4054 64.8125 63.4376 63.5657 65.4642L68.6336 57.8942Z" fill="black"/>
<path d="M67.6148 89.4885C67.5751 87.9596 67.6363 86.5609 67.7585 85.3899L67.6148 89.4885C67.8037 96.7708 70.2792 107.01 79.3238 109.692C78.6212 111.379 76.3215 115.008 72.7438 116.031C69.1662 117.053 67.3847 111.565 66.9412 108.693L67.6148 89.4885Z" fill="#A5A3A2"/>
<path fill-rule="evenodd" clip-rule="evenodd" d="M16.422 40.8825C23.3004 24.7044 36.4636 15.4522 42.2905 12.8083L43.2411 14.9032C37.8317 17.3576 25.1498 26.234 18.539 41.7827L16.422 40.8825Z" fill="black"/>
<path d="M79.6419 103.703C78.3709 109.17 75.2865 113.125 72.7527 112.536C70.2189 111.947 69.1952 107.037 70.4662 101.57C71.7372 96.1022 74.8216 92.1475 77.3554 92.7365C79.8893 93.3256 80.913 98.2353 79.6419 103.703Z" fill="#AAACAE"/>
<path fill-rule="evenodd" clip-rule="evenodd" d="M75.3104 109.329C76.3709 107.97 77.3695 105.858 77.9614 103.312C78.5533 100.766 78.5884 98.4304 78.2365 96.7424C77.8521 94.8988 77.1847 94.4682 76.9648 94.4171C76.7448 94.366 75.9559 94.458 74.7978 95.943C73.7373 97.3027 72.7387 99.414 72.1467 101.96C71.5548 104.506 71.5197 106.842 71.8717 108.53C72.2561 110.373 72.9234 110.804 73.1434 110.855C73.3633 110.906 74.1522 110.814 75.3104 109.329ZM72.7527 112.536C75.2865 113.125 78.3709 109.17 79.6419 103.703C80.913 98.2353 79.8893 93.3256 77.3554 92.7365C74.8216 92.1475 71.7372 96.1022 70.4662 101.57C69.1952 107.037 70.2189 111.947 72.7527 112.536Z" fill="black"/>
<path d="M77.1745 103.129C76.4731 106.146 74.9551 108.371 73.7839 108.099C72.6127 107.827 72.2318 105.16 72.9332 102.143C73.6345 99.126 75.1526 96.9009 76.3238 97.1732C77.495 97.4455 77.8759 100.112 77.1745 103.129Z" fill="#939393"/>
<path fill-rule="evenodd" clip-rule="evenodd" d="M74.34 105.707C74.7704 105.019 75.2038 103.987 75.494 102.738C75.7842 101.49 75.8505 100.373 75.7677 99.5652C75.3373 100.253 74.9039 101.285 74.6137 102.534C74.3235 103.782 74.2572 104.899 74.34 105.707ZM73.7839 108.099C74.9551 108.371 76.4731 106.146 77.1745 103.129C77.8759 100.112 77.495 97.4455 76.3238 97.1732C75.1526 96.9009 73.6345 99.126 72.9332 102.143C72.2318 105.16 72.6127 107.827 73.7839 108.099Z" fill="black"/>
<path d="M73.5613 57.7797C72.6467 57.6159 67.6153 64.1338 65.2139 67.4132C65.1255 67.3926 64.6852 66.4555 64.4761 65.9896C65.9279 62.7779 70.3778 56.8364 73.307 54.239C75.0163 54.6364 77.7223 58.5333 77.7884 59.0373C77.8412 59.4405 77.0968 60.2609 76.7179 60.6207C76.0468 59.7419 74.4758 57.9435 73.5613 57.7797Z" fill="#444D56"/>
<path d="M56.1763 40.0099C55.4445 39.8398 50.1827 47.5995 47.6433 51.5007C47.0051 50.6514 47.3164 49.6645 47.317 49.3314C47.3174 49.0649 53.4021 40.7371 56.4444 36.6065C57.0302 36.7427 61.2604 40.735 61.2806 40.8665C61.2967 40.9718 60.5566 42.1616 60.1845 42.7433C59.1533 41.903 56.9081 40.18 56.1763 40.0099Z" fill="#444D56"/>
<path d="M48.1689 32.0588C46.5853 31.8053 41.0915 40.9374 38.5426 45.5351C38.1445 45.4425 37.0721 44.808 36.5857 44.5023C42.0219 34.8794 48.0874 28.5063 48.572 28.4757C49.0566 28.4451 52.1545 31.5428 52.5769 32.0021C52.9568 32.4153 52.0829 33.8225 51.5379 34.5235C51.0441 33.772 49.7524 32.3123 48.1689 32.0588Z" fill="#444D56"/>
<path d="M40.9167 22.5374C41.2459 22.4015 43.0774 24.4385 43.952 25.4741L45.6537 23.3247C45.5509 21.8867 43.3075 19.3618 42.1987 18.2792C39.6057 19.8939 31.7847 28.8538 30.8005 30.1397C30.0133 31.1683 27.5657 37.1772 26.4403 40.053C26.7828 40.5654 28.0428 40.6059 28.6301 40.5621C30.1454 36.3705 40.5052 22.7074 40.9167 22.5374Z" fill="#444D56"/>
<path d="M4.89128 30.9966C5.23264 30.4593 8.00533 29.5193 9.349 29.1164L10.4267 26.7213C7.55063 27.3359 4.95437 29.053 4.01575 29.8348L1.45019 37.1962L3.19553 36.7686C3.61855 35.0685 4.54992 31.5339 4.89128 30.9966Z" fill="#444D56"/>
<path d="M84.5577 73.8224C84.5996 82.9948 81.3514 100.975 79.4946 109.797C81.2874 104.833 82.2567 104.018 84.998 86.1236C87.7407 68.2203 86.0281 62.0477 84.362 56.0636C78.1917 52.765 60.717 34.8599 52.7509 26.3196L42.7125 14.965L39.6571 16.6863C40.5736 16.3332 41.7199 16.2451 42.1785 16.2451C46.617 25.1922 71.2672 46.5931 83.0375 56.1753C83.5267 58.2358 84.5157 64.6499 84.5577 73.8224Z" fill="white"/>
<path d="M-0.598416 31.1257C7.04001 26.6119 25.6527 20.8094 34.0042 18.4723L36.8857 16.2007C30.643 18.208 16.9317 22.6648 12.0278 24.4343C7.124 26.2037 1.56707 29.6325 -0.598416 31.1257Z" fill="white"/>
<path d="M73.8412 29.3131C64.962 22.0552 52.0518 17.7556 46.7066 16.513L45.4758 14.7775C57.2898 16.4472 74.4918 22.9723 87.7954 42.0099C98.4382 57.24 95.6548 75.569 92.9328 82.8298C98.9389 57.7736 84.9402 38.3856 73.8412 29.3131Z" fill="white"/>
<path d="M87.9555 52.4096C80.8924 47.7092 62.9226 28.3158 54.8206 19.2066C54.6179 18.9789 49.2913 17.3599 46.6533 16.5789C48.3532 18.2873 54.1751 24.3517 63.8634 34.9414C73.5518 45.531 82.9595 52.4367 86.4523 54.5658C87.0587 58.1435 88.3618 66.1682 88.7234 69.6451C89.0851 73.1221 86.8699 89.0612 85.7171 96.5962L88.399 92.7228C94.0366 77.5153 90.4523 59.5109 87.9555 52.4096Z" fill="#7F7F81"/>
</svg>
