<svg width="1440" height="176" viewBox="0 0 1440 176" fill="none" xmlns="http://www.w3.org/2000/svg">
<g filter="url(#filter0_ii_1_4)">
<path fill-rule="evenodd" clip-rule="evenodd" d="M-228.494 130.508C-249.371 135.427 -255.302 161.676 -242.802 174.491C-204.576 171.867 -166.317 169.251 -128.024 166.642L-116.271 160.987L-96.3096 164.478C89.3932 151.813 275.957 139.233 463.381 126.738L482.847 122.855L498.927 124.351C766.908 106.544 1034.42 89.0439 1300.08 72.028L1494.01 53.0664C1502.5 51.6378 1507.93 16.4613 1504.73 2.6986C1418.66 8.59902 1332.65 14.4523 1246.7 20.2584L1221.19 23.8262L1198.85 24.468L1181.18 25.7832L1166.58 25.6776C888.69 44.35 612.247 62.486 337.249 80.0857L321.141 82.5715L294.873 83.5883L272.815 87.0578L259.561 85.0493C145.434 92.3182 31.5317 99.4977 -82.1468 106.588L-228.494 130.508Z" fill="url(#paint0_linear_1_4)"/>
<path fill-rule="evenodd" clip-rule="evenodd" d="M1300.08 72.0283C1315.9 69.5622 1371.71 59.0597 1385.54 57.8606C1396.42 56.9235 1473.18 54.2424 1493.72 53.0866L1300.08 72.0283Z" fill="url(#paint1_radial_1_4)" style="mix-blend-mode:multiply"/>
<path fill-rule="evenodd" clip-rule="evenodd" d="M1300.08 72.0283C1325.65 67.9025 1350.62 63.7992 1380.12 59.508C1417.58 57.4829 1455.59 55.3328 1494.01 53.0668C1493.66 53.6916 1314.32 71.0722 1300.08 72.0283Z" fill="url(#paint2_linear_1_4)"/>
<path opacity="0.5" fill-rule="evenodd" clip-rule="evenodd" d="M-43.631 114.646C-12.2055 111.123 23.7513 107.51 55.3718 105.421C151.315 99.1114 97.3508 97.4837 231.894 90.2006C309.829 85.9805 322.037 82.6959 382.643 78.9437C425.961 76.2624 437.07 77.1824 511.032 72.5506C587.155 67.7822 693.982 60.4968 729.258 57.0372C810.299 49.1303 945.364 43.7445 1023.86 37.6314C1084.55 32.9319 1146.54 28.4139 1208.89 24.1459L1221.19 23.8261L1227.64 22.9207C1240.56 22.0496 1253.42 21.2702 1265.76 20.6101C1332.41 17.3064 1285.53 21.2406 1373.01 16.757C1430.12 13.8236 1439.65 16.2237 1429.85 19.9955C1414.18 26.0547 1342.72 34.2326 1342.91 38.4797C1343.16 42.2202 1413.77 39.1058 1423.46 42.3799C1429.11 44.3019 1414.64 47.6142 1430.8 48.9204C1467.4 51.9077 1308.83 59.7865 1281.78 68.1818C1262.45 74.2028 1044.2 84.9343 984.299 88.8755C821.676 99.5728 819.566 101.93 620.096 114.728C580.81 117.246 559.716 117.448 489.882 123.327L484.025 122.771L474.285 124.615C367.742 133.191 238.376 136.785 56.7704 151.218C-2.8811 155.971 -59.6106 160.171 -104.797 162.935L-116.271 160.996L-122.384 163.961C-181.344 167.26 -216.341 167.544 -209.562 162.735C-196.382 153.365 -177.694 149.649 -142.103 139.118C-129.433 135.381 -117.383 131.214 -111.963 128.205C-101.985 122.558 -98.1609 120.755 -43.8265 114.672L-43.631 114.646Z" fill="url(#paint3_radial_1_4)" style="mix-blend-mode:screen"/>
<path opacity="0.5" fill-rule="evenodd" clip-rule="evenodd" d="M-43.8415 123.266C-42.3522 117.536 35.1354 108.124 164.927 99.1207C256.234 92.7916 291.194 86.0941 456.428 80.4902C542.932 77.5582 701.65 60.1323 804.506 55.398C887.79 51.5228 945.008 44.3139 1016.08 40.6493C1096.09 36.5258 1172.98 26.9784 1265.23 24.5659C1349.32 22.3801 1393.2 20.7302 1351.1 29.7068C1342.54 31.5182 1306.61 38.457 1332.15 41.2851C1336.42 41.7496 1342.7 42.7791 1350.55 43.609C1410.16 50.0104 1306.5 51.5738 1295.92 60.005C1293.11 62.1906 1252.65 64.809 1248.73 66.6995C1236.51 72.6732 1099.85 80.8281 1005.45 85.1064C942.612 87.952 860.935 93.7289 793.283 99.7835C613.662 115.878 506.179 119.257 411.584 122.144C351.834 123.966 183.588 137.579 131.598 141.865C9.27684 151.951 -5.13455 150.325 -99.3396 154.616C-159.422 157.363 -151.395 150.571 -111.192 145.57C-31.3691 135.675 -44.4132 125.034 -43.8415 123.266Z" fill="url(#paint4_radial_1_4)" style="mix-blend-mode:screen"/>
<path fill-rule="evenodd" clip-rule="evenodd" d="M1392.37 59.6693C1355.69 62.8023 1328.11 67.7548 1316.64 70.4095L1315.38 70.7089C1310.72 71.1582 1305.54 71.6048 1300.08 72.0283L1302.23 71.6866C1327.02 67.6777 1351.01 63.713 1380.32 59.4948C1417.77 57.4697 1455.79 55.3196 1494.21 53.0536C1493.9 53.1351 1493.23 53.2367 1492.25 53.3479L1490.09 53.4545C1464.43 54.7481 1417.57 57.5215 1392.56 59.6561L1392.37 59.6693Z" fill="url(#paint5_radial_1_4)" style="mix-blend-mode:screen"/>
<path opacity="0.4" fill-rule="evenodd" clip-rule="evenodd" d="M1494.87 11.5714C1493.3 5.8069 1421.9 8.88423 1338.9 14.0287C1394.08 10.283 1449.29 6.51651 1504.54 2.72935C1506.91 13.193 1504.4 36.0385 1499.32 47.0161C1490.71 39.2424 1470 37.7735 1441.14 32.4933C1421.17 28.9089 1437.22 26.9555 1470.39 20.0432C1487.1 16.7268 1495.31 13.8737 1494.68 11.6017L1494.87 11.5714Z" fill="url(#paint6_radial_1_4)" style="mix-blend-mode:multiply"/>
<path fill-rule="evenodd" clip-rule="evenodd" d="M-228.398 130.498L-82.0512 106.573C-61.0147 105.508 13.1398 103.744 14.1627 104.29C15.1857 104.835 -199.233 127.096 -228.398 130.498Z" fill="url(#paint7_radial_1_4)" style="mix-blend-mode:multiply"/>
</g>
<defs>
<filter id="filter0_ii_1_4" x="-249.352" y="2.69858" width="1755.01" height="171.793" filterUnits="userSpaceOnUse" color-interpolation-filters="sRGB">
<feFlood flood-opacity="0" result="BackgroundImageFix"/>
<feBlend mode="normal" in="SourceGraphic" in2="BackgroundImageFix" result="shape"/>
<feColorMatrix in="SourceAlpha" type="matrix" values="0 0 0 0 0 0 0 0 0 0 0 0 0 0 0 0 0 0 127 0" result="hardAlpha"/>
<feOffset dy="-4"/>
<feComposite in2="hardAlpha" operator="arithmetic" k2="-1" k3="1"/>
<feColorMatrix type="matrix" values="0 0 0 0 1 0 0 0 0 0.931905 0 0 0 0 0.376667 0 0 0 1 0"/>
<feBlend mode="normal" in2="shape" result="effect1_innerShadow_1_4"/>
<feColorMatrix in="SourceAlpha" type="matrix" values="0 0 0 0 0 0 0 0 0 0 0 0 0 0 0 0 0 0 127 0" result="hardAlpha"/>
<feOffset dy="4"/>
<feComposite in2="hardAlpha" operator="arithmetic" k2="-1" k3="1"/>
<feColorMatrix type="matrix" values="0 0 0 0 0 0 0 0 0 0 0 0 0 0 0 0 0 0 0.25 0"/>
<feBlend mode="normal" in2="effect1_innerShadow_1_4" result="effect2_innerShadow_1_4"/>
</filter>
<linearGradient id="paint0_linear_1_4" x1="1506.9" y1="29.0091" x2="-250.073" y2="146.995" gradientUnits="userSpaceOnUse">
<stop stop-color="#EDD6B9"/>
<stop offset="1" stop-color="#D4B492"/>
</linearGradient>
<radialGradient id="paint1_radial_1_4" cx="0" cy="0" r="1" gradientUnits="userSpaceOnUse" gradientTransform="translate(1472.69 57.0386) rotate(-93.8418) scale(9.77023 215.71)">
<stop stop-color="#A48A7B"/>
<stop offset="1" stop-color="white"/>
</radialGradient>
<linearGradient id="paint2_linear_1_4" x1="1340.21" y1="62.9484" x2="1340.7" y2="67.9181" gradientUnits="userSpaceOnUse">
<stop stop-color="#EDD6B9"/>
<stop offset="1" stop-color="#BF9F7E"/>
</linearGradient>
<radialGradient id="paint3_radial_1_4" cx="0" cy="0" r="1" gradientUnits="userSpaceOnUse" gradientTransform="translate(614.379 89.4177) rotate(-93.8418) scale(59.1774 1306.54)">
<stop stop-color="#CA9E67"/>
<stop offset="1"/>
</radialGradient>
<radialGradient id="paint4_radial_1_4" cx="0" cy="0" r="1" gradientUnits="userSpaceOnUse" gradientTransform="translate(615.495 90.033) rotate(-93.8418) scale(50.4663 1114.21)">
<stop stop-color="#CA9E67"/>
<stop offset="1"/>
</radialGradient>
<radialGradient id="paint5_radial_1_4" cx="0" cy="0" r="1" gradientUnits="userSpaceOnUse" gradientTransform="translate(1411.4 63.313) rotate(-93.8418) scale(8.79056 194.081)">
<stop/>
<stop offset="1" stop-color="#A3805F"/>
</radialGradient>
<radialGradient id="paint6_radial_1_4" cx="0" cy="0" r="1" gradientUnits="userSpaceOnUse" gradientTransform="translate(1039.52 51.2665) rotate(-93.8418) scale(51.9799 1147.63)">
<stop stop-color="white"/>
<stop offset="1" stop-color="#A48A7B"/>
</radialGradient>
<radialGradient id="paint7_radial_1_4" cx="0" cy="0" r="1" gradientUnits="userSpaceOnUse" gradientTransform="translate(-195.008 117.517) rotate(-93.8418) scale(18.1548 400.827)">
<stop stop-color="#A48A7B"/>
<stop offset="1" stop-color="white"/>
</radialGradient>
</defs>
</svg>
