<svg width="25" height="25" viewBox="0 0 25 25" fill="none" xmlns="http://www.w3.org/2000/svg">
<circle cx="12.3486" cy="12.3486" r="12.3486" fill="#200C15"/>
<path d="M6.09453 9.49642C6.38935 8.46163 7.65885 6.75972 10.3782 8.23039C11.2908 7.6687 13.4108 6.82844 14.5904 7.96086C15.7819 9.10477 16.4856 10.8264 16.7118 11.7044C16.6976 11.426 16.7719 11.2087 17.0815 11.3897C17.6839 11.7418 22.3447 18.3448 14.5904 19.3883C6.93768 20.4182 5.33269 18.4613 4.50323 15.485C4.43811 15.2162 4.5047 14.5408 5.29206 13.9897C5.04783 13.709 4.49157 13.117 4.22037 12.9945C3.94917 12.872 3.90324 12.3967 3.91417 12.1744C3.78544 12.0691 3.58992 11.763 3.83767 11.3811C4.14737 10.9036 4.88022 9.77963 6.09453 9.49642Z" fill="#62D732"/>
<path d="M4.67806 15.8595C4.88074 14.6787 5.29847 14.2873 5.81312 14.1886L5.44742 14.0314C4.70722 14.3045 4.53686 15.1806 4.5442 15.5845L4.67806 15.8595Z" fill="#FFE598"/>
<path d="M7.99544 9.60859C5.84367 9.7591 5.3825 10.1518 5.08648 10.4186H4.73224C5.30801 9.8623 6.07896 9.6964 6.26437 9.60858C6.41271 9.53832 7.88484 9.55004 7.99544 9.60859Z" fill="#FFE598"/>
<path d="M8.38538 9.37784C8.38538 8.73345 8.98608 8.13548 9.28643 7.91704C9.45125 7.78013 10.1228 8.10053 10.438 8.27784C9.96345 8.63177 9.77107 9.39728 9.7342 9.73579C9.30788 9.96907 8.89965 10.577 8.74883 10.8519L8.02488 10.5301C7.62268 10.1762 8.09763 9.61447 8.38538 9.37784Z" fill="#226D29"/>
<path fill-rule="evenodd" clip-rule="evenodd" d="M13.5649 11.4215C11.0968 9.76903 9.40028 10.446 8.8833 10.9398L8.8169 11.0032L8.7354 10.9609C6.84868 9.98195 5.09031 10.5041 4.45937 10.8776C4.39831 10.9138 4.31952 10.8936 4.28338 10.8325C4.24724 10.7715 4.26743 10.6927 4.32849 10.6565C5.01078 10.2526 6.82402 9.71976 8.77439 10.6925C9.45437 10.118 11.2486 9.56147 13.7079 11.208C13.7668 11.2475 13.7826 11.3273 13.7432 11.3862C13.7037 11.4452 13.6239 11.461 13.5649 11.4215Z" fill="black"/>
<path d="M11.5592 11.3334C10.2495 10.967 8.93746 11.4861 8.44516 11.7914C8.36273 11.9929 8.5482 12.3638 8.65124 12.5241C10.1808 13.7239 12.6163 12.7721 13.6429 12.1463C13.0132 12.1806 13.1964 11.7914 11.5592 11.3334Z" fill="white"/>
<path fill-rule="evenodd" clip-rule="evenodd" d="M8.53541 11.8617C8.53074 11.8866 8.52982 11.918 8.53416 11.9564C8.54036 12.0114 8.55645 12.0733 8.57923 12.1375C8.62191 12.2578 8.68421 12.3753 8.73142 12.4512C9.46003 13.0139 10.4083 13.0772 11.3165 12.9146C12.0735 12.7791 12.7894 12.4887 13.2994 12.2181C13.2798 12.2121 13.2607 12.2052 13.2418 12.1977C13.1491 12.1605 13.0638 12.106 12.9704 12.0463C12.9543 12.036 12.938 12.0256 12.9214 12.015C12.692 11.87 12.338 11.6626 11.5301 11.4366C10.2888 11.0894 9.0378 11.5634 8.53541 11.8617ZM8.38844 11.7005C8.89527 11.3862 10.2387 10.8531 11.5878 11.2304C12.417 11.4624 12.79 11.6787 13.0358 11.8341C13.0544 11.8458 13.0718 11.857 13.0884 11.8676C13.183 11.9278 13.2489 11.9699 13.3214 11.9989C13.4009 12.0307 13.4914 12.0474 13.6368 12.0395L13.6983 12.2378C13.1761 12.5562 12.2981 12.9563 11.3543 13.1253C10.4117 13.294 9.38393 13.2352 8.58487 12.6084L8.57066 12.5973L8.56089 12.5821C8.50592 12.4966 8.42972 12.3564 8.37746 12.2091C8.3513 12.1353 8.33004 12.0568 8.32143 11.9804C8.31292 11.9051 8.31585 11.8241 8.34579 11.751L8.35893 11.7188L8.38844 11.7005Z" fill="black"/>
<path d="M8.43855 11.7381C5.95148 10.5865 4.35392 11.4841 3.86603 12.0768C4.78537 13.48 7.50712 13.0163 8.75307 12.609C8.50146 12.4639 8.43856 11.9679 8.43855 11.7381Z" fill="white"/>
<path fill-rule="evenodd" clip-rule="evenodd" d="M4.00143 12.0842C4.44375 12.6881 5.27761 12.9064 6.18792 12.9146C7.04093 12.9223 7.93011 12.7447 8.54673 12.561C8.47525 12.4641 8.42882 12.3446 8.39817 12.2336C8.35662 12.0831 8.33814 11.9263 8.33298 11.8073C6.00772 10.7559 4.50967 11.5367 4.00143 12.0842ZM3.78327 12.0085C4.30511 11.3746 5.95655 10.4707 8.48342 11.6407L8.54548 11.6695L8.54548 11.7379C8.54548 11.8453 8.56042 12.0169 8.60453 12.1766C8.65032 12.3425 8.71946 12.4659 8.80645 12.5161L9.0143 12.636L8.78621 12.7106C8.15541 12.9168 7.15167 13.1374 6.18599 13.1287C5.22668 13.12 4.26702 12.8841 3.77638 12.1352L3.73322 12.0694L3.78327 12.0085Z" fill="black"/>
<path d="M15.8458 12.2597C14.5894 11.1026 15.8458 10.637 14.4281 7.91174C15.442 8.08006 16.1927 10.1599 16.5694 11.249C17.411 11.5452 18.0348 12.4504 18.2415 12.866C19.6603 15.8271 18.6002 17.1276 18.2415 17.7552C17.8828 18.3829 16.1792 19.0105 13.7806 19.4589C11.3821 19.9072 8.86359 19.4854 8.12302 19.3083C7.53057 19.1666 6.87802 18.6375 6.62579 18.3906C8.23554 18.9532 12.1378 19.7662 14.8686 18.5178C18.2822 16.9573 17.4162 13.7062 15.8458 12.2597Z" fill="#226D29"/>
<path d="M9.45626 7.88371C7.12112 7.8032 6.58651 8.84786 6.39543 9.5212L6.10118 9.62834C5.81599 9.19218 7.05737 7.76628 6.93995 8.10178C8.02699 7.48445 9.07042 7.69918 9.45626 7.88371Z" fill="#FFE598"/>
<path fill-rule="evenodd" clip-rule="evenodd" d="M14.7073 10.223C12.5425 8.68665 10.6095 9.33311 9.92865 9.82851L9.87557 9.86713L9.81318 9.84675C9.42228 9.71907 8.77021 9.63942 8.08257 9.61712C7.39682 9.59488 6.69255 9.63017 6.20109 9.72469C4.99632 9.95637 4.33129 10.8704 3.95017 11.4594C3.81639 11.6661 3.82144 11.82 3.85842 11.9264C3.89805 12.0405 3.98188 12.1208 4.03306 12.1581L3.88194 12.3658C3.8054 12.3102 3.67838 12.1911 3.61571 12.0107C3.5504 11.8227 3.56171 11.5868 3.73446 11.3198C4.11964 10.7245 4.83539 9.72568 6.15257 9.47238C6.66989 9.37289 7.39507 9.33775 8.0909 9.36032C8.75209 9.38176 9.40213 9.45576 9.83089 9.58319C10.6293 9.03972 12.6417 8.44201 14.856 10.0134C14.9138 10.0545 14.9274 10.1347 14.8864 10.1925C14.8453 10.2504 14.7651 10.264 14.7073 10.223Z" fill="black"/>
<path fill-rule="evenodd" clip-rule="evenodd" d="M14.1758 12.1641C13.9452 12.206 13.7007 12.2611 13.5463 12.2989L13.4852 12.0494C13.6432 12.0107 13.893 11.9544 14.1299 11.9114C14.2483 11.8899 14.365 11.8714 14.4662 11.8601C14.5638 11.8492 14.6588 11.8436 14.7276 11.8532C14.7979 11.8631 14.8468 11.928 14.837 11.9983C14.8271 12.0685 14.7622 12.1175 14.6919 12.1076C14.658 12.1029 14.5914 12.1046 14.4947 12.1154C14.4016 12.1258 14.2912 12.1432 14.1758 12.1641Z" fill="black"/>
<path d="M14.4909 7.97177C12.2336 7.14985 10.6044 8.35505 9.926 9.54542C9.84107 8.83745 10.5244 8.23833 10.8812 8.02828C12.9955 6.86081 14.1814 7.55026 14.2825 7.59622C14.3634 7.63299 14.4105 7.79918 14.4909 7.97177Z" fill="#FFE598"/>
<path fill-rule="evenodd" clip-rule="evenodd" d="M10.9254 8.02999C10.951 8.08325 10.9287 8.14722 10.8754 8.17287C10.7042 8.25529 10.4478 8.43435 10.2483 8.69828C10.0501 8.96041 9.91084 9.30201 9.96023 9.71615L9.96938 9.79286L9.89946 9.82571C9.76652 9.88818 9.55287 10.0173 9.35457 10.1978C9.15555 10.3788 8.98064 10.6036 8.91017 10.8558C8.89427 10.9127 8.83521 10.946 8.77828 10.9301C8.72134 10.9142 8.68808 10.8551 8.70399 10.7982C8.78952 10.4921 8.99607 10.2345 9.2105 10.0394C9.39546 9.87112 9.59272 9.74347 9.74038 9.66588C9.70778 9.21909 9.86565 8.84939 10.0775 8.56918C10.2998 8.27513 10.5842 8.07546 10.7825 7.97998C10.8358 7.95434 10.8997 7.97672 10.9254 8.02999Z" fill="black"/>
<path fill-rule="evenodd" clip-rule="evenodd" d="M12.4694 7.59769C11.6861 7.71786 10.9605 8.08206 10.5123 8.40228L10.4209 8.46758L10.3326 8.39818C10.13 8.23906 9.83303 8.11134 9.5332 8.0168C9.23857 7.9239 8.95504 7.86727 8.7848 7.84355C7.8239 7.77306 7.19984 8.05746 6.80409 8.4311C6.40312 8.80968 6.22417 9.2917 6.17911 9.62756C6.16811 9.70959 6.09268 9.76718 6.01064 9.75617C5.9286 9.74517 5.87102 9.66974 5.88202 9.5877C5.93462 9.19562 6.13935 8.64647 6.59831 8.21315C7.06185 7.7755 7.7726 7.46758 8.81175 7.54497L8.81641 7.54532L8.82103 7.54595C9.00643 7.57144 9.30899 7.63181 9.62334 7.73092C9.89831 7.81763 10.1934 7.93738 10.4273 8.09642C10.9085 7.77146 11.6351 7.42242 12.424 7.30141C13.2666 7.17213 14.193 7.30227 14.955 8.01579C15.6673 8.68274 16.1023 9.29783 16.3954 9.97489C16.687 10.6484 16.835 11.3763 16.9825 12.2587C16.9962 12.3403 16.941 12.4176 16.8594 12.4312C16.7778 12.4449 16.7005 12.3898 16.6869 12.3081C16.5395 11.427 16.3962 10.731 16.1203 10.094C15.8461 9.46045 15.4374 8.87817 14.7501 8.23459C14.0737 7.60113 13.2493 7.47805 12.4694 7.59769Z" fill="black"/>
<path fill-rule="evenodd" clip-rule="evenodd" d="M13.4522 11.7658C11.2374 10.2934 9.30048 10.8862 8.62322 11.3492L8.57447 11.3825L8.52027 11.3591C6.18163 10.3465 4.46088 11.1032 3.90673 11.5865C3.86217 11.6254 3.79454 11.6207 3.75568 11.5762C3.71682 11.5316 3.72144 11.464 3.766 11.4251C4.37784 10.8916 6.16433 10.1286 8.55189 11.1397C9.33296 10.6394 11.3261 10.0959 13.5694 11.5867C13.5692 11.5865 13.5696 11.5866 13.5706 11.5869C13.5755 11.5885 13.5958 11.5948 13.6433 11.5983C13.6972 11.6022 13.7723 11.6017 13.8703 11.595C14.066 11.5816 14.3432 11.5444 14.7063 11.4765C14.7645 11.4656 14.8204 11.5039 14.8313 11.562C14.8421 11.6202 14.8038 11.6761 14.7457 11.687C14.3782 11.7557 14.092 11.7944 13.8849 11.8086C13.7816 11.8157 13.6955 11.8168 13.6277 11.8118C13.5658 11.8073 13.4999 11.7968 13.4531 11.7664L13.4526 11.7661L13.4522 11.7658Z" fill="black"/>
<path d="M11.6369 12.1531C11.6369 12.6161 11.2297 12.9914 10.7275 12.9914C10.2253 12.9914 9.81818 12.6161 9.81818 12.1531C9.81818 11.6901 10.2253 11.3148 10.7275 11.3148C11.2297 11.3148 11.6369 11.6901 11.6369 12.1531Z" fill="black"/>
<path d="M11.1151 11.9024C11.0977 11.985 11.0039 12.0352 10.9057 12.0144C10.8074 11.9937 10.7419 11.91 10.7593 11.8274C10.7767 11.7448 10.8705 11.6947 10.9687 11.7154C11.067 11.7361 11.1325 11.8199 11.1151 11.9024Z" fill="white"/>
<path d="M10.7721 12.4218C10.7473 12.5396 10.6136 12.6111 10.4734 12.5815C10.3333 12.552 10.2398 12.4325 10.2646 12.3148C10.2895 12.197 10.4232 12.1255 10.5634 12.155C10.7035 12.1846 10.797 12.304 10.7721 12.4218Z" fill="white"/>
<path fill-rule="evenodd" clip-rule="evenodd" d="M16.537 11.1881C16.5712 11.1128 16.66 11.0794 16.7354 11.1136C17.6366 11.5229 19.4329 13.0802 19.1072 16.1933C18.9291 17.8956 17.432 18.8207 15.7106 19.3073C13.98 19.7965 11.9548 19.8647 10.5845 19.8089C9.69441 19.7968 8.32068 19.5844 7.0776 18.984C5.83207 18.3823 4.70164 17.3822 4.34324 15.7901C4.25209 15.4112 4.28665 14.5771 5.0389 13.999C4.81819 13.8305 4.54739 13.5986 4.3086 13.3423C4.15555 13.1779 4.01275 13.0005 3.90472 12.8205C3.79754 12.6419 3.71862 12.4509 3.706 12.2616C3.70049 12.1791 3.76298 12.1076 3.84557 12.1021C3.92816 12.0966 3.99958 12.1591 4.00508 12.2417C4.01329 12.3648 4.06708 12.5085 4.16174 12.6662C4.25554 12.8225 4.3837 12.9831 4.52794 13.138C4.81661 13.4479 5.15811 13.7226 5.38293 13.8795L5.56929 14.0096L5.37634 14.1296C4.58937 14.6194 4.55788 15.4025 4.63489 15.7209L4.63517 15.7221L4.63544 15.7233C4.9669 17.1974 6.01299 18.1368 7.20798 18.714C8.40475 19.2921 9.73472 19.4979 10.5905 19.5092L10.5926 19.5093L10.5946 19.5094C11.9505 19.5647 13.9411 19.496 15.629 19.0189C17.3269 18.539 18.6515 17.6678 18.8091 16.1621C19.1193 13.1965 17.4138 11.751 16.6114 11.3866C16.5361 11.3523 16.5027 11.2635 16.537 11.1881Z" fill="black"/>
<path d="M7.21896 12.153C7.21896 12.616 6.81183 12.9913 6.30962 12.9913C5.8074 12.9913 5.40027 12.616 5.40027 12.153C5.40027 11.6901 5.8074 11.3147 6.30962 11.3147C6.81183 11.3147 7.21896 11.6901 7.21896 12.153Z" fill="black"/>
<path d="M6.70009 11.9324C6.68268 12.015 6.5889 12.0652 6.49064 12.0444C6.39238 12.0237 6.32684 11.94 6.34426 11.8574C6.36168 11.7748 6.45545 11.7247 6.55371 11.7454C6.65197 11.7661 6.71751 11.8499 6.70009 11.9324Z" fill="white"/>
<path d="M6.35882 12.4517C6.33398 12.5695 6.20024 12.641 6.0601 12.6115C5.91996 12.5819 5.82649 12.4625 5.85133 12.3447C5.87617 12.2269 6.00991 12.1554 6.15005 12.185C6.29019 12.2145 6.38366 12.334 6.35882 12.4517Z" fill="white"/>
<path d="M4.26647 15.6959C4.84308 16.0366 5.91549 16.3511 6.37962 16.4658C8.13778 16.9258 12.4968 15.8767 13.5942 15.6959C15.3892 15.4002 15.0143 17.4259 14.1913 17.4098C13.3682 17.3936 11.351 17.7809 10.4311 18.0284C9.51126 18.2759 6.18554 18.425 5.25555 18.0284C4.32556 17.6318 5.02305 17.0164 4.92732 16.989C4.85073 16.9671 4.45484 16.7621 4.26647 16.6623C3.53261 16.0333 3.9607 15.7559 4.26647 15.6959Z" fill="#FC6745"/>
<path fill-rule="evenodd" clip-rule="evenodd" d="M14.8052 17.1785C14.6669 17.3845 14.4531 17.5431 14.1896 17.538C13.792 17.5302 13.0931 17.6207 12.3704 17.7466C11.6508 17.8719 10.9205 18.0298 10.4654 18.1522C9.98896 18.2804 8.9138 18.3795 7.85027 18.3982C7.31616 18.4075 6.77998 18.3967 6.31748 18.3583C5.85943 18.3203 5.4591 18.2543 5.20604 18.1463C4.95866 18.0408 4.80111 17.9131 4.7155 17.7673C4.6282 17.6187 4.62583 17.4687 4.65409 17.342C4.67956 17.2279 4.73089 17.1284 4.76805 17.0605C4.76688 17.0599 4.76571 17.0594 4.76454 17.0588C4.71219 17.0343 4.64845 17.0029 4.58196 16.9694C4.44884 16.9024 4.30194 16.8258 4.20723 16.7756L4.19461 16.769L4.18376 16.7597C3.81315 16.442 3.67384 16.1625 3.75602 15.9237C3.79551 15.809 3.88016 15.7283 3.96764 15.6742C4.05534 15.6201 4.15477 15.5868 4.2426 15.5696L4.2906 15.5602L4.33272 15.585C4.89146 15.9152 5.94722 16.2262 6.41131 16.3408L6.41217 16.341L6.41302 16.3413C6.83274 16.4511 7.41862 16.4728 8.08823 16.4365C8.75518 16.4003 9.49443 16.3073 10.2156 16.194C10.9365 16.0807 11.6373 15.9473 12.2272 15.8309C12.3926 15.7982 12.5497 15.7668 12.6962 15.7375C13.0701 15.6627 13.3752 15.6017 13.5742 15.5689C14.0441 15.4915 14.3957 15.5623 14.6367 15.7369C14.8788 15.9122 14.988 16.1767 15.0036 16.4401C15.0192 16.7018 14.9438 16.9721 14.8052 17.1785ZM4.81238 16.9773C4.81236 16.9773 4.81234 16.9774 4.81232 16.9774C4.81315 16.9747 4.81351 16.9745 4.81238 16.9773ZM14.486 15.945C14.3183 15.8235 14.0435 15.752 13.6159 15.8224C13.4215 15.8544 13.1235 15.914 12.7523 15.9883C12.6048 16.0178 12.4457 16.0496 12.277 16.0829C11.6859 16.1996 10.9813 16.3337 10.2555 16.4478C9.53003 16.5618 8.78128 16.6562 8.10214 16.693C7.42608 16.7297 6.80812 16.71 6.34885 16.5901C5.8957 16.478 4.84959 16.1729 4.24701 15.8322C4.19624 15.846 4.14556 15.8663 4.10268 15.8928C4.04682 15.9273 4.01299 15.9666 3.99897 16.0073C3.97437 16.0788 3.98744 16.2498 4.34024 16.5553C4.43399 16.6049 4.57219 16.6769 4.69744 16.7399C4.76304 16.7729 4.82441 16.8031 4.87371 16.8262C4.8984 16.8378 4.91935 16.8473 4.93592 16.8544C4.94418 16.8579 4.95085 16.8606 4.95601 16.8626C4.96153 16.8647 4.96372 16.8653 4.9635 16.8653C4.98742 16.8721 5.01538 16.8868 5.0369 16.9149C5.05787 16.9423 5.06436 16.9714 5.06567 16.9927C5.06792 17.0292 5.05599 17.0601 5.05092 17.0728C5.04041 17.099 5.02252 17.1312 5.00743 17.1585C5.00541 17.1621 5.00345 17.1656 5.00156 17.169C4.96417 17.2368 4.92352 17.3144 4.90485 17.398C4.88696 17.4782 4.89057 17.5581 4.93705 17.6372C4.9852 17.7192 5.08921 17.8172 5.30683 17.91C5.51877 18.0004 5.8829 18.0644 6.33873 18.1023C6.7901 18.1397 7.31722 18.1505 7.84577 18.1413C8.90756 18.1226 9.95519 18.0234 10.3986 17.9041C10.8634 17.7791 11.6016 17.6196 12.3264 17.4934C13.048 17.3678 13.7693 17.2727 14.1947 17.2811C14.3428 17.284 14.4844 17.1955 14.5918 17.0354C14.6989 16.8758 14.7594 16.6612 14.7472 16.4554C14.735 16.2514 14.6528 16.0658 14.486 15.945Z" fill="black"/>
<path fill-rule="evenodd" clip-rule="evenodd" d="M12.8325 16.8436C12.2881 16.9312 11.6627 17.0579 11.2529 17.148L11.2493 17.1488L11.2456 17.1494C7.67941 17.7188 5.30589 17.249 4.5472 16.9307C4.48178 16.9032 4.451 16.8279 4.47846 16.7625C4.50591 16.6971 4.5812 16.6663 4.64662 16.6937C5.34764 16.9879 7.66803 17.4598 11.2014 16.8963C11.6141 16.8056 12.2426 16.6783 12.7917 16.59C13.0667 16.5457 13.3245 16.5108 13.5262 16.4955C13.6268 16.4878 13.7168 16.4848 13.7897 16.4886C13.826 16.4905 13.8612 16.4942 13.8928 16.501C13.9219 16.5073 13.96 16.5187 13.9928 16.5431C14.0498 16.5853 14.0617 16.6658 14.0194 16.7228C13.9789 16.7775 13.9031 16.7906 13.8467 16.7542C13.845 16.7537 13.8423 16.753 13.8385 16.7521C13.8252 16.7493 13.8049 16.7466 13.7763 16.7451C13.7193 16.7422 13.6416 16.7444 13.5457 16.7517C13.3546 16.7662 13.1051 16.7998 12.8325 16.8436Z" fill="black"/>
<path fill-rule="evenodd" clip-rule="evenodd" d="M8.79266 13.7265C8.81992 13.792 8.78892 13.8672 8.72342 13.8944C6.79778 14.6957 5.37971 14.2368 4.89042 13.8796C4.83313 13.8377 4.82059 13.7574 4.86243 13.7001C4.90426 13.6428 4.98462 13.6302 5.04191 13.6721C5.45003 13.9701 6.7715 14.4284 8.62472 13.6572C8.69022 13.63 8.76541 13.661 8.79266 13.7265Z" fill="black"/>
<path fill-rule="evenodd" clip-rule="evenodd" d="M14.0236 12.4852C14.058 12.5473 14.0356 12.6255 13.9736 12.6599C12.2646 13.6077 11.0478 13.8296 10.2187 13.7835C9.38636 13.7371 8.95839 13.4213 8.82968 13.3248C8.70421 13.2307 8.63668 13.0885 8.59841 12.9534C8.55973 12.8169 8.54648 12.6718 8.54097 12.5535C8.53767 12.4827 8.59244 12.4225 8.66331 12.4192C8.73417 12.4159 8.7943 12.4707 8.7976 12.5416C8.80278 12.653 8.81488 12.7751 8.84557 12.8834C8.87666 12.9931 8.92252 13.0733 8.98382 13.1192L8.98475 13.1199C9.09081 13.1995 9.47088 13.4845 10.233 13.527C11.0008 13.5697 12.1694 13.3667 13.849 12.4352C13.911 12.4008 13.9892 12.4232 14.0236 12.4852Z" fill="black"/>
<path fill-rule="evenodd" clip-rule="evenodd" d="M8.889 13.7167C8.91937 13.7809 8.89201 13.8574 8.8279 13.8878C8.54524 14.0217 8.11705 14.2381 7.75174 14.4515C7.56874 14.5584 7.40449 14.6628 7.28284 14.7545C7.22187 14.8005 7.17439 14.8412 7.14126 14.8755C7.12478 14.8926 7.11335 14.9066 7.10593 14.9174C7.09934 14.927 7.09763 14.9316 7.0976 14.9316C7.07793 14.9996 7.007 15.0389 6.93893 15.0194C6.87072 14.9999 6.83122 14.9288 6.85071 14.8606C6.86869 14.7977 6.91324 14.7419 6.95634 14.6972C7.00249 14.6493 7.06166 14.5995 7.12819 14.5494C7.26154 14.4489 7.43567 14.3386 7.62216 14.2297C7.99581 14.0114 8.431 13.7916 8.71793 13.6556C8.78204 13.6253 8.85863 13.6526 8.889 13.7167Z" fill="black"/>
<path fill-rule="evenodd" clip-rule="evenodd" d="M9.31254 13.9366C9.34117 13.8717 9.417 13.8423 9.4819 13.8709C9.71838 13.9753 10.115 14.1285 10.5313 14.2469C10.9521 14.3665 11.375 14.4453 11.6722 14.414C11.7428 14.4066 11.806 14.4577 11.8134 14.5283C11.8209 14.5988 11.7697 14.6621 11.6991 14.6695C11.3495 14.7063 10.8858 14.6148 10.461 14.494C10.0318 14.3719 9.62407 14.2145 9.37821 14.106C9.3133 14.0774 9.2839 14.0015 9.31254 13.9366Z" fill="black"/>
<path d="M11.4469 3.96952C15.0656 3.3446 23.4521 6.56592 20.2249 14.9732C17.2761 10.1918 10.5749 8.46892 11.4469 3.96952Z" fill="#A2A6A9"/>
<path fill-rule="evenodd" clip-rule="evenodd" d="M11.5917 4.11751C11.2471 6.19912 12.6059 7.66967 14.5102 9.23534C14.8629 9.5253 15.2335 9.81782 15.6129 10.1172C17.2126 11.3797 18.9675 12.7647 20.1839 14.5966C20.8701 12.6603 20.9193 11.0232 20.5603 9.66234C20.1819 8.22754 19.3458 7.08499 18.2953 6.21435C16.2315 4.50402 13.3615 3.86036 11.5917 4.11751ZM20.8868 9.57623C21.2863 11.0909 21.1995 12.9051 20.3823 15.0338L20.2601 15.3522L20.0811 15.0619C18.8968 13.1416 17.1017 11.7239 15.4217 10.3971C15.0375 10.0936 14.6593 9.79496 14.2958 9.4961C12.3654 7.90899 10.8244 6.29372 11.2811 3.93751L11.3032 3.82313L11.418 3.8033C13.2785 3.48202 16.3291 4.14647 18.5107 5.95443C19.6057 6.86192 20.4873 8.06201 20.8868 9.57623Z" fill="black"/>
<path d="M19.4675 17.4813C20.3627 16.5008 20.0181 13.0821 19.7339 11.4953C19.7339 10.643 19.0936 9.20045 18.7734 8.58572C17.4617 8.34723 13.2331 5.43174 11.2828 4.00381C10.9774 4.17716 9.76236 4.89776 7.34551 6.39343C4.92866 7.8891 4.13925 10.0914 4.04665 11.0056C9.08534 5.68918 16.5288 11.9207 16.7642 12.1224C16.9525 12.2838 17.4962 15.2057 17.7445 16.6464C17.9458 17.3333 18.5722 18.4618 19.4675 17.4813Z" fill="#D9D9D9"/>
<path fill-rule="evenodd" clip-rule="evenodd" d="M11.2936 3.80322L11.3817 3.86771C12.3549 4.58021 13.8966 5.66393 15.3578 6.59871C16.0885 7.0662 16.797 7.49511 17.4031 7.82146C18.0158 8.15134 18.5044 8.36549 18.8028 8.41974L18.8842 8.43453L18.9223 8.50784C19.0853 8.82074 19.3285 9.34164 19.5314 9.89322C19.7301 10.4334 19.8982 11.024 19.9019 11.48C20.0445 12.2808 20.2012 13.534 20.211 14.7143C20.2159 15.3078 20.1838 15.8884 20.092 16.3862C20.0011 16.8786 19.8476 17.3145 19.5913 17.5952C19.3517 17.8576 19.1099 18.0013 18.8672 18.0289C18.621 18.0569 18.408 17.9618 18.2367 17.8187C17.9043 17.5409 17.6854 17.0477 17.5817 16.694L17.579 16.6847L17.5774 16.6752C17.4534 15.9558 17.2557 14.867 17.0657 13.9386C16.9706 13.4741 16.8779 13.0518 16.7975 12.7366C16.7572 12.5786 16.7209 12.4505 16.6896 12.3585C16.6739 12.3122 16.6605 12.2785 16.6499 12.2559C16.6468 12.2493 16.6444 12.2446 16.6427 12.2414C16.4515 12.0799 14.5812 10.5402 12.1481 9.65338C9.65864 8.74602 6.62158 8.53337 4.16837 11.1218L3.82808 11.4808L3.87793 10.9887C3.97535 10.027 4.79061 7.77564 7.25591 6.24999C9.67275 4.75433 10.8902 4.0322 11.1987 3.85711L11.2936 3.80322ZM11.271 4.20491C10.8533 4.44709 9.64969 5.16559 7.43355 6.53705C5.4525 7.76303 4.59427 9.47006 4.31516 10.5028C6.82721 8.18775 9.84024 8.45291 12.2637 9.33621C14.8121 10.2651 16.7501 11.8888 16.8732 11.9944C16.9149 12.0301 16.9407 12.081 16.9555 12.1123C16.9736 12.151 16.9915 12.1979 17.0092 12.2498C17.0447 12.3541 17.0836 12.4921 17.1246 12.6532C17.207 12.9762 17.301 13.4047 17.3964 13.8709C17.5865 14.7998 17.7839 15.8867 17.9084 16.6082C18.0069 16.9397 18.2006 17.3486 18.4532 17.5597C18.5756 17.662 18.6997 17.7082 18.829 17.6934C18.9618 17.6784 19.1341 17.5954 19.3421 17.3676C19.5334 17.158 19.6725 16.7989 19.76 16.3249C19.8465 15.8563 19.8783 15.2992 19.8734 14.7171C19.8638 13.5534 19.7079 12.3118 19.567 11.5251L19.5644 11.5103V11.4954C19.5644 11.1012 19.4138 10.5515 19.2145 10.0098C19.0319 9.51318 18.8151 9.04119 18.6592 8.73437C18.3049 8.65048 17.8075 8.42256 17.2431 8.11869C16.6265 7.78668 15.91 7.35276 15.1758 6.88308C13.7509 5.97145 12.2515 4.92012 11.271 4.20491Z" fill="black"/>
<path d="M8.25592 8.32424C8.33504 7.45366 9.2735 5.88211 9.29612 5.86514C8.2695 6.29025 7.86212 6.73949 7.78675 6.91097C7.70008 7.12013 7.50863 7.59047 7.43627 7.7985C7.34582 8.05855 7.2497 8.41469 7.36276 8.44861C7.45321 8.47574 7.99589 8.377 8.25592 8.32424Z" fill="#94989D"/>
<path fill-rule="evenodd" clip-rule="evenodd" d="M7.8258 6.92753C7.73891 7.13721 7.54819 7.60584 7.47636 7.81235C7.43138 7.94168 7.38566 8.09308 7.36504 8.21535C7.35466 8.27694 7.35125 8.32786 7.35591 8.36385C7.36088 8.40213 7.37214 8.40728 7.37512 8.40818C7.37983 8.40959 7.39262 8.41121 7.41632 8.41101C7.43868 8.41082 7.46702 8.40909 7.50026 8.40601C7.56666 8.39986 7.65012 8.38857 7.73951 8.37468C7.9047 8.34901 8.08816 8.3148 8.21733 8.289C8.26654 7.84765 8.51818 7.24772 8.75958 6.75597C8.88367 6.50319 9.00597 6.27721 9.09869 6.11331C9.13355 6.0517 9.16426 5.9988 9.18935 5.9565C8.74438 6.15098 8.42759 6.34741 8.21091 6.51642C7.97383 6.70134 7.85955 6.85111 7.8258 6.92753ZM8.15901 6.44988C8.40203 6.26032 8.76395 6.03992 9.28022 5.82614L9.32168 5.89888C9.32462 5.89667 9.32676 5.89436 9.3277 5.89327C9.32745 5.8936 9.32697 5.89426 9.32621 5.89535C9.32421 5.89821 9.32126 5.90264 9.31731 5.90879C9.30947 5.92099 9.29841 5.9388 9.28453 5.96177C9.25679 6.00767 9.21817 6.07349 9.17214 6.15486C9.08007 6.31761 8.95857 6.54211 8.83533 6.79316C8.58784 7.29731 8.33696 7.90143 8.29818 8.32804L8.29534 8.35932L8.26456 8.36557C8.13413 8.39203 7.93278 8.43004 7.75247 8.45806C7.66238 8.47206 7.57696 8.48366 7.50804 8.49004C7.47362 8.49323 7.44269 8.49517 7.41704 8.49539C7.39273 8.4956 7.36878 8.49438 7.35088 8.489L7.3626 8.44993L7.35088 8.489C7.29732 8.47294 7.27821 8.42085 7.27223 8.3747C7.26594 8.32624 7.27101 8.26552 7.28183 8.20132C7.30363 8.07202 7.3512 7.91533 7.39666 7.78462C7.4695 7.5752 7.66147 7.10366 7.74802 6.8948L7.74836 6.89397L7.74837 6.89397C7.7902 6.7988 7.91731 6.63841 8.15901 6.44988ZM9.32788 5.89303C9.3284 5.89236 9.3283 5.89256 9.3277 5.89327C9.32779 5.89315 9.32784 5.89307 9.32788 5.89303Z" fill="black"/>
<path d="M6.89522 8.49909C6.91379 8.31358 7.0846 7.37058 7.16768 6.92227C6.81985 7.01502 6.28072 7.55996 6.27492 7.63533C6.27029 7.69562 6.18795 8.47977 6.14737 8.86432C6.14737 8.8133 6.64594 8.59958 6.89522 8.49909Z" fill="#94989D"/>
<path fill-rule="evenodd" clip-rule="evenodd" d="M7.21958 6.86441L7.20741 6.93007C7.12408 7.37974 6.95379 8.32018 6.93545 8.50341L6.93291 8.5288L6.90924 8.53834C6.78499 8.58843 6.59875 8.66668 6.44384 8.73863C6.36624 8.77468 6.29737 8.80874 6.24826 8.83665C6.22352 8.85071 6.2051 8.86249 6.19334 8.87158C6.18748 8.87612 6.1846 8.87898 6.18356 8.88019C6.18458 8.87867 6.18675 8.87477 6.18752 8.86885L6.10342 8.86443C6.10342 8.86183 6.10362 8.85932 6.10398 8.85692C6.14475 8.47065 6.22654 7.69154 6.2311 7.6322C6.23217 7.6183 6.23825 7.60526 6.24311 7.59616C6.24865 7.58578 6.25605 7.57436 6.26463 7.56239C6.28186 7.53835 6.30587 7.50925 6.33483 7.47705C6.39287 7.41253 6.47288 7.33329 6.56344 7.25373C6.65399 7.17418 6.75575 7.09371 6.85736 7.02705C6.95845 6.96073 7.06175 6.90649 7.15506 6.88162L7.21958 6.86441ZM6.1982 8.76809C6.20095 8.7665 6.20373 8.7649 6.20656 8.76329C6.25872 8.73364 6.33008 8.69843 6.40829 8.6621C6.55552 8.59371 6.73012 8.51997 6.85439 8.4695C6.88206 8.24609 7.02846 7.43478 7.11141 6.98517C7.04689 7.01096 6.97622 7.05 6.90365 7.09761C6.80617 7.16156 6.70757 7.23943 6.61913 7.31713C6.5307 7.39482 6.4531 7.47175 6.39756 7.53349C6.36973 7.56443 6.34795 7.59099 6.33322 7.61154C6.32583 7.62186 6.32071 7.62998 6.31755 7.6359C6.31611 7.63859 6.31538 7.64029 6.31504 7.64112C6.30914 7.71179 6.24041 8.3675 6.1982 8.76809ZM6.1835 8.88026C6.18352 8.88024 6.18354 8.88021 6.18356 8.88019C6.18296 8.88109 6.18276 8.88114 6.1835 8.88026Z" fill="black"/>
<path d="M5.685 9.14079C5.6888 8.79051 5.69413 8.07623 5.685 8.02139C5.45466 8.28411 4.99282 8.82667 4.98825 8.89521C4.98254 8.98087 4.98251 9.52915 5.0796 9.53486C5.15727 9.53943 5.51557 9.27405 5.685 9.14079Z" fill="#94989D"/>
<path fill-rule="evenodd" clip-rule="evenodd" d="M5.71229 7.92642L5.72691 8.01429C5.72864 8.02464 5.72956 8.04514 5.73024 8.0695C5.73098 8.09536 5.7315 8.12944 5.73187 8.16961C5.73259 8.25001 5.73267 8.35558 5.73233 8.47024C5.73167 8.6996 5.72938 8.96586 5.72748 9.14107L5.72726 9.16128L5.71138 9.17378C5.62619 9.24077 5.49348 9.34103 5.37201 9.42415C5.31136 9.46565 5.25279 9.50338 5.20399 9.53062C5.17965 9.5442 5.1569 9.55565 5.13703 9.56366C5.11884 9.57099 5.0972 9.57796 5.07742 9.5768C5.04372 9.57482 5.02298 9.5499 5.01153 9.53053C4.99924 9.50972 4.99011 9.48298 4.98296 9.45473C4.96849 9.39763 4.95936 9.323 4.9536 9.24807C4.94206 9.09793 4.94343 8.9374 4.94644 8.89222C4.94729 8.87949 4.95244 8.86724 4.95645 8.85877C4.96107 8.849 4.96726 8.83806 4.97444 8.82643C4.98883 8.80309 5.00893 8.77419 5.03296 8.74152C5.08114 8.67604 5.14703 8.59293 5.21959 8.50423C5.36482 8.32668 5.53821 8.12497 5.65357 7.9934L5.71229 7.92642ZM5.0305 8.90006C5.02789 8.94379 5.02664 9.09733 5.03774 9.2416C5.04339 9.31516 5.0521 9.38403 5.06476 9.43401C5.07116 9.4593 5.07792 9.477 5.08418 9.4876C5.08519 9.48932 5.08607 9.49065 5.08681 9.49168C5.09046 9.4908 5.09652 9.48901 5.10548 9.48539C5.12074 9.47924 5.14005 9.46966 5.16287 9.45693C5.20839 9.43153 5.26454 9.39544 5.32435 9.35451C5.43654 9.27775 5.55904 9.1857 5.64332 9.1199C5.64517 8.945 5.64731 8.69039 5.64795 8.47C5.64828 8.35545 5.64821 8.25027 5.64749 8.17038C5.64735 8.15579 5.6472 8.14206 5.64703 8.1293C5.53844 8.25446 5.40232 8.41412 5.28491 8.55765C5.21265 8.64599 5.14783 8.7278 5.10093 8.79153C5.07743 8.82348 5.05889 8.85026 5.04625 8.87073C5.03991 8.88101 5.03549 8.88901 5.03273 8.89485C5.03145 8.89756 5.0308 8.89925 5.0305 8.90006ZM5.08949 9.49482C5.08949 9.49483 5.08936 9.49475 5.08913 9.49452C5.08937 9.49469 5.08949 9.49481 5.08949 9.49482Z" fill="black"/>
<path d="M5.2732 8.75949C5.28419 8.71917 5.53285 8.45864 5.65581 8.33341V8.11807L5.31472 8.50778L5.02805 8.89465C4.99429 9.11864 5.06931 9.49484 5.08992 9.50859C5.10642 9.51958 5.21898 9.44139 5.2732 9.40092C5.26863 9.20391 5.26222 8.79981 5.2732 8.75949Z" fill="#444D56"/>
<path d="M8.0111 7.13422C8.04494 7.01577 8.57044 6.75113 8.82896 6.63363L9.19763 5.94815C8.94601 6.07865 8.39375 6.37741 8.19771 6.52838C7.95266 6.7171 7.80568 6.95281 7.80019 6.97204C7.79469 6.99126 7.41279 7.99624 7.37432 8.13332C7.34355 8.24299 7.3615 8.35957 7.37432 8.40415C7.42915 8.42554 7.69477 8.36554 7.82072 8.33286C7.87008 7.98267 7.97725 7.25268 8.0111 7.13422Z" fill="#444D56"/>
<path d="M15.5322 8.00838C15.4329 8.08554 14.9397 9.36777 14.7055 9.99924C14.7928 10.0865 15.0376 10.2955 15.3186 10.4332C15.67 10.6055 15.9249 9.9579 15.9593 9.87524C15.9937 9.79257 16.4897 8.40793 16.4071 8.28393C16.3244 8.15993 15.6562 7.91193 15.5322 8.00838Z" fill="#798088"/>
<path d="M14.0029 6.78905C13.9312 6.81109 13.3714 8.25407 13.1004 8.9728C13.0522 9.2759 13.3278 9.50325 13.7136 9.55148C14.0222 9.59005 14.1039 9.49407 14.1062 9.44125C14.2716 9.02563 14.6133 8.16682 14.6573 8.0566C14.7125 7.91883 14.9811 7.36082 14.926 7.29193C14.8709 7.22305 14.0924 6.76149 14.0029 6.78905Z" fill="#798088"/>
<path d="M12.6371 5.89911C12.2144 6.1007 11.6319 7.80395 11.3934 8.63038C11.5316 8.84986 12.4583 8.9728 12.5802 8.84172C12.7022 8.71064 13.4744 6.46812 13.4012 6.32993C13.3427 6.21938 12.8675 5.99665 12.6371 5.89911Z" fill="#798088"/>
<path d="M12.1183 5.32694C12.0876 5.41902 11.1719 7.42437 10.7178 8.41554C10.6027 8.52083 10.0304 8.45941 9.7587 8.41554C9.78747 8.20771 9.86995 7.65586 9.96971 7.11104C10.0944 6.43001 11.2742 4.63632 11.3934 4.62673C11.5127 4.61714 12.1566 5.21184 12.1183 5.32694Z" fill="#798088"/>
<path fill-rule="evenodd" clip-rule="evenodd" d="M12.1998 5.27967C12.2043 5.29815 12.2079 5.32511 12.1984 5.35354C12.193 5.36983 12.173 5.41617 12.1452 5.47934C12.1162 5.54522 12.0761 5.63521 12.0274 5.7435C11.9301 5.96011 11.7985 6.25052 11.6537 6.56892C11.3641 7.20576 11.0217 7.95497 10.7946 8.45059L10.7875 8.46616L10.7749 8.47772C10.7473 8.50296 10.7122 8.51818 10.6795 8.52818C10.6456 8.53852 10.6072 8.54536 10.5672 8.54989C10.487 8.55894 10.3913 8.55961 10.2937 8.5557C10.0979 8.54785 9.88342 8.52105 9.74533 8.49875L9.66388 8.4856L9.67519 8.40387C9.70409 8.19514 9.78676 7.64204 9.88679 7.09575C9.92022 6.91314 10.022 6.66438 10.1524 6.39955C10.2838 6.13257 10.448 5.84193 10.6116 5.57314C10.7752 5.30433 10.9389 5.0561 11.0697 4.87388C11.135 4.78297 11.193 4.70726 11.2391 4.65333C11.262 4.62658 11.2835 4.60346 11.3025 4.58619C11.3119 4.57763 11.3225 4.56893 11.3336 4.56176C11.3425 4.55601 11.3617 4.54454 11.3868 4.54253C11.411 4.54057 11.4334 4.54644 11.4491 4.55183C11.4662 4.55768 11.4836 4.56586 11.5004 4.57494C11.5342 4.59312 11.5726 4.61854 11.6124 4.6478C11.6925 4.70659 11.7857 4.78604 11.873 4.86869C11.9602 4.95119 12.044 5.03908 12.1042 5.11515C12.1341 5.15288 12.1603 5.19031 12.178 5.2244C12.1868 5.24142 12.195 5.26022 12.1998 5.27967ZM11.409 4.7177C11.3983 4.72819 11.3844 4.74318 11.3673 4.76309C11.3257 4.81175 11.2709 4.88306 11.2068 4.9723C11.079 5.15038 10.9176 5.39494 10.7558 5.66088C10.5939 5.92683 10.4324 6.21291 10.3038 6.47409C10.1742 6.73741 10.0817 6.96824 10.0528 7.12615C9.96452 7.60828 9.88977 8.09614 9.85404 8.3445C9.98251 8.36271 10.1482 8.38096 10.3005 8.38706C10.3942 8.39082 10.4802 8.38986 10.5482 8.38218C10.5822 8.37834 10.6096 8.37305 10.6301 8.36677C10.6394 8.36394 10.6462 8.36124 10.651 8.359C10.8779 7.86347 11.2147 7.12665 11.5001 6.49907C11.6448 6.18073 11.7763 5.89059 11.8735 5.67432C11.9221 5.56617 11.962 5.47664 11.9907 5.41136C12.0051 5.37869 12.0166 5.35231 12.0249 5.33279C12.0283 5.32485 12.0311 5.3182 12.0333 5.31282C12.0321 5.31006 12.0305 5.30654 12.0282 5.30224C12.0176 5.28182 11.9989 5.25398 11.9719 5.21992C11.9184 5.15241 11.8409 5.07064 11.757 4.99129C11.6733 4.91207 11.5855 4.83745 11.5125 4.78383C11.4758 4.75689 11.4446 4.73653 11.4205 4.72357C11.4162 4.72128 11.4124 4.71934 11.409 4.7177ZM11.3908 4.71043C11.3908 4.71043 11.3909 4.71045 11.3912 4.71052C11.3909 4.71047 11.3908 4.71044 11.3908 4.71043ZM12.0359 5.32018C12.036 5.32053 12.036 5.3207 12.036 5.3207C12.036 5.32069 12.036 5.32051 12.0359 5.32018ZM12.6352 5.80651L12.6701 5.82132C12.7868 5.87072 12.9654 5.9518 13.1231 6.03491C13.2017 6.07639 13.2768 6.11924 13.3367 6.1596C13.3667 6.17976 13.3942 6.20021 13.4171 6.22041C13.4387 6.23952 13.4615 6.26312 13.4759 6.29036C13.4861 6.30971 13.4888 6.32956 13.4898 6.34194C13.491 6.35599 13.4907 6.3708 13.4897 6.38522C13.4877 6.41414 13.4824 6.44915 13.4749 6.48797C13.4599 6.56605 13.4346 6.668 13.4024 6.78465C13.3378 7.0184 13.2438 7.31735 13.144 7.61522C13.0441 7.9132 12.938 8.21128 12.8491 8.44348C12.8047 8.55947 12.7643 8.6598 12.7308 8.73574C12.7141 8.77363 12.6988 8.80638 12.6853 8.83236C12.6731 8.85559 12.6584 8.88157 12.6421 8.89911C12.6091 8.93454 12.5605 8.95164 12.5193 8.96134C12.4746 8.97182 12.4218 8.97727 12.3656 8.97911C12.2528 8.98281 12.1158 8.97227 11.9798 8.95077C11.8439 8.92927 11.7056 8.89625 11.5906 8.8534C11.5332 8.83199 11.4797 8.80742 11.4347 8.77943C11.3906 8.75204 11.349 8.71796 11.3221 8.67525L11.302 8.64324L11.3124 8.60689C11.4322 8.1917 11.6385 7.55619 11.8683 6.99821C11.9831 6.71942 12.1047 6.45773 12.2253 6.25194C12.2856 6.14907 12.3467 6.0584 12.4077 5.98599C12.4678 5.91464 12.5323 5.85556 12.6009 5.82285L12.6352 5.80651ZM12.6428 5.99322C12.612 6.01447 12.5764 6.04765 12.5367 6.09473C12.484 6.15729 12.4284 6.23921 12.3709 6.33728C12.256 6.53338 12.1378 6.78695 12.0243 7.06248C11.8055 7.5939 11.6075 8.19861 11.4873 8.60983C11.4966 8.61779 11.5085 8.62662 11.5237 8.63608C11.5563 8.65632 11.5988 8.67634 11.6496 8.69527C11.7511 8.73311 11.8779 8.76378 12.0062 8.78407C12.1345 8.80436 12.2605 8.81369 12.3601 8.81043C12.4101 8.8088 12.4508 8.80406 12.4807 8.79704C12.5074 8.79077 12.5172 8.78457 12.5187 8.78372C12.5188 8.78367 12.5188 8.78361 12.5189 8.78355C12.5204 8.7812 12.526 8.77284 12.5356 8.75433C12.5467 8.73298 12.5604 8.70397 12.5764 8.66773C12.6082 8.59541 12.6475 8.49796 12.6915 8.38312C12.7794 8.15366 12.8847 7.8579 12.984 7.56159C13.0833 7.26517 13.1763 6.96939 13.2397 6.7397C13.2715 6.62463 13.2954 6.52769 13.3092 6.45617C13.3161 6.42019 13.32 6.39272 13.3213 6.37355C13.3216 6.3693 13.3217 6.36583 13.3218 6.36306C13.318 6.35876 13.3126 6.35332 13.3052 6.34677C13.2899 6.33325 13.2689 6.3174 13.2425 6.29961C13.1897 6.26407 13.1206 6.22441 13.0443 6.1842C12.9084 6.11252 12.755 6.04182 12.6428 5.99322ZM13.3215 6.35449C13.3215 6.3545 13.3216 6.35478 13.3216 6.35537C13.3215 6.35479 13.3215 6.35449 13.3215 6.35449ZM14.0098 6.87201C14.0098 6.87199 14.0102 6.872 14.0111 6.87213C14.0103 6.8721 14.0098 6.87203 14.0098 6.87201ZM14.0397 6.87999C14.0652 6.88866 14.0997 6.90311 14.1414 6.92264C14.2251 6.9618 14.3304 7.01788 14.4358 7.07765C14.5411 7.1373 14.645 7.19981 14.7257 7.25142C14.7662 7.27727 14.8001 7.29996 14.8251 7.31792C14.8344 7.32453 14.842 7.33024 14.8481 7.33503C14.8463 7.34969 14.8417 7.37061 14.834 7.39786C14.817 7.4575 14.7882 7.53461 14.7549 7.61658C14.7218 7.69803 14.6852 7.78189 14.6532 7.85456C14.6477 7.86706 14.6423 7.8793 14.637 7.89118C14.6123 7.94722 14.591 7.99527 14.5791 8.02517C14.535 8.13549 14.1932 8.99442 14.0279 9.40997L14.0226 9.42324L14.0222 9.43241C14.0199 9.43582 14.0123 9.44401 13.9912 9.45316C13.9513 9.47053 13.8707 9.48597 13.7241 9.46765C13.5437 9.4451 13.3961 9.38137 13.301 9.29512C13.21 9.2126 13.1668 9.11023 13.1827 8.99403C13.3181 8.63503 13.5237 8.10013 13.7048 7.65113C13.796 7.42472 13.8807 7.22097 13.9469 7.0728C13.9801 6.9985 14.008 6.93953 14.0293 6.89905C14.0331 6.8919 14.0366 6.88556 14.0397 6.87999ZM14.0232 9.43074C14.0232 9.43074 14.0232 9.43091 14.023 9.43121C14.0231 9.43089 14.0232 9.43074 14.0232 9.43074ZM14.9611 7.20922C14.9704 7.21685 14.9826 7.22741 14.992 7.23913C15.0088 7.2602 15.0143 7.28352 15.0164 7.2992C15.0186 7.31579 15.0181 7.33237 15.0166 7.3471C15.0137 7.37659 15.006 7.41016 14.9963 7.44416C14.9767 7.51282 14.9451 7.59675 14.9113 7.6801C14.8772 7.76399 14.8397 7.84977 14.8076 7.92263C14.8018 7.93583 14.7962 7.94852 14.7908 7.96067C14.7661 8.01671 14.7465 8.06102 14.7358 8.08785C14.6921 8.19706 14.3557 9.04248 14.1889 9.46193C14.179 9.52321 14.1306 9.57658 14.0585 9.60794C13.9799 9.64211 13.8652 9.65537 13.7032 9.63512C13.4978 9.60944 13.3147 9.53538 13.1876 9.42013C13.0585 9.30304 12.988 9.14302 13.0172 8.95944L13.0185 8.95097L13.0216 8.94294C13.1572 8.58324 13.3651 8.04217 13.5482 7.58802C13.6397 7.36108 13.7253 7.15504 13.7928 7.00399C13.8264 6.92869 13.8561 6.86569 13.8801 6.82023C13.892 6.79775 13.9035 6.77761 13.9141 6.76188C13.9194 6.75414 13.9258 6.74546 13.9331 6.73758C13.938 6.73239 13.9534 6.71591 13.9781 6.7083C14.0038 6.70042 14.0287 6.70382 14.0422 6.70621C14.0586 6.70912 14.076 6.71412 14.0931 6.71988C14.1274 6.73147 14.1686 6.74902 14.213 6.7698C14.3023 6.81158 14.4118 6.87003 14.5191 6.93082C14.6265 6.99173 14.7331 7.05579 14.8167 7.10924C14.8584 7.13592 14.895 7.16038 14.9234 7.18074C14.9376 7.19089 14.9504 7.20051 14.9611 7.20922ZM15.585 8.07522C15.5837 8.07694 15.5819 8.07947 15.5796 8.08299C15.5724 8.09376 15.5633 8.1093 15.5522 8.12999C15.5301 8.17123 15.5026 8.22815 15.471 8.29794C15.4079 8.43725 15.3302 8.62321 15.2478 8.82741C15.092 9.2137 14.9211 9.66221 14.8041 9.97644C14.9088 10.0725 15.1197 10.2416 15.3559 10.3574C15.417 10.3873 15.4707 10.3823 15.5238 10.3551C15.581 10.3258 15.6376 10.2702 15.6901 10.1994C15.7892 10.066 15.8561 9.90421 15.8781 9.85081C15.8794 9.84773 15.8805 9.84502 15.8815 9.84269C15.8972 9.80493 16.0289 9.44102 16.1468 9.06948C16.2055 8.8841 16.2601 8.69912 16.2948 8.5536C16.3122 8.48055 16.3241 8.41976 16.3292 8.37481C16.3318 8.3522 16.3324 8.3361 16.3319 8.3257C16.3319 8.32546 16.3318 8.32523 16.3318 8.32501C16.3308 8.32401 16.3296 8.3229 16.3283 8.32169C16.3222 8.31613 16.3137 8.30939 16.3026 8.30162C16.2803 8.28602 16.2504 8.26847 16.2144 8.24995C16.1425 8.21299 16.0513 8.17494 15.9581 8.14331C15.8646 8.11158 15.7722 8.08739 15.6977 8.07675C15.6603 8.07141 15.6303 8.06991 15.6082 8.07152C15.5955 8.07244 15.5883 8.0742 15.585 8.07522ZM16.331 8.31809C16.3311 8.31809 16.3311 8.31829 16.3312 8.31868C16.3311 8.31828 16.331 8.31807 16.331 8.31809ZM16.3992 8.16326C16.428 8.18332 16.4581 8.20807 16.4774 8.23703C16.4957 8.26451 16.4993 8.29649 16.5004 8.31677C16.5016 8.34032 16.5 8.36676 16.4969 8.39403C16.4906 8.44887 16.477 8.51725 16.459 8.59273C16.4229 8.74429 16.3668 8.93389 16.3076 9.1205C16.1895 9.49295 16.056 9.86269 16.0373 9.9076C16.0363 9.90988 16.0352 9.91266 16.0338 9.9159C16.0118 9.96936 15.9379 10.1489 15.8256 10.3C15.7663 10.38 15.6911 10.4591 15.6006 10.5054C15.506 10.5538 15.3961 10.565 15.2816 10.5089C14.99 10.366 14.7378 10.1507 14.6459 10.0588L14.6077 10.0206L14.6265 9.96981C14.7438 9.65363 14.9259 9.17441 15.0913 8.7643C15.1739 8.55937 15.2527 8.37083 15.3173 8.22829C15.3495 8.15716 15.3787 8.09631 15.4035 8.05019C15.4158 8.0272 15.4277 8.00667 15.4388 7.98986C15.4484 7.9754 15.4625 7.95563 15.4804 7.94168C15.5156 7.91435 15.5597 7.90583 15.5959 7.90319C15.6345 7.90038 15.6776 7.9034 15.7216 7.90968C15.8099 7.92229 15.913 7.94977 16.0123 7.98348C16.112 8.0173 16.2111 8.05846 16.2916 8.09986C16.3318 8.12053 16.3687 8.14194 16.3992 8.16326Z" fill="black"/>
<path d="M15.7616 8.43419C15.6468 8.44239 15.2012 9.58233 14.9928 10.1513L14.7724 9.977C14.9535 9.3568 15.3649 8.10819 15.5617 8.07539C15.7585 8.04258 16.17 8.22232 16.3511 8.3163L16.2896 8.65459C16.1614 8.57771 15.8764 8.42599 15.7616 8.43419Z" fill="#444D56"/>
<path d="M17.0301 8.76909C16.8051 8.79813 16.3072 10.1243 16.0864 10.7837C16.0644 10.8488 16.7035 11.3645 16.8668 11.3282C17.0302 11.2919 17.9013 9.53137 17.8923 9.38617C17.8832 9.24098 17.3115 8.73279 17.0301 8.76909Z" fill="#94989D"/>
<path fill-rule="evenodd" clip-rule="evenodd" d="M17.0432 8.85247C17.042 8.85297 17.0391 8.8544 17.0343 8.85784C17.0252 8.86437 17.0129 8.87545 16.9977 8.89269C16.9672 8.92723 16.9316 8.9788 16.8919 9.04615C16.8128 9.18033 16.7242 9.36564 16.6345 9.57333C16.4611 9.97521 16.2878 10.4516 16.1772 10.7795C16.1895 10.7947 16.2088 10.8153 16.2349 10.8403C16.2912 10.8943 16.3714 10.9615 16.458 11.0263C16.5448 11.0911 16.6356 11.1515 16.7132 11.1931C16.7521 11.2139 16.7855 11.2289 16.812 11.2375C16.8272 11.2425 16.8372 11.2443 16.843 11.2451C16.8441 11.244 16.8455 11.2428 16.8469 11.2414C16.858 11.2306 16.8729 11.2135 16.8914 11.1891C16.9282 11.1407 16.9738 11.0712 17.0255 10.986C17.1285 10.816 17.2514 10.59 17.3695 10.3594C17.4875 10.1291 17.6 9.89566 17.6822 9.7113C17.7233 9.61899 17.7565 9.53992 17.7789 9.48011C17.7901 9.4501 17.7982 9.42613 17.8033 9.40839C17.806 9.39889 17.8072 9.39308 17.8078 9.39016C17.8064 9.38641 17.8027 9.37688 17.7927 9.3606C17.7789 9.33826 17.758 9.31055 17.7303 9.27898C17.675 9.21603 17.5979 9.14354 17.5116 9.07586C17.4253 9.00811 17.3324 8.94718 17.2461 8.90575C17.1582 8.86354 17.0888 8.84725 17.0432 8.85247ZM17.9364 9.27218C17.9551 9.30259 17.9744 9.34115 17.9769 9.38081C17.9785 9.40601 17.9714 9.43422 17.9656 9.45444C17.9588 9.47846 17.949 9.50724 17.9369 9.53933C17.9128 9.60373 17.8781 9.68631 17.8363 9.78003C17.7526 9.96773 17.6388 10.2039 17.5197 10.4364C17.4007 10.6687 17.2758 10.8986 17.1698 11.0735C17.117 11.1606 17.0678 11.2359 17.0257 11.2912C17.0048 11.3187 16.9842 11.3433 16.9646 11.3624C16.9484 11.3781 16.9207 11.4026 16.8855 11.4104C16.8424 11.42 16.7966 11.41 16.7598 11.398C16.7202 11.3851 16.677 11.3652 16.6334 11.3418C16.5459 11.2949 16.4477 11.2292 16.357 11.1615C16.2662 11.0937 16.1805 11.022 16.1181 10.9622C16.0872 10.9325 16.06 10.9039 16.0406 10.8788C16.0311 10.8666 16.0212 10.8523 16.014 10.8372C16.0092 10.8272 15.9942 10.7945 16.0068 10.7568M17.9364 9.27218C17.9161 9.23907 17.8887 9.20354 17.8571 9.16762L17.9364 9.27218ZM17.8571 9.16762C17.7938 9.09559 17.7088 9.01607 17.6158 8.94309L17.8571 9.16762ZM17.6158 8.94309C17.5229 8.87019 17.4195 8.80181 17.3192 8.75362L17.6158 8.94309ZM17.3192 8.75362C17.2217 8.70679 17.1149 8.67304 17.0197 8.68531L17.3192 8.75362ZM17.0197 8.68531C16.987 8.68953 16.9588 8.70439 16.9362 8.72049L17.0197 8.68531ZM16.9362 8.72049C16.9133 8.7369 16.8915 8.75793 16.8712 8.78102L16.9362 8.72049ZM16.8712 8.78102C16.8305 8.82714 16.7886 8.88908 16.7465 8.96044L16.8712 8.78102ZM16.7465 8.96044C16.662 9.10369 16.5702 9.29657 16.4796 9.50646L16.7465 8.96044ZM16.4796 9.50646C16.2982 9.92692 16.1177 10.4256 16.0068 10.7567L16.4796 9.50646Z" fill="black"/>
<path d="M17.3841 14.0563C17.3276 13.8391 17.2899 13.6371 17.2685 13.4657L17.3841 14.0563C17.653 15.0907 18.347 16.4718 19.7287 16.5546C19.6843 16.819 19.4763 17.4141 18.9989 17.6791C18.5216 17.9442 18.0847 17.219 17.9259 16.8233L17.3841 14.0563Z" fill="#A5A3A2"/>
<path fill-rule="evenodd" clip-rule="evenodd" d="M8.45108 8.8091C8.89661 6.26847 10.4704 4.50886 11.2154 3.93741L11.4208 4.20522C10.7293 4.73573 9.21174 6.42563 8.78355 8.8674L8.45108 8.8091Z" fill="black"/>
<path d="M19.5745 15.6882C19.5745 16.5118 19.2651 17.1794 18.8834 17.1794C18.5017 17.1794 18.1923 16.5118 18.1923 15.6882C18.1923 14.8646 18.5017 14.1969 18.8834 14.1969C19.2651 14.1969 19.5745 14.8646 19.5745 15.6882Z" fill="#AAACAE"/>
<path fill-rule="evenodd" clip-rule="evenodd" d="M19.1424 16.6362C19.2488 16.4067 19.3214 16.0717 19.3214 15.6882C19.3214 15.3046 19.2488 14.9697 19.1424 14.7402C19.0262 14.4895 18.9165 14.4501 18.8834 14.4501C18.8503 14.4501 18.7406 14.4895 18.6244 14.7402C18.518 14.9697 18.4454 15.3046 18.4454 15.6882C18.4454 16.0717 18.518 16.4067 18.6244 16.6362C18.7406 16.8869 18.8503 16.9263 18.8834 16.9263C18.9165 16.9263 19.0262 16.8869 19.1424 16.6362ZM18.8834 17.1794C19.2651 17.1794 19.5745 16.5118 19.5745 15.6882C19.5745 14.8646 19.2651 14.1969 18.8834 14.1969C18.5017 14.1969 18.1923 14.8646 18.1923 15.6882C18.1923 16.5118 18.5017 17.1794 18.8834 17.1794Z" fill="black"/>
<path d="M19.2031 15.6881C19.2031 16.1426 19.0601 16.511 18.8837 16.511C18.7072 16.511 18.5642 16.1426 18.5642 15.6881C18.5642 15.2336 18.7072 14.8652 18.8837 14.8652C19.0601 14.8652 19.2031 15.2336 19.2031 15.6881Z" fill="#939393"/>
<path fill-rule="evenodd" clip-rule="evenodd" d="M18.8837 16.1507C18.9223 16.0381 18.95 15.8762 18.95 15.6881C18.95 15.5001 18.9223 15.3382 18.8837 15.2255C18.845 15.3382 18.8174 15.5001 18.8174 15.6881C18.8174 15.8762 18.845 16.0381 18.8837 16.1507ZM18.8837 16.511C19.0601 16.511 19.2031 16.1426 19.2031 15.6881C19.2031 15.2336 19.0601 14.8652 18.8837 14.8652C18.7072 14.8652 18.5642 15.2336 18.5642 15.6881C18.5642 16.1426 18.7072 16.511 18.8837 16.511Z" fill="black"/>
<path d="M17.1798 9.32634C17.0437 9.33332 16.5412 10.432 16.3069 10.9804C16.2936 10.9804 16.1996 10.8611 16.1542 10.8015C16.255 10.2943 16.6935 9.29729 17.0259 8.82877C17.2834 8.82877 17.7996 9.2958 17.8257 9.36563C17.8467 9.42149 17.7676 9.56347 17.7254 9.62748C17.6003 9.5242 17.316 9.31936 17.1798 9.32634Z" fill="#444D56"/>
<path d="M14.105 7.36417C13.9947 7.36417 13.5006 8.64798 13.2673 9.28988C13.1478 9.1897 13.1595 9.03833 13.1485 8.9907C13.1398 8.95259 13.7327 7.56027 14.0302 6.86887C14.1185 6.86887 14.8557 7.29889 14.8629 7.31702C14.8687 7.33152 14.8025 7.52615 14.7686 7.62165C14.5933 7.53582 14.2152 7.36416 14.105 7.36417Z" fill="#444D56"/>
<path d="M12.6958 6.49374C12.4611 6.51012 11.9794 7.99775 11.7678 8.73952C11.7079 8.73952 11.5335 8.68447 11.4538 8.65694C11.9111 7.10106 12.5662 5.98874 12.6344 5.96826C12.7026 5.94779 13.2483 6.28758 13.3239 6.33918C13.3919 6.38561 13.3138 6.61575 13.2592 6.73404C13.1637 6.64305 12.9306 6.47735 12.6958 6.49374Z" fill="#444D56"/>
<path d="M11.3433 5.37364C11.3859 5.34327 11.7153 5.57354 11.8747 5.69248L12.0465 5.32876C11.984 5.12666 11.5795 4.84036 11.3851 4.72247C11.0681 5.0394 10.2481 6.57975 10.1502 6.79621C10.0718 6.96938 9.92166 7.90945 9.85637 8.35784C9.92234 8.41968 10.1038 8.38361 10.1862 8.35784C10.2635 7.70845 11.2902 5.4116 11.3433 5.37364Z" fill="#444D56"/>
<path d="M6.47502 7.78002C6.50595 7.69189 6.87098 7.46543 7.04963 7.36321L7.12407 6.98511C6.73346 7.1685 6.41946 7.50016 6.31129 7.64307L6.18921 8.78036L6.42444 8.66127C6.42841 8.40424 6.44408 7.86815 6.47502 7.78002Z" fill="#444D56"/>
<path d="M19.2849 11.254C19.5957 12.5637 19.7288 15.2416 19.7566 16.5642C19.8479 15.795 19.9593 15.6464 19.7566 12.9976C19.5537 10.3476 19.1038 9.52219 18.6668 8.72223C17.6753 8.45578 14.5827 6.47721 13.1603 5.52122L11.3482 4.23184L10.9687 4.5794C11.0879 4.49847 11.2488 4.44778 11.3144 4.43256C12.2461 5.56389 16.4805 7.80371 18.4812 8.7822C18.6196 9.06046 18.9741 9.94438 19.2849 11.254Z" fill="white"/>
<path d="M5.69424 7.98033C6.63592 7.08146 9.10317 5.63381 10.2191 5.02234L10.5554 4.60196C9.72994 5.09623 7.91846 6.18873 7.27641 6.60453C6.63437 7.02033 5.95411 7.69498 5.69424 7.98033Z" fill="white"/>
<path d="M16.2745 5.24822C14.7642 4.50586 12.7761 4.32028 11.9708 4.32029L11.7372 4.11312C13.4813 3.95923 16.1568 4.32029 18.6909 6.59932C20.7181 8.42255 20.9293 11.1348 20.7815 12.2631C20.8074 8.48219 18.1624 6.17616 16.2745 5.24822Z" fill="white"/>
<path d="M19.0587 8.08044C17.893 7.64329 14.6801 5.46844 13.2194 4.43566C13.1829 4.40985 12.3678 4.35543 11.9648 4.33145C12.2645 4.51916 13.2981 5.19251 15.0348 6.38419C16.7714 7.57587 18.3455 8.25032 18.9155 8.43858C19.1211 8.9298 19.574 10.0335 19.7412 10.5184C19.9084 11.0034 20.1214 13.3552 20.207 14.4705L20.4616 13.8278C20.7621 11.4668 19.6516 9.01247 19.0587 8.08044Z" fill="#7F7F81"/>
<path d="M12.6731 3.4558L12.6303 3.93621C12.7893 3.84922 14.7952 4.32724 15.7783 4.57712C15.888 4.43671 16.0578 4.25321 15.6285 3.90924C15.2528 3.60816 13.8885 3.27686 13.033 3.16065C12.8503 3.13584 12.6895 3.27216 12.6731 3.4558Z" fill="#A2A6A9"/>
<path fill-rule="evenodd" clip-rule="evenodd" d="M13.0098 3.32773C12.9284 3.31668 12.8491 3.37677 12.8408 3.47063L12.8147 3.76268C12.8884 3.76939 12.9777 3.78163 13.0774 3.79775C13.3077 3.83496 13.6075 3.89512 13.9306 3.96525C14.5311 4.09562 15.2199 4.26223 15.7097 4.38563C15.7281 4.35723 15.7358 4.33714 15.7363 4.31538C15.7369 4.28921 15.724 4.20225 15.5225 4.04079C15.4498 3.98247 15.3143 3.91282 15.1233 3.83881C14.9364 3.76637 14.7098 3.69484 14.4658 3.62829C13.9776 3.49514 13.4299 3.38479 13.0098 3.32773ZM12.5046 3.44066C12.5289 3.16724 12.7712 2.95468 13.0552 2.99326C13.4907 3.05241 14.0529 3.16581 14.5546 3.30264C14.8056 3.37108 15.044 3.44608 15.2453 3.52407C15.4425 3.6005 15.6185 3.68516 15.7336 3.77739C15.9614 3.95989 16.0781 4.13666 16.0738 4.32333C16.07 4.48238 15.9729 4.60336 15.9234 4.66507C15.9188 4.67085 15.9145 4.67611 15.9109 4.68083L15.843 4.76767L15.7363 4.74053C15.2458 4.61588 14.5006 4.43441 13.859 4.29511C13.5378 4.22538 13.2449 4.16673 13.0236 4.13096C12.9125 4.11301 12.8229 4.1014 12.7582 4.09669C12.7255 4.09432 12.7031 4.094 12.6892 4.09471C12.6885 4.09476 12.6877 4.0948 12.687 4.09484C12.6376 4.11263 12.5822 4.10655 12.5374 4.07727C12.4853 4.04316 12.4562 3.98311 12.4617 3.92106L12.5046 3.44066ZM12.6794 4.09566C12.6793 4.09563 12.6801 4.09547 12.6818 4.09528C12.6803 4.09559 12.6794 4.09569 12.6794 4.09566Z" fill="black"/>
<path d="M15.7307 4.31602C15.3883 4.03357 13.6655 3.66596 12.8469 3.51747L12.8512 3.4252C12.9324 3.32747 13.0161 3.32036 13.0478 3.32901C13.3515 3.37332 14.1444 3.52055 14.8862 3.75506C15.6281 3.98958 15.7583 4.22675 15.7307 4.31602Z" fill="white"/>
</svg>
