<svg width="51" height="20" viewBox="0 0 51 20" fill="none" xmlns="http://www.w3.org/2000/svg">
<rect x="0.5" y="0.5" width="49.502" height="18.5714" rx="9.28571" fill="#62D732" stroke="#309C04"/>
<path d="M12.3185 13.3286V11.893C12.3185 11.7137 12.3185 11.624 12.2903 11.5529C12.2496 11.4502 12.1683 11.3689 12.0656 11.3282C11.9945 11.3 11.9048 11.3 11.7255 11.3C10.5363 11.3 9.94163 11.3 9.57798 11.0973C9.05197 10.8041 8.73481 10.2408 8.75695 9.63898C8.77226 9.22294 9.08068 8.71454 9.69747 7.69774L10.8326 5.82652C11.433 4.83679 11.7332 4.34194 12.0258 4.42378C12.3185 4.5056 12.3185 5.08439 12.3185 6.24197V7.67762C12.3185 7.85694 12.3185 7.94659 12.3467 8.0177C12.3874 8.1204 12.4687 8.20172 12.5714 8.24243C12.6425 8.27062 12.7322 8.27062 12.9115 8.27062C14.1008 8.27062 14.6954 8.27062 15.059 8.4733C15.5851 8.76646 15.9022 9.32985 15.8801 9.93162C15.8648 10.3477 15.5563 10.8561 14.9395 11.8729L13.8044 13.7441C13.204 14.7338 12.9038 15.2287 12.6112 15.1468C12.3185 15.065 12.3185 14.4862 12.3185 13.3286Z" fill="white"/>
<path d="M22.544 12.3696H26.312V13.7856H20.6V12.4896L24.344 6.82564H20.6V5.40964H26.312V6.70564L22.544 12.3696ZM26.8301 10.4376C26.8301 9.76564 26.9621 9.16964 27.2261 8.64964C27.4981 8.12964 27.8621 7.72964 28.3181 7.44964C28.7821 7.16964 29.2981 7.02964 29.8661 7.02964C30.3621 7.02964 30.7941 7.12964 31.1621 7.32964C31.5381 7.52964 31.8381 7.78164 32.0621 8.08564V7.13764H33.7541V13.7856H32.0621V12.8136C31.8461 13.1256 31.5461 13.3856 31.1621 13.5936C30.7861 13.7936 30.3501 13.8936 29.8541 13.8936C29.2941 13.8936 28.7821 13.7496 28.3181 13.4616C27.8621 13.1736 27.4981 12.7696 27.2261 12.2496C26.9621 11.7216 26.8301 11.1176 26.8301 10.4376ZM32.0621 10.4616C32.0621 10.0536 31.9821 9.70564 31.8221 9.41764C31.6621 9.12164 31.4461 8.89764 31.1741 8.74564C30.9021 8.58564 30.6101 8.50564 30.2981 8.50564C29.9861 8.50564 29.6981 8.58164 29.4341 8.73364C29.1701 8.88564 28.9541 9.10964 28.7861 9.40564C28.6261 9.69364 28.5461 10.0376 28.5461 10.4376C28.5461 10.8376 28.6261 11.1896 28.7861 11.4936C28.9541 11.7896 29.1701 12.0176 29.4341 12.1776C29.7061 12.3376 29.9941 12.4176 30.2981 12.4176C30.6101 12.4176 30.9021 12.3416 31.1741 12.1896C31.4461 12.0296 31.6621 11.8056 31.8221 11.5176C31.9821 11.2216 32.0621 10.8696 32.0621 10.4616ZM36.5949 8.09764C36.8109 7.79364 37.1069 7.54164 37.4829 7.34164C37.8669 7.13364 38.3029 7.02964 38.7909 7.02964C39.3589 7.02964 39.8709 7.16964 40.3269 7.44964C40.7909 7.72964 41.1549 8.12964 41.4189 8.64964C41.6909 9.16164 41.8269 9.75764 41.8269 10.4376C41.8269 11.1176 41.6909 11.7216 41.4189 12.2496C41.1549 12.7696 40.7909 13.1736 40.3269 13.4616C39.8709 13.7496 39.3589 13.8936 38.7909 13.8936C38.3029 13.8936 37.8709 13.7936 37.4949 13.5936C37.1269 13.3936 36.8269 13.1416 36.5949 12.8376V16.9536H34.9149V7.13764H36.5949V8.09764ZM40.1109 10.4376C40.1109 10.0376 40.0269 9.69364 39.8589 9.40564C39.6989 9.10964 39.4829 8.88564 39.2109 8.73364C38.9469 8.58164 38.6589 8.50564 38.3469 8.50564C38.0429 8.50564 37.7549 8.58564 37.4829 8.74564C37.2189 8.89764 37.0029 9.12164 36.8349 9.41764C36.6749 9.71364 36.5949 10.0616 36.5949 10.4616C36.5949 10.8616 36.6749 11.2096 36.8349 11.5056C37.0029 11.8016 37.2189 12.0296 37.4829 12.1896C37.7549 12.3416 38.0429 12.4176 38.3469 12.4176C38.6589 12.4176 38.9469 12.3376 39.2109 12.1776C39.4829 12.0176 39.6989 11.7896 39.8589 11.4936C40.0269 11.1976 40.1109 10.8456 40.1109 10.4376Z" fill="white"/>
</svg>
