<svg width="31" height="31" viewBox="0 0 31 31" fill="none" xmlns="http://www.w3.org/2000/svg">
<path d="M30.1268 15.0634C30.1268 23.3827 23.3827 30.1268 15.0634 30.1268C6.74411 30.1268 0 23.3827 0 15.0634C0 6.74411 6.74411 0 15.0634 0C23.3827 0 30.1268 6.74411 30.1268 15.0634Z" fill="white"/>
<path fill-rule="evenodd" clip-rule="evenodd" d="M15.0634 25.0528C20.5804 25.0528 25.0528 20.5804 25.0528 15.0634C25.0528 9.54639 20.5804 5.07398 15.0634 5.07398C9.54639 5.07398 5.07398 9.54639 5.07398 15.0634C5.07398 20.5804 9.54639 25.0528 15.0634 25.0528ZM15.0634 30.1268C23.3827 30.1268 30.1268 23.3827 30.1268 15.0634C30.1268 6.74411 23.3827 0 15.0634 0C6.74411 0 0 6.74411 0 15.0634C0 23.3827 6.74411 30.1268 15.0634 30.1268Z" fill="black"/>
<path d="M20.7862 6.77749C18.9449 5.45182 17.2571 7.32986 16.6434 8.43458C17.1651 8.92558 17.5457 10.773 14.8942 14.2346C12.2428 17.6961 8.02014 19.2367 6.24023 19.5742C7.43706 24.7298 18.5767 27.952 23.364 21.2314C28.1513 14.5107 23.0878 8.43458 20.7862 6.77749Z" fill="#EDEDED"/>
<path d="M18.7638 8.77602C10.2292 6.24316 6.30918 13.7197 7.89356 17.5971C9.87387 20.807 17.363 19.2951 19.9506 17.7133C22.0206 16.4478 20.0011 11.1166 18.7638 8.77602Z" fill="#ADB4B4"/>
<path d="M18.9604 21.0539C23.3734 18.112 22.8357 11.9473 18.9604 9.18744C18.9604 20.8626 11.94 19.9582 8.42981 18.0466C9.83984 21.0539 14.5475 23.9958 18.9604 21.0539Z" fill="black"/>
<path fill-rule="evenodd" clip-rule="evenodd" d="M18.7082 8.69522L19.109 8.98071C23.1067 11.8278 23.6854 18.2097 19.1026 21.2649C16.8197 22.7868 14.4513 22.7878 12.4782 22.0174C10.5155 21.2512 8.93537 19.7194 8.20152 18.1543L7.87305 17.4537L8.55256 17.8238C10.2786 18.7637 12.8206 19.4271 14.9081 18.4809C16.9669 17.5478 18.7082 14.9856 18.7082 9.18736V8.69522ZM19.211 9.69818C19.111 15.2289 17.3781 17.9186 15.1176 18.9431C13.1155 19.8505 10.7929 19.404 9.04807 18.6324C9.82275 19.8268 11.1132 20.9398 12.6627 21.5448C14.4992 22.2618 16.6911 22.2627 18.8211 20.8427C22.9099 18.1169 22.5973 12.495 19.211 9.69818Z" fill="black"/>
</svg>
