<svg width="400" height="255" viewBox="0 0 400 255" fill="none" xmlns="http://www.w3.org/2000/svg">
<g filter="url(#filter0_d_1_536)">
<path fill-rule="evenodd" clip-rule="evenodd" d="M289.459 14.9418C288.719 92.1936 291.144 173.967 289.932 250.339C288.724 251.68 287.346 252.907 285.822 253.998C270.245 254.136 254.402 253.808 238.332 253.221L235.476 250.667L232.907 253.031C220.701 252.548 208.371 251.944 195.918 251.305C193.308 232.32 195.918 32.5461 198.281 18.9632L202.35 15.3043C224.153 13.0433 279.328 13.8027 289.459 14.9418Z" fill="url(#paint0_linear_1_536)"/>
<path fill-rule="evenodd" clip-rule="evenodd" d="M242.441 249.562L238.331 253.221L235.475 250.667L236.893 249.355L233.872 249.234L224.851 241.157L228.838 237.498C233.441 241.399 237.941 245.426 242.339 249.579L242.441 249.562Z" fill="url(#paint1_linear_1_536)"/>
<path fill-rule="evenodd" clip-rule="evenodd" d="M383.903 16.15C386.43 24.3136 387.047 177.281 379.793 249.148L375.806 252.807C369.169 253.791 302.219 252.807 290.999 250.115C288.8 170.93 289.211 98.8557 291.575 20.3095L295.684 16.685C306.185 15.1317 331.091 16.4434 351.558 15.8739C352.043 22.9089 352.997 29.9155 354.414 36.8609L354.702 34.0995C355.339 27.9035 355.976 21.7592 356.387 15.7876L360.394 12.0769C371.881 11.887 381.54 15.5977 383.903 16.15Z" fill="url(#paint2_linear_1_536)"/>
<path fill-rule="evenodd" clip-rule="evenodd" d="M194.275 17.0822C196.001 34.6347 197.131 211.903 193.987 248.354C192.771 249.69 191.394 250.916 189.877 252.013C179.15 253.636 121.099 254.637 100.22 253.48C101.782 174.278 102.481 94.9035 100.22 15.3045C101.413 13.9797 102.755 12.7544 104.227 11.6455C122.496 10.9724 185.747 15.8223 194.275 17.0822Z" fill="url(#paint3_linear_1_536)"/>
<path fill-rule="evenodd" clip-rule="evenodd" d="M97.3631 20.3439C99.418 38.9837 103.158 215.717 101.37 247.215C100.151 248.521 98.8114 249.745 97.3631 250.874C84.7457 251.599 72.1284 252.082 59.5111 252.393C60.3125 245.023 61.9976 236.946 63.3949 230.974C60.9907 237.153 59.9221 243.194 57.4562 248.872L53.5929 252.531C37.2562 252.876 20.9194 252.945 4.5621 252.824C1.71015 232.885 0.187116 212.827 0.000135579 192.745C3.42503 133.892 4.93198 75.0265 4.521 16.1499C5.71629 14.8101 7.0958 13.5935 8.63087 12.5255C17.1383 12.3011 30.0639 15.9773 42.8661 16.3397C41.551 21.8972 40.4619 27.679 39.5166 33.5989L42.8661 25.746L46.7911 16.4433C48.0394 15.1311 49.414 13.9074 50.901 12.7844C71.2654 13.5783 90.479 18.756 97.5275 20.3266L97.3631 20.3439Z" fill="url(#paint4_linear_1_536)"/>
<path fill-rule="evenodd" clip-rule="evenodd" d="M387.91 12.5258C390.479 20.8619 387.335 179.093 379.896 249.148C373.279 250.115 306.329 249.148 295.109 246.456C292.89 167.254 293.321 95.1969 295.684 16.6507C300.596 14.7522 330.885 12.9055 355.565 12.1978C356.054 19.2145 357.001 26.2034 358.401 33.1331L358.689 30.3889C359.346 24.1929 360.024 18.0487 360.394 12.077C374.08 11.7664 385.238 11.8526 387.91 12.5258Z" fill="url(#paint5_radial_1_536)"/>
<path fill-rule="evenodd" clip-rule="evenodd" d="M293.466 11.2657C292.705 89.881 291.164 172.811 289.931 250.339C274.355 250.477 258.511 250.149 242.442 249.562L237.099 244.678C235.331 243.09 233.544 241.502 231.735 239.932C230.811 239.103 229.886 238.309 228.941 237.498C231.681 241.502 234.366 245.455 236.996 249.355C224.81 248.889 212.481 248.285 200.007 247.629C197.397 228.644 200.007 28.8873 202.35 15.3043C219.221 12.8708 282.492 10.1266 293.466 11.2657Z" fill="url(#paint6_radial_1_536)"/>
<g opacity="0.5" style="mix-blend-mode:multiply">
<path d="M302.015 15.4595C299.133 23.2993 296.807 31.2755 295.048 39.3461L295.541 21.1723C296.035 19.4464 296.569 17.9103 297.124 16.2707C298.316 15.9946 299.98 15.7357 302.015 15.4595ZM326.797 210.815C327.254 209.247 327.59 207.656 327.804 206.052C328.017 204.598 328.086 203.132 328.009 201.668C327.945 200.219 327.746 198.776 327.414 197.353C327.177 196.403 326.783 195.485 326.242 194.626C325.73 193.785 325.131 192.982 324.454 192.227C323.752 191.403 322.961 190.635 322.091 189.932C320.487 188.647 318.584 187.654 316.502 187.015C315.41 186.676 314.254 186.507 313.091 186.515C311.96 186.544 310.845 186.749 309.803 187.119C308.811 187.457 307.931 187.99 307.234 188.672C306.265 189.656 305.462 190.748 304.85 191.917C304.184 193.19 303.688 194.521 303.371 195.886C302.949 197.661 302.701 199.462 302.631 201.271C302.552 202.962 302.669 204.656 302.98 206.328C303.368 208.389 303.952 210.421 304.727 212.403C305.481 214.326 306.43 216.191 307.563 217.978C308.168 218.923 308.984 219.761 309.967 220.446C310.928 221.124 312.048 221.624 313.255 221.913C314.265 222.137 315.327 222.137 316.337 221.913C317.447 221.663 318.496 221.255 319.44 220.705C320.608 220.023 321.671 219.223 322.605 218.323C323.511 217.472 324.272 216.52 324.865 215.493C325.695 214.004 326.342 212.449 326.797 210.85L326.797 210.815ZM320.201 214.026C315.166 218.806 311.015 214.682 308.549 209.452C306.201 204.991 305.569 200.025 306.741 195.248C307.165 193.162 308.203 191.198 309.762 189.535C310.23 189.131 310.789 188.809 311.406 188.586C312.023 188.364 312.686 188.247 313.358 188.241C314.971 188.303 316.53 188.746 317.858 189.518C319.974 190.667 321.701 192.256 322.871 194.131C324.041 196.006 324.615 198.103 324.537 200.218C324.722 204.309 323.53 210.85 320.201 214.026ZM336.353 249.148C337.462 245.61 338.592 241.899 339.64 237.93C342.558 227.056 345.579 216.77 345.497 205.724C345.493 191.016 340.271 176.643 330.496 164.44C326.694 159.677 323.283 157.364 319.934 156.95C318.073 156.718 316.174 156.856 314.39 157.354C312.605 157.852 310.984 158.695 309.659 159.815C303.946 163.915 298.634 168.394 293.774 173.208L293.774 166.787C298.152 162.795 302.797 159.015 307.686 155.465C312.31 152.014 316.625 150.288 321.043 150.84C328.996 151.841 337.483 166.045 341.12 173.708C353.203 199.735 350.634 212.559 342.127 238.516C340.935 242.141 339.784 245.731 338.716 249.269C337.935 249.269 337.175 249.269 336.394 249.269L336.353 249.148ZM348.086 249.407C348.99 245.04 349.895 240.777 350.717 236.601C358.34 197.664 359.08 184.823 338.551 145.835C335.521 139.876 331.303 134.395 326.078 129.629C325.41 128.966 324.587 128.427 323.66 128.044C322.732 127.661 321.721 127.444 320.689 127.405C319.656 127.366 318.626 127.507 317.661 127.818C316.697 128.129 315.819 128.605 315.084 129.214C308.974 134.769 303.349 140.687 298.254 146.922C296.692 148.803 295.151 150.512 293.671 152.1L293.671 147.078C294.329 146.301 295.007 145.507 295.726 144.696C301.665 137.551 309.679 127.989 313.666 124.882C314.667 124.08 315.847 123.453 317.139 123.036C318.356 122.606 319.662 122.383 320.982 122.38C322.272 122.418 323.539 122.682 324.701 123.156C325.953 123.686 327.092 124.386 328.071 125.228C332.181 128.783 336.784 135.79 340.956 143.695C346.347 154.097 350.959 164.773 354.765 175.659C359.758 190.277 358.875 197.112 357.046 211.903C356.018 220.532 354.415 228.575 352.792 236.877C351.991 240.967 351.189 245.092 350.429 249.321C349.648 249.321 348.867 249.321 348.086 249.321L348.086 249.407ZM361.731 249.562C362.985 242.382 364.3 235.203 365.471 228.006C367.526 215.769 371.636 201.15 369.17 189.155C365.533 171.275 348.826 143.16 340.401 124.382C337.321 116.895 333.712 109.57 329.592 102.445C318.927 85.1864 313.625 91.0372 305.611 106.847C302.693 112.594 299.836 118.617 296.672 124.106C295.768 125.694 294.761 127.247 293.692 128.8L293.692 119.049C298.747 110.022 303.124 99.7185 308.262 91.4342C312.556 84.5305 317.057 83.7711 321.249 85.9803C330.167 90.692 339.949 113.44 343.853 122C347.511 130.181 351.374 138.258 355.176 146.387C361.217 159.297 369.889 175.262 371.389 188.965C372.745 201.323 369.725 215.924 367.69 228.333C366.54 235.427 365.389 242.503 364.361 249.579L361.731 249.579L361.731 249.562ZM370.896 249.562C375.684 227.419 383.534 206.414 378.088 181.82C375.068 168.185 369.725 157.899 363.437 142.953C355.792 124.727 348.559 106.312 342.147 87.7234C338.038 75.6421 335.243 59.2114 328.893 48.6661C322.872 38.7076 317.344 43.6091 312.289 52.4631C307.234 61.317 303.083 71.1029 298.377 80.4228C297 83.1843 295.521 86.0321 293.98 88.9488L294.144 78.5934L295.336 76.1944C300.165 66.4602 304.337 56.4672 309.721 46.9747C311.086 44.381 312.953 41.9956 315.248 39.9157C322.091 34.2202 327.742 39.605 331.133 45.2488C337.914 56.4672 340.73 73.5365 345.127 86.2392C351.806 105.466 359.409 124.589 367.362 143.505C373.917 159.142 378.335 170.17 380.41 181.475C382.486 192.78 382.198 204.257 379.383 220.757C377.76 230.353 375.643 239.897 373.937 249.493C373.013 249.493 371.985 249.493 370.896 249.493L370.896 249.562ZM363.683 12.0077C362.861 18.0657 361.854 24.2789 361.217 30.5613C358.32 58.3484 358.032 76.0045 369.437 102.722C372.955 110.555 375.61 118.643 377.369 126.884C379.753 138.396 383.102 148.441 385.938 158.727L385.445 169.445C383.822 163.111 381.808 156.863 379.773 150.581C377.164 142.728 374.759 135.238 373.115 127.23C371.364 119.101 368.736 111.124 365.266 103.395C353.82 76.3842 355.772 58.521 358.69 30.3887C359.347 24.1926 360.025 18.0484 360.395 12.0767C361.505 12.0767 362.615 12.0767 363.683 12.0767L363.683 12.0077ZM380.287 12.0077C379.712 13.7336 379.054 15.7012 378.232 17.755C366.375 51.4448 380.061 71.6552 386.061 103.792L387.562 111.179C387.377 117.271 387.192 123.484 386.966 129.749C385.116 121.12 383.267 112.49 381.684 104.068C376.609 76.8502 365.964 44.0924 374.574 17.0474C375.17 15.2179 375.684 13.5955 376.157 11.8696C377.636 11.8696 379.013 11.8696 380.267 11.8696L380.287 12.0077ZM388.507 70.1191C386.097 55.2438 386.152 40.1598 388.671 25.2972C388.877 35.6527 388.815 51.3585 388.507 70.1709L388.507 70.1191ZM305.837 247.888C305.117 245.196 304.337 242.313 303.494 239.258C301.802 233.755 299.695 228.348 297.185 223.069C296.199 220.878 295.254 218.755 294.391 216.684L294.206 206.949C295.55 211.416 297.337 215.781 299.549 219.997C302.098 224.97 304.233 230.085 305.939 235.306C307.357 239.983 308.611 244.333 309.638 248.095C308.303 248.095 307.049 247.923 305.837 247.836L305.837 247.888ZM293.959 189.604C294.267 188.914 294.617 188.223 294.966 187.55C297.345 182.963 300.845 178.847 305.241 175.469C309.186 172.535 313.317 171.137 316.748 171.775C317.185 171.85 317.611 171.96 318.022 172.103C322.402 174.082 326.092 176.985 328.729 180.526C332.077 184.557 334.56 189.048 336.065 193.798C337.202 197.802 337.645 201.924 337.38 206.035C337.092 210.353 336.405 214.646 335.325 218.875C333.928 224.606 332.017 230.301 330.188 235.738L330.085 235.997C328.544 240.656 327.188 245.023 325.975 248.941C324.66 248.941 323.365 248.855 322.091 248.803L322.687 246.939C325.893 236.98 330.907 226.659 333.578 216.701C334.654 212.873 335.341 208.976 335.633 205.051C335.895 201.389 335.479 197.715 334.4 194.16C332.679 189.787 330.064 185.699 326.674 182.079C320.961 175.641 315.618 171.724 306.946 177.712C302.898 180.639 299.641 184.258 297.391 188.327C296.082 190.56 295.036 192.895 294.267 195.3L294.082 196.007L294.082 189.483L293.959 189.604Z" fill="#B7805C"/>
</g>
<path fill-rule="evenodd" clip-rule="evenodd" d="M312.289 52.3945C307.09 61.49 303.083 71.0688 298.459 80.3888C297.082 83.1502 295.603 85.998 294.061 88.9148C293.924 98.9596 293.822 108.976 293.753 118.963C298.808 109.936 303.185 99.6327 308.323 91.3483C312.618 84.4447 317.118 83.6853 321.31 85.8944C330.228 90.6062 340.01 113.354 343.914 121.914C347.572 130.095 351.435 138.172 355.237 146.301C361.278 159.211 369.95 175.176 371.45 188.88C372.807 201.237 369.786 215.838 367.752 228.248C366.601 235.341 365.45 242.417 364.423 249.494C366.806 249.494 369.005 249.494 370.957 249.494C375.745 227.35 383.595 206.346 378.15 181.752C375.129 168.117 369.786 157.83 363.498 142.884C355.853 124.658 348.62 106.243 342.209 87.6549C338.099 75.5735 335.304 59.1428 328.954 48.5975C322.933 38.639 317.406 43.5405 312.35 52.3945L312.289 52.3945Z" fill="url(#paint7_radial_1_536)" style="mix-blend-mode:multiply"/>
<path fill-rule="evenodd" clip-rule="evenodd" d="M361.217 30.5616C358.32 58.3488 358.032 76.0049 369.437 102.722C372.955 110.556 375.61 118.644 377.369 126.885C379.424 136.636 382.096 145.318 384.603 153.999L385.938 158.728C386.267 149.045 386.637 139.363 386.966 129.75L385.034 120.706C383.863 115.097 382.63 109.522 381.685 104.068C376.609 76.8506 365.964 44.0928 374.575 17.0478L374.821 16.2884C375.314 14.7523 375.746 13.3025 376.157 11.9045C372.54 11.9045 368.286 11.9045 363.683 12.0081L363.17 15.7361C362.471 20.6031 361.731 25.5565 361.217 30.5616Z" fill="url(#paint8_radial_1_536)" style="mix-blend-mode:multiply"/>
<path fill-rule="evenodd" clip-rule="evenodd" d="M198.26 13.4231C200.089 31.7178 197.315 223.38 193.986 248.354C183.238 249.977 125.207 250.96 104.329 249.821C105.891 170.602 106.569 91.2445 104.329 11.6454C110.494 10.1266 188.684 11.9216 198.26 13.3713L198.26 13.4231Z" fill="url(#paint9_radial_1_536)"/>
<g opacity="0.5" style="mix-blend-mode:multiply">
<path d="M104.411 14.7172L105.048 11.5933C104.805 11.6167 104.564 11.6572 104.329 11.7141L104.329 14.7172L104.411 14.7172ZM111.932 250.114C110.873 231.348 108.63 212.641 105.212 194.074L104.801 221.689C106.055 231.181 107.165 240.553 108.048 250.08C109.261 250.08 110.555 250.08 111.891 250.201L111.932 250.114ZM122.207 250.287L122.042 248.82C117.932 214.543 113.596 179.783 105.603 145.99L105.459 164.854C111.624 193.263 115.343 219.393 118.878 249.061L119.001 250.252C120.028 250.252 121.056 250.252 122.145 250.252L122.207 250.287ZM134.29 250.287C132.748 244.522 131.248 238.482 130.18 231.699C126.912 211.851 128.31 198.906 122.268 176.004C117.871 159.193 113.165 142.417 110.576 125.452C108.829 114.13 107.062 102.842 105.685 91.503C105.685 102.342 105.685 113.175 105.685 124.002L105.973 125.866C110.267 153.998 119.556 181.561 124.467 209.607C125.803 217.063 125.351 224.657 126.522 232.148C127.549 238.413 128.865 244.384 130.18 250.304C131.495 250.304 132.81 250.304 134.125 250.304L134.29 250.287ZM105.212 52.3938C107.267 38.5865 111.254 26.2981 113.576 11.1273C111.809 11.1273 110.247 11.1273 108.911 11.2481C107.781 19.0837 106.363 26.8849 104.801 34.686L105.212 52.3938ZM148.982 250.114L148.51 247.042C145.345 227.073 141.42 205.292 135.893 185.962C133.838 179.058 131.926 173.708 130.057 168.703C125.996 158.701 123.314 148.341 122.063 137.826C121.056 129.559 120.645 121.258 119.72 112.991C117.213 91.0715 112.096 73.0012 115.364 50.2365C116.247 44.1095 118.631 38.017 119.474 31.8727C120.439 24.9691 121.056 18.0655 121.529 11.1618C120.028 11.1618 118.59 11.1618 117.213 11.1618C116.884 18.0655 116.453 24.9691 115.939 31.7002C115.466 37.8271 113.884 43.7815 113.124 49.943C109.815 72.9322 113.124 90.8989 115.713 113.025C116.638 121.309 116.33 129.611 117.357 137.896C118.616 148.576 121.34 159.099 125.474 169.255C134.043 192.383 138.975 207.346 142.9 232.13C143.845 238.188 144.626 244.212 145.243 250.235L149.024 250.235L148.982 250.114ZM158.887 249.942C157.846 243.211 156.688 236.497 155.414 229.8C152.535 212.628 148.209 195.648 142.468 178.989C138.235 167.253 132.666 154.274 129.789 142.452C126.912 130.629 125.31 112.991 124.488 100.357C123.768 89.0177 121.302 78.2998 121.323 68.0306C121.323 56.1908 123.625 44.5237 124.899 32.6494C125.7 25.2452 126.584 18.2208 127.365 11.0928C126.234 11.0928 125.125 11.0928 124.036 11.0928C123.604 18.2553 122.988 25.3833 122.248 32.4768C120.994 44.3683 118.754 56.07 118.734 68.1342C118.734 78.4896 121.467 89.2421 122.186 100.685C123.008 113.474 122.597 131.147 125.556 143.349C128.433 155.275 135.564 167.909 139.817 179.732C143.921 192.045 147.119 204.558 149.393 217.201C151.448 227.729 153.257 238.861 154.716 249.993C156.113 249.993 157.51 249.993 158.826 249.907L158.887 249.942ZM169.388 249.666C168.319 243.297 167.333 236.894 166.223 230.404C165.068 221.871 163.332 213.4 161.024 205.033C158.497 196.542 154.983 188.309 151.469 180.077C145.448 166.028 139.139 151.323 135.42 136.722C132.748 126.28 132.399 117.495 131.474 107.157C130.776 99.563 130.303 92.0553 129.83 84.444C129.07 72.8286 130.529 57.0538 131.885 40.3815C132.625 30.6646 133.591 20.6716 134.475 11.1445C133.283 11.1445 132.111 11.1445 130.961 11.1445C130.385 20.8959 129.625 30.7336 128.906 40.3297C127.652 55.4487 125.864 69.187 126.851 84.6166C127.323 92.2451 128.906 99.7701 129.666 107.381C130.611 117.84 128.844 127.851 131.577 138.448C137.516 161.54 152.25 182.994 158.846 205.103C161.908 215.337 164.682 231.802 166.922 249.804C167.806 249.804 168.669 249.804 169.532 249.804L169.388 249.666ZM182.293 249.182C180.649 243.452 178.964 237.429 177.238 230.974C173.624 216.19 169.07 201.579 163.593 187.205C158.559 174.537 151.448 162.162 146.66 149.925C129.625 106.311 135.009 87.5161 138.441 51.4446C139.838 38.2068 141.667 24.7793 142.982 11.3344L139.119 11.3344C138.112 24.7447 136.694 38.2414 135.42 51.3583C131.865 87.7232 128.597 112.594 143.64 151.461C146.229 158.14 149.085 164.647 151.962 171.137C161.061 190.8 168.464 210.988 174.114 231.543C175.532 236.825 177.238 242.934 179.046 249.355C180.135 249.355 181.101 249.355 182.231 249.217L182.293 249.182ZM194.417 243.97C191.828 236.773 189.218 229.541 186.732 222.241C177.135 193.867 159.853 167.012 150.585 140.881C146.475 129.214 145.695 115.666 144.832 103.515C142.037 63.8194 147.277 38.414 151.12 11.4897L146.311 11.3862C144.729 21.7416 143.126 32.0971 142.448 42.3145C140.92 62.7302 140.687 83.1997 141.749 103.636C142.509 116.011 143.989 129.525 148.202 141.399C151.407 150.443 156.586 158.848 160.531 167.685C168.628 186.117 176.272 204.395 182.683 223.311C185.622 232.027 188.622 240.346 191.581 248.647C192.588 248.544 193.431 248.457 194.109 248.354C194.253 247.232 194.397 245.748 194.54 243.97L194.417 243.97ZM198.178 119.912C194.068 110.333 193.205 99.5803 196.986 86.8776C197.541 84.9791 198.096 83.1496 198.671 81.3546L198.671 70.0154L192.732 85.9456C186.074 103.895 189.115 118.565 197.911 131.596L198.095 119.912L198.178 119.912ZM197.664 150.115C189.588 140.45 183.526 129.404 180.197 107.174C178.142 93.902 185.622 72.7596 190.739 50.3227C193.716 38.0883 195.87 25.7227 197.191 13.2847C195.958 13.1639 194.232 13.0258 192.116 12.905C191.17 24.9864 189.136 37.1713 186.855 49.2872C183.3 68.2722 176.58 87.0329 177.546 106.501C178.759 129.369 186.444 142.003 197.541 155.344L197.664 150.167L197.664 150.115ZM197.089 176.004C190.895 169.032 185.285 161.708 180.3 154.085C163.984 127.609 162.977 105 167.354 70.7058C169.861 51.0131 176.108 31.821 179.026 12.2837C177.156 12.2837 175.204 12.1456 173.19 12.0765C170.251 31.6829 165.114 51.1512 163.182 70.8956C159.976 103.395 159.586 127.109 176.991 155.362C181.101 162.024 185.807 168.254 190.513 174.502C192.732 177.453 194.849 180.353 196.904 183.235L197.089 176.038L197.089 176.004ZM195.938 214.302C176.21 178.834 154.983 139.621 153.544 109.349C152.168 80.2501 159.709 45.1278 163.819 11.7659C162.442 11.7659 161.066 11.7659 159.709 11.6451C156.093 44.6445 149.291 78.6104 150.75 109.452C151.88 133.477 160.531 157.416 171.772 178.92C177.669 190.225 184.43 201.15 190.266 212.455C192.102 215.907 193.897 219.399 195.65 222.931L195.979 214.302L195.938 214.302Z" fill="#B7805C"/>
</g>
<path fill-rule="evenodd" clip-rule="evenodd" d="M177.547 106.501C176.499 87.0332 183.301 68.2725 186.856 49.2875C189.137 37.2061 191.171 25.1247 192.116 12.888C188.664 12.6982 184.164 12.4738 179.026 12.2839C176.108 31.8213 169.861 51.0134 167.354 70.7406C162.977 105.034 163.984 127.696 180.3 154.119C185.286 161.743 190.896 169.067 197.089 176.038L197.541 155.327C186.445 141.986 178.759 129.353 177.547 106.484L177.547 106.501Z" fill="url(#paint10_radial_1_536)" style="mix-blend-mode:multiply"/>
<path fill-rule="evenodd" clip-rule="evenodd" d="M190.225 212.49C184.328 201.185 177.567 190.26 171.731 178.955C160.49 157.451 151.839 133.512 150.709 109.488C149.25 78.6455 156.052 44.6795 159.669 11.6801C156.853 11.6801 154.017 11.542 151.182 11.4902C147.339 38.4145 142.099 63.8371 144.894 103.516C145.757 115.597 146.496 129.215 150.647 140.882C159.853 167.064 177.135 193.919 186.732 222.241C189.219 229.542 191.828 236.773 194.418 243.971C194.828 239.086 195.219 231.889 195.609 222.966C193.842 219.514 192.047 216.022 190.225 212.49Z" fill="url(#paint11_radial_1_536)" style="mix-blend-mode:multiply"/>
<path fill-rule="evenodd" clip-rule="evenodd" d="M101.371 16.6678C103.57 36.326 103.426 231.302 101.371 247.215C88.7539 247.94 76.1366 248.423 63.5192 248.734C64.3207 241.364 66.0057 233.287 67.4031 227.315C64.0124 234.633 60.9095 241.934 57.601 248.872C41.1615 249.217 24.9069 249.269 8.57019 249.165C5.69781 229.222 4.17471 209.158 4.00822 189.069C7.43312 130.227 8.97433 71.3792 8.63184 12.5257C16.8516 12.0597 31.5033 12.1805 46.8742 12.6637C45.5591 18.2212 44.4494 24.0202 43.5247 29.9228L46.8537 22.0527L50.7992 12.7673C72.1705 13.5267 93.9529 14.9937 101.433 16.6333L101.371 16.6678Z" fill="url(#paint12_radial_1_536)"/>
<g opacity="0.5" style="mix-blend-mode:multiply">
<path d="M291.164 174.934C290.61 173.847 290.055 172.725 289.541 171.603C281.626 154.571 279.917 135.949 284.63 118.1C286.356 111.42 288.883 107.451 292.212 105.552L292.397 97.2679C290.951 97.5305 289.564 97.9849 288.287 98.6141C279.657 102.877 277.417 122.639 277.437 132.891C277.437 155.448 281.547 169.135 291.082 183.287L291.164 174.934ZM290.815 195.904C268.766 163.526 262.95 146.767 265.313 99.7705C265.609 91.6996 267.526 83.7286 270.985 76.1945C273.204 71.8279 278.115 69.6533 283.438 71.3792C286.603 72.5417 289.696 73.8378 292.706 75.2625L292.706 70.2401C289.472 68.557 286.108 67.0579 282.636 65.7527C281.047 65.2285 279.35 64.9705 277.643 64.9933C275.979 65.01 274.336 65.3095 272.814 65.8736C271.379 66.4505 270.1 67.2668 269.053 68.2726C267.899 69.3707 266.962 70.6178 266.279 71.966C263.361 77.7133 261.923 87.4992 261.368 98.3379C260.747 112.435 261.166 126.552 262.621 140.606C264.82 159.401 269.608 166.977 279.616 183.374C283.191 189.207 286.931 194.765 290.753 200.27L290.753 195.886L290.815 195.904ZM290.383 222.604C286.397 216.805 282.39 210.988 278.485 205.137C269.608 191.796 256.97 176.539 253.312 161.748C247.887 139.725 252.038 100.72 251.607 75.7458C251.167 65.9219 251.407 56.0849 252.326 46.2845C255.429 22.1217 264.656 26.8162 282.328 41.9006C285.863 44.9037 289.438 48.0104 293.014 51.048L293.014 43.454C285.513 37.0681 278.095 30.4578 270.779 25.142C262.108 18.8252 256.518 19.7399 252.86 23.9512C245.113 32.8741 246.079 62.9568 246.264 74.3478C246.449 85.221 246.264 96.0597 246.264 106.916C246.264 124.175 244.825 145.99 250.374 162.387C255.47 177.178 266.813 192.814 275.835 206.345C280.623 213.508 285.39 220.671 290.034 227.868L290.034 222.586L290.383 222.604ZM290.075 240.898C271.581 213.474 246.922 191.054 239.072 156.812C235.208 139.898 235.845 125.918 234.962 106.208C233.975 82.2007 232.414 58.1242 229.804 34.1686C229.105 27.7309 227.749 20.4993 226.434 13.1987C224.995 13.3023 223.598 13.3886 222.324 13.4749C223.557 20.4821 224.831 27.3857 225.509 33.6335C228.222 58.4866 229.845 83.4951 230.872 108.417C231.715 129.128 232.578 143.505 236.256 157.33C239.935 171.154 246.531 184.306 258.573 202.203C268.95 217.564 280.479 232.355 289.993 248.147L290.157 240.881L290.075 240.898ZM201.528 27.5065C204.594 38.8867 206.288 50.4975 206.583 62.1628C206.752 72.595 208.045 82.9929 210.446 93.2292C217.248 121.275 216.611 144.161 228.941 172.707C236.729 190.881 250.086 209.625 261.388 226.711C266.628 234.547 271.848 242.365 276.944 250.391C278.773 250.391 280.561 250.391 282.369 250.391C276.903 241.761 271.273 233.304 265.642 224.882C254.36 207.985 239.442 189.811 231.715 171.741C224.851 155.483 222.632 138.517 220.433 121.431C219.118 111.386 217.844 101.807 215.46 91.9176C213.092 81.841 211.82 71.6045 211.659 61.3344C211.334 45.9919 208.151 30.7866 202.227 16.2708C202.001 18.3247 201.754 22.1907 201.528 27.5065ZM199.473 113.699C203.891 129.456 208.556 144.886 213.488 158.9C219.694 176.418 230.564 193.66 240.839 209.625C245.154 216.252 249.634 222.897 254.093 229.49C258.779 236.394 263.402 243.297 267.923 250.201C269.711 250.201 271.499 250.201 273.266 250.201C268.375 242.572 263.32 235.099 258.244 227.574C244.23 206.829 224.399 180.301 216.529 158.124C209.912 139.277 204.877 117.427 199.74 95.8699L199.473 113.699ZM199.124 143.902C202.173 155.277 206.401 166.405 211.762 177.16C219.723 192.082 228.577 206.655 238.291 220.826C244.661 230.508 251.114 240.225 257.381 250.028L262.169 250.132C255.1 239.656 247.785 229.421 241.024 219.549C231.009 205.65 222.026 191.246 214.125 176.418C206.583 161.731 203.069 147.319 199.309 132.045L199.185 143.902L199.124 143.902ZM198.939 167.323C199.946 169.86 200.994 172.397 202.144 174.899C211.72 196.145 226.146 217.685 238.784 237.826L246.223 249.7C247.949 249.7 249.675 249.821 251.401 249.856C234.16 223.674 216.467 197.733 205.638 173.726C203.254 168.41 201.042 163.019 199 157.554L199 167.323L198.939 167.323ZM198.939 193.919C208.556 212.49 219.796 231.199 230.79 249.148C232.845 249.234 234.9 249.321 236.955 249.39C222.819 229.29 210.117 208.502 198.918 187.136L198.939 193.919ZM199.083 222.207L199.74 223.259C204.384 231.216 208.844 238.793 213.221 246.093L214.577 248.354C216.118 248.354 217.659 248.492 219.18 248.579C218.42 247.25 217.639 245.938 216.837 244.609C212.419 237.17 207.898 229.576 203.357 221.792C201.836 219.192 200.398 216.689 199.041 214.285L199.041 222.189L199.083 222.207Z" fill="#B7805C"/>
</g>
<path fill-rule="evenodd" clip-rule="evenodd" d="M230.852 108.4C229.825 83.478 228.202 58.4695 225.489 33.6164C224.811 27.3686 223.537 20.465 222.345 13.4578C213.817 14.0618 206.645 14.7004 202.392 15.3045C202.124 16.9268 201.837 21.2071 201.57 27.5067C201.796 22.1909 202.001 18.3248 202.227 16.271C208.152 30.7868 211.334 45.992 211.659 61.3346C211.822 71.5989 213.094 81.8296 215.461 91.9004C217.845 101.79 219.119 111.369 220.434 121.414C222.633 138.517 224.852 155.483 231.798 171.724C239.524 189.794 254.402 207.968 265.725 224.865C271.355 233.287 276.986 241.71 282.452 250.374C284.959 250.374 287.445 250.374 289.932 250.374L289.932 248.199C280.418 232.407 268.889 217.616 258.512 202.255C246.388 184.323 239.894 171.189 236.195 157.382C232.496 143.574 231.654 129.111 230.811 108.469L230.852 108.4Z" fill="url(#paint13_radial_1_536)" style="mix-blend-mode:multiply"/>
<path fill-rule="evenodd" clip-rule="evenodd" d="M284.628 118.065C279.915 135.914 281.625 154.537 289.54 171.569C290.053 172.69 290.608 173.812 291.163 174.9C291.553 151.893 291.923 128.697 292.273 105.535C288.882 107.434 286.354 111.403 284.628 118.048L284.628 118.065Z" fill="url(#paint14_radial_1_536)" style="mix-blend-mode:multiply"/>
<g opacity="0.5" style="mix-blend-mode:multiply">
<path d="M8.62936 45.6633C9.20475 43.4196 9.73901 41.1586 10.2528 38.8632C12.1433 30.3717 13.7873 21.0863 15.9655 12.2841C14.5065 12.2841 13.1297 12.2841 11.8556 12.3877C10.6227 19.0324 9.80069 25.9706 8.67047 32.5636L8.67047 45.6633L8.62936 45.6633ZM8.17727 81.5795C9.75957 77.5236 11.2186 73.4504 12.3899 69.291C14.8147 60.765 16.2121 52.0319 17.6094 43.4023C19.2534 33.0468 20.9795 22.536 23.4249 12.2151C21.9865 12.2151 20.5891 12.2151 19.315 12.2151C15.6161 31.0103 15.4518 50.5303 10.3966 68.3417C9.86232 70.2747 9.18419 72.4149 8.34167 74.6931L8.21838 81.5967L8.17727 81.5795ZM7.33474 115.683C8.91704 110.299 10.6226 104.672 12.5132 98.7005C17.4108 84.1723 21.3824 69.4351 24.4113 54.5517C26.8977 41.3485 27.3909 27.5584 29.8774 14.8557L30.3911 12.2841C29.2404 12.2841 28.1102 12.2841 27.0005 12.2841L26.4662 14.9765C25.0894 21.8802 24.062 28.7838 23.055 35.6875C20.3051 56.6936 15.7797 77.5088 9.51297 97.9756L7.66354 103.896L7.33474 115.701L7.33474 115.683ZM4.78664 175.831L4.78664 175.607C14.5681 148.907 18.9862 121.931 25.6442 94.6964C32.3022 67.4615 32.1789 38.2591 37.3985 12.4222L34.9737 12.4222C33.6996 20.2406 33.4735 28.1798 32.2817 36.0154C29.3226 55.5355 26.1169 74.7449 21.3905 94.0233C16.171 115.407 12.5132 134.893 5.93739 156.588L5.67024 157.468C5.38255 163.612 5.07432 169.739 4.74553 175.883L4.78664 175.831ZM102.54 55.8461C102.191 55.2593 101.841 54.6035 101.513 53.8959C95.3477 40.5546 91.0118 27.7656 91.2379 15.3562C89.3884 15.1664 87.3746 14.9765 85.2374 14.804C84.7032 28.4214 89.5528 42.781 96.3752 57.7792C97.7114 61.0672 99.8535 64.0834 102.663 66.6331L102.54 55.8461ZM102.889 94.0578C101.533 94.5238 100.259 94.9035 99.1083 95.1969C97.912 95.5864 96.6332 95.7654 95.3511 95.7228C94.0691 95.6802 92.8112 95.4169 91.6552 94.9493C90.4993 94.4816 89.47 93.8196 88.6312 93.0042C87.7923 92.1888 87.1618 91.2375 86.7786 90.209C84.7237 85.2729 81.9495 72.5184 80.3467 62.4219C77.3054 43.2125 71.6132 32.6154 75.1271 14.0963C73.9558 14.01 72.7434 13.941 71.531 13.872C68.6335 30.2681 72.9283 44.1099 76.0108 63.5782C77.7369 74.3824 80.0179 88.8801 82.1756 94.3685C82.733 95.6943 83.5759 96.9229 84.6621 97.9929C85.7426 99.0634 87.0709 99.9384 88.5664 100.564C90.0042 101.125 91.5642 101.431 93.149 101.462C94.8682 101.509 96.5844 101.31 98.2247 100.875C99.7909 100.449 101.322 99.9356 102.807 99.3391L102.889 94.0578ZM102.889 114.32C97.0148 118.747 90.8396 122.885 84.3949 126.712C60.8453 140.364 59.1192 131.355 61.0714 110.04C61.7701 102.273 62.7359 94.2477 62.9619 86.7227C63.4962 69.1184 57.1464 50.1334 57.1875 31.994C57.1789 25.7051 57.7699 19.4258 58.9548 13.2161L55.3176 13.0608C54.1547 19.249 53.5775 25.5049 53.5914 31.7697C53.5914 39.3119 54.3106 46.6988 55.0504 54.103C56.2898 65.5836 56.7632 77.1134 56.4683 88.6384C56.0779 101.617 53.6325 115.942 53.6325 128.214C53.6325 137.948 58.0506 140.985 64.1743 140.64C73.8325 140.088 90.7858 128.852 102.972 120.033L102.889 114.32ZM102.889 136.498C97.9438 140.686 93.0325 144.909 88.1554 149.166C75.4148 160.316 61.1741 177.04 47.0567 185.41C33.679 193.367 30.946 185.238 31.4186 173.001C31.8912 160.436 34.0284 147.958 35.2819 135.428C38.8164 99.9949 37.7273 50.8582 46.7485 12.6983C45.31 12.6983 43.8921 12.6983 42.4947 12.5775C39.1016 25.0644 36.9298 37.7634 36.0012 50.5476C35.0353 62.8878 35.0148 75.2626 33.9462 87.6029C32.5899 104.655 30.6378 121.672 28.9322 138.707C27.617 151.79 25.4182 164.837 24.8223 177.954C24.5578 181.482 24.9883 185.021 26.0963 188.431C29.713 198.061 39.5767 194.972 47.1389 190.467C62.2016 181.527 76.9149 164.182 90.2926 152.411C94.4025 148.821 98.5123 145.266 102.622 141.745L102.889 136.498ZM57.5163 248.958C61.6262 240.087 65.6333 230.629 70.2158 221.344C80.6344 200.201 89.2651 184.513 102.807 169.428L102.807 162.697C87.2718 179.542 78.8466 196.784 67.3184 220.187C62.4276 230.129 57.5985 239.932 52.3584 248.976L57.4958 248.872L57.5163 248.958ZM79.237 248.337L80.285 243.919C83.7584 227.964 91.3628 212.846 102.561 199.632L102.561 195.421C90.2309 210.419 79.9562 226.211 75.6409 242.78C75.1066 244.816 74.5929 246.715 74.0791 248.51C75.7642 248.51 77.4698 248.406 79.1754 248.337L79.237 248.337ZM99.7864 247.388L101.656 242.555C101.821 239.345 101.985 234.875 102.108 229.421C99.0261 235.617 96.3752 241.658 93.6832 247.716C95.7382 247.612 97.7931 247.509 99.848 247.388L99.7864 247.388Z" fill="#B7805C"/>
</g>
<path fill-rule="evenodd" clip-rule="evenodd" d="M57.2905 31.9076C57.2905 50.0469 63.5992 69.0319 63.0649 86.6362C62.8388 94.1612 61.873 102.169 61.1743 109.953C59.2221 131.268 60.9483 140.278 84.4979 126.626C90.9426 122.798 97.1177 118.661 102.992 114.234L102.992 99.3389C101.507 99.9355 99.9761 100.449 98.4098 100.875C96.7695 101.31 95.0533 101.508 93.3341 101.462C91.7494 101.43 90.1894 101.125 88.7516 100.564C87.2561 99.9382 85.9277 99.0633 84.8472 97.9927C83.7259 96.8959 82.8614 95.6311 82.2991 94.2647C80.0798 88.7763 77.7988 74.2787 76.1343 63.4745C73.0519 44.0062 68.757 30.1644 71.6545 13.7682C67.6474 13.5439 63.4348 13.3195 59.2016 13.1296C58.0167 19.3393 57.4257 25.6187 57.4343 31.9076L57.2905 31.9076Z" fill="url(#paint15_radial_1_536)" style="mix-blend-mode:multiply"/>
<path fill-rule="evenodd" clip-rule="evenodd" d="M25.0688 177.834C25.5826 164.717 27.7814 151.669 29.1787 138.587C30.8843 121.552 32.8365 104.534 34.1928 87.4823C35.1792 75.142 35.1997 62.7672 36.2477 50.4269C37.1211 37.676 39.231 25.0061 42.5564 12.5432C40.8097 12.5432 39.1041 12.4569 37.3985 12.4224C32.1789 38.311 32.3639 67.2373 25.6648 94.6966C18.9657 122.156 14.5887 148.907 4.80716 175.607L4.80716 175.832L4.06738 189.069C4.23464 209.152 5.75774 229.211 8.62934 249.148C23.2605 249.252 37.8917 249.189 52.5228 248.959C57.7629 239.915 62.592 230.112 67.4828 220.17C79.011 196.767 87.4362 179.525 102.972 162.68C102.972 155.777 102.972 148.718 102.972 141.607C98.8617 145.128 94.7518 148.683 90.6419 152.273C77.1821 164.044 62.4687 181.389 47.4882 190.329C39.9261 194.834 30.0623 197.923 26.4457 188.293C25.3376 184.883 24.9071 181.344 25.1716 177.816L25.0688 177.834Z" fill="url(#paint16_radial_1_536)" style="mix-blend-mode:multiply"/>
<path fill-rule="evenodd" clip-rule="evenodd" d="M102.644 199.545C91.4458 212.759 83.8414 227.878 80.368 243.832L79.32 248.25C84.1285 248.078 88.9371 247.853 93.7046 247.629C96.3965 241.571 99.0474 235.548 102.13 229.334C102.335 221.292 102.479 211.109 102.602 199.545L102.644 199.545Z" fill="url(#paint17_radial_1_536)" style="mix-blend-mode:multiply"/>
<path fill-rule="evenodd" clip-rule="evenodd" d="M385.979 15.1493C383.718 73.8303 383.924 134.393 384.109 193.609C388.424 117.548 389.924 19.0499 387.91 12.5259C385.397 12.1313 382.843 11.9463 380.286 11.9737C379.711 13.6996 379.053 15.6671 378.231 17.7209C375.716 24.7817 374.225 32.0718 373.793 39.4329C375.65 31.0889 378.316 22.8865 381.766 14.9077C383.143 14.818 384.527 14.8994 385.876 15.1493L385.979 15.1493Z" fill="url(#paint18_linear_1_536)" style="mix-blend-mode:screen"/>
<path fill-rule="evenodd" clip-rule="evenodd" d="M290.998 13.5264C290.505 25.1591 290.176 36.8147 290.012 48.4934C287.443 46.2842 284.874 44.0578 282.326 41.9004C264.572 26.816 255.427 22.1042 252.324 46.2842C251.405 56.0847 251.165 65.9217 251.605 75.7456C251.605 78.3172 251.605 81.0441 251.605 83.8746C251.769 80.0258 251.913 76.1598 252.016 72.311C252.201 65.6662 251.44 29.819 262.66 29.9399C269.668 29.9399 279.737 41.4172 284.176 45.9391C286.231 47.9411 288.059 49.9777 289.971 52.0315C289.436 92.0209 290.382 132.2 291.204 172.086C291.841 133.287 292.478 93.9712 292.971 55.2417L292.971 51.0478C293.135 37.6892 293.286 24.4572 293.423 11.3518C286.662 10.5061 260.133 11.3 236.727 12.5772C252.961 12.8015 276.593 14.5447 290.936 13.5264L290.998 13.5264Z" fill="url(#paint19_linear_1_536)" style="mix-blend-mode:screen"/>
<path fill-rule="evenodd" clip-rule="evenodd" d="M194.664 17.0647L194.993 29.6294C193.822 36.3949 192.363 43.2468 190.739 50.3403C185.725 72.3629 178.41 93.1257 180.095 106.432C180.347 96.7088 181.94 87.0425 184.842 77.627C188.335 65.5456 191.911 53.8094 195.24 41.8661C196.206 91.3307 196.103 140.657 196.719 190.105C198.219 136.377 199.144 61.6795 198.774 28.7491L198.774 25.1765L198.528 17.8759L198.528 16.7541L198.528 14.8556L198.404 13.4231C198.329 13.4133 198.253 13.4133 198.178 13.4231C198.178 13.4231 198.034 13.4231 197.932 13.4231C197.932 13.4231 197.767 13.4231 197.706 13.4231C197.706 13.4231 197.562 13.4231 197.5 13.4231C190.349 12.5601 167.478 11.7834 146.086 11.3865C162.525 13.0088 178.821 14.5622 194.664 17.0647Z" fill="url(#paint20_linear_1_536)" style="mix-blend-mode:screen"/>
<path fill-rule="evenodd" clip-rule="evenodd" d="M46.4216 14.3033L46.4216 12.6982C40.2568 12.5084 34.0919 12.3703 28.5025 12.3013C33.7221 12.9744 38.9005 13.5612 44.0584 14.1135C43.5036 19.6019 43.1748 24.4689 43.072 29.9919C43.9145 24.6243 44.9009 19.3948 46.0311 14.3378L46.4216 14.3033ZM94.9386 103.809C96.4215 103.629 97.8714 103.293 99.254 102.808C99.85 134.375 100.734 165.89 102.665 197.733C102.973 169.601 103.056 133.874 102.912 101.41L102.912 99.339C102.747 59.0735 102.234 24.3827 101.371 16.6678C93.9728 15.0282 72.1083 13.5612 50.737 12.8018L49.9355 14.6658C65.8407 16.2881 81.6638 17.5308 97.8978 18.8943C98.4526 46.319 98.7197 73.4848 99.2129 100.633C98.9252 100.633 98.6375 100.789 98.3293 100.875C96.689 101.31 94.9728 101.508 93.2536 101.462C91.6689 101.431 90.1089 101.125 88.6711 100.564C87.1756 99.9383 85.8472 99.0633 84.7667 97.9928C83.6454 96.896 82.7808 95.6312 82.2186 94.2648C79.9992 88.7764 77.7183 74.2788 76.0538 63.4746C75.2523 58.4349 74.3893 53.7577 73.5673 49.3221C74.9236 60.506 76.4442 71.7589 78.2115 82.7357C79.4855 90.6577 81.9103 105.173 95.0003 103.809L94.9386 103.809Z" fill="url(#paint21_linear_1_536)" style="mix-blend-mode:screen"/>
<g clip-path="url(#clip0_1_536)">
<path fill-rule="evenodd" clip-rule="evenodd" d="M19.1639 71.5076C14.8272 85.3248 13.2539 186.887 15.634 240.537C23.4872 240.312 31.3471 240.126 39.2137 239.98L41.6947 220.865L45.7289 239.845C83.8787 239.08 122.203 238.878 160.703 239.237L164.737 229.115L168.005 239.237C223.051 239.98 277.996 241.802 332.558 245.041L372.476 221.709C374.231 218.334 375.825 81.5626 375.361 26.648C357.678 27.1204 340.008 27.4241 322.352 27.5591L317.087 34.8473L312.508 31.4731L308.878 31.9792L305.892 27.7109C248.809 27.7559 192.028 26.0744 135.55 22.6665L132.221 28.1833L126.836 25.2478L122.277 33.059L119.595 21.6712C96.156 20.119 72.7646 18.2745 49.4202 16.1375L19.1639 71.5076Z" fill="url(#paint22_linear_1_536)"/>
<path fill-rule="evenodd" clip-rule="evenodd" d="M332.558 245.041C335.826 239.524 347.384 212.986 350.228 211.924C352.467 211.114 368.2 220.831 372.416 221.709L332.558 245.041Z" fill="url(#paint23_radial_1_536)" style="mix-blend-mode:multiply"/>
<path fill-rule="evenodd" clip-rule="evenodd" d="M332.558 245.041C337.843 235.576 343.007 226.044 349.099 216.968C356.785 218.893 364.589 220.475 372.477 221.709C372.396 224.071 335.483 245.041 332.558 245.041Z" fill="url(#paint24_linear_1_536)"/>
<path opacity="0.5" fill-rule="evenodd" clip-rule="evenodd" d="M56.7889 58.6815C63.2339 53.0964 70.6113 48.3498 77.1069 48.45C96.8164 48.8673 85.6927 28.2936 113.343 35.0288C129.36 38.9246 131.849 29.2272 144.301 30.4089C153.201 31.2554 155.495 37.7891 170.691 39.0236C186.33 40.2895 208.273 39.7332 215.512 35.4092C232.141 25.636 259.913 39.9626 276.031 36.5695C288.493 34.0496 301.223 32.5853 314.031 32.1987L316.563 34.1759L317.884 32.313C320.537 32.2847 323.179 32.6007 325.715 33.2495C339.416 37.7819 329.791 40.9209 347.772 46.2908C359.51 49.7708 361.49 61.7049 359.498 73.9471C356.316 93.6358 341.663 106.992 341.732 123.728C341.811 138.489 356.328 144.806 358.347 160.215C359.525 169.252 356.569 178.462 359.907 187.842C367.465 209.194 334.871 198.486 329.362 224.362C325.427 242.942 280.566 227.762 268.26 227.507C234.853 226.809 234.436 235.517 193.457 233.391C185.386 232.962 181.044 228.211 166.708 232.961L165.498 229.239L163.506 233.923C141.63 239.625 115.019 219.758 77.7303 228.748C65.4824 231.749 53.832 233.347 44.5479 232.334L42.1712 221.701L40.9341 231.746C28.8178 229.212 21.6138 221.136 22.9744 204.021C25.6196 170.67 29.4405 160.982 36.6919 128.956C39.2735 117.605 41.7241 104.399 42.8181 94.0001C44.8312 74.4357 45.6055 68.3579 56.7489 58.7323L56.7889 58.6815Z" fill="url(#paint25_radial_1_536)" style="mix-blend-mode:screen"/>
<path opacity="0.5" fill-rule="evenodd" clip-rule="evenodd" d="M70.6614 99.5851C71.0447 77.4674 87.02 60.934 113.686 59.8037C132.445 59.0276 139.686 41.9374 173.553 63.5152C191.283 74.8187 223.98 48.2303 245.079 56.7669C262.163 63.5152 273.963 50.2885 288.547 54.6412C304.966 59.5506 320.82 42.3255 339.72 57.1887C356.946 70.7866 365.942 75.8815 357.208 100.041C355.433 104.899 347.99 122.681 353.174 140.531C354.042 143.483 355.312 149.185 356.906 154.517C369.008 195.395 347.789 174.188 345.509 204.522C344.904 212.367 336.594 211.979 335.767 218.373C333.185 238.618 305.127 234.602 285.763 226.504C272.874 221.106 256.092 222.253 242.174 228.191C205.221 244.033 183.195 228.951 163.81 215.336C151.567 206.732 116.974 215.825 106.283 218.946C81.1301 226.302 78.2053 216.112 58.8817 208.115C46.5573 203.054 48.292 178.49 56.5822 169.447C73.0416 151.632 70.5202 106.384 70.6614 99.5851Z" fill="url(#paint26_radial_1_536)" style="mix-blend-mode:screen"/>
<path fill-rule="evenodd" clip-rule="evenodd" d="M351.6 220.831C344.056 223.463 338.348 235.644 335.967 243.05L335.705 243.894C334.745 244.428 333.68 244.816 332.558 245.041L333.002 244.265C338.126 235.053 343.088 225.808 349.139 216.968C356.826 218.893 364.629 220.475 372.517 221.709C372.454 221.949 372.314 222.17 372.114 222.35L371.67 222.198C366.405 220.511 356.784 219.043 351.64 220.831L351.6 220.831Z" fill="url(#paint27_radial_1_536)" style="mix-blend-mode:screen"/>
<path opacity="0.4" fill-rule="evenodd" clip-rule="evenodd" d="M373.222 58.9051C372.98 35.8426 358.336 29.0943 341.292 27.4072C352.628 27.2498 363.971 27.0192 375.32 26.7155C375.663 68.4539 374.836 157.549 373.646 199.338C371.992 166.524 367.776 155.288 361.947 126.928C357.913 107.577 361.221 104.136 368.099 85.7297C371.562 77.1095 373.28 68.0661 373.182 58.9725L373.222 58.9051Z" fill="url(#paint28_radial_1_536)" style="mix-blend-mode:multiply"/>
<path opacity="0.35" fill-rule="evenodd" clip-rule="evenodd" d="M18.3367 75.3373C18.9418 82.6761 21.6851 92.2081 23.6417 100.644C25.8095 109.441 25.7545 118.521 23.4803 127.299C19.1468 146.669 16.1565 166.233 14.5244 185.892C14.3832 140.543 15.775 91.4152 18.3367 75.3373Z" fill="url(#paint29_radial_1_536)" style="mix-blend-mode:multiply"/>
<path fill-rule="evenodd" clip-rule="evenodd" d="M19.1835 71.4907L49.4397 16.1037C53.7563 17.4703 68.9449 30.1065 69.1466 32.5191C69.3484 34.9316 25.1944 65.8221 19.1835 71.4907Z" fill="url(#paint30_radial_1_536)" style="mix-blend-mode:multiply"/>
<path fill-rule="evenodd" clip-rule="evenodd" d="M61.321 34.7291C46.4566 46.3189 32.3821 58.5977 19.1639 71.5075C19.3051 67.3742 44.7002 15.9856 49.4202 16.1037C54.128 21.9424 58.1281 28.1592 61.3613 34.6616L61.321 34.7291Z" fill="url(#paint31_linear_1_536)"/>
<path fill-rule="evenodd" clip-rule="evenodd" d="M25.4566 59.9511C38.9509 57.0831 56.1768 32.3673 55.0271 23.8138C57.3897 27.3412 59.4915 30.9866 61.3204 34.7292C46.4882 46.2951 32.4409 58.5456 19.244 71.4233C20.3608 67.5543 21.8724 63.7726 23.7623 60.1199C24.3623 60.0835 24.9568 59.9988 25.5373 59.8668L25.4566 59.9511Z" fill="url(#paint32_radial_1_536)" style="mix-blend-mode:screen"/>
</g>
</g>
<defs>
<filter id="filter0_d_1_536" x="0.00012207" y="0" width="399.793" height="254.029" filterUnits="userSpaceOnUse" color-interpolation-filters="sRGB">
<feFlood flood-opacity="0" result="BackgroundImageFix"/>
<feColorMatrix in="SourceAlpha" type="matrix" values="0 0 0 0 0 0 0 0 0 0 0 0 0 0 0 0 0 0 127 0" result="hardAlpha"/>
<feOffset dx="11" dy="-11"/>
<feComposite in2="hardAlpha" operator="out"/>
<feColorMatrix type="matrix" values="0 0 0 0 0 0 0 0 0 0 0 0 0 0 0 0 0 0 0.25 0"/>
<feBlend mode="normal" in2="BackgroundImageFix" result="effect1_dropShadow_1_536"/>
<feBlend mode="normal" in="SourceGraphic" in2="effect1_dropShadow_1_536" result="shape"/>
</filter>
<linearGradient id="paint0_linear_1_536" x1="194.911" y1="133.926" x2="290.281" y2="133.926" gradientUnits="userSpaceOnUse">
<stop stop-color="#692705"/>
<stop offset="1" stop-color="#823B00"/>
</linearGradient>
<linearGradient id="paint1_linear_1_536" x1="226.146" y1="239.034" x2="251.237" y2="268.909" gradientUnits="userSpaceOnUse">
<stop stop-color="#4A1B04"/>
<stop offset="1" stop-color="#823B00"/>
</linearGradient>
<linearGradient id="paint2_linear_1_536" x1="289.663" y1="132.649" x2="385.65" y2="132.649" gradientUnits="userSpaceOnUse">
<stop stop-color="#692705"/>
<stop offset="1" stop-color="#823B00"/>
</linearGradient>
<linearGradient id="paint3_linear_1_536" x1="100.323" y1="132.805" x2="195.96" y2="132.805" gradientUnits="userSpaceOnUse">
<stop stop-color="#692705"/>
<stop offset="1" stop-color="#823B00"/>
</linearGradient>
<linearGradient id="paint4_linear_1_536" x1="0.000138704" y1="132.701" x2="101.843" y2="132.701" gradientUnits="userSpaceOnUse">
<stop stop-color="#692705"/>
<stop offset="1" stop-color="#823B00"/>
</linearGradient>
<radialGradient id="paint5_radial_1_536" cx="0" cy="0" r="1" gradientUnits="userSpaceOnUse" gradientTransform="translate(398.082 11.611) rotate(90) scale(291.058 346.545)">
<stop stop-color="#F59547"/>
<stop offset="1" stop-color="#A14C1F"/>
</radialGradient>
<radialGradient id="paint6_radial_1_536" cx="0" cy="0" r="1" gradientUnits="userSpaceOnUse" gradientTransform="translate(301.048 2.56711) rotate(90) scale(307.834 366.519)">
<stop stop-color="#F59547"/>
<stop offset="1" stop-color="#A14C1F"/>
</radialGradient>
<radialGradient id="paint7_radial_1_536" cx="0" cy="0" r="1" gradientUnits="userSpaceOnUse" gradientTransform="translate(459.258 135.652) rotate(90) scale(272.504 324.454)">
<stop stop-color="#CFA04D"/>
<stop offset="1" stop-color="white"/>
</radialGradient>
<radialGradient id="paint8_radial_1_536" cx="0" cy="0" r="1" gradientUnits="userSpaceOnUse" gradientTransform="translate(503.029 42.0562) rotate(90) scale(195.718 233.03)">
<stop stop-color="#CFA04D"/>
<stop offset="1" stop-color="white"/>
</radialGradient>
<radialGradient id="paint9_radial_1_536" cx="0" cy="0" r="1" gradientUnits="userSpaceOnUse" gradientTransform="translate(200.418 3.75799) rotate(90) scale(222.953 265.457)">
<stop stop-color="#F59547"/>
<stop offset="1" stop-color="#A14C1F"/>
</radialGradient>
<radialGradient id="paint10_radial_1_536" cx="0" cy="0" r="1" gradientUnits="userSpaceOnUse" gradientTransform="translate(233.523 -3.59445) rotate(90) scale(190.006 226.228)">
<stop stop-color="#CFA04D"/>
<stop offset="1" stop-color="white"/>
</radialGradient>
<radialGradient id="paint11_radial_1_536" cx="0" cy="0" r="1" gradientUnits="userSpaceOnUse" gradientTransform="translate(284.218 176.056) rotate(90) scale(187.555 223.31)">
<stop stop-color="#CFA04D"/>
<stop offset="1" stop-color="white"/>
</radialGradient>
<radialGradient id="paint12_radial_1_536" cx="0" cy="0" r="1" gradientUnits="userSpaceOnUse" gradientTransform="translate(107.002 13.3023) rotate(90) scale(253.122 301.377)">
<stop stop-color="#F59547"/>
<stop offset="1" stop-color="#A14C1F"/>
</radialGradient>
<radialGradient id="paint13_radial_1_536" cx="0" cy="0" r="1" gradientUnits="userSpaceOnUse" gradientTransform="translate(294.576 210.005) rotate(90) scale(210.423 250.538)">
<stop stop-color="#CFA04D"/>
<stop offset="1" stop-color="white"/>
</radialGradient>
<radialGradient id="paint14_radial_1_536" cx="0" cy="0" r="1" gradientUnits="userSpaceOnUse" gradientTransform="translate(384.806 87.4131) rotate(90) scale(175.715 209.213)">
<stop stop-color="#CFA04D"/>
<stop offset="1" stop-color="white"/>
</radialGradient>
<radialGradient id="paint15_radial_1_536" cx="0" cy="0" r="1" gradientUnits="userSpaceOnUse" gradientTransform="translate(136.981 26.4882) rotate(90) scale(173.057 206.049)">
<stop stop-color="#CFA04D"/>
<stop offset="1" stop-color="white"/>
</radialGradient>
<radialGradient id="paint16_radial_1_536" cx="0" cy="0" r="1" gradientUnits="userSpaceOnUse" gradientTransform="translate(-46.1964 182.511) rotate(90) scale(221.969 264.286)">
<stop stop-color="#CFA04D"/>
<stop offset="1" stop-color="white"/>
</radialGradient>
<radialGradient id="paint17_radial_1_536" cx="0" cy="0" r="1" gradientUnits="userSpaceOnUse" gradientTransform="translate(171.916 227.833) rotate(90) scale(99.2744 118.2)">
<stop stop-color="#CFA04D"/>
<stop offset="1" stop-color="white"/>
</radialGradient>
<linearGradient id="paint18_linear_1_536" x1="381.293" y1="11.9737" x2="381.293" y2="193.609" gradientUnits="userSpaceOnUse">
<stop stop-color="#A48A7B"/>
<stop offset="1" stop-color="#945534"/>
</linearGradient>
<linearGradient id="paint19_linear_1_536" x1="265.126" y1="10.9721" x2="265.126" y2="172.086" gradientUnits="userSpaceOnUse">
<stop stop-color="#A48A7B"/>
<stop offset="1" stop-color="#945534"/>
</linearGradient>
<linearGradient id="paint20_linear_1_536" x1="172.471" y1="11.3865" x2="172.471" y2="190.087" gradientUnits="userSpaceOnUse">
<stop stop-color="#A48A7B"/>
<stop offset="1" stop-color="#945534"/>
</linearGradient>
<linearGradient id="paint21_linear_1_536" x1="65.9435" y1="12.2667" x2="65.9435" y2="197.716" gradientUnits="userSpaceOnUse">
<stop stop-color="#A48A7B"/>
<stop offset="1" stop-color="#945534"/>
</linearGradient>
<linearGradient id="paint22_linear_1_536" x1="375.441" y1="130.589" x2="14.5246" y2="130.589" gradientUnits="userSpaceOnUse">
<stop stop-color="#EDD6B9"/>
<stop offset="1" stop-color="#D4B492"/>
</linearGradient>
<radialGradient id="paint23_radial_1_536" cx="0" cy="0" r="1" gradientUnits="userSpaceOnUse" gradientTransform="translate(368.062 231.689) rotate(-90) scale(38.4726 44.2116)">
<stop stop-color="#A48A7B"/>
<stop offset="1" stop-color="white"/>
</radialGradient>
<linearGradient id="paint24_linear_1_536" x1="340.889" y1="219.954" x2="349.607" y2="234.348" gradientUnits="userSpaceOnUse">
<stop stop-color="#EDD6B9"/>
<stop offset="1" stop-color="#BF9F7E"/>
</linearGradient>
<radialGradient id="paint25_radial_1_536" cx="0" cy="0" r="1" gradientUnits="userSpaceOnUse" gradientTransform="translate(192.094 132.446) rotate(-90.3071) scale(233.025 267.786)">
<stop stop-color="#CA9E67"/>
<stop offset="1"/>
</radialGradient>
<radialGradient id="paint26_radial_1_536" cx="0" cy="0" r="1" gradientUnits="userSpaceOnUse" gradientTransform="translate(205.951 142.976) rotate(-90) scale(198.723 228.367)">
<stop stop-color="#CA9E67"/>
<stop offset="1"/>
</radialGradient>
<radialGradient id="paint27_radial_1_536" cx="0" cy="0" r="1" gradientUnits="userSpaceOnUse" gradientTransform="translate(355.442 240.169) rotate(-90) scale(34.6149 39.7785)">
<stop/>
<stop offset="1" stop-color="#A3805F"/>
</radialGradient>
<radialGradient id="paint28_radial_1_536" cx="0" cy="0" r="1" gradientUnits="userSpaceOnUse" gradientTransform="translate(279.559 94.7237) rotate(-90) scale(204.683 235.216)">
<stop stop-color="white"/>
<stop offset="1" stop-color="#A48A7B"/>
</radialGradient>
<radialGradient id="paint29_radial_1_536" cx="0" cy="0" r="1" gradientUnits="userSpaceOnUse" gradientTransform="translate(-94.9623 124.178) rotate(-90) scale(178.948 205.642)">
<stop stop-color="#A48A7B"/>
<stop offset="1" stop-color="white"/>
</radialGradient>
<radialGradient id="paint30_radial_1_536" cx="0" cy="0" r="1" gradientUnits="userSpaceOnUse" gradientTransform="translate(26.19 29.2994) rotate(-90) scale(71.4888 82.153)">
<stop stop-color="#A48A7B"/>
<stop offset="1" stop-color="white"/>
</radialGradient>
<linearGradient id="paint31_linear_1_536" x1="32.1741" y1="42.0342" x2="55.8447" y2="70.7309" gradientUnits="userSpaceOnUse">
<stop stop-color="#BF9F7E"/>
<stop offset="1" stop-color="#EDD6B9"/>
</linearGradient>
<radialGradient id="paint32_radial_1_536" cx="0" cy="0" r="1" gradientUnits="userSpaceOnUse" gradientTransform="translate(1.7678 44.1742) rotate(-90) scale(59.603 68.4941)">
<stop/>
<stop offset="1" stop-color="#A3805F"/>
</radialGradient>
<clipPath id="clip0_1_536">
<rect width="228.937" height="360.917" fill="white" transform="translate(14.5244 245.041) rotate(-90)"/>
</clipPath>
</defs>
</svg>
