<svg width="185" height="149" viewBox="0 0 185 149" fill="none" xmlns="http://www.w3.org/2000/svg">
<path d="M29.8053 26.5342C33.2987 14.2729 48.3411 -5.89324 80.5628 11.5329C91.3758 4.87743 116.496 -5.07895 130.473 8.33915C144.592 21.8935 152.93 42.2938 155.61 52.6971C155.443 49.3976 156.322 46.8229 159.991 48.9675C167.129 53.1403 222.355 131.379 130.473 143.744C39.7959 155.948 20.7783 132.76 10.9499 97.4933C10.1782 94.3083 10.9673 86.3057 20.2968 79.775C17.4029 76.4492 10.8118 69.4348 7.59826 67.9836C4.38476 66.5323 3.84052 60.9 3.97009 58.2653C2.44475 57.0178 0.127985 53.3914 3.06366 48.8656C6.73326 43.2083 15.4168 29.89 29.8053 26.5342Z" fill="#62D732"/>
<path d="M13.0197 101.933C15.4214 87.94 20.3718 83.3021 26.4707 82.1325L22.1369 80.269C13.3652 83.5062 11.3463 93.8878 11.4333 98.674L13.0197 101.933Z" fill="#FFE598"/>
<path d="M52.3317 27.8632C26.8322 29.6469 21.367 34.3007 17.859 37.4617H13.6611C20.4843 30.8699 29.6204 28.9039 31.8177 27.8631C33.5755 27.0305 51.021 27.1694 52.3317 27.8632Z" fill="#FFE598"/>
<path d="M56.9597 25.1303C56.9598 17.4939 64.0784 10.4076 67.6376 7.81906C69.5908 6.19663 77.5495 9.99351 81.2848 12.0948C75.6607 16.289 73.3809 25.3607 72.944 29.3722C67.8918 32.1366 63.0541 39.3415 61.2668 42.5984L52.6876 38.7854C47.9214 34.5912 53.5498 27.9344 56.9597 25.1303Z" fill="#226D29"/>
<path fill-rule="evenodd" clip-rule="evenodd" d="M118.322 49.3426C89.0774 29.7624 68.975 37.7837 62.8492 43.6346L62.0625 44.3861L61.0968 43.885C38.7409 32.2853 17.9057 38.4726 10.4297 42.8981C9.70623 43.3263 8.77261 43.087 8.34437 42.3636C7.91613 41.6401 8.15544 40.7065 8.87887 40.2783C16.9634 35.4927 38.4487 29.1786 61.5588 40.7044C69.6159 33.8979 90.8763 27.303 120.016 46.8129C120.715 47.2806 120.902 48.2261 120.434 48.9246C119.966 49.6232 119.021 49.8103 118.322 49.3426Z" fill="black"/>
<path d="M94.559 48.301C79.0379 43.9594 63.4896 50.11 57.6557 53.728C56.6788 56.1159 58.8767 60.5118 60.0977 62.4112C78.2238 76.6298 107.086 65.3508 119.252 57.9339C111.79 58.341 113.96 53.728 94.559 48.301Z" fill="white"/>
<path fill-rule="evenodd" clip-rule="evenodd" d="M58.7287 54.5605C58.6733 54.8548 58.6624 55.2271 58.7139 55.6826C58.7873 56.3334 58.978 57.0676 59.2479 57.8285C59.7538 59.2543 60.492 60.6467 61.0515 61.546C69.6859 68.2136 80.9233 68.9638 91.6863 67.0371C100.657 65.4312 109.14 61.9899 115.184 58.784C114.953 58.7118 114.726 58.6308 114.502 58.5411C113.403 58.1012 112.392 57.4549 111.285 56.747C111.095 56.6253 110.901 56.5017 110.704 56.3771C107.987 54.658 103.791 52.2006 94.2172 49.5224C79.507 45.4077 64.6822 51.0255 58.7287 54.5605ZM56.987 52.6499C62.9932 48.9251 78.914 42.6074 94.9006 47.0792C104.728 49.8281 109.148 52.3907 112.061 54.233C112.28 54.3721 112.487 54.5041 112.684 54.6295C113.805 55.3438 114.586 55.8418 115.445 56.1859C116.388 56.5632 117.46 56.7611 119.182 56.6672L119.912 59.0169C113.723 62.7903 103.319 67.532 92.1334 69.5344C80.9634 71.5339 68.7841 70.8371 59.3148 63.4091L59.1464 63.277L59.0306 63.097C58.3792 62.0837 57.4761 60.4221 56.8569 58.6767C56.5469 57.8027 56.2949 56.8715 56.1929 55.9672C56.092 55.0737 56.1268 54.1147 56.4815 53.2476L56.6373 52.8667L56.987 52.6499Z" fill="black"/>
<path d="M57.5861 53.0936C28.1131 39.4466 9.18121 50.0832 3.39941 57.1074C14.2941 73.7362 46.5481 68.241 61.3133 63.4148C58.3316 61.6946 57.5861 55.8172 57.5861 53.0936Z" fill="white"/>
<path fill-rule="evenodd" clip-rule="evenodd" d="M5.00655 57.1983C10.2483 64.3548 20.13 66.9411 30.9176 67.0383C41.0262 67.1293 51.5634 65.0249 58.8706 62.8484C58.0235 61.6999 57.4734 60.2839 57.1101 58.9681C56.6178 57.1852 56.3987 55.3268 56.3376 53.9166C28.7822 41.4564 11.0294 50.7095 5.00655 57.1983ZM2.42128 56.3012C8.60534 48.7883 28.1757 38.0771 58.1203 51.9425L58.8559 52.283L58.8559 53.0935C58.8559 54.3666 59.0329 56.4 59.5556 58.2929C60.0982 60.2583 60.9175 61.7213 61.9484 62.3161L64.4115 63.7371L61.7086 64.6205C54.2333 67.0639 42.3385 69.6782 30.8947 69.5752C19.5265 69.4727 8.15396 66.6771 2.33962 57.8026L1.82812 57.0219L2.42128 56.3012Z" fill="black"/>
<path d="M145.36 59.2755C130.473 45.5642 145.36 40.048 128.562 7.75586C140.576 9.75023 149.47 34.3946 153.934 47.2998C163.906 50.8085 171.298 61.5345 173.747 66.4589C190.559 101.545 177.997 116.955 173.747 124.392C169.497 131.829 149.31 139.267 120.89 144.579C92.469 149.891 62.6271 144.893 53.8521 142.794C46.8321 141.116 39.0999 134.846 36.1113 131.921C55.1854 138.587 101.423 148.221 133.782 133.428C174.23 114.938 163.968 76.4146 145.36 59.2755Z" fill="#226D29"/>
<path d="M69.656 7.42435C41.9835 6.47018 35.6481 18.8499 33.3836 26.8294L29.8966 28.0991C26.5171 22.9304 41.228 6.03266 39.8365 10.0086C52.7185 2.69288 65.0836 5.23755 69.656 7.42435Z" fill="#FFE598"/>
<path fill-rule="evenodd" clip-rule="evenodd" d="M131.861 35.1461C106.21 16.9422 83.3055 24.6022 75.2385 30.4722L74.6096 30.9298L73.8703 30.6883C69.2385 29.1754 61.5121 28.2316 53.3642 27.9674C45.2386 27.7039 36.8937 28.1221 31.0703 29.242C16.7949 31.9873 8.91492 42.8176 4.39895 49.7967C2.81386 52.2464 2.87361 54.069 3.31185 55.3307C3.78147 56.6828 4.77477 57.6341 5.38118 58.0751L3.59058 60.5372C2.68365 59.8777 1.1785 58.4673 0.435992 56.3296C-0.337896 54.1015 -0.203933 51.3062 1.84298 48.1428C6.40703 41.0894 14.888 29.2538 30.4954 26.2524C36.6252 25.0736 45.2179 24.6572 53.4629 24.9246C61.2974 25.1787 68.9997 26.0555 74.0801 27.5653C83.5411 21.1257 107.385 14.0434 133.623 32.6634C134.308 33.1499 134.47 34.1001 133.983 34.7857C133.497 35.4713 132.546 35.6326 131.861 35.1461Z" fill="black"/>
<path fill-rule="evenodd" clip-rule="evenodd" d="M125.554 58.1456C122.821 58.642 119.923 59.2944 118.094 59.7428L117.369 56.786C119.242 56.3268 122.202 55.6602 125.01 55.1502C126.413 54.8953 127.796 54.6762 128.995 54.5425C130.152 54.4136 131.277 54.3465 132.093 54.461C132.926 54.5778 133.506 55.3474 133.389 56.1799C133.272 57.0125 132.502 57.5926 131.67 57.4758C131.268 57.4194 130.479 57.4404 129.333 57.5682C128.229 57.6911 126.921 57.8971 125.554 58.1456Z" fill="black"/>
<path d="M129.294 8.46594C102.544 -1.27422 83.2363 13.0079 75.1971 27.1145C74.1906 18.7246 82.2883 11.6248 86.517 9.13557C111.573 -4.69953 125.626 3.47075 126.824 4.01544C127.783 4.45119 128.34 6.42056 129.294 8.46594Z" fill="#FFE598"/>
<path fill-rule="evenodd" clip-rule="evenodd" d="M87.0535 9.15696C87.3575 9.78817 87.0921 10.5462 86.4609 10.8502C84.4324 11.8269 81.3935 13.9488 79.0291 17.0766C76.6808 20.1828 75.0305 24.231 75.6159 29.1388L75.7243 30.0478L74.8957 30.4371C73.3202 31.1774 70.7885 32.708 68.4384 34.846C66.08 36.9917 64.0072 39.6557 63.1722 42.6443C62.9836 43.319 62.2838 43.7132 61.6091 43.5246C60.9344 43.3361 60.5402 42.6363 60.7288 41.9616C61.7424 38.3338 64.19 35.2814 66.7311 32.9695C68.923 30.9753 71.2607 29.4626 73.0105 28.5431C72.6242 23.2484 74.4951 18.8672 77.0053 15.5466C79.6396 12.0619 83.0103 9.69586 85.3603 8.56435C85.9915 8.26043 86.7496 8.52575 87.0535 9.15696Z" fill="black"/>
<path fill-rule="evenodd" clip-rule="evenodd" d="M105.351 4.0345C96.069 5.45841 87.4714 9.77379 82.1606 13.5681L81.0776 14.3419L80.031 13.5196C77.6314 11.6342 74.112 10.1208 70.5593 9.00056C67.0683 7.8998 63.7087 7.22872 61.6915 6.94765C50.3057 6.11245 42.9112 9.48228 38.2219 13.9096C33.4707 18.3954 31.3504 24.107 30.8165 28.0865C30.6861 29.0586 29.7923 29.7409 28.8202 29.6105C27.8482 29.4801 27.1658 28.5864 27.2962 27.6143C27.9195 22.9684 30.3453 16.4616 35.7835 11.3271C41.276 6.14136 49.6978 2.49283 62.0108 3.40977L62.066 3.41388L62.1208 3.42142C64.3176 3.72347 67.9026 4.43872 71.6274 5.61318C74.8855 6.64052 78.3823 8.05947 81.1531 9.94401C86.8551 6.09352 95.4654 1.95767 104.812 0.523785C114.797 -1.00799 125.774 0.534057 134.803 8.9886C143.243 16.8914 148.397 24.1795 151.87 32.2021C155.326 40.1831 157.078 48.8077 158.827 59.2632C158.989 60.2305 158.335 61.1459 157.368 61.3076C156.401 61.4694 155.485 60.8163 155.324 59.8489C153.578 49.4085 151.879 41.1618 148.611 33.6133C145.361 26.1064 140.519 19.207 132.375 11.5812C124.36 4.07524 114.592 2.61682 105.351 4.0345Z" fill="black"/>
<path fill-rule="evenodd" clip-rule="evenodd" d="M116.981 53.4231C90.7385 35.976 67.7877 43.0001 59.7628 48.4868L59.1851 48.8819L58.5429 48.6038C30.8322 36.6054 10.4429 45.5723 3.87666 51.2987C3.34866 51.7591 2.54736 51.7044 2.08691 51.1764C1.62645 50.6484 1.6812 49.8471 2.2092 49.3866C9.45895 43.0642 30.6272 34.0237 58.9176 46.0045C68.1725 40.0759 91.7893 33.6363 118.371 51.3006C118.369 51.2986 118.373 51.2998 118.385 51.3036C118.443 51.3218 118.683 51.3971 119.246 51.4382C119.885 51.4849 120.775 51.4785 121.936 51.399C124.254 51.2406 127.539 50.7999 131.842 49.9951C132.531 49.8663 133.193 50.3201 133.322 51.0088C133.451 51.6974 132.997 52.3601 132.309 52.4889C127.954 53.3033 124.563 53.7624 122.109 53.9301C120.885 54.0138 119.865 54.0272 119.061 53.9685C118.328 53.9149 117.547 53.7908 116.993 53.4307L116.987 53.4269L116.981 53.4231Z" fill="black"/>
<path d="M95.482 58.0122C95.482 63.4988 90.6573 67.9465 84.7058 67.9465C78.7542 67.9465 73.9296 63.4988 73.9296 58.0122C73.9296 52.5256 78.7542 48.0779 84.7058 48.0779C90.6573 48.0779 95.482 52.5256 95.482 58.0122Z" fill="black"/>
<path d="M89.2963 55.0421C89.09 56.0206 87.9787 56.6148 86.8143 56.3692C85.6498 56.1236 84.8732 55.1312 85.0796 54.1527C85.2859 53.1742 86.3972 52.58 87.5616 52.8256C88.7261 53.0712 89.5027 54.0635 89.2963 55.0421Z" fill="white"/>
<path d="M85.2389 61.1965C84.9445 62.5921 83.3596 63.4395 81.6989 63.0892C80.0382 62.7389 78.9305 61.3236 79.2249 59.9281C79.5192 58.5325 81.1041 57.6851 82.7648 58.0353C84.4255 58.3856 85.5332 59.8009 85.2389 61.1965Z" fill="white"/>
<path fill-rule="evenodd" clip-rule="evenodd" d="M153.537 46.5779C153.943 45.6849 154.995 45.2898 155.888 45.6954C166.567 50.5453 187.851 68.997 183.992 105.885C181.882 126.055 164.143 137.017 143.745 142.783C123.24 148.579 99.2429 149.388 83.0055 148.727C72.4592 148.583 56.1817 146.066 41.4524 138.951C26.694 131.823 13.2994 119.972 9.05271 101.108C7.97268 96.6172 8.38213 86.7345 17.2956 79.8845C14.6804 77.8876 11.4717 75.1401 8.64224 72.1025C6.82868 70.1554 5.13673 68.0528 3.85659 65.9197C2.58663 63.8035 1.65146 61.5412 1.50193 59.2981C1.43668 58.3195 2.17713 57.4733 3.15576 57.408C4.13438 57.3428 4.9806 58.0832 5.04585 59.0619C5.14307 60.5203 5.78047 62.223 6.90207 64.092C8.01349 65.944 9.53208 67.8467 11.2412 69.6816C14.6616 73.3538 18.7082 76.6092 21.372 78.4683L23.5802 80.0094L21.294 81.4323C11.9691 87.236 11.5959 96.514 12.5084 100.287L12.5118 100.301L12.5149 100.315C16.4425 117.782 28.8377 128.914 42.9972 135.753C57.1779 142.603 72.9368 145.041 83.077 145.176L83.1015 145.176L83.1259 145.177C99.192 145.833 122.779 145.019 142.779 139.365C162.897 133.679 178.593 123.356 180.459 105.515C184.136 70.3756 163.927 53.2474 154.42 48.9292C153.527 48.5237 153.131 47.4709 153.537 46.5779Z" fill="black"/>
<path d="M43.1326 58.0122C43.1326 63.4988 38.3079 67.9465 32.3564 67.9465C26.4049 67.9465 21.5802 63.4988 21.5802 58.0122C21.5802 52.5256 26.4049 48.0779 32.3564 48.0779C38.3079 48.0779 43.1326 52.5256 43.1326 58.0122Z" fill="black"/>
<path d="M36.9876 55.397C36.7812 56.3755 35.67 56.9697 34.5055 56.7241C33.3411 56.4785 32.5645 55.4862 32.7708 54.5076C32.9772 53.5291 34.0885 52.9349 35.2529 53.1805C36.4173 53.4261 37.194 54.4185 36.9876 55.397Z" fill="white"/>
<path d="M32.9312 61.5512C32.6369 62.9468 31.052 63.7942 29.3913 63.4439C27.7306 63.0937 26.6229 61.6784 26.9172 60.2828C27.2116 58.8872 28.7965 58.0398 30.4572 58.3901C32.1179 58.7403 33.2256 60.1556 32.9312 61.5512Z" fill="white"/>
<path d="M8.15387 99.9913C14.9861 104.029 27.6932 107.755 33.1927 109.114C54.0253 114.565 105.676 102.133 118.679 99.9913C139.948 96.4874 135.506 120.491 125.754 120.299C116.001 120.108 92.0989 124.697 81.1993 127.63C70.2998 130.562 30.893 132.329 19.8735 127.63C8.85396 122.93 17.1186 115.638 15.9842 115.314C15.0767 115.054 10.3859 112.625 8.15387 111.443C-0.541805 103.99 4.53067 100.703 8.15387 99.9913Z" fill="#FC6745"/>
<path fill-rule="evenodd" clip-rule="evenodd" d="M133.017 117.562C131.379 120.003 128.845 121.882 125.723 121.821C121.012 121.729 112.731 122.802 104.167 124.293C95.6407 125.777 86.9874 127.649 81.5944 129.1C75.9492 130.618 63.2095 131.792 50.6077 132.014C44.2789 132.125 37.9257 131.996 32.4455 131.542C27.018 131.091 22.2744 130.309 19.276 129.03C16.3447 127.78 14.478 126.267 13.4635 124.539C12.4291 122.778 12.401 121 12.7359 119.499C13.0377 118.147 13.6459 116.968 14.0861 116.163C14.0723 116.157 14.0585 116.15 14.0446 116.144C13.4242 115.853 12.6691 115.481 11.8812 115.084C10.3038 114.291 8.56326 113.383 7.44102 112.788L7.29141 112.709L7.16286 112.599C2.77143 108.835 1.12084 105.523 2.09457 102.694C2.56245 101.334 3.56555 100.378 4.60203 99.7377C5.64123 99.0956 6.81936 98.702 7.8601 98.4976L8.42886 98.3859L8.92788 98.6807C15.5485 102.593 28.0583 106.278 33.5574 107.636L33.5675 107.639L33.5776 107.641C38.5509 108.943 45.493 109.199 53.4273 108.769C61.3301 108.341 70.0894 107.239 78.635 105.896C87.1768 104.554 95.4805 102.974 102.47 101.593C104.43 101.206 106.292 100.834 108.028 100.487C112.458 99.6007 116.072 98.8778 118.431 98.4893C123.999 97.572 128.165 98.411 131.021 100.48C133.889 102.558 135.183 105.691 135.368 108.813C135.553 111.913 134.659 115.116 133.017 117.562ZM14.6115 115.178C14.6113 115.178 14.611 115.179 14.6108 115.179C14.6205 115.147 14.6249 115.144 14.6115 115.178ZM129.235 102.946C127.248 101.506 123.992 100.659 118.926 101.493C116.622 101.873 113.091 102.579 108.693 103.459C106.945 103.808 105.059 104.185 103.06 104.58C96.0569 105.963 87.7079 107.552 79.1077 108.904C70.5113 110.255 61.6393 111.373 53.5921 111.809C45.5814 112.244 38.2591 112.011 32.8172 110.589C27.4478 109.262 15.0523 105.646 7.91229 101.61C7.31072 101.773 6.71029 102.014 6.20222 102.328C5.54032 102.737 5.13943 103.201 4.97325 103.684C4.68179 104.531 4.83671 106.557 9.01705 110.178C10.1279 110.765 11.7654 111.618 13.2495 112.365C14.0268 112.756 14.754 113.114 15.3381 113.388C15.6307 113.525 15.879 113.637 16.0752 113.721C16.1732 113.763 16.2522 113.795 16.3133 113.818C16.3787 113.843 16.4047 113.851 16.402 113.85C16.6855 113.931 17.0168 114.106 17.2718 114.438C17.5203 114.763 17.5971 115.108 17.6127 115.36C17.6394 115.792 17.498 116.159 17.4379 116.309C17.3134 116.62 17.1014 117.002 16.9226 117.324C16.8987 117.367 16.8755 117.409 16.8531 117.45C16.41 118.252 15.9283 119.171 15.7072 120.162C15.4951 121.113 15.538 122.06 16.0887 122.997C16.6592 123.969 17.8917 125.13 20.4702 126.229C22.9815 127.3 27.2961 128.059 32.6973 128.508C38.0457 128.952 44.2915 129.079 50.5543 128.97C63.1356 128.749 75.5491 127.573 80.8035 126.16C86.3101 124.678 95.0578 122.789 103.645 121.293C112.196 119.805 120.743 118.678 125.783 118.777C127.538 118.812 129.216 117.763 130.489 115.866C131.758 113.975 132.474 111.432 132.329 108.993C132.186 106.576 131.212 104.378 129.235 102.946Z" fill="black"/>
<path fill-rule="evenodd" clip-rule="evenodd" d="M109.644 113.591C103.194 114.629 95.7826 116.131 90.927 117.198L90.8839 117.207L90.8403 117.214C48.5845 123.961 20.4604 118.395 11.4707 114.622C10.6955 114.297 10.3308 113.405 10.6561 112.63C10.9814 111.855 11.8735 111.49 12.6487 111.815C20.9551 115.301 48.4496 120.893 90.3168 114.215C95.2071 113.141 102.654 111.632 109.161 110.585C112.419 110.061 115.474 109.648 117.864 109.466C119.055 109.375 120.123 109.339 120.986 109.384C121.416 109.406 121.833 109.451 122.207 109.532C122.552 109.606 123.003 109.741 123.393 110.03C124.068 110.531 124.209 111.484 123.708 112.159C123.227 112.807 122.33 112.963 121.661 112.532C121.642 112.526 121.61 112.517 121.563 112.507C121.406 112.473 121.166 112.442 120.828 112.424C120.152 112.389 119.231 112.415 118.095 112.502C115.831 112.674 112.874 113.072 109.644 113.591Z" fill="black"/>
<path fill-rule="evenodd" clip-rule="evenodd" d="M61.7868 76.6533C62.1098 77.4294 61.7425 78.3205 60.9663 78.6435C38.1466 88.1397 21.3418 82.701 15.5434 78.4675C14.8644 77.9718 14.7159 77.0195 15.2116 76.3405C15.7073 75.6615 16.6596 75.513 17.3386 76.0087C22.175 79.5399 37.8351 84.9718 59.7967 75.8327C60.5728 75.5097 61.4639 75.8771 61.7868 76.6533Z" fill="black"/>
<path fill-rule="evenodd" clip-rule="evenodd" d="M123.761 61.9475C124.169 62.6827 123.904 63.6092 123.169 64.017C102.917 75.2496 88.4964 77.8786 78.6721 77.332C68.8078 76.7832 63.7363 73.0402 62.211 71.8962C60.7241 70.781 59.9238 69.096 59.4702 67.4954C59.0119 65.878 58.8549 64.1587 58.7896 62.7566C58.7505 61.9168 59.3996 61.2044 60.2394 61.1653C61.0791 61.1261 61.7916 61.7752 61.8307 62.615C61.8922 63.9351 62.0356 65.382 62.3993 66.6654C62.7677 67.9656 63.3112 68.9159 64.0376 69.4607L64.0486 69.4689C65.3055 70.4117 69.8095 73.7898 78.8412 74.2923C87.9394 74.7986 101.789 72.3938 121.692 61.3547C122.427 60.9469 123.354 61.2123 123.761 61.9475Z" fill="black"/>
<path fill-rule="evenodd" clip-rule="evenodd" d="M62.9236 76.5413C63.2835 77.3011 62.9594 78.2087 62.1996 78.5686C58.8499 80.1553 53.7757 82.7193 49.4466 85.2483C47.278 86.5151 45.3315 87.7528 43.8899 88.8396C43.1673 89.3843 42.6047 89.8665 42.2121 90.2736C42.0168 90.4761 41.8814 90.6418 41.7934 90.77C41.7153 90.8839 41.695 90.9385 41.6947 90.9384C41.4616 91.7435 40.621 92.2091 39.8144 91.9786C39.006 91.7477 38.538 90.9052 38.7689 90.0969C38.982 89.351 39.5099 88.6899 40.0207 88.1603C40.5676 87.5932 41.2688 87.003 42.0572 86.4086C43.6375 85.2173 45.701 83.9106 47.9109 82.6196C52.3389 80.0329 57.4961 77.4279 60.8964 75.8173C61.6561 75.4574 62.5638 75.7816 62.9236 76.5413Z" fill="black"/>
<path fill-rule="evenodd" clip-rule="evenodd" d="M67.9315 79.1448C68.2709 78.3756 69.1695 78.0272 69.9386 78.3665C72.741 79.6029 77.4408 81.4185 82.3745 82.8216C87.3606 84.2397 92.3728 85.1727 95.8952 84.8019C96.7312 84.7139 97.4804 85.3203 97.5684 86.1564C97.6564 86.9925 97.0499 87.7416 96.2139 87.8296C92.0702 88.2658 86.5751 87.1814 81.5417 85.7499C76.4557 84.3034 71.6233 82.4373 68.7098 81.1519C67.9406 80.8126 67.5922 79.9139 67.9315 79.1448Z" fill="black"/>
</svg>
