<svg width="72" height="72" viewBox="0 0 72 72" fill="none" xmlns="http://www.w3.org/2000/svg">
<circle cx="35.6161" cy="35.6161" r="35.6161" fill="#200C15"/>
<path d="M17.5773 27.3904C18.4276 24.4058 22.0891 19.4972 29.9323 23.7389C32.5643 22.1189 38.6789 19.6954 42.0811 22.9615C45.5179 26.2608 47.5475 31.2265 48.1998 33.7588C48.159 32.9556 48.3731 32.3289 49.2661 32.851C51.0035 33.8667 64.4464 52.9109 42.0811 55.9208C20.0091 58.8913 15.38 53.247 12.9876 44.6627C12.7998 43.8875 12.9919 41.9395 15.2628 40.3499C14.5584 39.5404 12.954 37.833 12.1718 37.4797C11.3896 37.1264 11.2571 35.7555 11.2887 35.1142C10.9174 34.8105 10.3534 33.9278 11.068 32.8261C11.9612 31.4491 14.0749 28.2072 17.5773 27.3904Z" fill="#62D732"/>
<path d="M13.4921 45.7436C14.0768 42.3375 15.2817 41.2086 16.7663 40.9239L15.7114 40.4703C13.5762 41.2583 13.0848 43.7853 13.106 44.9503L13.4921 45.7436Z" fill="#FFE598"/>
<path d="M23.0615 27.7141C16.8546 28.1483 15.5243 29.2811 14.6704 30.0505H13.6486C15.3094 28.446 17.5332 27.9674 18.0681 27.7141C18.496 27.5114 22.7424 27.5452 23.0615 27.7141Z" fill="#FFE598"/>
<path d="M24.1861 27.049C24.1861 25.1902 25.9188 23.4653 26.7852 22.8352C27.2606 22.4403 29.1979 23.3645 30.1071 23.8759C28.7381 24.8969 28.1832 27.105 28.0768 28.0815C26.8471 28.7544 25.6695 30.5081 25.2344 31.3009L23.1462 30.3728C21.986 29.3519 23.356 27.7315 24.1861 27.049Z" fill="#226D29"/>
<path fill-rule="evenodd" clip-rule="evenodd" d="M39.1236 32.9423C32.0051 28.1762 27.1119 30.1287 25.6208 31.5529L25.4293 31.7358L25.1942 31.6138C19.7525 28.7903 14.681 30.2964 12.8612 31.3736C12.6851 31.4778 12.4579 31.4196 12.3536 31.2435C12.2494 31.0674 12.3076 30.8401 12.4837 30.7359C14.4516 29.571 19.6814 28.0341 25.3067 30.8396C27.2679 29.1828 32.4429 27.5775 39.5359 32.3265C39.706 32.4403 39.7515 32.6705 39.6377 32.8405C39.5238 33.0106 39.2937 33.0561 39.1236 32.9423Z" fill="black"/>
<path d="M33.339 32.6887C29.5609 31.6319 25.7763 33.129 24.3562 34.0097C24.1185 34.5909 24.6535 35.6609 24.9507 36.1233C29.3628 39.5843 36.3883 36.8388 39.3495 35.0335C37.5331 35.1325 38.0615 34.0097 33.339 32.6887Z" fill="white"/>
<path fill-rule="evenodd" clip-rule="evenodd" d="M24.6185 34.2125C24.605 34.2842 24.6024 34.3748 24.6149 34.4857C24.6328 34.6441 24.6792 34.8228 24.7449 35.008C24.868 35.3551 25.0477 35.694 25.1839 35.9129C27.2856 37.5359 30.0209 37.7185 32.6408 37.2495C34.8243 36.8586 36.8893 36.021 38.3604 35.2406C38.3041 35.223 38.2489 35.2033 38.1944 35.1815C37.927 35.0744 37.6809 34.9171 37.4114 34.7448C37.365 34.7151 37.318 34.6851 37.27 34.6547C36.6085 34.2363 35.5873 33.6381 33.2568 32.9862C29.6762 31.9846 26.0676 33.3521 24.6185 34.2125ZM24.1945 33.7475C25.6565 32.8408 29.5318 31.303 33.4232 32.3915C35.8152 33.0606 36.8912 33.6844 37.6001 34.1328C37.6536 34.1667 37.704 34.1988 37.7519 34.2293C38.0247 34.4032 38.2148 34.5244 38.424 34.6082C38.6534 34.7 38.9144 34.7482 39.3337 34.7253L39.5113 35.2973C38.0047 36.2158 35.4723 37.37 32.7496 37.8574C30.0307 38.3441 27.0661 38.1745 24.7611 36.3664L24.7202 36.3342L24.692 36.2904C24.5334 36.0438 24.3136 35.6393 24.1629 35.2145C24.0874 35.0017 24.0261 34.7751 24.0012 34.5549C23.9767 34.3375 23.9852 34.104 24.0715 33.893L24.1094 33.8003L24.1945 33.7475Z" fill="black"/>
<path d="M24.3383 33.8555C17.1642 30.5337 12.5559 33.1228 11.1486 34.8325C13.8005 38.8802 21.6515 37.5426 25.2455 36.3678C24.5197 35.9491 24.3383 34.5185 24.3383 33.8555Z" fill="white"/>
<path fill-rule="evenodd" clip-rule="evenodd" d="M11.5412 34.8546C12.8171 36.5966 15.2225 37.2261 17.8483 37.2498C20.3089 37.2719 22.8738 36.7597 24.6525 36.2299C24.4463 35.9503 24.3123 35.6057 24.2239 35.2854C24.1041 34.8514 24.0508 34.399 24.0359 34.0558C17.3285 31.0228 13.0073 33.2751 11.5412 34.8546ZM10.912 34.6362C12.4172 32.8075 17.1809 30.2002 24.4698 33.5753L24.6489 33.6582L24.6489 33.8554C24.6489 34.1653 24.6919 34.6603 24.8192 35.121C24.9513 35.5994 25.1507 35.9556 25.4016 36.1003L26.0012 36.4462L25.3433 36.6613C23.5237 37.256 20.6283 37.8924 17.8428 37.8673C15.0756 37.8424 12.3074 37.1619 10.8921 35.0017L10.7676 34.8117L10.912 34.6362Z" fill="black"/>
<path d="M45.7047 35.3602C42.0811 32.0227 45.7047 30.68 41.6159 22.8196C44.5401 23.3051 46.7052 29.3039 47.7918 32.4451C50.2191 33.2992 52.0182 35.91 52.6144 37.1087C56.7066 45.6492 53.6489 49.4001 52.6144 51.2104C51.58 53.0207 46.6663 54.831 39.7483 56.1241C32.8304 57.4172 25.5665 56.2005 23.4305 55.6897C21.7218 55.2811 19.8396 53.755 19.1122 53.043C23.7551 54.6656 35.0099 57.0105 42.8864 53.4099C52.7319 48.909 50.2341 39.5321 45.7047 35.3602Z" fill="#226D29"/>
<path d="M27.2767 22.7388C20.5408 22.5065 18.9987 25.5199 18.4475 27.4622L17.5987 27.7713C16.7761 26.5131 20.3569 22.4 20.0182 23.3678C23.1539 21.5871 26.1637 22.2065 27.2767 22.7388Z" fill="#FFE598"/>
<path fill-rule="evenodd" clip-rule="evenodd" d="M42.4188 29.4867C36.1751 25.0556 30.5999 26.9201 28.6363 28.349L28.4832 28.4604L28.3032 28.4016C27.1758 28.0333 25.2951 27.8036 23.3118 27.7393C21.3339 27.6751 19.3027 27.7769 17.8852 28.0495C14.4104 28.7178 12.4923 31.354 11.393 33.0528C11.0072 33.6491 11.0217 34.0928 11.1284 34.3999C11.2427 34.729 11.4845 34.9605 11.6321 35.0679L11.1963 35.6672C10.9755 35.5067 10.6091 35.1634 10.4284 34.643C10.24 34.1007 10.2726 33.4203 10.7709 32.6502C11.8818 30.9333 13.9462 28.0524 17.7452 27.3218C19.2373 27.0349 21.3289 26.9335 23.3358 26.9986C25.2428 27.0605 27.1177 27.2739 28.3543 27.6414C30.6572 26.0739 36.4613 24.35 42.8477 28.8823C43.0146 29.0008 43.0539 29.2321 42.9354 29.3989C42.817 29.5658 42.5857 29.6051 42.4188 29.4867Z" fill="black"/>
<path fill-rule="evenodd" clip-rule="evenodd" d="M40.8839 35.0851C40.2186 35.2059 39.5133 35.3647 39.0681 35.4739L38.8916 34.7542C39.3475 34.6424 40.068 34.4801 40.7514 34.356C41.0929 34.2939 41.4296 34.2406 41.7216 34.2081C42.0031 34.1767 42.277 34.1604 42.4756 34.1882C42.6782 34.2167 42.8194 34.404 42.791 34.6066C42.7626 34.8093 42.5752 34.9505 42.3726 34.9221C42.2748 34.9083 42.0827 34.9135 41.8036 34.9446C41.5351 34.9745 41.2167 35.0246 40.8839 35.0851Z" fill="black"/>
<path d="M41.7939 22.9924C35.2826 20.6216 30.5829 24.098 28.6261 27.5317C28.3811 25.4895 30.3522 23.7614 31.3815 23.1554C37.4804 19.7878 40.901 21.7766 41.1927 21.9091C41.4261 22.0152 41.5618 22.4946 41.7939 22.9924Z" fill="#FFE598"/>
<path fill-rule="evenodd" clip-rule="evenodd" d="M31.5112 23.1606C31.5852 23.3143 31.5206 23.4988 31.3669 23.5728C30.8732 23.8105 30.1335 24.327 29.5579 25.0884C28.9863 25.8445 28.5846 26.8299 28.7271 28.0245L28.7535 28.2457L28.5518 28.3405C28.1683 28.5207 27.552 28.8932 26.98 29.4137C26.406 29.936 25.9014 30.5844 25.6981 31.3119C25.6523 31.4761 25.4819 31.5721 25.3177 31.5262C25.1534 31.4803 25.0575 31.3099 25.1034 31.1457C25.3501 30.2626 25.9459 29.5196 26.5644 28.9569C27.098 28.4715 27.667 28.1033 28.0929 27.8795C27.9989 26.5907 28.4543 25.5242 29.0653 24.716C29.7065 23.8677 30.527 23.2918 31.099 23.0164C31.2527 22.9424 31.4372 23.007 31.5112 23.1606Z" fill="black"/>
<path fill-rule="evenodd" clip-rule="evenodd" d="M35.9653 21.9141C33.706 22.2607 31.6132 23.3111 30.3205 24.2347L30.0569 24.423L29.8021 24.2228C29.218 23.7639 28.3614 23.3955 27.4966 23.1229C26.6468 22.8549 25.829 22.6916 25.3381 22.6232C22.5666 22.4199 20.7667 23.2401 19.6252 24.3178C18.4687 25.4097 17.9526 26.7999 17.8227 27.7686C17.7909 28.0052 17.5734 28.1713 17.3368 28.1396C17.1001 28.1078 16.9341 27.8903 16.9658 27.6537C17.1175 26.5228 17.708 24.939 19.0317 23.6892C20.3687 22.4269 22.4186 21.5388 25.4158 21.762L25.4292 21.763L25.4425 21.7648C25.9773 21.8383 26.8499 22.0124 27.7566 22.2983C28.5496 22.5484 29.4008 22.8938 30.0752 23.3525C31.4632 22.4152 33.559 21.4085 35.8342 21.0595C38.2647 20.6867 40.9366 21.062 43.1343 23.1199C45.1887 25.0436 46.4433 26.8176 47.2887 28.7704C48.1298 30.7131 48.5564 32.8124 48.982 35.3574C49.0214 35.5929 48.8624 35.8157 48.6269 35.8551C48.3915 35.8944 48.1687 35.7355 48.1293 35.5C47.7043 32.9587 47.2909 30.9513 46.4954 29.1139C45.7042 27.2866 44.5257 25.6072 42.5434 23.751C40.5923 21.924 38.2147 21.569 35.9653 21.9141Z" fill="black"/>
<path fill-rule="evenodd" clip-rule="evenodd" d="M38.7976 33.9358C32.4097 29.6889 26.8232 31.3987 24.8699 32.7342L24.7293 32.8304L24.5729 32.7627C17.8278 29.8421 12.8648 32.0248 11.2665 33.4187C11.138 33.5307 10.9429 33.5174 10.8308 33.3889C10.7187 33.2604 10.7321 33.0653 10.8606 32.9532C12.6253 31.4143 17.7779 29.2137 24.6641 32.13C26.9169 30.6869 32.6655 29.1194 39.1359 33.4191C39.1353 33.4186 39.1363 33.4189 39.1392 33.4199C39.1533 33.4243 39.2118 33.4426 39.3487 33.4526C39.5044 33.464 39.7209 33.4624 40.0037 33.4431C40.5679 33.4045 41.3675 33.2973 42.4149 33.1014C42.5825 33.07 42.7438 33.1805 42.7752 33.3481C42.8065 33.5157 42.6961 33.677 42.5285 33.7084C41.4685 33.9066 40.6431 34.0184 40.0458 34.0592C39.7477 34.0796 39.4994 34.0828 39.3038 34.0685C39.1254 34.0555 38.9354 34.0253 38.8004 33.9376L38.799 33.9367L38.7976 33.9358Z" fill="black"/>
<path d="M33.5645 35.0525C33.5645 36.388 32.3901 37.4707 30.9414 37.4707C29.4927 37.4707 28.3184 36.388 28.3184 35.0525C28.3184 33.717 29.4927 32.6344 30.9414 32.6344C32.3901 32.6344 33.5645 33.717 33.5645 35.0525Z" fill="black"/>
<path d="M32.0584 34.33C32.0081 34.5682 31.7376 34.7128 31.4542 34.653C31.1708 34.5932 30.9817 34.3517 31.032 34.1135C31.0822 33.8753 31.3527 33.7307 31.6361 33.7905C31.9196 33.8502 32.1086 34.0918 32.0584 34.33Z" fill="white"/>
<path d="M31.0705 35.8278C30.9988 36.1675 30.6131 36.3737 30.2088 36.2885C29.8046 36.2032 29.535 35.8587 29.6066 35.519C29.6782 35.1793 30.064 34.973 30.4683 35.0583C30.8725 35.1436 31.1421 35.4881 31.0705 35.8278Z" fill="white"/>
<path fill-rule="evenodd" clip-rule="evenodd" d="M47.6958 32.2694C47.7945 32.052 48.0507 31.9558 48.2681 32.0545C50.8673 33.2351 56.0483 37.7265 55.1088 46.7055C54.5952 51.6152 50.2773 54.2835 45.3123 55.687C40.3211 57.0978 34.4799 57.2946 30.5275 57.1337C27.9604 57.0988 23.9982 56.4861 20.4129 54.7543C16.8205 53.019 13.5601 50.1343 12.5264 45.5426C12.2635 44.4496 12.3632 42.044 14.5329 40.3766C13.8963 39.8905 13.1152 39.2218 12.4265 38.4824C11.9851 38.0084 11.5732 37.4966 11.2616 36.9774C10.9525 36.4623 10.7249 35.9116 10.6885 35.3656C10.6726 35.1274 10.8528 34.9214 11.091 34.9056C11.3292 34.8897 11.5352 35.0699 11.5511 35.3081C11.5748 35.6631 11.7299 36.0776 12.0029 36.5325C12.2735 36.9833 12.6431 37.4465 13.0591 37.8931C13.8917 38.787 14.8767 39.5794 15.5251 40.0319L16.0626 40.407L15.5061 40.7534C13.2363 42.1661 13.1455 44.4244 13.3676 45.3429L13.3684 45.3463L13.3692 45.3497C14.3252 49.6015 17.3424 52.3109 20.789 53.9758C24.2407 55.6431 28.0766 56.2366 30.5449 56.2693L30.5508 56.2694L30.5568 56.2696C34.4675 56.4292 40.2088 56.2311 45.0771 54.855C49.9742 53.4708 53.7946 50.9581 54.249 46.6155C55.1439 38.062 50.2248 33.8928 47.9106 32.8417C47.6932 32.743 47.597 32.4867 47.6958 32.2694Z" fill="black"/>
<path d="M20.8213 35.0525C20.8213 36.388 19.6469 37.4707 18.1983 37.4707C16.7496 37.4707 15.5752 36.388 15.5752 35.0525C15.5752 33.717 16.7496 32.6344 18.1983 32.6344C19.6469 32.6344 20.8213 33.717 20.8213 35.0525Z" fill="black"/>
<path d="M19.3251 34.4159C19.2749 34.6541 19.0044 34.7988 18.7209 34.739C18.4375 34.6792 18.2485 34.4377 18.2987 34.1995C18.3489 33.9613 18.6194 33.8166 18.9029 33.8764C19.1863 33.9362 19.3753 34.1778 19.3251 34.4159Z" fill="white"/>
<path d="M18.3382 35.914C18.2665 36.2537 17.8808 36.46 17.4765 36.3747C17.0723 36.2895 16.8027 35.945 16.8743 35.6053C16.9459 35.2656 17.3317 35.0593 17.736 35.1445C18.1402 35.2298 18.4098 35.5743 18.3382 35.914Z" fill="white"/>
<path d="M12.3064 45.2707C13.9695 46.2535 17.0625 47.1606 18.4012 47.4913C23.4721 48.8181 36.0444 45.7921 39.2095 45.2707C44.3868 44.4178 43.3055 50.2605 40.9317 50.214C38.5579 50.1674 32.7397 51.2845 30.0866 51.9983C27.4335 52.712 17.8414 53.1422 15.1591 51.9983C12.4768 50.8544 14.4885 49.0793 14.2124 49.0004C13.9915 48.9373 12.8497 48.346 12.3064 48.0583C10.1898 46.244 11.4245 45.444 12.3064 45.2707Z" fill="#FC6745"/>
<path fill-rule="evenodd" clip-rule="evenodd" d="M42.7015 49.5476C42.3029 50.1416 41.6859 50.5991 40.9262 50.5842C39.7792 50.5617 37.7636 50.8229 35.6792 51.1858C33.6037 51.5472 31.4973 52.0027 30.1846 52.3559C28.8105 52.7256 25.7095 53.0114 22.6421 53.0652C21.1016 53.0922 19.5551 53.061 18.2211 52.9503C16.9 52.8406 15.7454 52.6502 15.0155 52.3389C14.302 52.0346 13.8476 51.6663 13.6007 51.2458C13.3489 50.817 13.3421 50.3844 13.4236 50.0191C13.497 49.6899 13.6451 49.4028 13.7523 49.207C13.7489 49.2054 13.7455 49.2038 13.7422 49.2023C13.5911 49.1314 13.4073 49.0409 13.2155 48.9444C12.8316 48.7512 12.4079 48.5302 12.1348 48.3855L12.0983 48.3662L12.067 48.3394C10.9981 47.4232 10.5963 46.617 10.8334 45.9283C10.9472 45.5974 11.1914 45.3647 11.4437 45.2088C11.6967 45.0525 11.9834 44.9567 12.2368 44.907L12.3752 44.8798L12.4967 44.9516C14.1082 45.9038 17.1533 46.8007 18.4918 47.1314L18.4943 47.132L18.4967 47.1327C19.7073 47.4494 21.3971 47.5119 23.3284 47.4072C25.252 47.3029 27.3842 47.0348 29.4643 46.7079C31.5434 46.3811 33.5647 45.9965 35.266 45.6606C35.7432 45.5663 36.1963 45.4757 36.6189 45.3912C37.6973 45.1755 38.577 44.9995 39.1511 44.905C40.5065 44.6817 41.5204 44.8859 42.2157 45.3896C42.9138 45.8953 43.2288 46.6579 43.2739 47.4178C43.3188 48.1724 43.1012 48.9521 42.7015 49.5476ZM13.8801 48.9671C13.8801 48.9672 13.88 48.9674 13.88 48.9675C13.8823 48.9597 13.8834 48.9589 13.8801 48.9671ZM41.781 45.9897C41.2972 45.6392 40.5048 45.433 39.2715 45.6361C38.7108 45.7285 37.8513 45.9004 36.7807 46.1146C36.3552 46.1997 35.8963 46.2915 35.4096 46.3876C33.705 46.7242 31.6727 47.1109 29.5793 47.4399C27.4868 47.7688 25.3273 48.041 23.3685 48.1472C21.4186 48.2529 19.6363 48.1963 18.3116 47.8502C17.0047 47.5272 13.9874 46.6471 12.2495 45.6645C12.103 45.7043 11.9569 45.7628 11.8332 45.8393C11.6721 45.9388 11.5745 46.052 11.5341 46.1695C11.4631 46.3756 11.5008 46.8688 12.5184 47.7501C12.7888 47.893 13.1874 48.1006 13.5486 48.2824C13.7378 48.3776 13.9148 48.4647 14.057 48.5314C14.1282 48.5649 14.1887 48.5922 14.2364 48.6126C14.2603 48.6227 14.2795 48.6305 14.2944 48.6362C14.3103 48.6423 14.3166 48.6441 14.316 48.644C14.385 48.6637 14.4656 48.7062 14.5277 48.7872C14.5882 48.8661 14.6069 48.9502 14.6107 49.0115C14.6172 49.1167 14.5827 49.2059 14.5681 49.2425C14.5378 49.3181 14.4862 49.4111 14.4427 49.4896C14.4369 49.5001 14.4312 49.5103 14.4258 49.5201C14.3179 49.7155 14.2007 49.9393 14.1468 50.1805C14.0952 50.4118 14.1057 50.6423 14.2397 50.8705C14.3786 51.107 14.6786 51.3896 15.3062 51.6573C15.9175 51.918 16.9677 52.1027 18.2824 52.2118C19.5843 52.3198 21.1046 52.351 22.6291 52.3243C25.6915 52.2705 28.7131 51.9844 29.9921 51.6403C31.3325 51.2797 33.4618 50.8197 35.5521 50.4558C37.6335 50.0934 39.7139 49.8193 40.9407 49.8433C41.3679 49.8517 41.7763 49.5963 42.0862 49.1346C42.3951 48.6744 42.5695 48.0554 42.5342 47.4618C42.4992 46.8734 42.2621 46.3382 41.781 45.9897Z" fill="black"/>
<path fill-rule="evenodd" clip-rule="evenodd" d="M37.0109 48.5813C35.4408 48.8338 33.6368 49.1994 32.4549 49.4592L32.4444 49.4615L32.4338 49.4632C22.1482 51.1054 15.3024 49.7506 13.1142 48.8323C12.9255 48.7531 12.8367 48.5359 12.9159 48.3472C12.9951 48.1586 13.2123 48.0698 13.401 48.149C15.4228 48.9975 22.1153 50.3585 32.3063 48.7331C33.4967 48.4716 35.3093 48.1044 36.8932 47.8496C37.6864 47.722 38.4299 47.6214 39.0117 47.5771C39.3016 47.5551 39.5614 47.5462 39.7715 47.5572C39.8764 47.5626 39.9778 47.5734 40.0688 47.5931C40.1528 47.6113 40.2626 47.644 40.3575 47.7144C40.5218 47.8363 40.5561 48.0684 40.4342 48.2327C40.3171 48.3904 40.0987 48.4284 39.936 48.3234C39.9312 48.3219 39.9234 48.3198 39.9122 48.3174C39.874 48.3091 39.8155 48.3015 39.7331 48.2972C39.5686 48.2887 39.3445 48.295 39.0679 48.316C38.5168 48.358 37.797 48.4548 37.0109 48.5813Z" fill="black"/>
<path fill-rule="evenodd" clip-rule="evenodd" d="M25.3634 39.5904C25.442 39.7794 25.3526 39.9963 25.1637 40.0749C19.609 42.3864 15.5185 41.0625 14.1071 40.032C13.9419 39.9114 13.9057 39.6796 14.0264 39.5143C14.147 39.349 14.3788 39.3129 14.5441 39.4336C15.7214 40.2931 19.5332 41.6153 24.8789 39.3907C25.0679 39.3121 25.2848 39.4015 25.3634 39.5904Z" fill="black"/>
<path fill-rule="evenodd" clip-rule="evenodd" d="M40.4472 36.0106C40.5464 36.1895 40.4818 36.4151 40.3029 36.5143C35.3733 39.2485 31.8632 39.8884 29.4719 39.7554C27.0708 39.6218 25.8363 38.7107 25.465 38.4322C25.1031 38.1608 24.9083 37.7506 24.7979 37.361C24.6863 36.9673 24.6481 36.5488 24.6322 36.2075C24.6227 36.0031 24.7807 35.8297 24.9851 35.8202C25.1895 35.8107 25.363 35.9686 25.3725 36.1731C25.3875 36.4944 25.4224 36.8466 25.5109 37.159C25.6006 37.4755 25.7328 37.7068 25.9097 37.8394L25.9123 37.8414C26.2183 38.0709 27.3146 38.8931 29.5131 39.0155C31.7277 39.1387 35.0988 38.5533 39.9435 35.8663C40.1224 35.767 40.3479 35.8316 40.4472 36.0106Z" fill="black"/>
<path fill-rule="evenodd" clip-rule="evenodd" d="M25.6392 39.5627C25.7268 39.7476 25.6479 39.9685 25.4629 40.0561C24.6476 40.4424 23.4124 41.0665 22.3587 41.682C21.8308 41.9904 21.357 42.2917 21.0061 42.5562C20.8302 42.6888 20.6933 42.8062 20.5977 42.9053C20.5502 42.9546 20.5172 42.9949 20.4958 43.0261C20.4768 43.0538 20.4718 43.0671 20.4718 43.0671C20.415 43.2631 20.2104 43.3764 20.0141 43.3203C19.8173 43.2641 19.7034 43.059 19.7596 42.8623C19.8115 42.6807 19.94 42.5198 20.0643 42.3909C20.1974 42.2528 20.3681 42.1092 20.56 41.9645C20.9447 41.6745 21.4469 41.3564 21.9849 41.0422C23.0627 40.4126 24.318 39.7785 25.1457 39.3864C25.3306 39.2988 25.5516 39.3777 25.6392 39.5627Z" fill="black"/>
<path fill-rule="evenodd" clip-rule="evenodd" d="M26.8578 40.1967C26.9404 40.0095 27.1591 39.9247 27.3463 40.0073C28.0285 40.3082 29.1725 40.7501 30.3734 41.0917C31.5871 41.4369 32.8071 41.664 33.6645 41.5737C33.868 41.5523 34.0504 41.6999 34.0718 41.9034C34.0932 42.1069 33.9456 42.2893 33.7421 42.3107C32.7335 42.4169 31.3959 42.1529 30.1707 41.8045C28.9327 41.4524 27.7564 40.9981 27.0472 40.6853C26.86 40.6027 26.7752 40.3839 26.8578 40.1967Z" fill="black"/>
<path d="M33.0158 11.4498C43.453 9.64737 67.6414 18.9384 58.3334 43.1868C49.8286 29.3962 30.5009 24.427 33.0158 11.4498Z" fill="#A2A6A9"/>
<path fill-rule="evenodd" clip-rule="evenodd" d="M33.4335 11.8764C32.4396 17.8802 36.3587 22.1216 41.8511 26.6373C42.8683 27.4737 43.9374 28.3174 45.0316 29.1809C49.6455 32.8222 54.707 36.8167 58.2155 42.1003C60.1947 36.5158 60.3365 31.7941 59.3012 27.8689C58.2096 23.7306 55.7982 20.4353 52.7682 17.9242C46.8159 12.9912 38.5382 11.1347 33.4335 11.8764ZM60.2426 27.6206C61.3949 31.9891 61.1445 37.2217 58.7877 43.3614L58.4352 44.2797L57.9189 43.4425C54.5032 37.9039 49.3258 33.815 44.4801 29.988C43.372 29.1129 42.2812 28.2514 41.2328 27.3894C35.6652 22.8119 31.2207 18.1531 32.5377 11.3573L32.6016 11.0273L32.9328 10.9702C38.2987 10.0435 47.0974 11.9599 53.3895 17.1745C56.5477 19.7919 59.0906 23.2532 60.2426 27.6206Z" fill="black"/>
<path d="M56.147 50.4206C58.7291 47.5926 57.7352 37.7323 56.9155 33.1556C56.9155 30.6975 55.0686 26.5369 54.1452 24.7639C50.3619 24.076 38.1657 15.6671 32.5406 11.5487C31.6597 12.0486 28.1553 14.127 21.1846 18.4409C14.2139 22.7547 11.937 29.1066 11.6699 31.7433C26.2026 16.4096 47.6712 34.3827 48.35 34.9646C48.8931 35.43 50.4613 43.8573 51.1775 48.0128C51.7581 49.9937 53.5649 53.2486 56.147 50.4206Z" fill="#D9D9D9"/>
<path fill-rule="evenodd" clip-rule="evenodd" d="M32.5733 10.9699L32.8274 11.1559C35.6342 13.2109 40.0809 16.3366 44.2952 19.0327C46.4027 20.3811 48.4463 21.6181 50.1944 22.5594C51.9615 23.5109 53.3708 24.1285 54.2315 24.285L54.466 24.3276L54.5762 24.5391C55.0462 25.4415 55.7475 26.9439 56.3327 28.5348C56.9059 30.0929 57.3907 31.7962 57.4013 33.1116C57.8127 35.4213 58.2646 39.0356 58.2929 42.4399C58.3072 44.1518 58.2145 45.8263 57.9496 47.2619C57.6876 48.6822 57.2448 49.9394 56.5057 50.7489C55.8146 51.5059 55.1172 51.9202 54.4171 51.9998C53.707 52.0805 53.0927 51.8064 52.5987 51.3937C51.6399 50.5924 51.0086 49.1699 50.7096 48.1498L50.7017 48.123L50.697 48.0955C50.3394 46.0207 49.7692 42.8804 49.2211 40.2026C48.9469 38.8628 48.6794 37.6448 48.4477 36.7356C48.3316 36.2799 48.2266 35.9105 48.1364 35.6452C48.091 35.5118 48.0526 35.4144 48.022 35.3492C48.0131 35.3302 48.006 35.3166 48.0011 35.3076C47.4497 34.8417 42.0555 30.4009 35.0377 27.8431C27.8576 25.2261 19.0981 24.6127 12.0225 32.0783L11.041 33.1139L11.1848 31.6944C11.4658 28.9207 13.8172 22.4273 20.9276 18.027C27.8983 13.7131 31.4097 11.6304 32.2995 11.1254L32.5733 10.9699ZM32.508 12.1285C31.3032 12.827 27.8318 14.8993 21.44 18.8549C15.7262 22.3909 13.2509 27.3143 12.4459 30.2931C19.6912 23.6159 28.3814 24.3807 35.3711 26.9283C42.7214 29.6073 48.3109 34.2905 48.6661 34.595C48.7863 34.6981 48.8608 34.8448 48.9033 34.9352C48.9556 35.0467 49.0073 35.1821 49.0582 35.3318C49.1605 35.6326 49.2728 36.0304 49.3912 36.4952C49.6286 37.4269 49.8998 38.6627 50.175 40.0074C50.7234 42.6864 51.2928 45.8214 51.6517 47.9022C51.9358 48.8584 52.4946 50.0378 53.2231 50.6466C53.5762 50.9416 53.934 51.0748 54.307 51.0324C54.69 50.9888 55.1868 50.7495 55.7867 50.0924C56.3386 49.488 56.7399 48.4522 56.9921 47.0852C57.2415 45.7336 57.3333 44.1268 57.3193 42.448C57.2914 39.0915 56.8419 35.5105 56.4355 33.2415L56.4279 33.199V33.1557C56.4279 32.0188 55.9937 30.4334 55.4189 28.871C54.8921 27.4387 54.267 26.0774 53.8173 25.1924C52.7953 24.9505 51.3606 24.2931 49.7329 23.4167C47.9544 22.4591 45.888 21.2076 43.7705 19.8529C39.6606 17.2236 35.336 14.1913 32.508 12.1285Z" fill="black"/>
<path d="M23.8132 24.0102C24.0414 21.4989 26.7485 16.9657 26.8137 16.9168C23.8524 18.143 22.6772 19.4389 22.4598 19.9335C22.2098 20.5369 21.6576 21.8936 21.4488 22.4937C21.1879 23.2438 20.9107 24.2711 21.2368 24.3689C21.4977 24.4472 23.0631 24.1624 23.8132 24.0102Z" fill="#94989D"/>
<path fill-rule="evenodd" clip-rule="evenodd" d="M22.5715 19.9815C22.3209 20.5863 21.7707 21.9381 21.5635 22.5338C21.4338 22.9068 21.3019 23.3436 21.2424 23.6963C21.2125 23.8739 21.2026 24.0208 21.2161 24.1246C21.2304 24.2351 21.2629 24.2499 21.2715 24.2525C21.2851 24.2566 21.322 24.2612 21.3903 24.2607C21.4548 24.2601 21.5366 24.2551 21.6325 24.2462C21.824 24.2285 22.0648 24.1959 22.3226 24.1558C22.7991 24.0818 23.3283 23.9831 23.7009 23.9087C23.8429 22.6356 24.5687 20.9051 25.2651 19.4866C25.623 18.7574 25.9758 18.1056 26.2433 17.6328C26.3438 17.4551 26.4324 17.3025 26.5048 17.1805C25.2212 17.7415 24.3074 18.3081 23.6824 18.7956C22.9985 19.329 22.6689 19.761 22.5715 19.9815ZM23.5327 18.6037C24.2337 18.0569 25.2777 17.4211 26.7669 16.8044L26.8865 17.0142C26.8949 17.0079 26.9011 17.0012 26.9038 16.9981C26.9031 16.999 26.9017 17.0009 26.8995 17.0041C26.8938 17.0123 26.8853 17.0251 26.8739 17.0428C26.8513 17.078 26.8194 17.1294 26.7793 17.1957C26.6993 17.3281 26.5879 17.5179 26.4551 17.7527C26.1895 18.2221 25.8391 18.8697 25.4836 19.5939C24.7697 21.0481 24.046 22.7907 23.9341 24.0213L23.9259 24.1116L23.8371 24.1296C23.4609 24.2059 22.8801 24.3155 22.36 24.3964C22.1001 24.4367 21.8537 24.4702 21.6549 24.4886C21.5556 24.4978 21.4664 24.5034 21.3924 24.5041C21.3223 24.5047 21.2532 24.5011 21.2016 24.4856L21.2354 24.3729L21.2016 24.4856C21.0471 24.4393 20.992 24.289 20.9747 24.1559C20.9566 24.0161 20.9712 23.841 21.0024 23.6558C21.0653 23.2828 21.2025 22.8308 21.3336 22.4538C21.5438 21.8497 22.0975 20.4895 22.3472 19.887L22.3481 19.8847L22.3482 19.8847C22.4688 19.6101 22.8355 19.1475 23.5327 18.6037ZM26.9044 16.9974C26.9059 16.9955 26.9056 16.996 26.9038 16.9981C26.9041 16.9977 26.9043 16.9975 26.9044 16.9974Z" fill="black"/>
<path d="M19.8867 24.5147C19.9403 23.9796 20.433 21.2595 20.6726 19.9663C19.6693 20.2338 18.1141 21.8058 18.0974 22.0232C18.084 22.1971 17.8466 24.459 17.7295 25.5683C17.7295 25.4211 19.1676 24.8046 19.8867 24.5147Z" fill="#94989D"/>
<path fill-rule="evenodd" clip-rule="evenodd" d="M20.8251 19.7991L20.79 19.9885C20.5496 21.2856 20.0584 23.9983 20.0055 24.5269L19.9982 24.6001L19.9299 24.6276C19.5715 24.7721 19.0343 24.9978 18.5874 25.2054C18.3636 25.3094 18.1649 25.4076 18.0233 25.4881C17.9519 25.5287 17.8988 25.5626 17.8648 25.5889C17.8479 25.602 17.8396 25.6102 17.8366 25.6137C17.8396 25.6093 17.8458 25.5981 17.8481 25.581L17.6055 25.5682C17.6055 25.5607 17.606 25.5535 17.6071 25.5466C17.7247 24.4324 17.9606 22.185 17.9738 22.0138C17.9768 21.9737 17.9944 21.9361 18.0084 21.9099C18.0244 21.8799 18.0457 21.847 18.0705 21.8124C18.1202 21.7431 18.1894 21.6591 18.273 21.5663C18.4404 21.3801 18.6712 21.1516 18.9324 20.9221C19.1936 20.6926 19.4872 20.4605 19.7803 20.2682C20.0719 20.0769 20.3698 19.9205 20.639 19.8487L20.8251 19.7991ZM17.8789 25.2904C17.8868 25.2858 17.8948 25.2811 17.903 25.2765C18.0534 25.191 18.2593 25.0894 18.4849 24.9846C18.9096 24.7874 19.4132 24.5746 19.7717 24.4291C19.8515 23.7846 20.2738 21.4443 20.5131 20.1474C20.3269 20.2218 20.1231 20.3344 19.9138 20.4717C19.6326 20.6562 19.3482 20.8808 19.0931 21.105C18.838 21.3291 18.6141 21.551 18.4539 21.7291C18.3736 21.8183 18.3108 21.8949 18.2683 21.9542C18.247 21.984 18.2323 22.0074 18.2231 22.0245C18.219 22.0322 18.2169 22.0371 18.2159 22.0395C18.1989 22.2434 18.0006 24.1348 17.8789 25.2904ZM17.8365 25.6139C17.8365 25.6138 17.8366 25.6138 17.8366 25.6137C17.8349 25.6163 17.8343 25.6165 17.8365 25.6139Z" fill="black"/>
<path d="M16.3976 26.365C16.4086 25.3546 16.4239 23.2942 16.3976 23.136C15.7331 23.8939 14.4009 25.4589 14.3878 25.6566C14.3713 25.9037 14.3712 27.4853 14.6513 27.5017C14.8753 27.5149 15.9088 26.7494 16.3976 26.365Z" fill="#94989D"/>
<path fill-rule="evenodd" clip-rule="evenodd" d="M16.476 22.8623L16.5181 23.1158C16.5231 23.1457 16.5258 23.2048 16.5277 23.275C16.5299 23.3496 16.5314 23.4479 16.5324 23.5638C16.5345 23.7958 16.5347 24.1003 16.5338 24.431C16.5318 25.0926 16.5253 25.8607 16.5198 26.3661L16.5191 26.4244L16.4733 26.4604C16.2276 26.6537 15.8448 26.9429 15.4944 27.1826C15.3195 27.3023 15.1505 27.4112 15.0097 27.4897C14.9395 27.5289 14.8739 27.5619 14.8166 27.585C14.7641 27.6062 14.7017 27.6263 14.6446 27.6229C14.5474 27.6172 14.4876 27.5454 14.4546 27.4895C14.4191 27.4295 14.3928 27.3523 14.3721 27.2708C14.3304 27.1061 14.3041 26.8909 14.2875 26.6747C14.2542 26.2416 14.2581 25.7786 14.2668 25.6482C14.2693 25.6115 14.2841 25.5762 14.2957 25.5518C14.309 25.5236 14.3269 25.492 14.3476 25.4585C14.3891 25.3911 14.4471 25.3078 14.5164 25.2135C14.6554 25.0247 14.8454 24.7849 15.0547 24.529C15.4737 24.0169 15.9738 23.4351 16.3066 23.0555L16.476 22.8623ZM14.5093 25.6709C14.5018 25.797 14.4982 26.2399 14.5302 26.6561C14.5465 26.8682 14.5716 27.0669 14.6081 27.2111C14.6266 27.284 14.6461 27.3351 14.6641 27.3657C14.6671 27.3706 14.6696 27.3745 14.6717 27.3774C14.6823 27.3749 14.6997 27.3697 14.7256 27.3593C14.7696 27.3415 14.8253 27.3139 14.8911 27.2772C15.0224 27.2039 15.1844 27.0998 15.3569 26.9817C15.6805 26.7603 16.0339 26.4948 16.277 26.305C16.2824 25.8005 16.2885 25.0661 16.2904 24.4303C16.2913 24.0999 16.2911 23.7965 16.289 23.566C16.2886 23.524 16.2882 23.4844 16.2877 23.4476C15.9745 23.8086 15.5818 24.2691 15.2431 24.6832C15.0347 24.938 14.8477 25.1739 14.7124 25.3578C14.6446 25.4499 14.5912 25.5272 14.5547 25.5863C14.5364 25.6159 14.5237 25.639 14.5157 25.6558C14.512 25.6636 14.5101 25.6685 14.5093 25.6709ZM14.6794 27.3865C14.6794 27.3865 14.6791 27.3863 14.6784 27.3856C14.6791 27.3861 14.6794 27.3864 14.6794 27.3865Z" fill="black"/>
<path d="M15.2066 25.2648C15.2383 25.1485 15.9556 24.3969 16.3103 24.0357V23.4146L15.3264 24.5387L14.4994 25.6546C14.402 26.3007 14.6185 27.3859 14.6779 27.4256C14.7255 27.4573 15.0502 27.2317 15.2066 27.115C15.1934 26.5467 15.1749 25.3811 15.2066 25.2648Z" fill="#444D56"/>
<path d="M23.1056 20.5778C23.2032 20.2361 24.719 19.4728 25.4647 19.1338L26.5282 17.1565C25.8024 17.5329 24.2094 18.3947 23.6439 18.8302C22.937 19.3746 22.513 20.0545 22.4972 20.11C22.4813 20.1654 21.3797 23.0643 21.2687 23.4598C21.18 23.7761 21.2318 24.1124 21.2687 24.241C21.4269 24.3027 22.1931 24.1296 22.5564 24.0353C22.6988 23.0252 23.0079 20.9195 23.1056 20.5778Z" fill="#444D56"/>
<path d="M44.7995 23.0997C44.5133 23.3222 43.0906 27.0209 42.4151 28.8424C42.6668 29.0941 43.3729 29.6969 44.1836 30.0943C45.1971 30.5911 45.9323 28.7232 46.0316 28.4847C46.131 28.2463 47.5617 24.2522 47.3233 23.8945C47.0848 23.5368 45.1573 22.8214 44.7995 23.0997Z" fill="#798088"/>
<path d="M40.3882 19.5824C40.1816 19.646 38.5667 23.8084 37.7851 25.8816C37.6459 26.7559 38.4409 27.4117 39.5537 27.5508C40.444 27.6621 40.6798 27.3852 40.6864 27.2329C41.1633 26.034 42.1489 23.5567 42.2761 23.2388C42.4351 22.8413 43.21 21.2317 43.0511 21.033C42.8921 20.8343 40.6466 19.5029 40.3882 19.5824Z" fill="#798088"/>
<path d="M36.4487 17.0153C35.2294 17.5968 33.549 22.51 32.8611 24.8938C33.2598 25.5269 35.9328 25.8816 36.2845 25.5035C36.6362 25.1254 38.8638 18.6567 38.6527 18.2581C38.4839 17.9392 37.113 17.2967 36.4487 17.0153Z" fill="#798088"/>
<path d="M34.9519 15.3649C34.8634 15.6305 32.222 21.4151 30.9123 24.2741C30.5802 24.5778 28.9295 24.4007 28.1456 24.2741C28.2286 23.6746 28.4665 22.0828 28.7543 20.5112C29.114 18.5468 32.5172 13.3728 32.8611 13.3451C33.2051 13.3174 35.0626 15.0329 34.9519 15.3649Z" fill="#798088"/>
<path fill-rule="evenodd" clip-rule="evenodd" d="M35.186 15.2288C35.1992 15.2821 35.2094 15.3598 35.1821 15.4418C35.1664 15.4888 35.1089 15.6225 35.0287 15.8047C34.945 15.9948 34.8292 16.2543 34.6888 16.5667C34.408 17.1915 34.0285 18.0292 33.6109 18.9477C32.7756 20.7847 31.7877 22.9458 31.1329 24.3755L31.1123 24.4204L31.0758 24.4537C30.9962 24.5265 30.895 24.5704 30.8006 24.5993C30.703 24.6291 30.5923 24.6488 30.4767 24.6619C30.2454 24.688 29.9695 24.69 29.6878 24.6787C29.1231 24.656 28.5044 24.5787 28.106 24.5144L27.8711 24.4765L27.9037 24.2407C27.9871 23.6386 28.2256 22.0431 28.5141 20.4673C28.6105 19.9406 28.9041 19.223 29.2802 18.4591C29.6593 17.689 30.133 16.8506 30.6049 16.0753C31.0768 15.2999 31.5491 14.5839 31.9264 14.0582C32.1147 13.796 32.2818 13.5776 32.415 13.422C32.4811 13.3449 32.543 13.2782 32.5978 13.2284C32.625 13.2037 32.6554 13.1786 32.6875 13.1579C32.7132 13.1413 32.7686 13.1082 32.8408 13.1024C32.9109 13.0968 32.9753 13.1137 33.0206 13.1293C33.0699 13.1461 33.1201 13.1697 33.1688 13.1959C33.2663 13.2484 33.3768 13.3217 33.4918 13.4061C33.7227 13.5757 33.9915 13.8048 34.2435 14.0432C34.4951 14.2812 34.7366 14.5348 34.9104 14.7542C34.9965 14.863 35.072 14.971 35.1232 15.0693C35.1487 15.1184 35.1721 15.1727 35.186 15.2288ZM32.905 13.6077C32.8741 13.638 32.834 13.6812 32.7848 13.7386C32.6646 13.879 32.5067 14.0847 32.3219 14.3421C31.9531 14.8558 31.4876 15.5612 31.0208 16.3284C30.5539 17.0955 30.0879 17.9207 29.717 18.6741C29.343 19.4337 29.0763 20.0995 28.9929 20.555C28.7383 21.9458 28.5227 23.353 28.4196 24.0694C28.7902 24.122 29.2682 24.1746 29.7073 24.1922C29.9778 24.2031 30.2259 24.2003 30.422 24.1781C30.5201 24.1671 30.599 24.1518 30.6583 24.1337C30.685 24.1255 30.7046 24.1177 30.7184 24.1113C31.3731 22.6819 32.3446 20.5565 33.1677 18.7462C33.5852 17.8279 33.9644 16.991 34.2448 16.3672C34.3849 16.0552 34.5002 15.7969 34.5831 15.6086C34.6246 15.5144 34.6576 15.4383 34.6816 15.382C34.6913 15.3591 34.6994 15.3399 34.7058 15.3244C34.7024 15.3164 34.6977 15.3063 34.6912 15.2939C34.6606 15.235 34.6065 15.1546 34.5287 15.0564C34.3745 14.8617 34.1509 14.6258 33.909 14.3969C33.6674 14.1684 33.4143 13.9531 33.2036 13.7985C33.0978 13.7208 33.0077 13.662 32.9382 13.6247C32.9259 13.6181 32.9149 13.6124 32.905 13.6077ZM32.8525 13.5868C32.8525 13.5867 32.8529 13.5868 32.8537 13.587C32.8529 13.5869 32.8525 13.5868 32.8525 13.5868ZM34.7134 15.3456C34.7136 15.3466 34.7137 15.3471 34.7137 15.3471C34.7137 15.3471 34.7136 15.3466 34.7134 15.3456ZM36.442 16.7485L36.5428 16.7912C36.8793 16.9337 37.3946 17.1675 37.8493 17.4073C38.0762 17.5269 38.2927 17.6505 38.4657 17.767C38.5521 17.8251 38.6316 17.8841 38.6974 17.9424C38.7597 17.9975 38.8255 18.0656 38.8671 18.1441C38.8966 18.2 38.9044 18.2572 38.9073 18.2929C38.9106 18.3335 38.9097 18.3762 38.9068 18.4178C38.901 18.5012 38.8857 18.6022 38.8643 18.7142C38.821 18.9394 38.748 19.2335 38.655 19.5699C38.4688 20.2442 38.1976 21.1066 37.9097 21.9658C37.6216 22.8253 37.3156 23.6852 37.0591 24.355C36.931 24.6895 36.8143 24.979 36.7179 25.198C36.6698 25.3073 36.6255 25.4018 36.5864 25.4767C36.5515 25.5437 36.509 25.6187 36.4619 25.6692C36.3669 25.7714 36.2267 25.8208 36.1076 25.8487C35.9788 25.879 35.8266 25.8947 35.6645 25.9C35.3391 25.9107 34.9437 25.8803 34.5516 25.8183C34.1596 25.7562 33.7604 25.661 33.429 25.5374C33.2633 25.4756 33.1089 25.4048 32.979 25.324C32.8519 25.245 32.732 25.1467 32.6544 25.0235L32.5962 24.9312L32.6265 24.8263C32.972 23.6287 33.5669 21.7955 34.2297 20.186C34.5609 19.3818 34.9117 18.6269 35.2597 18.0333C35.4336 17.7366 35.6098 17.475 35.7857 17.2662C35.9591 17.0603 36.1453 16.8899 36.3431 16.7956L36.442 16.7485ZM36.4641 17.287C36.3751 17.3483 36.2724 17.444 36.158 17.5798C36.006 17.7603 35.8455 17.9966 35.6797 18.2795C35.3481 18.8452 35.0072 19.5766 34.6799 20.3714C34.0486 21.9043 33.4777 23.6486 33.131 24.8348C33.1576 24.8578 33.192 24.8832 33.236 24.9105C33.3299 24.9689 33.4525 25.0266 33.599 25.0812C33.8918 25.1904 34.2577 25.2789 34.6277 25.3374C34.9977 25.3959 35.3613 25.4229 35.6485 25.4135C35.7927 25.4087 35.9101 25.3951 35.9963 25.3748C36.0733 25.3567 36.1016 25.3388 36.1061 25.3364C36.1062 25.3362 36.1063 25.3361 36.1064 25.3359C36.1109 25.3291 36.1269 25.305 36.1548 25.2516C36.1869 25.19 36.2263 25.1064 36.2723 25.0018C36.3642 24.7932 36.4776 24.5121 36.6045 24.1808C36.858 23.5189 37.1616 22.6658 37.4481 21.8111C37.7346 20.9561 38.0028 20.1028 38.1858 19.4403C38.2775 19.1084 38.3466 18.8288 38.3862 18.6224C38.4061 18.5187 38.4173 18.4394 38.4212 18.3841C38.422 18.3719 38.4224 18.3618 38.4226 18.3538C38.4116 18.3415 38.396 18.3258 38.3747 18.3069C38.3306 18.2679 38.2701 18.2222 38.1939 18.1708C38.0415 18.0683 37.8422 17.9539 37.6222 17.8379C37.2302 17.6312 36.7878 17.4272 36.4641 17.287ZM38.4217 18.3291C38.4217 18.3292 38.4219 18.33 38.422 18.3317C38.4217 18.33 38.4217 18.3291 38.4217 18.3291ZM40.4072 19.822C40.4071 19.8219 40.4083 19.8219 40.4109 19.8223C40.4085 19.8222 40.4072 19.822 40.4072 19.822ZM40.4934 19.845C40.5671 19.87 40.6666 19.9117 40.7869 19.968C41.0282 20.081 41.3319 20.2427 41.6361 20.4151C41.9397 20.5872 42.2396 20.7675 42.4723 20.9164C42.5889 20.991 42.6867 21.0564 42.759 21.1082C42.7856 21.1273 42.8077 21.1438 42.8254 21.1576C42.82 21.1999 42.807 21.2602 42.7845 21.3388C42.7355 21.5108 42.6526 21.7333 42.5565 21.9697C42.4611 22.2047 42.3555 22.4466 42.2631 22.6562C42.2472 22.6922 42.2316 22.7275 42.2164 22.7618C42.145 22.9235 42.0838 23.0621 42.0493 23.1483C41.922 23.4665 40.9363 25.9442 40.4594 27.1429L40.4442 27.1811L40.4431 27.2076C40.4362 27.2174 40.4143 27.241 40.3536 27.2674C40.2383 27.3175 40.006 27.3621 39.5831 27.3092C39.0628 27.2442 38.637 27.0604 38.3627 26.8116C38.1002 26.5735 37.9755 26.2782 38.0213 25.9431C38.4118 24.9075 39.005 23.3645 39.5272 22.0694C39.7905 21.4163 40.0349 20.8285 40.2257 20.4011C40.3214 20.1868 40.4019 20.0167 40.4636 19.8999C40.4744 19.8793 40.4844 19.861 40.4934 19.845ZM40.4458 27.2028C40.4459 27.2028 40.4457 27.2032 40.4452 27.2041C40.4456 27.2032 40.4458 27.2028 40.4458 27.2028ZM43.1511 20.7947C43.178 20.8167 43.2133 20.8471 43.2403 20.8809C43.289 20.9417 43.3048 21.009 43.3108 21.0542C43.3172 21.1021 43.3156 21.1499 43.3114 21.1924C43.303 21.2774 43.2807 21.3743 43.2527 21.4723C43.1962 21.6704 43.1052 21.9125 43.0075 22.153C42.9092 22.3949 42.8012 22.6424 42.7085 22.8525C42.6918 22.8906 42.6756 22.9272 42.6601 22.9623C42.5887 23.1239 42.5323 23.2517 42.5013 23.3291C42.3753 23.6441 41.405 26.0828 40.9237 27.2927C40.8951 27.4695 40.7557 27.6235 40.5477 27.7139C40.3209 27.8125 39.9902 27.8507 39.5227 27.7923C38.9303 27.7183 38.4022 27.5046 38.0356 27.1722C37.6632 26.8344 37.4596 26.3728 37.5439 25.8433L37.5478 25.8188L37.5565 25.7957C37.9477 24.7581 38.5475 23.1973 39.0757 21.8873C39.3397 21.2327 39.5866 20.6384 39.7812 20.2027C39.8781 19.9854 39.9638 19.8037 40.0331 19.6726C40.0673 19.6077 40.1005 19.5497 40.1312 19.5043C40.1464 19.4819 40.1648 19.4569 40.186 19.4342C40.1999 19.4192 40.2446 19.3717 40.3159 19.3497C40.3898 19.327 40.4617 19.3368 40.5006 19.3437C40.548 19.3521 40.5982 19.3665 40.6474 19.3831C40.7464 19.4165 40.8653 19.4672 40.9934 19.5271C41.2508 19.6476 41.5668 19.8162 41.8761 19.9916C42.1861 20.1673 42.4935 20.3521 42.7346 20.5063C42.8549 20.5832 42.9606 20.6538 43.0426 20.7125C43.0835 20.7418 43.1204 20.7695 43.1511 20.7947ZM44.9509 23.2927C44.9472 23.2976 44.942 23.3049 44.9352 23.3151C44.9147 23.3462 44.8883 23.391 44.8563 23.4507C44.7925 23.5696 44.7134 23.7338 44.6221 23.9351C44.4401 24.337 44.2158 24.8734 43.9783 25.4624C43.529 26.5767 43.0358 27.8705 42.6983 28.7769C43.0005 29.054 43.6088 29.5418 44.29 29.8757C44.4663 29.9621 44.6212 29.9475 44.7743 29.8692C44.9393 29.7847 45.1026 29.6242 45.2542 29.42C45.54 29.0353 45.7329 28.5685 45.7965 28.4145C45.8001 28.4056 45.8034 28.3978 45.8062 28.3911C45.8516 28.2821 46.2315 27.2324 46.5713 26.1607C46.7409 25.6259 46.8984 25.0924 46.9985 24.6726C47.0487 24.4619 47.0828 24.2865 47.0977 24.1569C47.1052 24.0916 47.1069 24.0452 47.1053 24.0152C47.1053 24.0145 47.1052 24.0139 47.1052 24.0132C47.1023 24.0103 47.0989 24.0071 47.0951 24.0036C47.0774 23.9876 47.053 23.9682 47.0209 23.9457C46.9565 23.9008 46.8704 23.8501 46.7666 23.7967C46.5592 23.6901 46.2961 23.5803 46.0272 23.4891C45.7574 23.3976 45.4909 23.3278 45.2761 23.2971C45.1682 23.2817 45.0815 23.2774 45.0178 23.282C44.9811 23.2847 44.9605 23.2898 44.9509 23.2927ZM47.1029 23.9932C47.103 23.9933 47.1031 23.9938 47.1033 23.995C47.103 23.9938 47.1029 23.9932 47.1029 23.9932ZM47.2997 23.5467C47.3825 23.6045 47.4693 23.6759 47.525 23.7594C47.5779 23.8387 47.5883 23.931 47.5914 23.9894C47.595 24.0574 47.5904 24.1336 47.5814 24.2123C47.5632 24.3705 47.5239 24.5677 47.472 24.7855C47.3678 25.2227 47.2061 25.7696 47.0354 26.3079C46.6947 27.3822 46.3095 28.4488 46.2556 28.5783C46.2528 28.5849 46.2495 28.5929 46.2457 28.6023C46.1822 28.7564 45.9689 29.2743 45.645 29.7103C45.4738 29.9409 45.257 30.169 44.996 30.3026C44.7232 30.4422 44.4061 30.4748 44.0757 30.3128C43.2347 29.9005 42.5072 29.2795 42.2422 29.0145L42.1318 28.9041L42.1861 28.7577C42.5243 27.8457 43.0497 26.4634 43.5268 25.2804C43.7651 24.6892 43.9924 24.1454 44.1787 23.7342C44.2717 23.529 44.356 23.3535 44.4273 23.2205C44.4629 23.1542 44.4972 23.0949 44.5292 23.0465C44.5568 23.0047 44.5976 22.9477 44.6493 22.9075C44.7507 22.8287 44.878 22.8041 44.9825 22.7965C45.0936 22.7884 45.218 22.7971 45.3449 22.8152C45.5996 22.8516 45.897 22.9308 46.1836 23.0281C46.4711 23.1256 46.7569 23.2443 46.9892 23.3638C47.1051 23.4234 47.2116 23.4851 47.2997 23.5467Z" fill="black"/>
<path d="M45.46 24.3271C45.1289 24.3508 43.8435 27.639 43.2422 29.2802L42.6064 28.7775C43.1289 26.9884 44.3156 23.3868 44.8834 23.2921C45.4511 23.1975 46.6379 23.716 47.1603 23.9871L46.9829 24.9629C46.6132 24.7411 45.7912 24.3035 45.46 24.3271Z" fill="#444D56"/>
<path d="M49.1203 25.2922C48.4711 25.376 47.035 29.2012 46.3981 31.1034C46.3347 31.2913 48.1781 32.7787 48.6492 32.674C49.1204 32.5693 51.6334 27.491 51.6072 27.0722C51.581 26.6534 49.9319 25.1875 49.1203 25.2922Z" fill="#94989D"/>
<path fill-rule="evenodd" clip-rule="evenodd" d="M49.1561 25.533C49.1528 25.5344 49.1444 25.5385 49.1305 25.5485C49.1041 25.5673 49.0688 25.5993 49.0249 25.649C48.937 25.7486 48.8342 25.8974 48.7196 26.0917C48.4915 26.4787 48.2359 27.0132 47.9774 27.6123C47.4771 28.7716 46.9772 30.1457 46.6581 31.0916C46.6935 31.1354 46.7493 31.1949 46.8246 31.2671C46.987 31.4228 47.2182 31.6167 47.4681 31.8034C47.7185 31.9903 47.9805 32.1647 48.2041 32.2846C48.3163 32.3448 48.4127 32.3879 48.4892 32.4128C48.5332 32.4271 48.562 32.4325 48.5786 32.4346C48.5819 32.4316 48.5857 32.428 48.59 32.4239C48.6219 32.3928 48.6648 32.3434 48.7182 32.2731C48.8244 32.1334 48.956 31.9331 49.105 31.6872C49.4022 31.1968 49.7568 30.5448 50.0974 29.8799C50.4378 29.2154 50.7622 28.5421 50.9993 28.0103C51.118 27.744 51.2136 27.516 51.2783 27.3434C51.3107 27.2569 51.3341 27.1877 51.3486 27.1366C51.3564 27.1091 51.3599 27.0924 51.3616 27.084C51.3578 27.0732 51.347 27.0457 51.3181 26.9987C51.2784 26.9343 51.2181 26.8543 51.1381 26.7633C50.9786 26.5817 50.7561 26.3726 50.5073 26.1774C50.2583 25.9819 49.9903 25.8062 49.7415 25.6867C49.488 25.5649 49.2876 25.5179 49.1561 25.533ZM51.7327 26.7436C51.7867 26.8314 51.8423 26.9426 51.8494 27.057C51.854 27.1297 51.8335 27.211 51.8169 27.2694C51.7973 27.3387 51.7689 27.4217 51.7342 27.5143C51.6646 27.7 51.5645 27.9382 51.4439 28.2086C51.2025 28.75 50.8741 29.4313 50.5307 30.1018C50.1874 30.7719 49.827 31.4353 49.5213 31.9396C49.3689 32.191 49.2271 32.408 49.1058 32.5676C49.0455 32.647 48.986 32.7179 48.9294 32.7729C48.8826 32.8184 48.8029 32.889 48.7013 32.9116C48.5768 32.9392 48.4448 32.9102 48.3386 32.8757C48.2244 32.8386 48.1 32.7812 47.9741 32.7137C47.7216 32.5783 47.4383 32.3887 47.1768 32.1934C46.915 31.9979 46.6677 31.7912 46.4876 31.6185C46.3985 31.533 46.32 31.4504 46.2641 31.3781C46.2368 31.3428 46.2083 31.3017 46.1874 31.2582C46.1736 31.2293 46.1301 31.1348 46.1666 31.0261M51.7327 26.7436C51.674 26.6481 51.5949 26.5457 51.5039 26.442L51.7327 26.7436ZM51.5039 26.442C51.3214 26.2342 51.0761 26.0049 50.8079 25.7944L51.5039 26.442ZM50.8079 25.7944C50.5399 25.5841 50.2417 25.3868 49.9523 25.2478L50.8079 25.7944ZM49.9523 25.2478C49.671 25.1127 49.3628 25.0154 49.0885 25.0508L49.9523 25.2478ZM49.0885 25.0508C48.994 25.063 48.9126 25.1058 48.8476 25.1523L49.0885 25.0508ZM48.8476 25.1523C48.7813 25.1996 48.7186 25.2603 48.6599 25.3269L48.8476 25.1523ZM48.6599 25.3269C48.5425 25.4599 48.4216 25.6386 48.3003 25.8444L48.6599 25.3269ZM48.3003 25.8444C48.0567 26.2576 47.7917 26.814 47.5304 27.4195L48.3003 25.8444ZM47.5304 27.4195C47.007 28.6323 46.4864 30.0709 46.1666 31.0258L47.5304 27.4195Z" fill="black"/>
<path d="M50.1382 40.5415C49.9753 39.915 49.8665 39.3326 49.8047 38.8381L50.1382 40.5415C50.914 43.5255 52.9158 47.5092 56.9014 47.7482C56.7734 48.5109 56.1732 50.2274 54.7963 50.9919C53.4195 51.7564 52.1591 49.6647 51.7011 48.5232L50.1382 40.5415Z" fill="#A5A3A2"/>
<path fill-rule="evenodd" clip-rule="evenodd" d="M24.376 25.4101C25.6611 18.0815 30.2009 13.0058 32.3497 11.3574L32.9423 12.1299C30.9475 13.6602 26.5702 18.5349 25.335 25.5783L24.376 25.4101Z" fill="black"/>
<path d="M56.4588 45.2489C56.4588 47.6246 55.5662 49.5505 54.4652 49.5505C53.3642 49.5505 52.4717 47.6246 52.4717 45.2489C52.4717 42.8732 53.3642 40.9473 54.4652 40.9473C55.5662 40.9473 56.4588 42.8732 56.4588 45.2489Z" fill="#AAACAE"/>
<path fill-rule="evenodd" clip-rule="evenodd" d="M55.2123 47.9835C55.5192 47.3214 55.7285 46.3553 55.7285 45.2489C55.7285 44.1425 55.5192 43.1764 55.2123 42.5142C54.8772 41.7911 54.5608 41.6775 54.4652 41.6775C54.3697 41.6775 54.0533 41.7911 53.7181 42.5142C53.4113 43.1764 53.2019 44.1425 53.2019 45.2489C53.2019 46.3553 53.4113 47.3214 53.7181 47.9835C54.0533 48.7067 54.3697 48.8203 54.4652 48.8203C54.5608 48.8203 54.8772 48.7067 55.2123 47.9835ZM54.4652 49.5505C55.5662 49.5505 56.4588 47.6246 56.4588 45.2489C56.4588 42.8732 55.5662 40.9473 54.4652 40.9473C53.3642 40.9473 52.4717 42.8732 52.4717 45.2489C52.4717 47.6246 53.3642 49.5505 54.4652 49.5505Z" fill="black"/>
<path d="M55.3869 45.2491C55.3869 46.5601 54.9744 47.6228 54.4654 47.6228C53.9565 47.6228 53.5439 46.5601 53.5439 45.2491C53.5439 43.9381 53.9565 42.8753 54.4654 42.8753C54.9744 42.8753 55.3869 43.9381 55.3869 45.2491Z" fill="#939393"/>
<path fill-rule="evenodd" clip-rule="evenodd" d="M54.4654 46.5834C54.5769 46.2585 54.6567 45.7915 54.6567 45.2491C54.6567 44.7066 54.5769 44.2397 54.4654 43.9147C54.3539 44.2397 54.2742 44.7066 54.2742 45.2491C54.2742 45.7915 54.3539 46.2585 54.4654 46.5834ZM54.4654 47.6228C54.9744 47.6228 55.3869 46.5601 55.3869 45.2491C55.3869 43.9381 54.9744 42.8753 54.4654 42.8753C53.9565 42.8753 53.5439 43.9381 53.5439 45.2491C53.5439 46.5601 53.9565 47.6228 54.4654 47.6228Z" fill="black"/>
<path d="M49.5503 26.9001C49.1576 26.9203 47.7081 30.0894 47.0324 31.6715C46.994 31.6715 46.7227 31.3274 46.5918 31.1553C46.8825 29.6922 48.1476 26.8163 49.1062 25.4648C49.8489 25.4648 51.3379 26.812 51.4135 27.0134C51.4739 27.1746 51.2456 27.5842 51.1239 27.7688C50.763 27.4709 49.9431 26.88 49.5503 26.9001Z" fill="#444D56"/>
<path d="M40.6809 21.2406C40.3629 21.2406 38.9374 24.9438 38.2644 26.7954C37.92 26.5065 37.9537 26.0698 37.922 25.9324C37.8967 25.8225 39.607 21.8062 40.4653 19.8119C40.7198 19.8119 42.8463 21.0523 42.8673 21.1046C42.884 21.1464 42.6929 21.7078 42.5953 21.9833C42.0896 21.7357 40.9989 21.2406 40.6809 21.2406Z" fill="#444D56"/>
<path d="M36.6187 18.73C35.9416 18.7772 34.552 23.0684 33.9418 25.2081C33.7689 25.2081 33.266 25.0493 33.0361 24.9699C34.355 20.4818 36.2447 17.2733 36.4415 17.2142C36.6384 17.1552 38.2123 18.1353 38.4305 18.2842C38.6267 18.4181 38.4013 19.0819 38.2438 19.4231C37.9682 19.1607 37.2958 18.6827 36.6187 18.73Z" fill="#444D56"/>
<path d="M32.7159 15.4999C32.8386 15.4123 33.7888 16.0765 34.2486 16.4196L34.7442 15.3705C34.564 14.7875 33.3972 13.9616 32.8363 13.6216C31.9221 14.5358 29.5566 18.979 29.2741 19.6034C29.0481 20.1029 28.615 22.8146 28.4266 24.108C28.6169 24.2864 29.1403 24.1823 29.3782 24.108C29.6012 22.2348 32.5625 15.6094 32.7159 15.4999Z" fill="#444D56"/>
<path d="M18.675 22.4399C18.7643 22.1857 19.8172 21.5325 20.3325 21.2376L20.5472 20.147C19.4205 20.676 18.5148 21.6327 18.2027 22.0449L17.8506 25.3255L18.5291 24.982C18.5406 24.2405 18.5858 22.6941 18.675 22.4399Z" fill="#444D56"/>
<path d="M55.6217 32.4596C56.5181 36.2369 56.9021 43.9606 56.9821 47.7752C57.2454 45.5568 57.5669 45.128 56.9821 37.4885C56.397 29.8451 55.0995 27.4646 53.8391 25.1573C50.9793 24.3888 42.0595 18.6822 37.957 15.9249L32.7305 12.2061L31.6359 13.2085C31.9799 12.9751 32.444 12.8289 32.633 12.785C35.3202 16.048 47.5332 22.5081 53.3038 25.3303C53.7029 26.1328 54.7254 28.6822 55.6217 32.4596Z" fill="white"/>
<path d="M16.4238 23.0191C19.1402 20.4262 26.2571 16.2504 29.476 14.4866L30.4462 13.2739C28.065 14.6997 22.8397 17.8511 20.9877 19.0505C19.1357 20.2499 17.1734 22.1959 16.4238 23.0191Z" fill="white"/>
<path d="M46.9392 15.1377C42.5832 12.9965 36.849 12.4613 34.5264 12.4613L33.8527 11.8638C38.8829 11.4199 46.5998 12.4613 53.9086 19.0346C59.7557 24.2931 60.3648 32.116 59.9385 35.3701C60.0132 24.4651 52.3843 17.8141 46.9392 15.1377Z" fill="white"/>
<path d="M54.9704 23.3065C51.6081 22.0456 42.3415 15.7729 38.1285 12.7942C38.0231 12.7197 35.6721 12.5628 34.5098 12.4936C35.3743 13.035 38.3555 14.9771 43.3644 18.4141C48.3733 21.8512 52.9134 23.7964 54.5573 24.3394C55.1502 25.7562 56.4564 28.9395 56.9387 30.3382C57.421 31.7369 58.0354 38.5201 58.2822 41.7368L59.0166 39.883C59.8833 33.0735 56.6802 25.9947 54.9704 23.3065Z" fill="#7F7F81"/>
<path d="M36.5498 9.96794L36.4263 11.3537C36.8847 11.1028 42.671 12.4817 45.5069 13.2025C45.8231 12.7975 46.313 12.2681 45.0748 11.2759C43.9911 10.4074 40.0556 9.45178 37.5877 9.11658C37.0607 9.04501 36.597 9.43824 36.5498 9.96794Z" fill="#A2A6A9"/>
<path fill-rule="evenodd" clip-rule="evenodd" d="M37.5222 9.59868C37.2876 9.56682 37.0589 9.74014 37.0347 10.0109L36.9596 10.8533C37.1722 10.8727 37.4297 10.908 37.7174 10.9545C38.3816 11.0618 39.2465 11.2354 40.1784 11.4377C41.9105 11.8137 43.8974 12.2943 45.3103 12.6503C45.3633 12.5683 45.3856 12.5104 45.3871 12.4476C45.3889 12.3721 45.3516 12.1213 44.7704 11.6555C44.5605 11.4873 44.1699 11.2864 43.6189 11.0729C43.0797 10.864 42.4262 10.6576 41.7223 10.4657C40.314 10.0816 38.734 9.76327 37.5222 9.59868ZM36.0649 9.92443C36.1352 9.13575 36.8339 8.52261 37.6532 8.63389C38.9094 8.8045 40.5311 9.13161 41.9784 9.52631C42.7023 9.72372 43.3901 9.94007 43.9707 10.165C44.5396 10.3855 45.0473 10.6297 45.3793 10.8957C46.0363 11.4222 46.3732 11.9321 46.3605 12.4706C46.3497 12.9293 46.0696 13.2783 45.9268 13.4563C45.9134 13.473 45.9012 13.4882 45.8906 13.5018L45.695 13.7523L45.387 13.674C43.9723 13.3144 41.8227 12.791 39.9718 12.3891C39.0453 12.188 38.2004 12.0188 37.5621 11.9157C37.2417 11.8639 36.9832 11.8304 36.7965 11.8168C36.7024 11.81 36.6376 11.809 36.5977 11.8111C36.5954 11.8112 36.5932 11.8113 36.5912 11.8115C36.4488 11.8628 36.2888 11.8452 36.1597 11.7608C36.0094 11.6624 35.9255 11.4892 35.9414 11.3102L36.0649 9.92443ZM36.5692 11.8138C36.5691 11.8137 36.5713 11.8133 36.5763 11.8127C36.5718 11.8136 36.5693 11.8139 36.5692 11.8138Z" fill="black"/>
<path d="M45.3701 12.4489C44.3824 11.6342 39.4129 10.5738 37.0517 10.1454L37.064 9.87929C37.2982 9.59739 37.5397 9.57686 37.6312 9.60184C38.5072 9.72963 40.7943 10.1543 42.9342 10.8308C45.0741 11.5073 45.4497 12.1914 45.3701 12.4489Z" fill="white"/>
</svg>
