<svg preserveAspectRatio="none" width="100%" height="100%" overflow="visible" style="display: block;" viewBox="0 0 72.6342 47.6949" fill="none" xmlns="http://www.w3.org/2000/svg">
<g id="Group 909">
<path id="R" d="M37.7169 7.02C37.6769 7.02 37.6502 7.01667 37.6369 7.01C37.5436 6.95 37.4669 6.88333 37.4069 6.81C37.3936 6.79667 37.3836 6.78333 37.3769 6.77C37.3769 6.76333 37.3736 6.76 37.3669 6.76C37.3536 6.74667 37.3436 6.74 37.3369 6.74H37.3269L37.2769 6.7L36.2969 5.39C36.2836 5.34333 36.2602 5.3 36.2269 5.26C36.2003 5.21333 36.1702 5.16667 36.1369 5.12C36.1102 5.1 36.0869 5.08 36.0669 5.06C36.0469 5.03333 36.0302 5.00667 36.0169 4.98C35.9902 4.94 35.9636 4.92 35.9369 4.92C35.9102 4.92 35.8902 4.95667 35.8769 5.03C35.8636 5.11667 35.8536 5.25 35.8469 5.43C35.8469 5.61 35.8469 5.77667 35.8469 5.93C35.8469 6.19667 35.8302 6.42333 35.7969 6.61C35.7902 6.69 35.7636 6.73 35.7169 6.73H35.6469L35.6169 6.71H35.6069C35.4536 6.72333 35.2469 6.73667 34.9869 6.75C34.7269 6.77 34.4669 6.78667 34.2069 6.8C33.9536 6.81333 33.7502 6.82 33.5969 6.82C33.5636 6.82 33.5336 6.81667 33.5069 6.81C33.4802 6.81 33.4569 6.80667 33.4369 6.8H32.9669L32.6269 6.68L32.5969 6.61V6.57C32.5902 6.55667 32.5869 6.53 32.5869 6.49C32.5869 6.47667 32.5836 6.45333 32.5769 6.42C32.5702 6.38 32.5636 6.33333 32.5569 6.28C32.5369 6.08667 32.5236 5.92 32.5169 5.78C32.5169 5.63333 32.5202 5.58333 32.5269 5.63C32.5202 5.54333 32.5102 5.42667 32.4969 5.28C32.4836 5.13333 32.4702 4.95667 32.4569 4.75L32.4369 4.4C32.4369 4.16667 32.4269 3.98667 32.4069 3.86L32.3769 3.65C32.3569 3.51667 32.3469 3.39 32.3469 3.27C32.3536 3.15 32.3569 3.03333 32.3569 2.92C32.3569 2.90667 32.3602 2.89667 32.3669 2.89V2.8C32.3736 2.77333 32.3769 2.71333 32.3769 2.62L32.3969 2.45L32.4069 2.34C32.4069 2.20667 32.3969 2.00667 32.3769 1.74C32.3569 1.58 32.3469 1.37667 32.3469 1.13C32.3469 0.956667 32.3502 0.803333 32.3569 0.67C32.3702 0.536667 32.3902 0.43 32.4169 0.35C32.4636 0.116667 32.5602 0 32.7069 0C33.0669 0 33.4302 0.00666666 33.7969 0.0200002C34.1702 0.0266668 34.5402 0.0300002 34.9069 0.0300002C34.9936 0.0300002 35.0969 0.0333334 35.2169 0.04C35.3436 0.04 35.4902 0.0433331 35.6569 0.0499997L36.0269 0.0600004L37.3869 0.0799999C38.2069 0.106667 38.8336 0.313333 39.2669 0.7C39.4602 0.86 39.6036 1.05333 39.6969 1.28C39.7902 1.50667 39.8369 1.74667 39.8369 2C39.8369 2.28667 39.7869 2.54667 39.6869 2.78C39.5936 3.00667 39.4602 3.20333 39.2869 3.37C39.1202 3.52333 38.9369 3.64667 38.7369 3.74C38.7636 3.74667 38.7936 3.77667 38.8269 3.83C38.8602 3.87667 38.8836 3.92667 38.8969 3.98C38.9102 4.00667 38.9269 4.02667 38.9469 4.04C38.9736 4.04667 39.0002 4.06667 39.0269 4.1L39.1569 4.26L39.2269 4.33C39.2469 4.35 39.2602 4.37 39.2669 4.39C39.2802 4.40333 39.2936 4.42 39.3069 4.44L39.6169 4.9C39.7102 5.03333 39.7902 5.14667 39.8569 5.24C39.9303 5.32667 39.9802 5.40333 40.0069 5.47C40.0536 5.55667 40.0769 5.62 40.0769 5.66C40.0769 5.77333 39.9769 5.89667 39.7769 6.03C39.7302 6.05667 39.6869 6.08333 39.6469 6.11C39.6069 6.13667 39.5602 6.16333 39.5069 6.19C39.4002 6.23667 39.3236 6.28333 39.2769 6.33L38.9369 6.57C38.8702 6.61667 38.8036 6.65 38.7369 6.67C38.6702 6.69667 38.6002 6.72 38.5269 6.74C38.5136 6.74 38.5069 6.74333 38.5069 6.75C38.5069 6.75667 38.5002 6.75667 38.4869 6.75C38.4802 6.75 38.4702 6.75667 38.4569 6.77C38.4369 6.79 38.3336 6.82667 38.1469 6.88C38.1136 6.9 38.0569 6.91667 37.9769 6.93C37.9302 6.96333 37.8869 6.98 37.8469 6.98H37.8069C37.7936 7.00667 37.7836 7.02 37.7769 7.02H37.7169ZM35.8269 3.53H35.9669C36.1669 3.53 36.3069 3.43667 36.3869 3.25C36.4669 3.05667 36.5136 2.84667 36.5269 2.62C36.5336 2.54667 36.5369 2.47 36.5369 2.39C36.5436 2.31 36.5469 2.22333 36.5469 2.13V2.03C36.5469 1.87667 36.5369 1.71 36.5169 1.53C36.4969 1.35 36.4103 1.21333 36.2569 1.12C36.1703 1.06 36.0736 1.03 35.9669 1.03C35.9336 1.03 35.9102 1.07 35.8969 1.15C35.8436 1.29 35.8102 1.51667 35.7969 1.83C35.7902 1.89 35.7836 1.95667 35.7769 2.03C35.7702 2.10333 35.7636 2.18333 35.7569 2.27L35.7469 2.56C35.7402 2.74667 35.7369 2.92 35.7369 3.08C35.7369 3.23333 35.7369 3.37 35.7369 3.49C35.7369 3.51 35.7436 3.52 35.7569 3.52L35.8269 3.53Z" fill="var(--fill-0, white)"/>
<path id="R_2" d="M46.9166 9.24774C46.8789 9.23427 46.8549 9.22216 46.8446 9.21139C46.7769 9.12347 46.7272 9.03488 46.6954 8.94563C46.6873 8.92858 46.6824 8.91266 46.6806 8.89786C46.6829 8.89159 46.6808 8.88733 46.6746 8.88508C46.6665 8.86804 46.6593 8.85839 46.653 8.85615L46.6436 8.85278L46.61 8.79828L46.1283 7.23481C46.1314 7.18638 46.1241 7.13772 46.1061 7.08883C46.0967 7.03591 46.0842 6.98187 46.0685 6.92671C46.0502 6.8989 46.0349 6.87221 46.0228 6.84664C46.013 6.8148 46.0062 6.78408 46.0027 6.75448C45.991 6.70784 45.9726 6.68002 45.9475 6.67105C45.9224 6.66207 45.8913 6.68986 45.854 6.75442C45.8123 6.83154 45.758 6.95372 45.6911 7.12097C45.6305 7.29046 45.5744 7.4474 45.5227 7.59178C45.433 7.84288 45.341 8.0507 45.2467 8.21525C45.2135 8.28833 45.1749 8.31702 45.131 8.3013L45.0651 8.27774L45.0436 8.2488L45.0341 8.24544C44.8853 8.20637 44.6862 8.14934 44.4369 8.07436C44.1853 8.00565 43.9349 7.93381 43.6856 7.85883C43.4425 7.78609 43.2488 7.72391 43.1045 7.67228C43.0731 7.66106 43.0459 7.64782 43.0231 7.63256C42.998 7.62359 42.9771 7.61259 42.9605 7.59958L42.518 7.44134L42.2382 7.21387L42.2335 7.13786L42.247 7.1002C42.2452 7.0854 42.2511 7.05916 42.2645 7.0215C42.269 7.00894 42.2737 6.98585 42.2787 6.95222C42.2859 6.91231 42.2953 6.86612 42.307 6.81366C42.3532 6.62488 42.3968 6.46345 42.4377 6.32938C42.487 6.19128 42.507 6.14532 42.4976 6.19151C42.5205 6.10766 42.5503 5.99443 42.5872 5.85184C42.624 5.70925 42.6709 5.53841 42.7279 5.33932L42.827 5.00301C42.9055 4.7833 42.9567 4.61045 42.9805 4.48444L43.023 4.2766C43.049 4.14432 43.0823 4.02168 43.1227 3.90868C43.1693 3.79794 43.2118 3.6892 43.2499 3.58249C43.2544 3.56993 43.2609 3.56164 43.2694 3.5576L43.2997 3.47286C43.315 3.44999 43.3383 3.39462 43.3697 3.30673L43.4458 3.15339L43.4923 3.05318C43.5372 2.92763 43.5951 2.73594 43.666 2.47811C43.7011 2.32072 43.7601 2.12589 43.8432 1.89362C43.9015 1.73041 43.9563 1.58715 44.0074 1.46384C44.0649 1.34278 44.1196 1.24908 44.1717 1.18273C44.2942 0.978729 44.4245 0.901419 44.5626 0.950799C44.9016 1.07201 45.2415 1.20061 45.5822 1.33662C45.9315 1.46859 46.2788 1.5963 46.6241 1.71975C46.7057 1.74893 46.8018 1.78686 46.9126 1.83354C47.0319 1.87618 47.1688 1.9287 47.3235 1.99109L47.6686 2.12508L48.9424 2.6018C49.7056 2.90299 50.2261 3.30858 50.5039 3.81857C50.6321 4.03432 50.702 4.26463 50.7135 4.50948C50.7251 4.75434 50.6883 4.99604 50.603 5.23458C50.5064 5.50452 50.3718 5.7325 50.1991 5.91854C50.0349 6.10055 49.8431 6.24085 49.6238 6.33943C49.4153 6.42769 49.2011 6.4821 48.9814 6.50265C49.0042 6.5179 49.0224 6.55625 49.0358 6.6177C49.0515 6.67286 49.0566 6.7278 49.0512 6.78251C49.0548 6.81211 49.0637 6.83655 49.0781 6.85584C49.101 6.87109 49.1193 6.8989 49.1332 6.93927L49.2018 7.1337L49.2441 7.22318C49.2562 7.24874 49.262 7.27207 49.2616 7.29314C49.2696 7.31019 49.2766 7.33037 49.2824 7.35369L49.4194 7.89121C49.4624 8.04818 49.4996 8.18183 49.5309 8.29216C49.5708 8.39846 49.5921 8.48748 49.5947 8.55924C49.6095 8.65655 49.6102 8.72405 49.5967 8.76171C49.5585 8.86843 49.4228 8.95089 49.1896 9.0091C49.1367 9.0185 49.0869 9.02902 49.0403 9.04067C48.9936 9.05231 48.9407 9.06171 48.8815 9.06886C48.7654 9.07689 48.6775 9.09502 48.6178 9.12325L48.2169 9.23476C48.1384 9.25626 48.0644 9.2652 47.9949 9.26159C47.9231 9.26425 47.8494 9.26266 47.7736 9.2568C47.761 9.25231 47.7536 9.25321 47.7514 9.25948C47.7491 9.26576 47.7428 9.26352 47.7325 9.25275C47.7263 9.2505 47.7146 9.25341 47.6976 9.26148C47.672 9.27358 47.5623 9.27332 47.3686 9.26069C47.3305 9.2683 47.2715 9.26491 47.1917 9.25053C47.1365 9.26621 47.0901 9.26731 47.0525 9.25384L47.0148 9.24038C46.9933 9.261 46.9794 9.27018 46.9731 9.26794L46.9166 9.24774ZM46.312 5.32516L46.4438 5.3723C46.6321 5.43963 46.7954 5.39889 46.9335 5.25005C47.0739 5.09494 47.1886 4.91291 47.2775 4.70397C47.3084 4.63716 47.3374 4.56609 47.3643 4.49076C47.3975 4.41768 47.4298 4.33719 47.4613 4.24931L47.4949 4.15515C47.5466 4.01077 47.5933 3.85046 47.635 3.67424C47.6768 3.49801 47.6412 3.34015 47.5283 3.20064C47.4668 3.11496 47.3859 3.05417 47.2855 3.01825C47.2541 3.00703 47.2187 3.03684 47.1792 3.10768C47.0818 3.22155 46.9741 3.42376 46.8561 3.71431C46.8296 3.76856 46.8009 3.82909 46.7699 3.8959C46.7389 3.96271 46.7057 4.03579 46.6703 4.11516L46.5632 4.38486C46.4941 4.55838 46.4326 4.72047 46.3787 4.87113C46.3271 5.01551 46.2811 5.1442 46.2407 5.2572C46.2339 5.27603 46.2368 5.28769 46.2494 5.29218L46.312 5.32516Z" fill="var(--fill-0, white)"/>
<path id="A" d="M29.7304 7.36057C29.6862 7.37573 29.6473 7.38557 29.6136 7.39009C29.5821 7.40092 29.5495 7.4086 29.5158 7.41313L27.9458 7.95244C27.9395 7.95461 27.9301 7.95786 27.9175 7.96219C27.9027 7.96022 27.8848 7.95933 27.8637 7.95952L27.58 8.05699L27.17 8.18723C27.1448 8.1959 27.1301 8.20446 27.126 8.21293C27.1177 8.22988 27.0947 8.24484 27.0568 8.25784L27.0285 8.26759L27.0158 8.26138C26.9905 8.27004 26.9768 8.27122 26.9747 8.26492C26.9536 8.26511 26.9336 8.26845 26.9147 8.27495C26.8958 8.28145 26.88 8.28687 26.8674 8.2912C26.8375 8.24509 26.7903 8.15908 26.7259 8.03317C26.6593 7.90096 26.548 7.72067 26.3921 7.49229L26.2254 7.25347L25.6958 7.43541C25.5949 7.47007 25.5056 7.49724 25.4277 7.51692C25.3499 7.53661 25.2668 7.55107 25.1783 7.56032C25.187 7.58554 25.1936 7.61499 25.1981 7.64868C25.2026 7.68237 25.2115 7.72867 25.2247 7.78759C25.2607 8.03603 25.2869 8.25611 25.3034 8.44781C25.3199 8.63951 25.3211 8.766 25.3069 8.82727C25.2565 8.84459 25.1966 8.86517 25.1272 8.889C25.0579 8.91282 24.977 8.94413 24.8846 8.98292C24.79 9.01541 24.7323 9.04229 24.7114 9.06357L24.6263 9.09281C24.6199 9.09497 24.6146 9.08975 24.6103 9.07714C24.6018 9.073 24.5913 9.0731 24.5787 9.07743C24.5282 9.09476 24.4946 9.10982 24.4779 9.12263L24.4844 9.14154L23.2265 9.57365C23.2035 9.58861 23.173 9.6026 23.1352 9.61559C23.1059 9.63273 23.066 9.64996 23.0155 9.66729L22.9209 9.69978C22.8705 9.7171 22.8304 9.71325 22.8007 9.68823C22.7349 9.64034 22.689 9.57856 22.663 9.5029C22.6478 9.45877 22.6401 9.42616 22.64 9.40508C22.6291 9.37355 22.6194 9.34518 22.6107 9.31996C22.5999 9.28844 22.5911 9.25267 22.5844 9.21268C22.5732 9.13899 22.5717 9.08314 22.5797 9.04511C22.5748 8.96926 22.568 8.91873 22.5594 8.8935C22.546 8.81351 22.5118 8.52921 22.4567 8.04059C22.4058 7.54351 22.3385 6.8758 22.255 6.03747C22.1714 5.19914 22.0771 4.22704 21.9721 3.12115C21.97 3.11485 21.9709 3.09692 21.9748 3.06737C21.9851 3.03565 22.0006 3.00915 22.0215 2.98788L22.0593 2.97488L22.0848 2.9873C22.1163 2.97647 22.1362 2.96259 22.1445 2.94564C22.159 2.92654 22.1747 2.91058 22.1915 2.89778C22.2376 2.86784 22.2732 2.84854 22.2985 2.83988C22.3426 2.82471 22.3847 2.81379 22.4247 2.8071C22.4688 2.79194 22.514 2.77993 22.5603 2.77107C22.5729 2.76674 22.5887 2.76132 22.6076 2.75483C22.6243 2.74202 22.6412 2.73976 22.6581 2.74804C22.6729 2.75001 22.694 2.74982 22.7214 2.74746C22.7529 2.73663 22.7813 2.72688 22.8065 2.71822C22.8022 2.70561 22.8158 2.69389 22.8473 2.68306C22.8766 2.66593 22.8976 2.65519 22.9102 2.65086C22.9648 2.62506 23.0299 2.59917 23.1056 2.57318C23.1791 2.54088 23.2789 2.50307 23.405 2.45975L24.3034 2.15111C24.3056 2.15741 24.3351 2.15082 24.3918 2.13133C24.4233 2.1205 24.4486 2.11183 24.4675 2.10533C24.4927 2.09667 24.519 2.09116 24.5464 2.0888L25.0193 1.92636C25.034 1.92833 25.0488 1.9303 25.0636 1.93227C25.0847 1.93208 25.1015 1.92982 25.1141 1.92549C25.1456 1.91466 25.1772 1.90383 25.2087 1.893C25.2444 1.8737 25.2769 1.85548 25.3062 1.83835C25.3356 1.82121 25.366 1.80723 25.3976 1.7964C25.4354 1.7834 25.4606 1.77474 25.4732 1.77041C25.5404 1.74028 25.6024 1.71547 25.6591 1.69597C25.7137 1.67017 25.7725 1.64645 25.8356 1.62479C25.8734 1.61179 25.9101 1.59564 25.9458 1.57634C25.9815 1.55704 26.0257 1.55242 26.0785 1.56248C26.1376 1.57037 26.1872 1.57097 26.2272 1.56428C26.2713 1.54912 26.3091 1.53612 26.3406 1.52529C26.3659 1.51663 26.3763 1.50599 26.372 1.49338L26.4098 1.48039C26.4309 1.4802 26.4563 1.49261 26.486 1.51764C26.5136 1.53636 26.5285 1.54888 26.5307 1.55518C26.676 1.77311 26.8482 2.03823 27.0471 2.35055C27.2438 2.65656 27.4524 2.9867 27.6728 3.34098C27.8995 3.6931 28.1284 4.05152 28.3594 4.41625C28.5904 4.78098 28.8129 5.13102 29.0268 5.46639C29.2385 5.79545 29.4257 6.09417 29.5884 6.36254C29.6227 6.42126 29.6441 6.46323 29.6528 6.48845C29.6678 6.5115 29.6838 6.53771 29.701 6.56707C29.7224 6.60904 29.7631 6.67613 29.823 6.76835C29.8891 6.8584 29.9309 6.92864 29.9482 6.97908C29.9656 7.02952 29.9627 7.06223 29.9396 7.0772C29.9577 7.21196 29.9258 7.29342 29.8438 7.32158L29.7304 7.36057ZM24.9214 6.44317C24.9593 6.43018 24.976 6.41737 24.9717 6.40476L25.0284 6.38527C25.0389 6.37463 25.0577 6.35759 25.0849 6.33416C25.1121 6.31072 25.1477 6.29141 25.1919 6.27625L25.2013 6.273L25.2838 6.29755L25.7283 6.14485L25.5159 5.74201L25.4163 5.57531C25.3799 5.51028 25.3478 5.45787 25.32 5.41807C25.2901 5.37196 25.2675 5.32684 25.2523 5.2827C25.2415 5.25118 25.2039 5.17246 25.1395 5.04655C25.0729 4.91434 24.9967 4.7643 24.9109 4.59642L24.7821 4.34461C24.7436 4.29436 24.7095 4.24618 24.6795 4.20007C24.6559 4.1518 24.6334 4.10668 24.6119 4.06471L24.554 3.95772L24.5377 3.91043C24.5208 3.90215 24.5091 3.88855 24.5026 3.86964C24.4939 3.84442 24.4864 3.83289 24.4801 3.83506L24.4931 3.87289C24.5018 3.89811 24.5 3.93396 24.4878 3.98046L24.5268 4.09395C24.5315 4.14872 24.5394 4.20241 24.5504 4.25502C24.5614 4.30762 24.5693 4.36131 24.574 4.41608L24.6416 4.88983C24.6778 5.15935 24.7255 5.4214 24.7847 5.67596C24.844 5.93052 24.8896 6.18625 24.9214 6.44317Z" fill="var(--fill-0, white)"/>
<path id="W" d="M16.4128 14.1769C16.4472 14.292 16.389 14.4046 16.2381 14.5145L14.3471 15.8927C14.3255 15.9084 14.302 15.9214 14.2765 15.9317C14.255 15.9474 14.2341 15.9585 14.2141 15.9649C14.1753 15.9684 14.1405 15.9772 14.1097 15.9915C14.0827 16.0111 14.0612 16.0268 14.045 16.0386L13.9561 16.1034C13.9037 16.1333 13.8579 16.1213 13.8186 16.0675L11.4286 14.0105C11.2559 13.8641 11.1333 13.7638 11.0607 13.7094C10.9842 13.6497 10.9287 13.6076 10.8944 13.5831C10.8561 13.5533 10.8073 13.5146 10.748 13.4671C10.694 13.4157 10.5986 13.3244 10.4617 13.1932C10.423 13.1966 10.3541 13.1644 10.255 13.0963C10.1613 13.0244 10.0659 12.933 9.96875 12.8224C9.7759 12.5917 9.6103 12.4154 9.47196 12.2935C9.33362 12.1716 9.22423 12.0781 9.14378 12.013C9.06333 11.9479 9.01206 11.8945 8.98996 11.8529C8.97325 11.8073 8.99206 11.7482 9.0464 11.6756C9.16246 11.5745 9.27852 11.4734 9.39459 11.3724C9.51211 11.262 9.61005 11.17 9.6884 11.0964C9.77214 11.0188 9.81401 10.9801 9.81401 10.9801L10.0189 10.7689L10.0917 10.7159L10.2584 10.5201L10.3068 10.4848C10.3044 10.4701 10.3058 10.4608 10.3112 10.4568L10.3193 10.451L10.3311 10.4671C10.3365 10.4632 10.3419 10.4593 10.3473 10.4553C10.3526 10.4514 10.3561 10.4448 10.3575 10.4355C10.359 10.4262 10.3624 10.4195 10.3678 10.4156C10.3908 10.3906 10.4165 10.3636 10.4449 10.3347C10.4694 10.3003 10.4843 10.2812 10.4897 10.2773L10.522 10.2537L10.5749 10.1904C10.6048 10.1522 10.6528 10.1048 10.7189 10.0484C10.7811 9.98657 10.8474 9.91348 10.9179 9.8291C10.9781 9.71925 11.0675 9.71181 11.1862 9.80678C11.3064 9.89244 11.4607 10.0192 11.6491 10.1872C11.6648 10.2087 11.6746 10.2222 11.6785 10.2276C11.6878 10.229 11.7155 10.2501 11.7616 10.2907C11.8131 10.3274 11.9093 10.4141 12.0501 10.5507C12.187 10.6819 12.4021 10.8922 12.6955 11.1816L12.7132 11.2059C12.7264 11.2127 12.7448 11.2323 12.7684 11.2646L12.9126 11.3946C12.9283 11.4162 12.9506 11.4411 12.9796 11.4695C13.0085 11.4979 13.0414 11.5317 13.0782 11.5709C13.0954 11.5831 13.1099 11.5973 13.1216 11.6135C13.1349 11.6203 13.1493 11.6345 13.1651 11.6561C13.2072 11.6913 13.2435 11.7185 13.2739 11.7376C13.3058 11.7474 13.3323 11.7611 13.3534 11.7787C13.3799 11.7924 13.4049 11.8154 13.4284 11.8477L13.4976 11.9087L13.5153 11.9329C13.531 11.9545 13.5482 11.9667 13.5668 11.9696L13.6021 12.0181L13.583 11.9579L13.5299 11.8851C13.526 11.8797 13.5209 11.867 13.5145 11.8469C13.5081 11.8268 13.5036 11.8094 13.5012 11.7947C13.4894 11.7786 13.4784 11.7577 13.468 11.7323C13.4592 11.6975 13.443 11.6639 13.4194 11.6316C13.3919 11.5939 13.3745 11.553 13.3671 11.5089L13.3126 11.4001L13.252 11.1472C13.254 11.1046 13.2451 11.0698 13.2255 11.0429C13.2073 11.0066 13.1923 10.9804 13.1805 10.9642L13.1238 10.8695C13.0565 10.7205 12.9902 10.5503 12.9248 10.3587C12.8594 10.1671 12.8019 9.98629 12.7522 9.81626C12.708 9.6423 12.6711 9.51245 12.6416 9.4267C12.6273 9.39584 12.6158 9.36301 12.6069 9.32822C12.6035 9.2895 12.6147 9.24832 12.6406 9.20467C12.646 9.20074 12.6494 9.19412 12.6509 9.18481C12.6577 9.17157 12.6619 9.16029 12.6634 9.15098C12.6986 9.10879 12.7189 9.08573 12.7243 9.08181C12.7797 9.03323 12.8269 8.99054 12.8661 8.95374C12.9053 8.91694 12.9356 8.89069 12.9572 8.87498L13.1026 8.76897L14.1121 8.08275C14.1484 8.06458 14.18 8.04567 14.2069 8.02604C14.2339 8.00641 14.2581 7.98874 14.2797 7.97303C14.3389 7.92984 14.3745 7.91633 14.3862 7.93249C14.3916 7.92857 14.3958 7.91729 14.3987 7.89866C14.4002 7.88935 14.409 7.8788 14.4251 7.86702C14.4281 7.84839 14.4484 7.82533 14.4861 7.79785L14.6477 7.68005C14.7285 7.62116 14.7895 7.59732 14.8307 7.60856L16.1766 8.79313L16.2634 8.87833C16.3135 8.92435 16.3603 8.96033 16.404 8.98626C16.4437 9.00681 16.4675 9.02247 16.4753 9.03325L16.7042 9.26241C16.7449 9.30697 16.7837 9.34884 16.8205 9.38801C16.8573 9.42719 16.8862 9.45559 16.9073 9.47321C16.9309 9.50554 16.9545 9.53787 16.978 9.57019C17.007 9.59859 17.0398 9.63238 17.0766 9.67155C17.0913 9.66909 17.1026 9.67324 17.1105 9.68402C17.1237 9.69087 17.135 9.69502 17.1443 9.69648L17.1679 9.72881C17.1718 9.7342 17.1796 9.74497 17.1914 9.76114C17.1993 9.77191 17.2098 9.78072 17.2231 9.78757L17.2606 9.82209C17.2596 9.79807 17.2632 9.77479 17.2715 9.75223L17.1655 9.60677L17.0447 9.37309L16.9143 9.10927C16.8883 9.06225 16.8596 9.01718 16.8282 8.97408C16.8022 8.92705 16.7842 8.87413 16.7744 8.81533L16.6433 8.60151L16.6123 8.52508L16.5888 8.49275C16.5514 8.39623 16.5205 8.3198 16.4959 8.26346C16.4674 8.20173 16.4421 8.15004 16.42 8.1084L16.3345 7.92321C16.1896 7.59986 16.0796 7.35833 16.0045 7.19862C15.9293 7.0389 15.8762 6.92083 15.8453 6.8444C15.8143 6.76797 15.7866 6.70158 15.762 6.64524C15.7036 6.53109 15.6755 6.43603 15.6779 6.36006C15.6941 6.34828 15.7122 6.33919 15.7323 6.3328C15.7485 6.32102 15.7654 6.30459 15.783 6.28349C15.806 6.25847 15.8256 6.24007 15.8417 6.22829C15.8579 6.21651 15.8741 6.20473 15.8902 6.19296C15.9172 6.17332 15.9568 6.14853 16.0093 6.11858C16.0617 6.08863 16.0967 6.06311 16.1143 6.04201L16.1305 6.03023C16.1413 6.02238 16.1849 6.00298 16.2613 5.97202C16.3431 5.93714 16.384 5.9197 16.384 5.9197C16.4095 5.90938 16.423 5.89957 16.4244 5.89025C16.4259 5.88094 16.4332 5.87971 16.4465 5.88655C16.4612 5.88409 16.4739 5.87893 16.4847 5.87108C16.4916 5.85784 16.4996 5.85195 16.5089 5.85341L16.5751 5.84231C16.6633 5.82752 16.729 5.80442 16.7721 5.77301L17.0844 5.60728C17.2093 5.54098 17.322 5.49186 17.4224 5.4599C17.5243 5.41863 17.5841 5.38744 17.6017 5.36635L17.8369 5.28157C17.9011 5.26778 17.9671 5.31869 18.0348 5.4343C18.1041 5.54059 18.1689 5.67482 18.2293 5.837C18.2898 5.99918 18.349 6.15401 18.407 6.30148C18.465 6.44896 18.5175 6.55502 18.5646 6.61967C18.6707 6.85582 18.7594 7.05105 18.8306 7.20538C18.9018 7.3597 18.9633 7.50056 19.0148 7.62794C19.0718 7.7514 19.1281 7.87952 19.1836 8.01229C19.2391 8.14507 19.3015 8.30994 19.3708 8.50691L20.4293 11.2497C20.3955 11.2826 20.3831 11.3164 20.3919 11.3512L20.4214 11.3916L20.2355 11.5271L20.1481 11.6279L18.9344 12.4753L17.9807 13.1703C17.919 13.1988 17.8705 13.1888 17.8351 13.1403L15.2017 11.038L16.4128 14.1769Z" fill="var(--fill-0, white)"/>
<path id="I" d="M51.9048 11.4967L51.6736 11.3713C51.5993 11.3148 51.5738 11.2327 51.5971 11.1248C51.6217 11.0263 51.663 10.9279 51.7209 10.8296C51.7882 10.73 51.84 10.6563 51.8763 10.6085C51.9529 10.5076 51.9946 10.4472 52.0014 10.4273C52.0646 10.333 52.146 10.2148 52.2456 10.0728C52.3491 9.92539 52.4656 9.7501 52.5948 9.54689L52.8291 9.17232C53.0176 8.88013 53.1817 8.63647 53.3216 8.44132C53.4655 8.24087 53.5878 8.07428 53.6887 7.94156L55.3763 5.71986C55.4166 5.66677 55.4853 5.66453 55.5824 5.71312C55.6834 5.75641 55.7897 5.8204 55.9012 5.90508C55.933 5.92928 55.9702 5.9575 56.0127 5.98977C56.0551 6.02203 56.0956 6.05694 56.134 6.09451C56.1725 6.13208 56.2056 6.16562 56.2334 6.19512C56.2653 6.21932 56.2918 6.23948 56.313 6.25561C56.3515 6.29318 56.4058 6.34285 56.4761 6.40461C56.5505 6.46107 56.6354 6.52559 56.7309 6.59818L56.7809 6.59849L57.1791 6.90093C57.1935 6.93702 57.2114 6.96313 57.2326 6.97926L57.2645 7.00346C57.2832 7.0009 57.3217 7.02181 57.3801 7.06617C57.3894 7.06489 57.3968 7.06627 57.4021 7.0703L57.418 7.0824C57.4392 7.09853 57.4584 7.11731 57.4757 7.13875L57.5193 7.19702L58.005 7.566C58.0794 7.62246 58.1157 7.67935 58.114 7.73668C58.1163 7.78869 58.1074 7.82797 58.0873 7.85451L57.0163 9.31398C57.0042 9.3299 56.9895 9.34381 56.9721 9.35571L56.8453 9.47293C56.7394 9.56829 56.6522 9.66109 56.5836 9.75133C56.5191 9.83627 56.4626 9.9106 56.4143 9.9743L55.0593 11.758L54.7753 12.0823C54.7095 12.1579 54.6498 12.2255 54.5961 12.2852C54.5424 12.3449 54.5 12.4006 54.469 12.4524C54.2876 12.6913 54.1374 12.8284 54.0185 12.8637C53.9504 12.8873 53.8791 12.8708 53.8048 12.8144L53.8089 12.7924L53.7752 12.7542C53.7646 12.7461 53.7572 12.7447 53.7532 12.75L53.7134 12.7198C53.6934 12.713 53.6761 12.7082 53.6615 12.7055C53.6468 12.7027 53.6348 12.702 53.6255 12.7033C53.6096 12.6912 53.585 12.6683 53.5519 12.6348C53.5188 12.6013 53.4797 12.559 53.4347 12.5081L53.3133 12.4033C53.2868 12.3832 53.2608 12.3844 53.2353 12.4069L52.4151 11.7838L52.146 11.6422L51.9048 11.4967Z" fill="var(--fill-0, white)"/>
<path id="O" d="M58.8831 17.8802C58.4084 17.2867 58.0508 16.7062 57.8103 16.1388C57.574 15.5765 57.5366 15.0388 57.698 14.5255C57.8001 14.2048 57.9678 13.8915 58.201 13.5854C58.4343 13.2793 58.7409 12.9743 59.121 12.6703C60.0997 11.8874 61.0186 11.5367 61.8775 11.618C62.3231 11.6628 62.7719 11.8502 63.2237 12.1803C63.6807 12.5062 64.1237 12.9373 64.5526 13.4736C64.7775 13.7547 64.9742 14.0754 65.1429 14.4356C65.3157 14.8011 65.4327 15.177 65.4941 15.5633C65.5649 15.9506 65.5545 16.3217 65.4628 16.6768C65.3836 17.0047 65.2352 17.3155 65.0176 17.6091C64.8041 17.9079 64.5516 18.1739 64.2601 18.4071C63.8592 18.7277 63.4771 18.9864 63.1137 19.1831C62.7545 19.3851 62.4151 19.5157 62.0954 19.575C61.5051 19.6801 60.947 19.5801 60.4213 19.275C59.8997 18.9751 59.3869 18.5102 58.8831 17.8802ZM59.9233 17.0995C59.9649 17.1515 60.0289 17.1729 60.1154 17.1635C60.2059 17.1594 60.3142 17.1667 60.4402 17.1854C60.562 17.199 60.7078 17.1677 60.8775 17.0917C61.0524 17.0116 61.2372 16.9065 61.4319 16.7763C61.6267 16.6462 61.8073 16.5145 61.9739 16.3813L62.4112 16.0315C62.5206 15.944 62.6518 15.8306 62.8048 15.6911C62.9631 15.5474 63.1083 15.3928 63.2406 15.2273C63.3728 15.0617 63.4624 14.8962 63.5093 14.7307C63.5603 14.5703 63.5337 14.4251 63.4296 14.2949C63.3547 14.2012 63.2662 14.1439 63.1642 14.1231C63.0715 14.1033 62.9663 14.1106 62.8487 14.1449C62.6686 14.1866 62.5025 14.2511 62.3505 14.3385C62.2078 14.427 62.0844 14.5129 61.9803 14.5962C61.8783 14.6607 61.7705 14.7341 61.657 14.8164C61.5529 14.8997 61.4071 15.0163 61.2197 15.1662C61.0895 15.2703 60.9724 15.364 60.8683 15.4472C60.7735 15.5316 60.6861 15.6143 60.6059 15.6955C60.5122 15.7705 60.4054 15.8772 60.2857 16.0157C60.1701 16.1593 60.0613 16.3061 59.9593 16.456C59.7937 16.708 59.7817 16.9225 59.9233 17.0995Z" fill="var(--fill-0, white)"/>
<path id="R_3" d="M64.8307 27.5919C64.8176 27.5541 64.8121 27.5278 64.814 27.5131C64.8402 27.4052 64.8782 27.311 64.9279 27.2303C64.9361 27.2134 64.9454 27.1996 64.9559 27.1889C64.9622 27.1867 64.9642 27.1825 64.9621 27.1762C64.9703 27.1592 64.9733 27.1476 64.9711 27.1413L64.9679 27.1318L64.9893 27.0715L65.9071 25.7172C65.9468 25.6893 65.9802 25.6531 66.0071 25.6085C66.0425 25.5681 66.0768 25.5245 66.11 25.4777C66.1202 25.446 66.1314 25.4174 66.1438 25.3919C66.1625 25.3643 66.1822 25.3399 66.2031 25.3185C66.2322 25.2803 66.2423 25.2485 66.2336 25.2233C66.2249 25.1981 66.1837 25.1912 66.1101 25.2026C66.0238 25.2183 65.8945 25.2524 65.7222 25.305C65.5521 25.3638 65.3946 25.4183 65.2497 25.4684C64.9977 25.5555 64.778 25.6139 64.5907 25.6434C64.5129 25.6632 64.4664 25.6511 64.4511 25.607L64.4282 25.5408L64.4373 25.5059L64.4341 25.4965C64.3714 25.3559 64.2912 25.165 64.1936 24.9236C64.0898 24.6844 63.989 24.4442 63.8914 24.2028C63.796 23.9677 63.7233 23.7777 63.6732 23.6328C63.6623 23.6013 63.6556 23.5719 63.6532 23.5445C63.6445 23.5193 63.64 23.4962 63.6398 23.4751L63.4862 23.0309L63.4884 22.6703L63.5448 22.6191L63.5826 22.606C63.593 22.5954 63.6171 22.5835 63.6549 22.5704C63.6675 22.5661 63.6885 22.5553 63.7178 22.5381C63.7535 22.5187 63.7954 22.4972 63.8436 22.4735C64.0198 22.3914 64.1729 22.3243 64.3031 22.2722C64.4417 22.2243 64.49 22.2111 64.4481 22.2327C64.5278 22.198 64.6348 22.1505 64.7691 22.0899C64.9033 22.0294 65.0659 21.959 65.2569 21.8789L65.5811 21.7456C65.8017 21.6693 65.9685 21.6011 66.0817 21.5407L66.2703 21.4438C66.3898 21.3813 66.5063 21.3304 66.6197 21.2912C66.7352 21.2583 66.8466 21.2233 66.9537 21.1863C66.9663 21.1819 66.9768 21.1818 66.9853 21.1859L67.0704 21.1565C67.0978 21.1541 67.1556 21.1376 67.2438 21.1071L67.411 21.0705L67.5182 21.044C67.6442 21.0004 67.83 20.9256 68.0754 20.8195C68.2201 20.7483 68.409 20.6724 68.6421 20.5918C68.8059 20.5351 68.952 20.4882 69.0801 20.4509C69.2105 20.4199 69.3179 20.4039 69.4022 20.403C69.6379 20.3708 69.7798 20.4241 69.8277 20.5627C69.9454 20.9029 70.0578 21.2485 70.1651 21.5994C70.2808 21.9544 70.3986 22.3051 70.5184 22.6517C70.5468 22.7336 70.5774 22.8323 70.6103 22.9479C70.6517 23.0676 70.6965 23.2073 70.7447 23.367L70.8561 23.72L71.2817 25.0118C71.5245 25.7955 71.534 26.4553 71.3102 26.9912C71.2222 27.2262 71.0863 27.4249 70.9026 27.5871C70.7189 27.7494 70.5073 27.872 70.2679 27.9548C69.997 28.0485 69.7349 28.0862 69.4817 28.068C69.237 28.0538 69.0076 27.9921 68.7934 27.8828C68.594 27.7754 68.4175 27.6424 68.264 27.4839C68.2664 27.5113 68.2478 27.5494 68.2083 27.5984C68.1751 27.6451 68.1355 27.6835 68.0894 27.7135C68.0686 27.7349 68.0551 27.7571 68.0491 27.7804C68.0515 27.8078 68.0413 27.8395 68.0185 27.8756L67.9098 28.0508L67.8665 28.1398C67.8541 28.1653 67.8396 28.1844 67.8229 28.1972C67.8146 28.2142 67.8032 28.2322 67.7887 28.2514L67.4553 28.6947C67.3598 28.8265 67.2788 28.9391 67.2124 29.0326C67.1545 29.1303 67.0983 29.2026 67.0441 29.2496C66.9774 29.322 66.9252 29.3648 66.8874 29.3778C66.7803 29.4149 66.631 29.3607 66.4396 29.2152C66.3992 29.1798 66.3598 29.1476 66.3215 29.1185C66.2833 29.0894 66.2428 29.054 66.2002 29.0124C66.1212 28.9268 66.052 28.8696 65.9927 28.8407L65.6548 28.5979C65.5889 28.5501 65.5356 28.498 65.4949 28.4415C65.4479 28.3872 65.403 28.3287 65.3601 28.2659C65.3557 28.2533 65.3504 28.2481 65.3441 28.2503C65.3378 28.2525 65.3356 28.2462 65.3376 28.2314C65.3354 28.2251 65.3258 28.2178 65.3089 28.2096C65.2834 28.1972 65.215 28.1115 65.1036 27.9526C65.0738 27.9276 65.0395 27.8795 65.0008 27.8082C64.954 27.775 64.9241 27.7395 64.911 27.7017L64.8979 27.6639C64.8684 27.66 64.8525 27.6549 64.8503 27.6486L64.8307 27.5919ZM67.5113 24.6651L67.5571 24.7974C67.6225 24.9864 67.7564 25.0882 67.959 25.1028C68.1678 25.1152 68.3816 25.0907 68.6001 25.0292C68.6716 25.0115 68.7452 24.9896 68.8208 24.9635C68.8986 24.9436 68.9816 24.9185 69.0698 24.888L69.1643 24.8553C69.3092 24.8052 69.4634 24.7412 69.627 24.6635C69.7906 24.5858 69.8914 24.4592 69.9295 24.2838C69.9579 24.1823 69.9547 24.0811 69.9198 23.9803C69.9089 23.9488 69.8635 23.9398 69.7835 23.9534C69.6338 23.9487 69.4086 23.9913 69.1082 24.0811C69.0493 24.0944 68.9841 24.1099 68.9126 24.1276C68.8411 24.1452 68.7633 24.1651 68.6793 24.1871L68.4019 24.2724C68.2233 24.3271 68.0584 24.3806 67.9072 24.4329C67.7623 24.4831 67.6331 24.5277 67.5197 24.5669C67.5008 24.5735 67.4935 24.583 67.4979 24.5956L67.5113 24.6651Z" fill="var(--fill-0, white)"/>
<path id="$" d="M67.4384 47.044C67.4253 47.0416 67.4107 47.0288 67.3946 47.0055C67.3773 46.9889 67.3692 46.9773 67.3704 46.9707C67.3649 46.8884 67.3782 46.7214 67.4101 46.4698C67.4421 46.2181 67.4805 45.9676 67.5256 45.7183C67.4278 45.66 67.3108 45.5948 67.1748 45.5228C67.0399 45.4442 66.9122 45.3636 66.7917 45.2808C66.6724 45.1915 66.5864 45.1048 66.5338 45.0208C66.4391 44.4956 66.4275 43.9786 66.4991 43.4699C66.5086 43.4174 66.5267 43.3733 66.5535 43.3375C66.5869 43.3029 66.62 43.2885 66.6528 43.2945C66.9063 43.3538 67.2159 43.4775 67.5816 43.6656C67.612 43.6846 67.6827 43.7245 67.7937 43.7852C67.9124 43.8405 68.0159 43.8863 68.1042 43.9226C68.1728 43.9553 68.2498 43.9794 68.335 43.9948C68.5187 44.028 68.6523 44.0386 68.7358 44.0266C68.827 44.0092 68.8884 43.9695 68.9199 43.9074C68.9722 43.6933 68.8145 43.4785 68.447 43.2631C68.1528 43.0541 67.912 42.8683 67.7246 42.7057C67.5449 42.5377 67.4052 42.3736 67.3055 42.2133C67.2057 42.053 67.1259 41.876 67.0661 41.6823C67.0439 41.5428 67.0283 41.4417 67.0193 41.3791C67.0103 41.3165 67.017 41.2229 67.0396 41.0982C67.1107 40.7046 67.2606 40.3997 67.4894 40.1836C67.7259 39.9622 68.0939 39.7814 68.5934 39.6414L68.8336 38.4247C68.8419 38.3788 68.8857 38.3426 68.965 38.3163C69.0509 38.2912 69.1021 38.27 69.1188 38.2527C69.0937 38.2414 69.0845 38.2363 69.091 38.2375C69.0976 38.2387 69.1069 38.2437 69.1188 38.2527C69.1689 38.2753 69.1907 38.286 69.1841 38.2848C69.2038 38.2883 69.2163 38.294 69.2217 38.3017L69.2298 38.3134C69.2626 38.3193 69.2802 38.3157 69.2825 38.3026C69.3529 38.3627 69.4177 38.3981 69.4767 38.4088C69.4833 38.41 69.4904 38.4079 69.4982 38.4025C69.4994 38.396 69.5065 38.3939 69.5196 38.3962L69.5214 38.3864C69.5477 38.3911 69.5605 38.4138 69.56 38.4543C69.5632 38.6988 69.5321 38.9269 69.4668 39.1387C69.4079 39.3516 69.3708 39.5007 69.3554 39.586L70.1364 39.7068L70.3491 38.6986L70.3598 38.6395C70.3645 38.6133 70.4 38.5858 70.4661 38.5571C70.5335 38.5219 70.5835 38.5072 70.6163 38.5132C70.6491 38.5191 70.6819 38.525 70.7147 38.5309C70.7487 38.5303 70.7777 38.5389 70.8015 38.5568C70.9113 38.624 71.0121 38.666 71.104 38.6826L71.1433 38.6897L71.155 38.6816C71.1681 38.684 71.1765 38.7126 71.1801 38.7675C71.1807 38.8015 71.1626 38.8829 71.1258 39.0117C71.0967 39.1352 71.076 39.25 71.0635 39.3561C71.0606 39.4098 71.0479 39.499 71.0254 39.6236C71.0094 39.7494 70.9955 39.8452 70.9836 39.9108C71.0785 39.9482 71.193 39.9892 71.3272 40.0338C71.468 40.0796 71.5601 40.1132 71.6037 40.1346C71.7057 40.2072 71.8152 40.2575 71.9321 40.2854C71.9518 40.289 71.9697 40.3024 71.9858 40.3256C71.9912 40.3334 71.9933 40.3405 71.9921 40.3471C71.9975 40.3548 72.0023 40.3658 72.0064 40.3802C72.0178 40.4296 72.0399 40.4573 72.0727 40.4633L72.0826 40.465L72.0694 40.7066C72.0653 40.7668 72.0597 40.8166 72.0526 40.8559C72.052 40.8965 72.0488 40.9332 72.0428 40.966C72.0405 41.0536 72.035 41.1407 72.0261 41.2272C72.0185 41.3071 72.0063 41.3929 71.9897 41.4848L71.9595 41.6521C71.9346 41.7898 71.8876 41.8999 71.8185 41.9823C71.7852 42.0169 71.7455 42.03 71.6996 42.0217C71.634 42.0099 71.5499 41.9879 71.4473 41.9558C71.3524 41.9184 71.2135 41.8628 71.0303 41.789L70.7279 41.6632C70.645 41.6347 70.5614 41.6094 70.4773 41.5874C70.3932 41.5655 70.3151 41.548 70.243 41.5349C70.0396 41.4982 69.8616 41.4897 69.709 41.5095C69.5516 41.5556 69.4652 41.6213 69.4498 41.7066C69.4486 41.7131 69.44 41.7421 69.4239 41.7934C69.4144 41.8459 69.4458 41.9159 69.5181 42.0035C69.5682 42.0261 69.6204 42.0558 69.6747 42.0927C69.729 42.1297 69.7794 42.1693 69.826 42.2115C69.965 42.3044 70.11 42.4018 70.261 42.5036C70.4131 42.5988 70.5689 42.7116 70.7282 42.8421C70.8583 42.9469 70.9535 43.0386 71.0138 43.1172C71.0753 43.1893 71.1231 43.2623 71.1572 43.3362C71.199 43.4048 71.2521 43.4855 71.3166 43.5785C71.4295 43.7411 71.5093 43.9181 71.556 44.1095C71.6105 44.2955 71.6229 44.4705 71.5932 44.6345C71.5529 44.8575 71.4997 45.0207 71.4336 45.1239C71.3753 45.2218 71.2848 45.3477 71.1621 45.5016C71.0507 45.6306 70.8899 45.7336 70.6795 45.8107C70.469 45.8879 70.2807 45.9554 70.1144 46.0135L69.8225 47.4037L69.0228 47.3303L69.2487 46.0806C68.9433 46.0457 68.6234 45.998 68.2888 45.9376L68.1397 47.0996L67.8455 47.0972C67.8258 47.0936 67.8177 47.082 67.8213 47.0623C67.8183 47.0415 67.8052 47.0391 67.7819 47.0552C67.7742 47.0606 67.7691 47.0699 67.7667 47.083L67.7963 47.0883C67.7885 47.0937 67.7682 47.0934 67.7354 47.0875L67.6174 47.0661C67.603 47.0703 67.5631 47.0665 67.4975 47.0546L67.4384 47.044Z" fill="var(--fill-0, #62D732)"/>
<path id="$_2" d="M1.53513 35.1331C1.52201 35.1307 1.50739 35.1179 1.49126 35.0947C1.47395 35.078 1.46589 35.0664 1.46708 35.0598C1.46162 34.9775 1.47486 34.8106 1.5068 34.5589C1.53873 34.3072 1.57723 34.0568 1.62229 33.8075C1.52443 33.7491 1.40749 33.684 1.27146 33.612C1.13662 33.5334 1.00893 33.4527 0.888396 33.37C0.769045 33.2807 0.683089 33.194 0.630527 33.11C0.535763 32.5847 0.524189 32.0678 0.595805 31.5591C0.605291 31.5066 0.623431 31.4624 0.650226 31.4266C0.683582 31.392 0.716661 31.3777 0.749462 31.3836C1.00295 31.443 1.31255 31.5667 1.67827 31.7547C1.7087 31.7737 1.7794 31.8136 1.89037 31.8743C2.00909 31.9297 2.1126 31.9755 2.20088 32.0117C2.26949 32.0445 2.34644 32.0685 2.43172 32.084C2.61541 32.1172 2.74899 32.1277 2.83246 32.1157C2.92367 32.0983 2.98505 32.0586 3.01659 31.9966C3.06883 31.7825 2.91119 31.5677 2.54365 31.3522C2.24946 31.1432 2.00867 30.9574 1.82126 30.7948C1.6416 30.6269 1.5019 30.4627 1.40215 30.3024C1.30241 30.1421 1.22262 29.9651 1.16278 29.7714C1.14058 29.6319 1.12497 29.5308 1.11596 29.4682C1.10695 29.4056 1.1137 29.312 1.13623 29.1874C1.20737 28.7937 1.35732 28.4889 1.58606 28.2728C1.82256 28.0513 2.19057 27.8706 2.69011 27.7305L2.93033 26.5138C2.93863 26.4679 2.98242 26.4318 3.0617 26.4055C3.14754 26.3803 3.19879 26.3591 3.21547 26.3418C3.19042 26.3305 3.18117 26.3254 3.18773 26.3266C3.19429 26.3278 3.20354 26.3329 3.21547 26.3418C3.26558 26.3644 3.28736 26.3751 3.2808 26.3739C3.30048 26.3775 3.31301 26.3831 3.31838 26.3909L3.32645 26.4025C3.35925 26.4084 3.37683 26.4048 3.37921 26.3917C3.44963 26.4519 3.51436 26.4873 3.57341 26.4979C3.57997 26.4991 3.58712 26.497 3.59487 26.4917C3.59605 26.4851 3.60321 26.483 3.61633 26.4854L3.61811 26.4755C3.64435 26.4803 3.65719 26.5029 3.65664 26.5435C3.65988 26.7879 3.62881 27.0161 3.56344 27.2278C3.50463 27.4407 3.46752 27.5899 3.45211 27.6751L4.23307 27.796L4.44578 26.7877L4.45645 26.7287C4.46119 26.7024 4.49664 26.675 4.5628 26.6463C4.63014 26.611 4.68022 26.5964 4.71302 26.6023C4.74582 26.6082 4.77862 26.6141 4.81142 26.6201C4.84541 26.6194 4.87434 26.6281 4.89821 26.6459C5.008 26.7132 5.10881 26.7551 5.20066 26.7717L5.24002 26.7788L5.25164 26.7708C5.26476 26.7731 5.27314 26.8018 5.27677 26.8566C5.27741 26.8906 5.25931 26.972 5.22247 27.1008C5.19338 27.2243 5.17263 27.3391 5.16022 27.4453C5.1573 27.4989 5.14457 27.5881 5.12204 27.7127C5.10608 27.8386 5.09216 27.9343 5.08031 27.9999C5.17516 28.0374 5.28968 28.0784 5.4239 28.123C5.56467 28.1687 5.65683 28.2023 5.70038 28.2237C5.80242 28.2964 5.91189 28.3467 6.02879 28.3746C6.04847 28.3781 6.06638 28.3915 6.0825 28.4148C6.08788 28.4225 6.08997 28.4297 6.08878 28.4362C6.09416 28.444 6.09894 28.455 6.10313 28.4693C6.11451 28.5188 6.1366 28.5465 6.1694 28.5524L6.17925 28.5542L6.16608 28.7957C6.16197 28.8559 6.15636 28.9057 6.14925 28.9451C6.14869 28.9856 6.14545 29.0223 6.13952 29.0551C6.13723 29.1428 6.13166 29.2298 6.1228 29.3163C6.11513 29.3962 6.103 29.4821 6.0864 29.5739L6.05617 29.7412C6.03127 29.879 5.98428 29.9891 5.91519 30.0714C5.88184 30.106 5.8422 30.1192 5.79628 30.1109C5.73067 30.099 5.64657 30.0771 5.54398 30.045C5.44913 30.0075 5.31014 29.9519 5.127 29.8781L4.82455 29.7524C4.74164 29.7238 4.65813 29.6986 4.57403 29.6766C4.48993 29.6546 4.4118 29.6371 4.33964 29.6241C4.13626 29.5873 3.95826 29.5788 3.80564 29.5987C3.64827 29.6448 3.56187 29.7104 3.54646 29.7957C3.54527 29.8023 3.53666 29.8312 3.52061 29.8825C3.51113 29.935 3.54251 30.005 3.61475 30.0926C3.66486 30.1152 3.71707 30.145 3.77137 30.1819C3.82567 30.2188 3.87609 30.2584 3.92265 30.3007C4.06168 30.3936 4.20668 30.4909 4.35765 30.5927C4.5098 30.688 4.66555 30.8008 4.82489 30.9312C4.95499 31.036 5.0502 31.1277 5.11051 31.2064C5.172 31.2785 5.21978 31.3515 5.25384 31.4254C5.29566 31.4939 5.34881 31.5746 5.41331 31.6676C5.52618 31.8303 5.60596 32.0073 5.65268 32.1986C5.70713 32.3846 5.71954 32.5596 5.6899 32.7236C5.64959 32.9467 5.59639 33.1098 5.53031 33.213C5.47198 33.3109 5.38147 33.4368 5.2588 33.5908C5.14743 33.7197 4.98654 33.8227 4.77613 33.8999C4.56573 33.977 4.37737 34.0446 4.21107 34.1026L3.91916 35.4928L3.11946 35.4194L3.34533 34.1697C3.04 34.1348 2.72004 34.0872 2.38546 34.0267L2.23642 35.1887L1.94215 35.1863C1.92247 35.1828 1.91441 35.1712 1.91796 35.1515C1.91496 35.1306 1.90184 35.1282 1.8786 35.1444C1.87086 35.1497 1.8658 35.159 1.86343 35.1721L1.89295 35.1774C1.8852 35.1828 1.86493 35.1825 1.83212 35.1766L1.71404 35.1553C1.69973 35.1595 1.65978 35.1556 1.59417 35.1438L1.53513 35.1331Z" fill="var(--fill-0, #62D732)"/>
</g>
</svg>
