<svg preserveAspectRatio="none" width="100%" height="100%" overflow="visible" style="display: block;" viewBox="0 0 47.2897 48.2842" fill="none" xmlns="http://www.w3.org/2000/svg">
<g id="Group 906">
<g id="Group 886">
<path id="Vector 112" d="M6.78212 20.4362C7.57702 17.6462 10.9998 13.0576 18.3315 17.0228C20.7919 15.5084 26.5078 13.2429 29.6882 16.2961C32.9009 19.3802 34.7981 24.0221 35.4079 26.3893C35.3697 25.6385 35.5699 25.0527 36.4046 25.5407C38.0288 26.4902 50.5951 44.2926 29.6882 47.1063C9.05539 49.883 4.72811 44.6068 2.49175 36.5823C2.31617 35.8576 2.49571 34.0366 4.61855 32.5507C3.96008 31.7939 2.46032 30.1978 1.72912 29.8676C0.997915 29.5374 0.874079 28.2558 0.903562 27.6563C0.556484 27.3725 0.029325 26.5473 0.697312 25.5175C1.5323 24.2302 3.50816 21.1998 6.78212 20.4362Z" fill="var(--fill-0, #62D732)"/>
<path id="Vector 133" d="M2.96333 37.5926C3.50983 34.4087 4.63623 33.3534 6.02398 33.0872L5.03787 32.6632C3.04194 33.3998 2.58257 35.762 2.60237 36.8511L2.96333 37.5926Z" fill="var(--fill-0, #FFE598)"/>
<path id="Vector 130" d="M11.9086 20.7387C6.10645 21.1446 4.8629 22.2035 4.0647 22.9228H3.10951C4.66205 21.4228 6.74089 20.9755 7.24086 20.7387C7.64084 20.5492 11.6104 20.5808 11.9086 20.7387Z" fill="var(--fill-0, #FFE598)"/>
<path id="Vector 129" d="M12.9604 20.1171C12.9604 18.3795 14.5802 16.7671 15.3901 16.1781C15.8345 15.8089 17.6454 16.6729 18.4953 17.151C17.2156 18.1053 16.6969 20.1695 16.5975 21.0823C15.4479 21.7113 14.3471 23.3507 13.9404 24.0918L11.9883 23.2242C10.9038 22.2698 12.1845 20.7551 12.9604 20.1171Z" fill="var(--fill-0, #226D29)"/>
<path id="Vector 119 (Stroke)" fill-rule="evenodd" clip-rule="evenodd" d="M26.9235 25.626C20.2691 21.1707 15.695 22.9959 14.3011 24.3272L14.1221 24.4982L13.9024 24.3842C8.81548 21.7448 4.07463 23.1527 2.37352 24.1596C2.20891 24.2571 1.99647 24.2026 1.89903 24.038C1.80159 23.8734 1.85604 23.661 2.02065 23.5635C3.86021 22.4746 8.74899 21.0379 14.0075 23.6605C15.8408 22.1117 20.6784 20.6111 27.3089 25.0504C27.4678 25.1568 27.5104 25.372 27.404 25.5309C27.2976 25.6899 27.0825 25.7325 26.9235 25.626Z" fill="var(--fill-0, black)"/>
<path id="Vector 115" d="M21.5161 25.3891C17.9844 24.4012 14.4466 25.8007 13.1191 26.624C12.8969 27.1673 13.397 28.1675 13.6748 28.5997C17.7992 31.8351 24.3666 29.2686 27.1347 27.581C25.4368 27.6736 25.9307 26.624 21.5161 25.3891Z" fill="var(--fill-0, white)"/>
<path id="Vector 115 (Stroke)" fill-rule="evenodd" clip-rule="evenodd" d="M13.364 26.8134C13.3514 26.8804 13.3489 26.9651 13.3606 27.0687C13.3773 27.2168 13.4207 27.3839 13.4821 27.557C13.5972 27.8814 13.7652 28.1983 13.8925 28.4029C15.8572 29.92 18.4141 30.0907 20.8632 29.6523C22.9043 29.2869 24.8347 28.5039 26.2098 27.7744C26.1572 27.758 26.1056 27.7396 26.0547 27.7192C25.8046 27.6191 25.5746 27.472 25.3227 27.3109C25.2793 27.2832 25.2354 27.2551 25.1905 27.2268C24.5721 26.8356 23.6176 26.2764 21.439 25.667C18.0919 24.7308 14.7186 26.009 13.364 26.8134ZM12.9677 26.3787C14.3343 25.5311 17.9569 24.0936 21.5945 25.1111C23.8306 25.7366 24.8364 26.3197 25.4991 26.7389C25.5491 26.7705 25.5963 26.8006 25.641 26.8291C25.896 26.9916 26.0737 27.105 26.2693 27.1832C26.4837 27.2691 26.7277 27.3141 27.1197 27.2928L27.2856 27.8274C25.8773 28.686 23.51 29.7649 20.9649 30.2206C18.4233 30.6756 15.652 30.517 13.4973 28.8268L13.459 28.7968L13.4327 28.7558C13.2844 28.5252 13.079 28.1472 12.9381 27.75C12.8675 27.5511 12.8102 27.3393 12.787 27.1335C12.764 26.9302 12.7719 26.712 12.8526 26.5147L12.8881 26.428L12.9677 26.3787Z" fill="var(--fill-0, black)"/>
<path id="Vector 114" d="M13.1026 26.4797C6.39624 23.3744 2.08847 25.7947 0.772877 27.393C3.25186 31.1767 10.591 29.9263 13.9506 28.8282C13.2722 28.4368 13.1026 27.0994 13.1026 26.4797Z" fill="var(--fill-0, white)"/>
<path id="Vector 114 (Stroke)" fill-rule="evenodd" clip-rule="evenodd" d="M1.1393 27.4136C2.33201 29.042 4.58051 29.6304 7.03512 29.6526C9.33524 29.6733 11.7329 29.1944 13.3956 28.6992C13.2028 28.4379 13.0776 28.1157 12.995 27.8163C12.883 27.4106 12.8331 26.9877 12.8192 26.6668C6.54922 23.8316 2.50976 25.9371 1.1393 27.4136ZM0.551051 27.2094C1.95818 25.5 6.41123 23.0627 13.2249 26.2176L13.3922 26.2951L13.3922 26.4796C13.3922 26.7692 13.4325 27.2319 13.5514 27.6626C13.6749 28.1098 13.8613 28.4427 14.0959 28.5781L14.6564 28.9014L14.0413 29.1024C12.3404 29.6584 9.63385 30.2533 7.02992 30.2298C4.44317 30.2065 1.85547 29.5704 0.532469 27.5511L0.416083 27.3734L0.551051 27.2094Z" fill="var(--fill-0, black)"/>
<path id="Vector 128" d="M33.0753 27.8862C29.6881 24.7663 33.0753 23.5111 29.2532 16.1633C31.9867 16.6171 34.0106 22.2247 35.0263 25.1612C37.2954 25.9596 38.9772 28.4002 39.5345 29.5207C43.3599 37.5043 40.5016 41.0106 39.5345 42.7029C38.5675 44.3951 33.9742 46.0874 27.5074 47.2961C21.0405 48.5049 14.2503 47.3676 12.2536 46.8901C10.6563 46.5081 8.89687 45.0815 8.21685 44.416C12.557 45.9327 23.0779 48.1248 30.4408 44.7589C39.6444 40.5516 37.3095 31.786 33.0753 27.8862Z" fill="var(--fill-0, #226D29)"/>
<path id="Vector 131" d="M15.8487 16.088C9.55209 15.8709 8.11052 18.6878 7.59527 20.5034L6.80184 20.7923C6.03285 19.6162 9.38019 15.7713 9.06355 16.676C11.9947 15.0114 14.8083 15.5904 15.8487 16.088Z" fill="var(--fill-0, #FFE598)"/>
<path id="Vector 113 (Stroke)" fill-rule="evenodd" clip-rule="evenodd" d="M30.0037 22.3958C24.1671 18.2537 18.9554 19.9966 17.1198 21.3323L16.9767 21.4364L16.8085 21.3815C15.7546 21.0372 13.9965 20.8225 12.1425 20.7623C10.2936 20.7024 8.39482 20.7975 7.06977 21.0524C3.82152 21.677 2.02851 24.1414 1.00094 25.7294C0.640268 26.2868 0.653864 26.7015 0.75358 26.9886C0.860438 27.2963 1.08646 27.5127 1.22444 27.6131L0.817004 28.1733C0.61064 28.0232 0.268156 27.7023 0.099206 27.2159C-0.0768851 26.7089 -0.0464031 26.0729 0.419353 25.3531C1.45786 23.7481 3.38763 21.055 6.93895 20.3721C8.33373 20.1039 10.2889 20.0091 12.165 20.07C13.9476 20.1278 15.7002 20.3273 16.8562 20.6709C19.009 19.2056 24.4346 17.5941 30.4046 21.8309C30.5606 21.9416 30.5973 22.1578 30.4866 22.3138C30.3759 22.4698 30.1597 22.5065 30.0037 22.3958Z" fill="var(--fill-0, black)"/>
<path id="Vector 116 (Stroke)" fill-rule="evenodd" clip-rule="evenodd" d="M28.5686 27.6292C27.9468 27.7422 27.2874 27.8906 26.8712 27.9927L26.7063 27.3199C27.1324 27.2154 27.8059 27.0637 28.4448 26.9476C28.764 26.8896 29.0787 26.8398 29.3517 26.8094C29.6148 26.78 29.8709 26.7648 30.0565 26.7908C30.246 26.8174 30.378 26.9925 30.3514 27.1819C30.3248 27.3714 30.1497 27.5034 29.9603 27.4768C29.8688 27.464 29.6893 27.4688 29.4284 27.4978C29.1774 27.5258 28.8797 27.5727 28.5686 27.6292Z" fill="var(--fill-0, black)"/>
<path id="Vector 132" d="M29.4199 16.325C23.3332 14.1087 18.9399 17.3585 17.1107 20.5683C16.8817 18.6592 18.7242 17.0438 19.6864 16.4774C25.3876 13.3293 28.5852 15.1884 28.8579 15.3123C29.076 15.4115 29.2029 15.8596 29.4199 16.325Z" fill="var(--fill-0, #FFE598)"/>
<path id="Vector 120 (Stroke)" fill-rule="evenodd" clip-rule="evenodd" d="M19.8077 16.4822C19.8768 16.6258 19.8164 16.7983 19.6728 16.8675C19.2112 17.0897 18.5198 17.5725 17.9818 18.2842C17.4474 18.991 17.0719 19.9122 17.2051 21.0289L17.2298 21.2357L17.0413 21.3243C16.6828 21.4927 16.1067 21.841 15.572 22.3275C15.0353 22.8157 14.5637 23.4219 14.3737 24.1019C14.3308 24.2555 14.1715 24.3451 14.018 24.3022C13.8645 24.2593 13.7748 24.1001 13.8177 23.9466C14.0483 23.1211 14.6053 22.4266 15.1835 21.9005C15.6822 21.4468 16.2141 21.1026 16.6123 20.8933C16.5244 19.6886 16.9501 18.6917 17.5213 17.9361C18.1207 17.1432 18.8877 16.6048 19.4224 16.3474C19.566 16.2782 19.7385 16.3386 19.8077 16.4822Z" fill="var(--fill-0, black)"/>
<path id="Vector 117 (Stroke)" fill-rule="evenodd" clip-rule="evenodd" d="M23.9716 15.3167C21.8596 15.6407 19.9033 16.6226 18.6949 17.486L18.4485 17.6621L18.2103 17.4749C17.6643 17.0459 16.8635 16.7016 16.0551 16.4467C15.2608 16.1962 14.4963 16.0435 14.0373 15.9796C11.4466 15.7895 9.76404 16.5563 8.69703 17.5637C7.61595 18.5844 7.13348 19.884 7.012 20.7895C6.98233 21.0107 6.77896 21.166 6.55777 21.1363C6.33658 21.1066 6.18133 20.9033 6.211 20.6821C6.35282 19.6249 6.90478 18.1444 8.14221 16.9761C9.39198 15.7961 11.3083 14.9659 14.11 15.1746L14.1225 15.1755L14.135 15.1772C14.6349 15.2459 15.4506 15.4087 16.2981 15.6759C17.0395 15.9097 17.8352 16.2326 18.4656 16.6614C19.7631 15.7852 21.7223 14.8441 23.8491 14.5179C26.1211 14.1693 28.6188 14.5202 30.6732 16.444C32.5936 18.2422 33.7664 19.9005 34.5567 21.726C35.343 23.542 35.7417 25.5044 36.1396 27.8835C36.1764 28.1036 36.0278 28.3119 35.8076 28.3487C35.5875 28.3855 35.3793 28.2369 35.3425 28.0168C34.9452 25.6411 34.5587 23.7647 33.8151 22.0471C33.0755 20.339 31.9738 18.7691 30.1208 17.0339C28.2969 15.326 26.0744 14.9941 23.9716 15.3167Z" fill="var(--fill-0, black)"/>
<path id="Vector 118 (Stroke)" fill-rule="evenodd" clip-rule="evenodd" d="M26.6187 26.5546C20.6474 22.5847 15.4251 24.183 13.5992 25.4315L13.4677 25.5213L13.3216 25.4581C7.01626 22.7279 2.37687 24.7683 0.882783 26.0713C0.762643 26.176 0.580315 26.1636 0.475542 26.0434C0.370769 25.9233 0.383228 25.741 0.503368 25.6362C2.15298 24.1976 6.96961 22.1405 13.4068 24.8666C15.5127 23.5176 20.8865 22.0524 26.9349 26.0717C26.9344 26.0712 26.9353 26.0715 26.9381 26.0724C26.9513 26.0765 27.0059 26.0937 27.1339 26.103C27.2794 26.1136 27.4818 26.1122 27.7461 26.0941C28.2736 26.058 29.0211 25.9578 30.0002 25.7746C30.1569 25.7453 30.3076 25.8486 30.3369 26.0053C30.3663 26.162 30.263 26.3128 30.1063 26.3421C29.1155 26.5274 28.3438 26.6319 27.7855 26.67C27.5069 26.6891 27.2748 26.6921 27.0919 26.6787C26.9251 26.6666 26.7475 26.6383 26.6213 26.5564L26.62 26.5555L26.6187 26.5546Z" fill="var(--fill-0, black)"/>
<path id="Ellipse 17" d="M21.7263 27.5988C21.7263 28.8472 20.6285 29.8593 19.2743 29.8593C17.9201 29.8593 16.8223 28.8472 16.8223 27.5988C16.8223 26.3504 17.9201 25.3383 19.2743 25.3383C20.6285 25.3383 21.7263 26.3504 21.7263 27.5988Z" fill="var(--fill-0, black)"/>
<path id="Ellipse 19" d="M20.3192 26.9232C20.2722 27.1459 20.0194 27.281 19.7544 27.2252C19.4895 27.1693 19.3127 26.9435 19.3597 26.7208C19.4067 26.4982 19.6595 26.363 19.9245 26.4189C20.1894 26.4747 20.3662 26.7005 20.3192 26.9232Z" fill="var(--fill-0, white)"/>
<path id="Ellipse 20" d="M19.396 28.3234C19.329 28.6409 18.9684 28.8338 18.5905 28.7541C18.2126 28.6744 17.9606 28.3523 18.0276 28.0348C18.0946 27.7172 18.4552 27.5244 18.8331 27.6041C19.2109 27.6838 19.463 28.0058 19.396 28.3234Z" fill="var(--fill-0, white)"/>
<path id="Vector 121 (Stroke)" fill-rule="evenodd" clip-rule="evenodd" d="M34.9371 24.9971C35.0294 24.7939 35.2689 24.704 35.4721 24.7963C37.9018 25.8998 42.7449 30.0983 41.8668 38.4919C41.3866 43.0814 37.3503 45.5758 32.709 46.8877C28.0433 48.2066 22.5829 48.3905 18.8883 48.2401C16.4885 48.2075 12.7848 47.6347 9.43324 46.0158C6.07511 44.3937 3.02729 41.6971 2.06099 37.4048C1.81524 36.3831 1.90841 34.1344 3.93658 32.5757C3.34151 32.1213 2.6114 31.4962 1.96759 30.805C1.55494 30.3619 1.16995 29.8835 0.878665 29.3981C0.589697 28.9166 0.376908 28.4019 0.342882 27.8915C0.328037 27.6688 0.496518 27.4762 0.719196 27.4614C0.941873 27.4465 1.13442 27.615 1.14927 27.8377C1.17139 28.1695 1.31643 28.557 1.57163 28.9823C1.82453 29.4037 2.17007 29.8366 2.55897 30.2541C3.33726 31.0897 4.258 31.8304 4.86414 32.2535L5.3666 32.6041L4.84639 32.9279C2.72458 34.2485 2.63968 36.3596 2.84731 37.2181L2.84808 37.2213L2.84879 37.2245C3.74248 41.199 6.56289 43.7318 9.78475 45.2881C13.0114 46.8467 16.5972 47.4015 18.9045 47.4321L18.9101 47.4322L18.9157 47.4324C22.5714 47.5816 27.9383 47.3964 32.4892 46.11C37.0669 44.816 40.6383 42.4672 41.063 38.4078C41.8995 30.412 37.3012 26.5147 35.1379 25.5321C34.9347 25.4398 34.8448 25.2003 34.9371 24.9971Z" fill="var(--fill-0, black)"/>
<path id="Ellipse 18" d="M9.81447 27.5988C9.81447 28.8472 8.71666 29.8593 7.36244 29.8593C6.00822 29.8593 4.91042 28.8472 4.91042 27.5988C4.91042 26.3504 6.00822 25.3383 7.36244 25.3383C8.71666 25.3383 9.81447 26.3504 9.81447 27.5988Z" fill="var(--fill-0, black)"/>
<path id="Ellipse 21" d="M8.41583 27.0037C8.36887 27.2263 8.11601 27.3615 7.85106 27.3056C7.5861 27.2497 7.40938 27.0239 7.45634 26.8013C7.5033 26.5786 7.75616 26.4434 8.02112 26.4993C8.28607 26.5552 8.46279 26.781 8.41583 27.0037Z" fill="var(--fill-0, white)"/>
<path id="Ellipse 22" d="M7.49346 28.404C7.42648 28.7216 7.06585 28.9144 6.68797 28.8347C6.31009 28.755 6.05805 28.4329 6.12503 28.1154C6.192 27.7978 6.55263 27.605 6.93051 27.6847C7.30839 27.7644 7.56043 28.0865 7.49346 28.404Z" fill="var(--fill-0, white)"/>
<path id="Vector 122" d="M1.8554 37.1507C3.41001 38.0693 6.30138 38.9173 7.55274 39.2265C12.293 40.4668 24.0456 37.6381 27.0043 37.1507C31.844 36.3534 30.8332 41.8151 28.6142 41.7716C26.3951 41.7281 20.9563 42.7723 18.4762 43.4396C15.9961 44.1068 7.02948 44.5089 4.52209 43.4396C2.01469 42.3702 3.89524 40.7109 3.63712 40.6372C3.43063 40.5782 2.36327 40.0254 1.8554 39.7565C-0.123225 38.0605 1.03097 37.3126 1.8554 37.1507Z" fill="var(--fill-0, #FC6745)"/>
<path id="Vector 122 (Stroke)" fill-rule="evenodd" clip-rule="evenodd" d="M30.2678 41.1487C29.8951 41.704 29.3184 42.1317 28.6082 42.1177C27.536 42.0967 25.6518 42.3409 23.7033 42.6801C21.7631 43.018 19.7941 43.4438 18.567 43.7739C17.2825 44.1195 14.3837 44.3866 11.5163 44.4369C10.0762 44.4622 8.63062 44.433 7.38364 44.3296C6.14867 44.2271 5.06931 44.049 4.38704 43.758C3.72007 43.4736 3.2953 43.1293 3.06446 42.7362C2.82909 42.3354 2.82271 41.9309 2.8989 41.5895C2.96757 41.2817 3.10598 41.0134 3.20614 40.8303C3.203 40.8289 3.19985 40.8274 3.1967 40.8259C3.05553 40.7597 2.8837 40.675 2.70443 40.5848C2.34552 40.4043 1.94946 40.1976 1.69411 40.0624L1.66006 40.0444L1.63081 40.0193C0.631586 39.1628 0.256007 38.4092 0.477572 37.7655C0.584033 37.4561 0.812278 37.2386 1.04812 37.0929C1.28458 36.9468 1.55265 36.8572 1.78946 36.8107L1.91888 36.7853L2.03243 36.8524C3.53888 37.7426 6.38538 38.581 7.63664 38.8901L7.63894 38.8907L7.64124 38.8913C8.77288 39.1873 10.3525 39.2458 12.1579 39.1479C13.9561 39.0504 15.9492 38.7998 17.8936 38.4942C19.8372 38.1887 21.7267 37.8292 23.3171 37.5151C23.7631 37.4271 24.1867 37.3423 24.5817 37.2633C25.5898 37.0617 26.4122 36.8972 26.9488 36.8088C28.2158 36.6001 29.1636 36.791 29.8136 37.2618C30.4662 37.7345 30.7606 38.4474 30.8028 39.1578C30.8447 39.8632 30.6414 40.592 30.2678 41.1487ZM3.32568 40.6061C3.32563 40.6062 3.32557 40.6063 3.32552 40.6065C3.32774 40.5992 3.32873 40.5985 3.32568 40.6061ZM29.4073 37.8228C28.955 37.4952 28.2142 37.3024 27.0614 37.4923C26.5373 37.5787 25.7338 37.7394 24.733 37.9395C24.3352 38.0191 23.9063 38.1049 23.4513 38.1947C21.8578 38.5094 19.9581 38.8709 18.0012 39.1785C16.0452 39.4859 14.0264 39.7404 12.1954 39.8396C10.3726 39.9385 8.70648 39.8855 7.46822 39.562C6.24647 39.26 3.42599 38.4374 1.80134 37.5189C1.66446 37.556 1.52784 37.6108 1.41223 37.6822C1.26162 37.7752 1.1704 37.881 1.13259 37.9909C1.06627 38.1836 1.10152 38.6446 2.05272 39.4684C2.30549 39.602 2.67808 39.7961 3.01578 39.966C3.19265 40.055 3.35811 40.1364 3.49102 40.1988C3.55759 40.2301 3.61409 40.2556 3.65874 40.2747C3.68104 40.2842 3.69902 40.2915 3.71292 40.2968C3.72779 40.3024 3.73371 40.3042 3.7331 40.304C3.7976 40.3224 3.873 40.3622 3.93101 40.4379C3.98756 40.5117 4.00504 40.5903 4.00858 40.6476C4.01466 40.7459 3.98248 40.8293 3.9688 40.8635C3.94048 40.9342 3.89225 41.0212 3.85154 41.0945C3.84612 41.1043 3.84083 41.1138 3.83574 41.1231C3.73492 41.3057 3.62531 41.5149 3.575 41.7403C3.52675 41.9566 3.53649 42.172 3.6618 42.3854C3.79163 42.6065 4.07206 42.8706 4.65878 43.1208C5.2302 43.3645 6.21196 43.5372 7.44094 43.6392C8.65791 43.7402 10.0791 43.7693 11.5041 43.7443C14.3669 43.6941 17.1915 43.4266 18.3871 43.105C19.64 42.7679 21.6305 42.3379 23.5845 41.9977C25.5302 41.6589 27.4749 41.4027 28.6218 41.4252C29.0211 41.433 29.4029 41.1943 29.6926 40.7627C29.9813 40.3324 30.1443 39.7538 30.1113 39.1989C30.0786 38.6489 29.857 38.1486 29.4073 37.8228Z" fill="var(--fill-0, black)"/>
<path id="Vector 123 (Stroke)" fill-rule="evenodd" clip-rule="evenodd" d="M24.9485 40.2453C23.4808 40.4814 21.7945 40.8231 20.6896 41.0659L20.6798 41.0681L20.6699 41.0697C11.055 42.6048 4.65562 41.3383 2.61009 40.4799C2.4337 40.4059 2.35071 40.2029 2.42474 40.0265C2.49876 39.8501 2.70176 39.7671 2.87814 39.8412C4.76818 40.6343 11.0243 41.9067 20.5508 40.3872C21.6635 40.1428 23.358 39.7995 24.8385 39.5613C25.58 39.4421 26.275 39.348 26.8189 39.3066C27.0899 39.286 27.3328 39.2777 27.5292 39.2879C27.6272 39.293 27.722 39.3031 27.8071 39.3215C27.8856 39.3385 27.9883 39.3691 28.0769 39.4349C28.2305 39.5489 28.2626 39.7658 28.1486 39.9194C28.0392 40.0669 27.835 40.1024 27.683 40.0042C27.6784 40.0029 27.6712 40.0009 27.6607 39.9986C27.625 39.9909 27.5703 39.9837 27.4932 39.9797C27.3395 39.9717 27.13 39.9777 26.8715 39.9973C26.3563 40.0365 25.6834 40.1271 24.9485 40.2453Z" fill="var(--fill-0, black)"/>
<path id="Vector 124 (Stroke)" fill-rule="evenodd" clip-rule="evenodd" d="M14.0601 31.8407C14.1336 32.0173 14.05 32.2201 13.8734 32.2936C8.681 34.4543 4.85722 33.2168 3.53785 32.2535C3.38336 32.1407 3.34956 31.924 3.46236 31.7695C3.57516 31.615 3.79184 31.5812 3.94634 31.694C5.04682 32.4975 8.61013 33.7335 13.6073 31.654C13.7839 31.5805 13.9866 31.6641 14.0601 31.8407Z" fill="var(--fill-0, black)"/>
<path id="Vector 125 (Stroke)" fill-rule="evenodd" clip-rule="evenodd" d="M28.1612 28.4942C28.254 28.6615 28.1936 28.8723 28.0263 28.9651C23.4182 31.521 20.137 32.1192 17.9016 31.9948C15.6571 31.8699 14.5031 31.0182 14.156 30.7579C13.8177 30.5042 13.6356 30.1208 13.5324 29.7566C13.4281 29.3886 13.3924 28.9973 13.3775 28.6783C13.3686 28.4872 13.5163 28.3251 13.7074 28.3162C13.8985 28.3073 14.0606 28.455 14.0695 28.6461C14.0835 28.9465 14.1161 29.2757 14.1988 29.5677C14.2827 29.8636 14.4063 30.0798 14.5716 30.2038L14.5741 30.2056C14.8601 30.4201 15.885 31.1888 17.9401 31.3032C20.0103 31.4183 23.1616 30.8712 27.6903 28.3593C27.8576 28.2665 28.0684 28.3269 28.1612 28.4942Z" fill="var(--fill-0, black)"/>
<path id="Vector 126 (Stroke)" fill-rule="evenodd" clip-rule="evenodd" d="M14.3183 31.8148C14.4002 31.9877 14.3264 32.1942 14.1535 32.2761C13.3913 32.6371 12.2368 33.2206 11.2517 33.796C10.7583 34.0843 10.3154 34.3659 9.98732 34.6132C9.82291 34.7371 9.69488 34.8468 9.60555 34.9395C9.56111 34.9855 9.53031 35.0232 9.51028 35.0524C9.49251 35.0783 9.4879 35.0908 9.48783 35.0907C9.4348 35.2739 9.24352 35.3799 9.05998 35.3274C8.87605 35.2749 8.76955 35.0832 8.82209 34.8993C8.87058 34.7295 8.99071 34.5791 9.10692 34.4586C9.23136 34.3296 9.39093 34.1953 9.57032 34.06C9.9299 33.789 10.3994 33.4916 10.9023 33.1979C11.9098 32.6093 13.0833 32.0166 13.857 31.6501C14.0299 31.5682 14.2364 31.6419 14.3183 31.8148Z" fill="var(--fill-0, black)"/>
<path id="Vector 127 (Stroke)" fill-rule="evenodd" clip-rule="evenodd" d="M15.4575 32.4074C15.5347 32.2324 15.7391 32.1531 15.9141 32.2304C16.5518 32.5117 17.6212 32.9248 18.7438 33.2441C19.8784 33.5667 21.0188 33.779 21.8203 33.6947C22.0106 33.6746 22.181 33.8126 22.201 34.0029C22.2211 34.1931 22.0831 34.3636 21.8928 34.3836C20.95 34.4828 19.6996 34.2361 18.5543 33.9104C17.397 33.5813 16.2975 33.1566 15.6345 32.8641C15.4595 32.7869 15.3802 32.5825 15.4575 32.4074Z" fill="var(--fill-0, black)"/>
</g>
<path id="Vector 380" d="M21.2148 5.53495C30.9713 3.85007 53.5826 12.5352 44.8815 35.2025C36.9312 22.3112 18.8638 17.666 21.2148 5.53495Z" fill="var(--fill-0, #A2A6A9)"/>
<path id="Vector 380 (Stroke)" fill-rule="evenodd" clip-rule="evenodd" d="M21.6047 5.9339C20.6755 11.5462 24.3391 15.5111 29.4734 19.7323C30.4243 20.5141 31.4236 21.3028 32.4465 22.1101C36.7596 25.5139 41.491 29.2479 44.7707 34.1871C46.6208 28.9666 46.7534 24.5528 45.7856 20.8836C44.7651 17.0152 42.511 13.9347 39.6786 11.5873C34.1144 6.97599 26.3765 5.24058 21.6047 5.9339ZM46.6656 20.6514C47.7428 24.7351 47.5087 29.6265 45.3056 35.3659L44.9761 36.2243L44.4934 35.4417C41.3004 30.2643 36.4607 26.442 31.9309 22.8645C30.8951 22.0464 29.8754 21.2412 28.8954 20.4354C23.6908 16.1563 19.5361 11.8013 20.7672 5.44861L20.827 5.14021L21.1366 5.08675C26.1526 4.22052 34.3776 6.01198 40.2594 10.8865C43.2117 13.3332 45.5887 16.5689 46.6656 20.6514Z" fill="var(--fill-0, black)"/>
<path id="Vector 362" d="M42.837 41.9647C45.2507 39.3211 44.3216 30.1038 43.5554 25.8255C43.5554 23.5276 41.8289 19.6384 40.9657 17.981C37.4291 17.3379 26.0282 9.47736 20.7699 5.62745C19.9464 6.09481 16.6705 8.03765 10.1543 12.0702C3.63815 16.1028 1.50977 22.0405 1.2601 24.5053C14.8452 10.1715 34.9139 26.9726 35.5485 27.5165C36.0561 27.9516 37.522 35.8294 38.1915 39.7139C38.7343 41.5656 40.4233 44.6083 42.837 41.9647Z" fill="var(--fill-0, #D9D9D9)"/>
<path id="Vector 362 (Stroke)" fill-rule="evenodd" clip-rule="evenodd" d="M20.8008 5.08644L21.0383 5.26031C23.662 7.1813 27.8188 10.1032 31.7583 12.6235C33.7284 13.8839 35.6387 15.0403 37.2729 15.9202C38.9248 16.8096 40.2422 17.387 41.0467 17.5333L41.266 17.5731L41.3689 17.7708C41.8083 18.6144 42.4639 20.0188 43.0109 21.506C43.5467 22.9625 43.9999 24.5547 44.0099 25.7843C44.3944 27.9434 44.8169 31.3221 44.8433 34.5044C44.8566 36.1046 44.77 37.67 44.5224 39.012C44.2774 40.3396 43.8636 41.5149 43.1726 42.2716C42.5266 42.9792 41.8747 43.3665 41.2202 43.4409C40.5564 43.5164 39.9821 43.2601 39.5204 42.8743C38.6241 42.1252 38.0339 40.7956 37.7544 39.8419L37.7471 39.8169L37.7427 39.7912C37.4084 37.8517 36.8754 34.9161 36.363 32.413C36.1067 31.1605 35.8566 30.0219 35.64 29.1721C35.5315 28.7461 35.4334 28.4008 35.349 28.1527C35.3066 28.028 35.2707 27.937 35.2421 27.8761C35.2338 27.8583 35.2272 27.8456 35.2225 27.8371C34.7071 27.4016 29.6646 23.2504 23.1045 20.8593C16.3926 18.413 8.2042 17.8396 1.58998 24.8184L0.672499 25.7865L0.806912 24.4595C1.06955 21.8667 3.26764 15.7967 9.91444 11.6833C16.4306 7.65075 19.7131 5.70379 20.5448 5.23172L20.8008 5.08644ZM20.7397 6.16945C19.6135 6.82239 16.3684 8.75957 10.3934 12.4572C5.05218 15.7627 2.73827 20.3651 1.98574 23.1496C8.7586 16.9078 16.8822 17.6227 23.4161 20.0042C30.2871 22.5086 35.5121 26.8864 35.8442 27.171C35.9566 27.2673 36.0262 27.4045 36.0659 27.489C36.1149 27.5932 36.1632 27.7198 36.2108 27.8597C36.3064 28.141 36.4113 28.5129 36.522 28.9473C36.744 29.8183 36.9974 30.9735 37.2547 32.2305C37.7673 34.7348 38.2996 37.6653 38.6351 39.6105C38.9007 40.5044 39.4231 41.6068 40.1041 42.1759C40.4341 42.4517 40.7686 42.5762 41.1173 42.5366C41.4753 42.4959 41.9397 42.2721 42.5005 41.6579C43.0164 41.0929 43.3916 40.1246 43.6273 38.8468C43.8604 37.5833 43.9462 36.0813 43.9332 34.5119C43.9071 31.3743 43.4869 28.0268 43.107 25.9058L43.0999 25.866V25.8256C43.0999 24.7628 42.694 23.2808 42.1567 21.8202C41.6642 20.4813 41.0799 19.2088 40.6595 18.3815C39.7041 18.1554 38.363 17.5409 36.8414 16.7216C35.1789 15.8264 33.2472 14.6565 31.2678 13.3902C27.4259 10.9323 23.3833 8.09776 20.7397 6.16945Z" fill="var(--fill-0, black)"/>
<path id="Vector 371" d="M12.6116 17.2764C12.825 14.9289 15.3555 10.6912 15.4165 10.6455C12.6483 11.7918 11.5498 13.0032 11.3466 13.4655C11.1128 14.0296 10.5966 15.2978 10.4015 15.8588C10.1576 16.56 9.89839 17.5203 10.2033 17.6117C10.4471 17.6849 11.9105 17.4187 12.6116 17.2764Z" fill="var(--fill-0, #94989D)"/>
<path id="Vector 371 (Stroke)" fill-rule="evenodd" clip-rule="evenodd" d="M11.4507 13.5104C11.2164 14.0758 10.7021 15.3394 10.5084 15.8963C10.3871 16.245 10.2639 16.6533 10.2083 16.983C10.1803 17.149 10.1711 17.2863 10.1836 17.3834C10.197 17.4866 10.2274 17.5005 10.2354 17.5029C10.2481 17.5067 10.2826 17.5111 10.3465 17.5106C10.4068 17.51 10.4832 17.5054 10.5729 17.4971C10.7519 17.4805 10.977 17.45 11.218 17.4126C11.6634 17.3434 12.1581 17.2511 12.5064 17.1815C12.6391 15.9915 13.3177 14.3738 13.9686 13.0478C14.3032 12.3662 14.633 11.7568 14.883 11.3149C14.977 11.1487 15.0598 11.0061 15.1275 10.892C13.9276 11.4164 13.0734 11.9461 12.4891 12.4018C11.8498 12.9005 11.5417 13.3043 11.4507 13.5104ZM12.3492 12.2224C13.0045 11.7113 13.9804 11.117 15.3725 10.5405L15.4843 10.7367C15.4922 10.7307 15.498 10.7245 15.5005 10.7215C15.4998 10.7224 15.4985 10.7242 15.4965 10.7271C15.4911 10.7349 15.4831 10.7468 15.4725 10.7634C15.4514 10.7963 15.4215 10.8443 15.3841 10.9063C15.3093 11.03 15.2052 11.2075 15.081 11.4269C14.8328 11.8657 14.5052 12.4711 14.1728 13.1481C13.5055 14.5075 12.829 16.1365 12.7245 17.2868L12.7168 17.3712L12.6338 17.388C12.2821 17.4594 11.7391 17.5619 11.2529 17.6374C11.01 17.6752 10.7797 17.7064 10.5939 17.7236C10.501 17.7322 10.4176 17.7375 10.3485 17.7381C10.2829 17.7386 10.2183 17.7353 10.1701 17.7209L10.2017 17.6155L10.1701 17.7209C10.0257 17.6775 9.97413 17.5371 9.95799 17.4126C9.94105 17.282 9.95472 17.1182 9.9839 16.9451C10.0427 16.5965 10.1709 16.174 10.2935 15.8215C10.4899 15.2568 11.0076 13.9853 11.241 13.4221L11.2419 13.4199L11.2419 13.4199C11.3547 13.1633 11.6974 12.7308 12.3492 12.2224ZM15.501 10.7209C15.5024 10.7191 15.5021 10.7196 15.5005 10.7215C15.5007 10.7212 15.5009 10.721 15.501 10.7209Z" fill="var(--fill-0, black)"/>
<path id="Vector 372" d="M8.9409 17.7478C8.99097 17.2476 9.45154 14.7048 9.67557 13.496C8.73766 13.7461 7.28391 15.2155 7.26828 15.4187C7.25577 15.5813 7.03377 17.6957 6.92433 18.7326C6.92433 18.5951 8.26871 18.0188 8.9409 17.7478Z" fill="var(--fill-0, #94989D)"/>
<path id="Vector 372 (Stroke)" fill-rule="evenodd" clip-rule="evenodd" d="M9.81861 13.3398L9.7858 13.5169C9.5611 14.7294 9.10192 17.2652 9.05247 17.7593L9.04561 17.8278L8.9818 17.8535C8.64674 17.9886 8.14455 18.1996 7.72684 18.3936C7.5176 18.4908 7.33191 18.5826 7.19948 18.6579C7.13277 18.6958 7.08311 18.7276 7.05139 18.7521C7.03559 18.7643 7.02783 18.772 7.02502 18.7753C7.02777 18.7712 7.0336 18.7607 7.0357 18.7447L6.80893 18.7328C6.80893 18.7258 6.80947 18.719 6.81043 18.7126C6.92036 17.671 7.1409 15.5701 7.15321 15.4101C7.15609 15.3726 7.17249 15.3375 7.18558 15.313C7.20053 15.285 7.22049 15.2542 7.24362 15.2219C7.29007 15.1571 7.35482 15.0786 7.4329 14.9918C7.58942 14.8178 7.80516 14.6041 8.04934 14.3896C8.29352 14.1751 8.56792 13.9581 8.84191 13.7784C9.1145 13.5995 9.39303 13.4533 9.64462 13.3862L9.81861 13.3398ZM7.0645 18.473C7.0719 18.4687 7.07942 18.4644 7.08704 18.4601C7.22769 18.3801 7.42011 18.2852 7.63099 18.1872C8.028 18.0028 8.49879 17.804 8.83388 17.6679C8.90851 17.0655 9.30326 14.8778 9.52693 13.6654C9.35295 13.735 9.16241 13.8402 8.96672 13.9686C8.70385 14.1411 8.43798 14.351 8.19953 14.5605C7.96108 14.77 7.75183 14.9775 7.60207 15.144C7.52701 15.2274 7.46829 15.299 7.42858 15.3544C7.40864 15.3823 7.39484 15.4041 7.38632 15.4201C7.38244 15.4274 7.38046 15.4319 7.37955 15.4342C7.36364 15.6247 7.17832 17.3928 7.0645 18.473ZM7.02485 18.7755C7.02491 18.7754 7.02497 18.7754 7.02502 18.7753C7.02339 18.7777 7.02285 18.7779 7.02485 18.7755Z" fill="var(--fill-0, black)"/>
<path id="Vector 373" d="M5.67953 19.4777C5.68978 18.5331 5.70413 16.6071 5.67953 16.4592C5.0584 17.1676 3.81308 18.6306 3.80076 18.8154C3.78536 19.0464 3.78528 20.5248 4.04708 20.5402C4.25652 20.5526 5.22265 19.837 5.67953 19.4777Z" fill="var(--fill-0, #94989D)"/>
<path id="Vector 373 (Stroke)" fill-rule="evenodd" clip-rule="evenodd" d="M5.75282 16.2034L5.79224 16.4403C5.79689 16.4682 5.79937 16.5235 5.80122 16.5892C5.8032 16.6589 5.80462 16.7508 5.8056 16.8591C5.80756 17.0759 5.80775 17.3606 5.80685 17.6698C5.80506 18.2882 5.79891 19.0062 5.79378 19.4786L5.79319 19.5331L5.75035 19.5668C5.52065 19.7475 5.16279 20.0178 4.83525 20.242C4.67172 20.3539 4.51377 20.4556 4.38219 20.529C4.31655 20.5657 4.25521 20.5965 4.20165 20.6181C4.15259 20.6379 4.09423 20.6567 4.04089 20.6536C3.95003 20.6482 3.89411 20.581 3.86324 20.5288C3.83009 20.4727 3.80548 20.4006 3.78618 20.3244C3.74718 20.1704 3.72256 19.9692 3.70702 19.7672C3.6759 19.3623 3.67961 18.9294 3.68773 18.8076C3.69002 18.7733 3.70391 18.7403 3.7147 18.7174C3.72716 18.6911 3.74386 18.6616 3.76321 18.6302C3.80203 18.5673 3.85621 18.4893 3.92102 18.4013C4.05093 18.2247 4.22861 18.0006 4.42427 17.7614C4.81588 17.2827 5.2834 16.7388 5.59447 16.384L5.75282 16.2034ZM3.91439 18.8288C3.90736 18.9467 3.90399 19.3607 3.93389 19.7497C3.94914 19.9481 3.97262 20.1338 4.00676 20.2685C4.02403 20.3367 4.04225 20.3845 4.05914 20.4131C4.06187 20.4177 4.06423 20.4213 4.06621 20.4241C4.07607 20.4217 4.0924 20.4168 4.11657 20.4071C4.15771 20.3905 4.20978 20.3647 4.27131 20.3303C4.39406 20.2618 4.54546 20.1645 4.70675 20.0542C5.00926 19.8472 5.33957 19.599 5.56684 19.4215C5.57183 18.9499 5.57759 18.2634 5.57931 17.6691C5.58021 17.3602 5.58002 17.0766 5.57807 16.8612C5.57771 16.8218 5.5773 16.7848 5.57683 16.7504C5.28402 17.0879 4.91699 17.5184 4.60039 17.9055C4.40554 18.1437 4.23075 18.3642 4.10429 18.5361C4.04092 18.6222 3.99093 18.6945 3.95686 18.7497C3.93976 18.7774 3.92784 18.799 3.9204 18.8147C3.91694 18.822 3.91519 18.8266 3.91439 18.8288ZM4.07344 20.4325C4.07344 20.4325 4.07311 20.4323 4.07248 20.4317C4.07313 20.4322 4.07345 20.4325 4.07344 20.4325Z" fill="var(--fill-0, black)"/>
<path id="Vector 376" d="M4.5665 18.4491C4.59612 18.3403 5.26664 17.6378 5.5982 17.3001V16.7195L4.67845 17.7703L3.90546 18.8135C3.81441 19.4175 4.0167 20.4319 4.0723 20.469C4.11677 20.4986 4.4203 20.2878 4.5665 20.1786C4.55416 19.6474 4.53688 18.5578 4.5665 18.4491Z" fill="var(--fill-0, #444D56)"/>
<path id="Vector 374" d="M11.9498 14.0678C12.041 13.7484 13.458 13.0349 14.1551 12.718L15.1492 10.8696C14.4708 11.2215 12.9816 12.0271 12.453 12.4342C11.7922 12.9431 11.3959 13.5787 11.3811 13.6305C11.3663 13.6824 10.3365 16.3922 10.2327 16.7619C10.1498 17.0576 10.1982 17.3719 10.2327 17.4921C10.3806 17.5498 11.0968 17.388 11.4365 17.2999C11.5695 16.3556 11.8585 14.3872 11.9498 14.0678Z" fill="var(--fill-0, #444D56)"/>
<g id="Vector 366">
<path d="M32.2295 16.4252C31.9619 16.6332 30.632 20.0907 30.0005 21.7935C30.2358 22.0287 30.8959 22.5922 31.6538 22.9637C32.6011 23.4281 33.2884 21.682 33.3813 21.4591C33.4741 21.2362 34.8116 17.5025 34.5887 17.1682C34.3658 16.8338 32.5639 16.1651 32.2295 16.4252Z" fill="var(--fill-0, #798088)"/>
<path d="M28.1058 13.1373C27.9126 13.1967 26.4031 17.0877 25.6724 19.0257C25.5423 19.843 26.2855 20.456 27.3257 20.5861C28.1579 20.6901 28.3784 20.4313 28.3845 20.2889C28.8304 19.1681 29.7517 16.8524 29.8706 16.5552C30.0192 16.1837 30.7436 14.679 30.595 14.4933C30.4464 14.3075 28.3473 13.063 28.1058 13.1373Z" fill="var(--fill-0, #798088)"/>
<path d="M24.4232 10.7376C23.2834 11.2812 21.7125 15.8739 21.0696 18.1024C21.4422 18.6942 23.9409 19.0257 24.2697 18.6722C24.5985 18.3188 26.6808 12.2719 26.4835 11.8993C26.3257 11.6012 25.0442 11.0006 24.4232 10.7376Z" fill="var(--fill-0, #798088)"/>
<path d="M23.024 9.19474C22.9413 9.44304 20.4721 14.8504 19.2478 17.523C18.9373 17.807 17.3942 17.6413 16.6615 17.523C16.7391 16.9627 16.9615 15.4746 17.2305 14.0055C17.5667 12.1691 20.748 7.33251 21.0696 7.30665C21.3911 7.28079 23.1275 8.88437 23.024 9.19474Z" fill="var(--fill-0, #798088)"/>
</g>
<path id="Vector 366 (Stroke)" fill-rule="evenodd" clip-rule="evenodd" d="M23.2426 9.06758C23.2549 9.11741 23.2645 9.19009 23.239 9.26675C23.2243 9.31068 23.1705 9.43563 23.0956 9.60598C23.0174 9.78362 22.9091 10.0263 22.7779 10.3183C22.5154 10.9023 22.1606 11.6854 21.7702 12.544C20.9894 14.2612 20.066 16.2814 19.4538 17.6179L19.4345 17.6599L19.4004 17.691C19.326 17.7591 19.2314 17.8001 19.1432 17.8271C19.0519 17.855 18.9484 17.8734 18.8404 17.8856C18.6241 17.91 18.3663 17.9118 18.103 17.9013C17.5751 17.8801 16.9967 17.8078 16.6243 17.7477L16.4047 17.7123L16.4352 17.4919C16.5131 16.929 16.736 15.4376 17.0058 13.9646C17.0959 13.4722 17.3704 12.8014 17.7219 12.0873C18.0763 11.3674 18.5192 10.5837 18.9603 9.8589C19.4014 9.13406 19.8429 8.46472 20.1956 7.97338C20.3716 7.72825 20.5278 7.52409 20.6523 7.37867C20.7141 7.30652 20.772 7.24418 20.8232 7.19761C20.8486 7.17453 20.877 7.15108 20.907 7.13174C20.931 7.11624 20.9829 7.08533 21.0504 7.07989C21.1159 7.07462 21.1761 7.09045 21.2185 7.10498C21.2645 7.12076 21.3115 7.14281 21.357 7.16728C21.4481 7.2163 21.5514 7.28485 21.6589 7.36375C21.8748 7.52228 22.126 7.73651 22.3616 7.95937C22.5968 8.18185 22.8226 8.41883 22.985 8.62396C23.0655 8.7257 23.1361 8.82661 23.1839 8.91855C23.2077 8.96442 23.2297 9.01513 23.2426 9.06758ZM21.1104 7.55223C21.0814 7.58053 21.044 7.62095 20.998 7.67463C20.8857 7.80584 20.738 7.99813 20.5653 8.23876C20.2206 8.71895 19.7854 9.37839 19.349 10.0955C18.9126 10.8126 18.4769 11.584 18.1302 12.2883C17.7807 12.9983 17.5314 13.6208 17.4534 14.0465C17.2154 15.3466 17.0138 16.6621 16.9175 17.3318C17.2639 17.3809 17.7107 17.4301 18.1212 17.4466C18.3741 17.4567 18.606 17.4541 18.7893 17.4334C18.881 17.4231 18.9548 17.4088 19.0102 17.3919C19.0352 17.3842 19.0534 17.3769 19.0664 17.3709C19.6784 16.0347 20.5865 14.0479 21.3559 12.3556C21.7462 11.4972 22.1007 10.7149 22.3628 10.1317C22.4938 9.8401 22.6016 9.59869 22.679 9.42266C22.7178 9.33458 22.7487 9.26344 22.7711 9.2108C22.7802 9.18941 22.7877 9.17148 22.7937 9.15697C22.7905 9.14951 22.7861 9.14004 22.7801 9.12844C22.7515 9.07338 22.7009 8.99829 22.6282 8.90645C22.4841 8.72443 22.275 8.50393 22.0489 8.28995C21.8231 8.07635 21.5864 7.87513 21.3895 7.73056C21.2906 7.65792 21.2063 7.603 21.1414 7.56807C21.1299 7.5619 21.1196 7.55665 21.1104 7.55223ZM21.0613 7.53264C21.0613 7.53262 21.0616 7.53269 21.0624 7.53289C21.0617 7.53275 21.0613 7.53265 21.0613 7.53264ZM22.8008 9.1768C22.8011 9.17776 22.8012 9.17821 22.8011 9.1782C22.8011 9.17819 22.801 9.17771 22.8008 9.1768ZM24.4167 10.4882L24.511 10.5281C24.8255 10.6613 25.3073 10.8799 25.7323 11.1041C25.9444 11.2159 26.1468 11.3314 26.3085 11.4403C26.3892 11.4946 26.4635 11.5498 26.525 11.6042C26.5833 11.6558 26.6448 11.7194 26.6837 11.7929C26.7113 11.845 26.7186 11.8986 26.7213 11.9319C26.7244 11.9698 26.7235 12.0098 26.7208 12.0487C26.7154 12.1266 26.7011 12.221 26.6811 12.3257C26.6407 12.5362 26.5724 12.8112 26.4855 13.1257C26.3113 13.756 26.0579 14.5621 25.7887 15.3653C25.5194 16.1688 25.2334 16.9726 24.9936 17.5987C24.8738 17.9115 24.7648 18.182 24.6746 18.3868C24.6296 18.4889 24.5883 18.5773 24.5517 18.6473C24.5191 18.7099 24.4794 18.78 24.4354 18.8273C24.3465 18.9228 24.2155 18.9689 24.1042 18.9951C23.9838 19.0234 23.8415 19.038 23.6899 19.043C23.3857 19.053 23.0161 19.0245 22.6496 18.9666C22.2831 18.9086 21.91 18.8196 21.6002 18.704C21.4453 18.6463 21.301 18.58 21.1796 18.5046C21.0607 18.4307 20.9486 18.3388 20.8761 18.2237L20.8217 18.1373L20.85 18.0393C21.173 16.9198 21.7291 15.2061 22.3487 13.7016C22.6583 12.9498 22.9863 12.2442 23.3115 11.6893C23.4741 11.4119 23.6388 11.1674 23.8033 10.9722C23.9654 10.7797 24.1394 10.6204 24.3243 10.5323L24.4167 10.4882ZM24.4374 10.9917C24.3542 11.0489 24.2582 11.1384 24.1513 11.2654C24.0092 11.434 23.8591 11.655 23.7041 11.9194C23.3942 12.4482 23.0755 13.1319 22.7695 13.8749C22.1794 15.3078 21.6457 16.9384 21.3216 18.0473C21.3465 18.0687 21.3787 18.0925 21.4197 18.118C21.5076 18.1726 21.6222 18.2266 21.7591 18.2776C22.0328 18.3797 22.3748 18.4624 22.7207 18.5171C23.0666 18.5718 23.4065 18.597 23.675 18.5882C23.8097 18.5838 23.9195 18.571 24.0001 18.552C24.072 18.5352 24.0985 18.5184 24.1028 18.5161C24.1028 18.516 24.1029 18.5158 24.1031 18.5157C24.1073 18.5093 24.1222 18.4868 24.1482 18.4369C24.1782 18.3793 24.2151 18.3011 24.2581 18.2034C24.344 18.0084 24.45 17.7456 24.5686 17.4359C24.8056 16.8172 25.0895 16.0197 25.3572 15.2207C25.6251 14.4214 25.8757 13.6238 26.0468 13.0045C26.1325 12.6942 26.1971 12.4328 26.2341 12.24C26.2527 12.143 26.2633 12.0689 26.2669 12.0172C26.2676 12.0057 26.268 11.9964 26.2681 11.9889C26.2579 11.9773 26.2433 11.9626 26.2234 11.945C26.1822 11.9085 26.1256 11.8658 26.0544 11.8178C25.912 11.722 25.7256 11.615 25.52 11.5066C25.1535 11.3133 24.74 11.1227 24.4374 10.9917ZM26.2674 11.9658C26.2674 11.9658 26.2675 11.9666 26.2677 11.9682C26.2674 11.9666 26.2673 11.9658 26.2674 11.9658ZM28.1233 13.3613C28.1233 13.3612 28.1244 13.3613 28.1269 13.3616C28.1246 13.3615 28.1234 13.3613 28.1233 13.3613ZM28.204 13.3828C28.2729 13.4062 28.3658 13.4451 28.4783 13.4978C28.7039 13.6034 28.9878 13.7546 29.2721 13.9158C29.5559 14.0766 29.8363 14.2452 30.0538 14.3843C30.1628 14.454 30.2543 14.5152 30.3218 14.5636C30.3467 14.5815 30.3674 14.5969 30.3839 14.6098C30.3789 14.6493 30.3667 14.7057 30.3457 14.7792C30.2998 14.94 30.2223 15.1479 30.1325 15.369C30.0433 15.5886 29.9446 15.8147 29.8582 16.0107C29.8434 16.0444 29.8288 16.0774 29.8146 16.1094C29.7479 16.2605 29.6906 16.3901 29.6584 16.4707C29.5394 16.7682 28.6179 19.0843 28.1722 20.2048L28.158 20.2406L28.1569 20.2653C28.1505 20.2745 28.13 20.2966 28.0733 20.3213C27.9655 20.3681 27.7483 20.4097 27.353 20.3603C26.8666 20.2995 26.4686 20.1277 26.2122 19.8951C25.9668 19.6726 25.8502 19.3966 25.893 19.0832C26.2581 18.1152 26.8126 16.6729 27.3008 15.4621C27.5469 14.8516 27.7753 14.3022 27.9537 13.9027C28.0432 13.7023 28.1184 13.5433 28.1761 13.4342C28.1862 13.4149 28.1955 13.3978 28.204 13.3828ZM28.1595 20.2608C28.1595 20.2608 28.1594 20.2613 28.1589 20.2621C28.1592 20.2612 28.1594 20.2608 28.1595 20.2608ZM30.6884 14.2706C30.7135 14.2911 30.7465 14.3196 30.7718 14.3512C30.8172 14.408 30.8321 14.4709 30.8377 14.5132C30.8436 14.5579 30.8421 14.6026 30.8382 14.6423C30.8304 14.7218 30.8095 14.8124 30.7833 14.904C30.7305 15.0892 30.6455 15.3155 30.5542 15.5403C30.4623 15.7665 30.3613 15.9978 30.2747 16.1942C30.259 16.2298 30.2439 16.2641 30.2294 16.2968C30.1626 16.4479 30.1099 16.5674 30.0809 16.6397C29.9631 16.9342 29.0562 19.2139 28.6062 20.3449C28.5795 20.5102 28.4492 20.6541 28.2547 20.7386C28.0427 20.8308 27.7335 20.8665 27.2966 20.8119C26.7428 20.7427 26.2491 20.543 25.9064 20.2322C25.5583 19.9165 25.368 19.485 25.4468 18.99L25.4504 18.9671L25.4586 18.9455C25.8243 17.9755 26.385 16.5166 26.8787 15.292C27.1254 14.68 27.3563 14.1245 27.5382 13.7172C27.6288 13.5141 27.7089 13.3442 27.7736 13.2216C27.8057 13.161 27.8367 13.1067 27.8654 13.0643C27.8796 13.0434 27.8968 13.02 27.9166 12.9988C27.9296 12.9848 27.9714 12.9403 28.038 12.9198C28.1071 12.8986 28.1743 12.9078 28.2107 12.9142C28.255 12.9221 28.3019 12.9355 28.3479 12.951C28.4404 12.9823 28.5516 13.0296 28.6713 13.0857C28.9119 13.1983 29.2073 13.3559 29.4965 13.5199C29.7863 13.6841 30.0737 13.8568 30.299 14.001C30.4115 14.0729 30.5103 14.1388 30.5869 14.1937C30.6251 14.2211 30.6597 14.2471 30.6884 14.2706ZM32.3708 16.6057C32.3673 16.6103 32.3624 16.6171 32.3562 16.6266C32.3369 16.6557 32.3123 16.6976 32.2824 16.7534C32.2227 16.8646 32.1488 17.018 32.0635 17.2062C31.8933 17.5819 31.6836 18.0833 31.4616 18.634C31.0416 19.6756 30.5806 20.885 30.2651 21.7323C30.5476 21.9914 31.1162 22.4473 31.753 22.7594C31.9178 22.8402 32.0626 22.8266 32.2057 22.7533C32.36 22.6744 32.5126 22.5243 32.6544 22.3335C32.9215 21.9738 33.1018 21.5375 33.1612 21.3935C33.1647 21.3852 33.1677 21.3779 33.1703 21.3716C33.2127 21.2698 33.5679 20.2885 33.8856 19.2867C34.0441 18.7868 34.1913 18.288 34.2849 17.8956C34.3318 17.6986 34.3637 17.5347 34.3776 17.4135C34.3846 17.3526 34.3862 17.3091 34.3847 17.2811C34.3847 17.2805 34.3847 17.2798 34.3846 17.2792C34.3819 17.2765 34.3787 17.2735 34.3751 17.2703C34.3586 17.2553 34.3358 17.2371 34.3058 17.2162C34.2456 17.1741 34.1652 17.1268 34.0681 17.0769C33.8742 16.9772 33.6283 16.8746 33.3769 16.7893C33.1247 16.7037 32.8756 16.6385 32.6748 16.6098C32.574 16.5954 32.4929 16.5914 32.4334 16.5957C32.399 16.5982 32.3798 16.6029 32.3708 16.6057ZM34.3825 17.2606C34.3825 17.2606 34.3827 17.2611 34.3829 17.2622C34.3826 17.2611 34.3825 17.2605 34.3825 17.2606ZM34.5664 16.8431C34.6438 16.8972 34.725 16.9639 34.7771 17.042C34.8265 17.1161 34.8363 17.2023 34.8392 17.257C34.8425 17.3205 34.8382 17.3918 34.8297 17.4654C34.8128 17.6132 34.7761 17.7976 34.7275 18.0012C34.6301 18.4098 34.4789 18.9211 34.3194 19.4243C34.0009 20.4286 33.6408 21.4256 33.5904 21.5466C33.5878 21.5528 33.5847 21.5603 33.5811 21.569C33.5218 21.7132 33.3225 22.1973 33.0197 22.6049C32.8596 22.8204 32.6569 23.0337 32.413 23.1585C32.1579 23.289 31.8615 23.3194 31.5527 23.1681C30.7665 22.7827 30.0865 22.2022 29.8387 21.9544L29.7355 21.8512L29.7862 21.7144C30.1024 20.8618 30.5936 19.5696 31.0395 18.4638C31.2624 17.9112 31.4748 17.4028 31.649 17.0184C31.7359 16.8266 31.8147 16.6625 31.8814 16.5382C31.9146 16.4762 31.9467 16.4208 31.9766 16.3755C32.0024 16.3365 32.0405 16.2832 32.0889 16.2456C32.1836 16.1719 32.3026 16.1489 32.4003 16.1418C32.5042 16.1343 32.6205 16.1424 32.7391 16.1593C32.9772 16.1933 33.2552 16.2674 33.5231 16.3583C33.7918 16.4495 34.059 16.5605 34.2762 16.6721C34.3846 16.7279 34.4841 16.7856 34.5664 16.8431Z" fill="var(--fill-0, black)"/>
<path id="Vector 367" d="M32.8466 17.5726C32.5371 17.5947 31.3355 20.6685 30.7734 22.2027L30.1791 21.7328C30.6675 20.0604 31.7768 16.6936 32.3076 16.6051C32.8383 16.5167 33.9477 17.0013 34.436 17.2547L34.2702 18.1669C33.9246 17.9596 33.1562 17.5505 32.8466 17.5726Z" fill="var(--fill-0, #444D56)"/>
<path id="Vector 364" d="M36.2682 18.4746C35.6613 18.5529 34.3189 22.1288 33.7235 23.9069C33.6642 24.0826 35.3874 25.473 35.8279 25.3751C36.2683 25.2772 38.6174 20.5301 38.5929 20.1386C38.5685 19.7471 37.0269 18.3768 36.2682 18.4746Z" fill="var(--fill-0, #94989D)"/>
<path id="Vector 364 (Stroke)" fill-rule="evenodd" clip-rule="evenodd" d="M36.3022 18.6999C36.2992 18.7012 36.2913 18.7051 36.2783 18.7144C36.2537 18.732 36.2206 18.7618 36.1796 18.8083C36.0974 18.9015 36.0013 19.0405 35.8942 19.2221C35.681 19.5839 35.4421 20.0836 35.2004 20.6437C34.7328 21.7273 34.2654 23.0118 33.9672 23.896C34.0003 23.937 34.0524 23.9926 34.1228 24.0601C34.2746 24.2057 34.4907 24.3869 34.7244 24.5614C34.9584 24.7362 35.2033 24.8992 35.4124 25.0113C35.5172 25.0675 35.6073 25.1078 35.6788 25.1311C35.7199 25.1444 35.7469 25.1495 35.7624 25.1514C35.7655 25.1487 35.7691 25.1453 35.7731 25.1414C35.8029 25.1124 35.843 25.0662 35.8929 25.0005C35.9921 24.8699 36.1152 24.6827 36.2545 24.4529C36.5323 23.9944 36.8637 23.3849 37.1822 22.7634C37.5004 22.1422 37.8036 21.5128 38.0253 21.0157C38.1363 20.7668 38.2256 20.5536 38.2861 20.3923C38.3164 20.3114 38.3382 20.2467 38.3518 20.1989C38.359 20.1733 38.3624 20.1576 38.364 20.1497C38.3604 20.1396 38.3503 20.1139 38.3233 20.07C38.2862 20.0098 38.2298 19.9351 38.155 19.85C38.006 19.6802 37.7979 19.4847 37.5654 19.3022C37.3326 19.1196 37.0821 18.9552 36.8495 18.8436C36.6125 18.7297 36.4252 18.6858 36.3022 18.6999ZM38.7109 19.8316C38.7613 19.9136 38.8133 20.0176 38.82 20.1245C38.8242 20.1925 38.8051 20.2685 38.7896 20.3231C38.7712 20.3878 38.7446 20.4654 38.7122 20.552C38.6472 20.7256 38.5536 20.9483 38.4409 21.201C38.2152 21.7071 37.9083 22.3441 37.5872 22.9708C37.2663 23.5972 36.9294 24.2173 36.6437 24.6887C36.5012 24.9238 36.3687 25.1266 36.2552 25.2759C36.1988 25.3501 36.1432 25.4163 36.0903 25.4677C36.0466 25.5102 35.972 25.5763 35.8772 25.5974C35.7608 25.6232 35.6373 25.5961 35.5381 25.5638C35.4313 25.5291 35.315 25.4755 35.1973 25.4124C34.9613 25.2858 34.6965 25.1086 34.4521 24.926C34.2073 24.7432 33.9762 24.55 33.8078 24.3886C33.7245 24.3087 33.6511 24.2314 33.5988 24.1639C33.5733 24.1309 33.5466 24.0925 33.5272 24.0518C33.5143 24.0248 33.4736 23.9365 33.5076 23.8348M38.7109 19.8316C38.656 19.7423 38.582 19.6465 38.497 19.5497ZM38.497 19.5497C38.3264 19.3554 38.097 19.141 37.8463 18.9442ZM37.8463 18.9442C37.5958 18.7477 37.3171 18.5633 37.0465 18.4333ZM37.0465 18.4333C36.7836 18.307 36.4955 18.216 36.2391 18.2491ZM36.2391 18.2491C36.1508 18.2605 36.0747 18.3006 36.0139 18.344ZM36.0139 18.344C35.9519 18.3883 35.8933 18.4449 35.8384 18.5072ZM35.8384 18.5072C35.7287 18.6316 35.6157 18.7986 35.5022 18.991ZM35.5022 18.991C35.2745 19.3773 35.0268 19.8974 34.7825 20.4634ZM34.7825 20.4634C34.2933 21.5971 33.8066 22.9419 33.5077 23.8346Z" fill="var(--fill-0, black)"/>
<path id="Vector 377" d="M37.2206 32.7298C37.0683 32.1441 36.9666 31.5996 36.9088 31.1374L37.2206 32.7298C37.9458 35.5192 39.817 39.2431 43.5428 39.4665C43.4231 40.1795 42.862 41.7841 41.575 42.4987C40.2879 43.2134 39.1097 41.258 38.6815 40.191L37.2206 32.7298Z" fill="var(--fill-0, #A5A3A2)"/>
<path id="Vector 363 (Stroke)" fill-rule="evenodd" clip-rule="evenodd" d="M13.1381 18.5852C14.3394 11.7344 18.5832 6.9897 20.5918 5.44879L21.1458 6.17094C19.2811 7.60143 15.1892 12.1582 14.0345 18.7424L13.1381 18.5852Z" fill="var(--fill-0, black)"/>
<path id="Ellipse 38" d="M43.1289 37.1303C43.1289 39.3511 42.2945 41.1514 41.2653 41.1514C40.2361 41.1514 39.4018 39.3511 39.4018 37.1303C39.4018 34.9094 40.2361 33.1091 41.2653 33.1091C42.2945 33.1091 43.1289 34.9094 43.1289 37.1303Z" fill="var(--fill-0, #AAACAE)"/>
<path id="Ellipse 38 (Stroke)" fill-rule="evenodd" clip-rule="evenodd" d="M41.9637 39.6866C42.2506 39.0676 42.4463 38.1645 42.4463 37.1303C42.4463 36.096 42.2506 35.1929 41.9637 34.5739C41.6504 33.8979 41.3547 33.7918 41.2653 33.7918C41.176 33.7918 40.8802 33.8979 40.5669 34.5739C40.2801 35.1929 40.0844 36.096 40.0844 37.1303C40.0844 38.1645 40.2801 39.0676 40.5669 39.6866C40.8802 40.3626 41.176 40.4688 41.2653 40.4688C41.3547 40.4688 41.6504 40.3626 41.9637 39.6866ZM41.2653 41.1514C42.2945 41.1514 43.1289 39.3511 43.1289 37.1303C43.1289 34.9094 42.2945 33.1091 41.2653 33.1091C40.2361 33.1091 39.4018 34.9094 39.4018 37.1303C39.4018 39.3511 40.2361 41.1514 41.2653 41.1514Z" fill="var(--fill-0, black)"/>
<path id="Ellipse 38_2" d="M42.1265 37.1303C42.1265 38.3558 41.7408 39.3492 41.2651 39.3492C40.7893 39.3492 40.4037 38.3558 40.4037 37.1303C40.4037 35.9048 40.7893 34.9113 41.2651 34.9113C41.7408 34.9113 42.1265 35.9048 42.1265 37.1303Z" fill="var(--fill-0, #939393)"/>
<path id="Ellipse 38 (Stroke)_2" fill-rule="evenodd" clip-rule="evenodd" d="M41.2651 38.3776C41.3693 38.0738 41.4439 37.6373 41.4439 37.1303C41.4439 36.6232 41.3693 36.1867 41.2651 35.8829C41.1608 36.1867 41.0863 36.6232 41.0863 37.1303C41.0863 37.6373 41.1608 38.0738 41.2651 38.3776ZM41.2651 39.3492C41.7408 39.3492 42.1265 38.3558 42.1265 37.1303C42.1265 35.9048 41.7408 34.9113 41.2651 34.9113C40.7893 34.9113 40.4037 35.9048 40.4037 37.1303C40.4037 38.3558 40.7893 39.3492 41.2651 39.3492Z" fill="var(--fill-0, black)"/>
<path id="Vector 365" d="M36.6703 19.9779C36.3032 19.9967 34.9482 22.9593 34.3166 24.4382C34.2807 24.4382 34.027 24.1165 33.9047 23.9556C34.1764 22.5879 35.359 19.8996 36.2551 18.6362C36.9495 18.6362 38.3414 19.8956 38.412 20.0839C38.4685 20.2345 38.2551 20.6174 38.1413 20.79C37.8039 20.5114 37.0374 19.9591 36.6703 19.9779Z" fill="var(--fill-0, #444D56)"/>
<path id="Vector 368" d="M28.3795 14.6874C28.0822 14.6874 26.7497 18.1491 26.1206 19.88C25.7985 19.6099 25.8301 19.2017 25.8005 19.0733C25.7768 18.9705 27.3755 15.2161 28.1779 13.3518C28.4158 13.3518 30.4037 14.5113 30.4232 14.5602C30.4389 14.5994 30.2603 15.1242 30.169 15.3817C29.6963 15.1502 28.6767 14.6874 28.3795 14.6874Z" fill="var(--fill-0, #444D56)"/>
<path id="Vector 369" d="M24.5818 12.3405C23.9489 12.3846 22.6499 16.396 22.0795 18.3961C21.9178 18.3961 21.4477 18.2477 21.2328 18.1735C22.4657 13.9781 24.2322 10.9787 24.4162 10.9235C24.6002 10.8683 26.0715 11.7845 26.2754 11.9237C26.4589 12.0489 26.2482 12.6695 26.1009 12.9884C25.8433 12.7431 25.2148 12.2963 24.5818 12.3405Z" fill="var(--fill-0, #444D56)"/>
<path id="Vector 370" d="M20.9336 9.32104C21.0483 9.23915 21.9366 9.86009 22.3665 10.1808L22.8297 9.20004C22.6612 8.65509 21.5705 7.88309 21.0462 7.5652C20.1916 8.41978 17.9803 12.5733 17.7163 13.157C17.505 13.6239 17.1001 16.1588 16.9241 17.3679C17.102 17.5346 17.5912 17.4373 17.8136 17.3679C18.022 15.6168 20.7903 9.42341 20.9336 9.32104Z" fill="var(--fill-0, #444D56)"/>
<path id="Vector 375" d="M7.80829 15.8086C7.89171 15.5709 8.876 14.9603 9.35771 14.6846L9.55844 13.6651C8.50517 14.1596 7.65849 15.0539 7.36681 15.4393L7.03762 18.506L7.67191 18.1848C7.68262 17.4918 7.72488 16.0462 7.80829 15.8086Z" fill="var(--fill-0, #444D56)"/>
<path id="Vector 378" d="M42.3461 25.1748C43.184 28.7058 43.543 35.9259 43.6178 39.4918C43.8639 37.4181 44.1645 37.0172 43.6178 29.8758C43.0708 22.7308 41.8579 20.5055 40.6797 18.3487C38.0064 17.6303 29.6681 12.2958 25.8332 9.71831L20.9475 6.24194L19.9242 7.17901C20.2458 6.96081 20.6797 6.82415 20.8564 6.7831C23.3684 9.83335 34.785 15.8722 40.1793 18.5104C40.5524 19.2606 41.5082 21.6438 42.3461 25.1748Z" fill="var(--fill-0, white)"/>
<path id="Vector 379" d="M5.70467 16.3499C8.24388 13.9261 14.8967 10.0225 17.9058 8.37373L18.8127 7.24017C16.5868 8.57296 11.7022 11.5188 9.97094 12.64C8.23968 13.7612 6.4054 15.5804 5.70467 16.3499Z" fill="var(--fill-0, white)"/>
<path id="Vector 381" d="M34.2298 8.98248C30.1578 6.98098 24.7974 6.48063 22.6263 6.48065L21.9965 5.92209C26.6988 5.50718 33.9124 6.48065 40.7447 12.6253C46.2105 17.541 46.7799 24.8537 46.3814 27.8956C46.4512 17.7018 39.3197 11.4844 34.2298 8.98248Z" fill="var(--fill-0, white)"/>
<path id="Vector 382" d="M41.737 16.6185C38.594 15.4399 29.9317 9.57619 25.9934 6.79166C25.8948 6.72208 23.6971 6.57536 22.6106 6.5107C23.4187 7.0168 26.2055 8.83225 30.8878 12.0452C35.5701 15.2581 39.8141 17.0765 41.3509 17.5841C41.9051 18.9085 43.1262 21.8842 43.577 23.1917C44.0279 24.4992 44.6021 30.8401 44.8329 33.8471L45.5194 32.1142C46.3296 25.7486 43.3354 19.1314 41.737 16.6185Z" fill="var(--fill-0, #7F7F81)"/>
<path id="Vector 383" d="M24.5178 4.14966L24.4024 5.44507C24.8309 5.21052 30.2399 6.49947 32.8908 7.17327C33.1865 6.79467 33.6444 6.29985 32.487 5.37236C31.4739 4.56051 27.7951 3.66715 25.488 3.35381C24.9954 3.28691 24.562 3.65449 24.5178 4.14966Z" fill="var(--fill-0, #A2A6A9)"/>
<path id="Vector 383 (Stroke)" fill-rule="evenodd" clip-rule="evenodd" d="M25.4268 3.80461C25.2075 3.77482 24.9937 3.93684 24.9711 4.18992L24.9009 4.97744C25.0996 4.99553 25.3403 5.02854 25.6093 5.072C26.2301 5.17234 27.0386 5.33456 27.9097 5.52368C29.5289 5.8752 31.3863 6.32446 32.7071 6.6572C32.7566 6.58062 32.7774 6.52646 32.7788 6.46779C32.7805 6.39721 32.7457 6.16272 32.2024 5.72734C32.0062 5.5701 31.641 5.38228 31.126 5.18272C30.6219 4.9874 30.011 4.7945 29.353 4.61505C28.0365 4.25603 26.5596 3.95847 25.4268 3.80461ZM24.0645 4.10911C24.1302 3.37186 24.7834 2.7987 25.5493 2.90273C26.7235 3.06221 28.2395 3.36799 29.5924 3.73695C30.2691 3.92149 30.9121 4.12373 31.4548 4.33404C31.9866 4.54011 32.4612 4.76841 32.7715 5.01709C33.3857 5.50921 33.7006 5.98587 33.6887 6.48922C33.6786 6.91809 33.4169 7.24429 33.2833 7.41069C33.2708 7.42629 33.2594 7.44048 33.2495 7.45321L33.0666 7.68736L32.7787 7.61418C31.4563 7.27806 29.4468 6.78875 27.7166 6.41312C26.8506 6.22509 26.0608 6.06694 25.4641 5.97051C25.1645 5.9221 24.9229 5.89078 24.7484 5.87809C24.6604 5.87169 24.5999 5.87084 24.5625 5.87276C24.5604 5.87287 24.5584 5.87299 24.5565 5.87311C24.4234 5.92106 24.2738 5.90467 24.1531 5.82571C24.0126 5.73374 23.9341 5.57182 23.9491 5.40452L24.0645 4.10911ZM24.5359 5.8753C24.5358 5.87522 24.5379 5.8748 24.5426 5.87428C24.5384 5.87512 24.536 5.87538 24.5359 5.8753Z" fill="var(--fill-0, black)"/>
<path id="Vector 384" d="M32.7629 6.46893C31.8396 5.7073 27.1942 4.71606 24.9869 4.31564L24.9985 4.06685C25.2174 3.80332 25.4431 3.78414 25.5287 3.80748C26.3476 3.92694 28.4855 4.32395 30.4859 4.95631C32.4863 5.58868 32.8374 6.22821 32.7629 6.46893Z" fill="var(--fill-0, white)"/>
</g>
</svg>
