<svg preserveAspectRatio="none" width="100%" height="100%" overflow="visible" style="display: block;" viewBox="0 0 62.8221 21.6229" fill="none" xmlns="http://www.w3.org/2000/svg">
<g id="Group 910">
<path id="A" d="M34.1714 21.6228C34.1247 21.6228 34.0847 21.6194 34.0514 21.6128C34.018 21.6128 33.9847 21.6094 33.9514 21.6028H32.2914C32.2847 21.6028 32.2747 21.6028 32.2614 21.6028C32.248 21.5961 32.2314 21.5894 32.2114 21.5828H31.9114L31.4814 21.5728C31.4547 21.5728 31.438 21.5761 31.4314 21.5828C31.418 21.5961 31.3914 21.6028 31.3514 21.6028H31.3214L31.3114 21.5928C31.2847 21.5928 31.2714 21.5894 31.2714 21.5828C31.2514 21.5761 31.2314 21.5728 31.2114 21.5728C31.1914 21.5728 31.1747 21.5728 31.1614 21.5728C31.148 21.5194 31.1314 21.4228 31.1114 21.2828C31.0914 21.1361 31.0447 20.9294 30.9714 20.6628L30.8914 20.3828H30.3314C30.2247 20.3828 30.1314 20.3794 30.0514 20.3728C29.9714 20.3661 29.888 20.3528 29.8014 20.3328C29.8014 20.3594 29.798 20.3894 29.7914 20.4228C29.7847 20.4561 29.778 20.5028 29.7714 20.5628C29.7247 20.8094 29.678 21.0261 29.6314 21.2128C29.5847 21.3994 29.5447 21.5194 29.5114 21.5728C29.458 21.5728 29.3947 21.5728 29.3214 21.5728C29.248 21.5728 29.1614 21.5761 29.0614 21.5828C28.9614 21.5828 28.898 21.5894 28.8714 21.6028H28.7814C28.7747 21.6028 28.7714 21.5961 28.7714 21.5828C28.7647 21.5761 28.7547 21.5728 28.7414 21.5728C28.688 21.5728 28.6514 21.5761 28.6314 21.5828V21.6028H27.3014C27.2747 21.6094 27.2414 21.6128 27.2014 21.6128C27.168 21.6194 27.1247 21.6228 27.0714 21.6228H26.9714C26.918 21.6228 26.8814 21.6061 26.8614 21.5728C26.8147 21.5061 26.7914 21.4328 26.7914 21.3528C26.7914 21.3061 26.7947 21.2728 26.8014 21.2528C26.8014 21.2194 26.8014 21.1894 26.8014 21.1628C26.8014 21.1294 26.8047 21.0928 26.8114 21.0528C26.8247 20.9794 26.8414 20.9261 26.8614 20.8928C26.8814 20.8194 26.8914 20.7694 26.8914 20.7428C26.9047 20.6628 26.9647 20.3828 27.0714 19.9028C27.1847 19.4161 27.338 18.7628 27.5314 17.9428C27.7247 17.1228 27.9514 16.1728 28.2114 15.0928C28.2114 15.0861 28.218 15.0694 28.2314 15.0428C28.2514 15.0161 28.2747 14.9961 28.3014 14.9828H28.3414L28.3614 15.0028C28.3947 15.0028 28.418 14.9961 28.4314 14.9828C28.4514 14.9694 28.4714 14.9594 28.4914 14.9528C28.5447 14.9394 28.5847 14.9328 28.6114 14.9328C28.658 14.9328 28.7014 14.9361 28.7414 14.9428C28.788 14.9428 28.8347 14.9461 28.8814 14.9528C28.8947 14.9528 28.9114 14.9528 28.9314 14.9528C28.9514 14.9461 28.968 14.9494 28.9814 14.9628C28.9947 14.9694 29.0147 14.9761 29.0414 14.9828C29.0747 14.9828 29.1047 14.9828 29.1314 14.9828C29.1314 14.9694 29.148 14.9628 29.1814 14.9628C29.2147 14.9561 29.238 14.9528 29.2514 14.9528C29.3114 14.9461 29.3814 14.9428 29.4614 14.9428C29.5414 14.9361 29.648 14.9328 29.7814 14.9328H30.7314C30.7314 14.9394 30.7614 14.9428 30.8214 14.9428C30.8547 14.9428 30.8814 14.9428 30.9014 14.9428C30.928 14.9428 30.9547 14.9461 30.9814 14.9528H31.4814C31.4947 14.9594 31.508 14.9661 31.5214 14.9728C31.5414 14.9794 31.558 14.9828 31.5714 14.9828C31.6047 14.9828 31.638 14.9828 31.6714 14.9828C31.7114 14.9761 31.748 14.9694 31.7814 14.9628C31.8147 14.9561 31.848 14.9528 31.8814 14.9528C31.9214 14.9528 31.948 14.9528 31.9614 14.9528C32.0347 14.9461 32.1014 14.9428 32.1614 14.9428C32.2214 14.9361 32.2847 14.9328 32.3514 14.9328C32.3914 14.9328 32.4314 14.9294 32.4714 14.9228C32.5114 14.9161 32.5547 14.9261 32.6014 14.9528C32.6547 14.9794 32.7014 14.9961 32.7414 15.0028C32.788 15.0028 32.828 15.0028 32.8614 15.0028C32.888 15.0028 32.9014 14.9961 32.9014 14.9828H32.9414C32.9614 14.9894 32.9814 15.0094 33.0014 15.0428C33.0214 15.0694 33.0314 15.0861 33.0314 15.0928C33.098 15.3461 33.1747 15.6528 33.2614 16.0128C33.348 16.3661 33.438 16.7461 33.5314 17.1528C33.6314 17.5594 33.7314 17.9728 33.8314 18.3928C33.9314 18.8128 34.028 19.2161 34.1214 19.6028C34.2147 19.9828 34.2947 20.3261 34.3614 20.6328C34.3747 20.6994 34.3814 20.7461 34.3814 20.7728C34.388 20.7994 34.3947 20.8294 34.4014 20.8628C34.408 20.9094 34.4247 20.9861 34.4514 21.0928C34.4847 21.1994 34.5014 21.2794 34.5014 21.3328C34.5014 21.3861 34.488 21.4161 34.4614 21.4228C34.4347 21.5561 34.378 21.6228 34.2914 21.6228H34.1714ZM29.9214 19.1928C29.9614 19.1928 29.9814 19.1861 29.9814 19.1728H30.0414C30.0547 19.1661 30.078 19.1561 30.1114 19.1428C30.1447 19.1294 30.1847 19.1228 30.2314 19.1228H30.2414L30.3114 19.1728H30.7814L30.7114 18.7228L30.6714 18.5328C30.658 18.4594 30.6447 18.3994 30.6314 18.3528C30.618 18.2994 30.6114 18.2494 30.6114 18.2028C30.6114 18.1694 30.6014 18.0828 30.5814 17.9428C30.5614 17.7961 30.538 17.6294 30.5114 17.4428L30.4714 17.1628C30.4514 17.1028 30.4347 17.0461 30.4214 16.9928C30.4147 16.9394 30.408 16.8894 30.4014 16.8428L30.3814 16.7228V16.6728C30.368 16.6594 30.3614 16.6428 30.3614 16.6228C30.3614 16.5961 30.358 16.5828 30.3514 16.5828V16.6228C30.3514 16.6494 30.338 16.6828 30.3114 16.7228V16.8428C30.298 16.8961 30.288 16.9494 30.2814 17.0028C30.2747 17.0561 30.2647 17.1094 30.2514 17.1628L30.1614 17.6328C30.108 17.8994 30.068 18.1628 30.0414 18.4228C30.0147 18.6828 29.9747 18.9394 29.9214 19.1928Z" fill="var(--fill-0, white)"/>
<path id="N" d="M16.3255 19.6128C16.2935 19.6035 16.2656 19.592 16.2419 19.5781C16.2163 19.5707 16.1907 19.5633 16.1651 19.5558L15.7329 19.4304L15.3409 19.2022L15.3412 19.1294C15.3284 19.1257 15.3313 19.0918 15.3499 19.0278C15.3751 18.9171 15.4002 18.8064 15.4254 18.6957C15.457 18.5868 15.4904 18.4716 15.5257 18.3499C15.5517 18.2603 15.5718 18.1793 15.5858 18.1071C15.6062 18.0366 15.6197 17.9781 15.6263 17.9314C15.6542 17.8354 15.6783 17.7521 15.6988 17.6817C15.7192 17.6113 15.7327 17.5527 15.7393 17.506L15.8341 17.1795C15.8856 16.8821 15.9561 16.5555 16.0455 16.1996C16.1412 15.8456 16.2387 15.5095 16.338 15.1912L16.6386 14.2267C16.6599 14.1774 16.6835 14.1079 16.7095 14.0182C16.7356 13.9286 16.7634 13.8326 16.7931 13.7301C16.8266 13.6149 16.8554 13.5156 16.8795 13.4324C16.9037 13.3492 16.919 13.2842 16.9256 13.2375C16.9491 13.0847 17.01 12.9947 17.108 12.9677C17.2061 12.9406 17.332 12.9494 17.4857 12.9939C17.5689 13.0181 17.6297 13.0357 17.6682 13.0469C17.7148 13.0535 17.767 13.0651 17.8246 13.0819C17.8905 13.094 17.9875 13.1187 18.1155 13.1558L18.3392 13.2103C18.5222 13.2495 18.6722 13.2826 18.7893 13.3097C18.9147 13.3322 18.9998 13.3499 19.0446 13.3629C19.1407 13.3908 19.2207 13.414 19.2847 13.4326C19.3487 13.4511 19.3953 13.482 19.4244 13.5252C19.4445 13.5518 19.4699 13.6078 19.5007 13.6931C19.5379 13.7802 19.5601 13.8352 19.5673 13.8582C19.5973 13.9224 19.6155 13.9554 19.6219 13.9573C19.6301 13.9527 19.6451 13.9849 19.6668 14.0536C19.7003 14.1536 19.7251 14.2475 19.7412 14.3355C19.7656 14.4189 19.7914 14.4854 19.8187 14.535L20.7558 16.1501L20.9891 16.5301C21.0133 16.4469 21.0356 16.3701 21.056 16.2996C21.0783 16.2228 21.0991 16.1629 21.1186 16.1199L21.3721 15.246L21.596 14.5821C21.6116 14.5519 21.6214 14.5304 21.6251 14.5176C21.637 14.5003 21.644 14.4884 21.6458 14.482C21.6495 14.4692 21.6638 14.456 21.6886 14.4423C21.6968 14.4378 21.7074 14.4374 21.7202 14.4411C21.8193 14.3865 21.91 14.3608 21.9924 14.3639C22.0556 14.3614 22.1096 14.3667 22.1545 14.3797L22.8075 14.5691C22.8313 14.583 22.8656 14.5964 22.9104 14.6094C22.9616 14.6242 23.0192 14.641 23.0833 14.6595C23.1345 14.6744 23.1441 14.6772 23.1121 14.6679C23.0865 14.6605 23.0567 14.6553 23.0229 14.6524C22.9908 14.6431 22.9899 14.6463 23.0201 14.662L23.7308 14.8682C23.8972 14.9165 24.0051 14.9756 24.0542 15.0454C24.1052 15.1087 24.1066 15.2237 24.0583 15.3902L24.0208 15.4834L23.9639 15.6439C23.9455 15.6594 23.9252 15.7055 23.9029 15.7824L23.8471 15.9745L23.8453 16.0885L23.7617 16.3766C23.7405 16.4259 23.7159 16.4986 23.688 16.5947C23.6602 16.6907 23.6277 16.8028 23.5905 16.9308L23.3871 17.6319C23.3566 17.7133 23.3204 17.8139 23.2787 17.9337C23.2453 18.0489 23.2082 18.177 23.1673 18.3178L22.4791 20.69L22.3292 21.063C22.2747 21.1791 22.1961 21.2465 22.0935 21.2654L21.9371 21.2304L21.7766 21.1734L20.4416 20.7861C20.3181 20.7572 20.2162 20.7138 20.1358 20.6558C20.0573 20.5913 19.9894 20.5265 19.932 20.4612L18.7507 18.4317C18.7525 18.4253 18.7375 18.3932 18.7057 18.3354C18.6739 18.2776 18.6375 18.2115 18.5966 18.1372C18.5621 18.0647 18.5335 18.0078 18.5108 17.9665C18.5081 17.9518 18.5022 17.9362 18.4931 17.9197C18.4904 17.905 18.4868 17.8936 18.4823 17.8853C18.4759 17.8835 18.4695 17.8816 18.4631 17.8797C18.4649 17.8733 18.4626 17.8692 18.4562 17.8674C18.3922 17.8488 18.3537 17.8619 18.3407 17.9067L18.2794 18.118C18.2637 18.1482 18.2475 18.1921 18.2308 18.2497C18.2159 18.3009 18.1983 18.3617 18.1779 18.4322L17.9633 19.1717C17.9458 19.2082 17.9273 19.248 17.9079 19.2909C17.8885 19.3339 17.8713 19.381 17.8565 19.4322L17.759 19.7684L17.7614 19.8315C17.7577 19.8444 17.7435 19.8576 17.7187 19.8712C17.7003 19.8867 17.6815 19.8917 17.6623 19.8861C17.6311 19.8979 17.5854 19.8881 17.5251 19.8567C17.4016 19.8278 17.2931 19.8067 17.1998 19.7935C17.1128 19.7822 17.0428 19.7723 16.9898 19.7638C16.9303 19.7535 16.8516 19.7376 16.7537 19.7162C16.6558 19.6947 16.5652 19.6719 16.482 19.6478C16.3969 19.63 16.3447 19.6184 16.3255 19.6128Z" fill="var(--fill-0, white)"/>
<path id="N_2" d="M40.1525 20.2086C40.121 20.2195 40.0915 20.2262 40.0642 20.2286C40.039 20.2373 40.0138 20.246 39.9885 20.2547L39.5632 20.4017L39.1114 20.4415L39.0697 20.3818C39.0571 20.3862 39.0399 20.3569 39.0181 20.2939C38.9748 20.1889 38.9315 20.084 38.8881 19.979C38.8511 19.8719 38.8119 19.7585 38.7705 19.6388C38.7401 19.5506 38.7097 19.4729 38.6794 19.4058C38.6555 19.3365 38.6327 19.2808 38.6112 19.2389C38.5785 19.1444 38.5502 19.0625 38.5262 18.9932C38.5023 18.9239 38.4795 18.8682 38.458 18.8263L38.3469 18.505C38.2174 18.2323 38.0865 17.9249 37.9541 17.5827C37.828 17.2383 37.7137 16.9075 37.6111 16.5903L37.3001 15.6292C37.289 15.5766 37.2682 15.5062 37.2377 15.418C37.2072 15.3297 37.1745 15.2352 37.1397 15.1344C37.1005 15.021 37.0667 14.9233 37.0384 14.8414C37.0101 14.7595 36.9852 14.6976 36.9636 14.6557C36.8947 14.5173 36.8924 14.4087 36.9569 14.33C37.0214 14.2513 37.1292 14.1858 37.2805 14.1335C37.3624 14.1052 37.4222 14.0845 37.46 14.0715C37.502 14.0499 37.5513 14.0293 37.608 14.0097C37.6688 13.9817 37.7623 13.9459 37.8883 13.9023L38.1024 13.8177C38.2745 13.7441 38.4161 13.6846 38.5274 13.6391C38.6427 13.5851 38.7225 13.5505 38.7666 13.5353C38.8611 13.5026 38.9398 13.4754 39.0028 13.4536C39.0659 13.4318 39.1217 13.4302 39.1704 13.4486C39.2021 13.4588 39.2552 13.4898 39.3295 13.5417C39.4102 13.5914 39.4601 13.6236 39.4792 13.6381C39.5408 13.6733 39.5747 13.6898 39.581 13.6876C39.5851 13.6791 39.6159 13.6967 39.6733 13.7403C39.7583 13.8026 39.8328 13.8651 39.8967 13.9276C39.9648 13.9817 40.0242 14.0211 40.0751 14.0458L41.7725 14.8241L42.1823 14.9998C42.154 14.9179 42.1279 14.8423 42.1039 14.773C42.0778 14.6974 42.0603 14.6364 42.0513 14.5901L41.7541 13.7301L41.5538 13.0587C41.5492 13.025 41.5447 13.0018 41.5404 12.9892C41.5401 12.9681 41.5389 12.9545 41.5367 12.9482C41.5324 12.9356 41.5364 12.9165 41.5488 12.8911C41.5529 12.8826 41.5612 12.8762 41.5738 12.8718C41.6233 12.7701 41.6826 12.6967 41.7517 12.6517C41.8019 12.6132 41.849 12.5863 41.8931 12.5711L42.5358 12.3489C42.5632 12.3465 42.5989 12.3377 42.643 12.3224C42.6934 12.305 42.7502 12.2854 42.8132 12.2637C42.8636 12.2462 42.873 12.243 42.8415 12.2539C42.8163 12.2626 42.789 12.2755 42.7597 12.2927C42.7282 12.3036 42.7293 12.3067 42.763 12.3022L43.4624 12.0604C43.6262 12.0038 43.7483 11.9898 43.8288 12.0184C43.907 12.0408 43.9745 12.1338 44.0311 12.2977L44.0543 12.3955L44.1004 12.5594C44.0943 12.5827 44.1043 12.6321 44.1305 12.7077L44.1958 12.8967L44.2601 12.9909L44.3581 13.2744C44.3692 13.327 44.3911 13.4006 44.4238 13.4951C44.4564 13.5896 44.4945 13.6999 44.5381 13.8259L44.7766 14.5158C44.7986 14.5999 44.8271 14.7029 44.8622 14.8248C44.9014 14.9382 44.9449 15.0643 44.9929 15.2029L45.7997 17.5374L45.8926 17.9285C45.915 18.0548 45.8898 18.1552 45.8168 18.2298L45.6689 18.2915L45.5049 18.3376L44.1912 18.7916C44.0736 18.8393 43.9653 18.8626 43.8662 18.8616C43.7649 18.8543 43.672 18.8406 43.5875 18.8204L41.4515 17.8446C41.4493 17.8383 41.4186 17.8207 41.3592 17.7919C41.2999 17.763 41.2321 17.73 41.1557 17.6929C41.0857 17.6536 41.0295 17.6237 40.9871 17.603C40.9765 17.5926 40.9627 17.5833 40.9457 17.575C40.9351 17.5646 40.9255 17.5573 40.917 17.5532C40.9107 17.5554 40.9044 17.5576 40.8981 17.5597C40.8959 17.5534 40.8917 17.5514 40.8854 17.5536C40.8224 17.5753 40.7985 17.6083 40.8138 17.6524L40.8856 17.8603C40.8902 17.894 40.9023 17.9392 40.9219 17.9959C40.9393 18.0463 40.96 18.1062 40.984 18.1755L41.2355 18.9032C41.2423 18.9432 41.2501 18.9864 41.2591 19.0326C41.268 19.0789 41.2812 19.1273 41.2986 19.1777L41.4129 19.5085L41.4514 19.5587C41.4558 19.5713 41.4518 19.5903 41.4394 19.6157C41.4333 19.639 41.4209 19.6539 41.402 19.6604C41.3833 19.688 41.3403 19.7064 41.2729 19.7156C41.1554 19.7633 41.0547 19.8086 40.9708 19.8517C40.8932 19.8926 40.8304 19.925 40.7821 19.9487C40.7276 19.9746 40.6542 20.007 40.5618 20.046C40.4695 20.085 40.3824 20.1186 40.3004 20.1469C40.2207 20.1815 40.1714 20.2021 40.1525 20.2086Z" fill="var(--fill-0, white)"/>
<path id="C" d="M54.1351 10.5033C54.222 10.4772 54.2895 10.5001 54.3378 10.5721L54.3545 10.597C54.7491 10.8863 55.1061 11.269 55.4254 11.7452C55.3598 12.1262 55.1796 12.4919 54.8847 12.8422C54.5954 13.1887 54.16 13.5569 53.5786 13.9468C52.6262 14.5854 51.6793 14.8551 50.7379 14.7559C49.7447 14.6514 48.9307 14.1257 48.2958 13.1789C47.9393 12.6473 47.7152 12.1514 47.6233 11.6913C47.5333 11.2219 47.569 10.7484 47.7305 10.271C47.824 9.99151 47.9748 9.70173 48.183 9.40163C48.3966 9.09782 48.6519 8.80222 48.9488 8.51482C49.2458 8.22742 49.5659 7.96863 49.9092 7.73843C49.9978 7.67902 50.0762 7.63443 50.1446 7.60466C50.2092 7.56936 50.2867 7.52939 50.3772 7.48477C50.4732 7.43644 50.6089 7.36951 50.7844 7.28399C50.8176 7.26171 50.8545 7.24497 50.8952 7.23376C50.9321 7.21702 50.9718 7.19843 51.0143 7.17797L51.3162 7.03571C51.3642 7.01154 51.4243 6.98735 51.4963 6.96311C51.5683 6.93888 51.6237 6.91377 51.6625 6.88778C51.668 6.88407 51.6754 6.88312 51.6847 6.88495C51.6902 6.88124 51.7004 6.87844 51.7152 6.87655C51.7244 6.87837 51.7355 6.88296 51.7485 6.89032C51.7615 6.89769 51.7726 6.90228 51.7818 6.9041C51.8354 6.90026 51.865 6.89648 51.8705 6.89277L51.8955 6.87606L52.0235 7.03103C52.0587 7.07162 52.0912 7.11406 52.1209 7.15835C52.1506 7.20265 52.183 7.24509 52.2183 7.28567C52.2609 7.33733 52.3138 7.41022 52.377 7.50435C52.4456 7.59477 52.5171 7.69535 52.5913 7.80609C52.6916 7.95559 52.7539 8.07838 52.7782 8.17446C52.8043 8.26129 52.8017 8.34728 52.7705 8.43242L52.006 8.80058L51.8898 8.87855C51.8344 8.91568 51.7984 8.93981 51.7818 8.95095C51.767 8.95284 51.7513 8.95936 51.7347 8.97049C51.7144 8.9761 51.6728 9.00394 51.6101 9.05404L51.6074 9.06791C51.1865 9.35009 50.9314 9.69377 50.8419 10.0989C50.7579 10.5004 50.8514 10.9032 51.1225 11.3074C51.3824 11.695 51.701 11.9188 52.0784 11.9788C52.4613 12.0351 52.8234 11.9167 53.1646 11.6237L53.4939 11.3427C53.5917 11.261 53.6895 11.1674 53.7872 11.0617C53.8904 10.9524 54.0064 10.7662 54.1351 10.5033Z" fill="var(--fill-0, white)"/>
<path id="E" d="M60.3425 7.26966L59.2837 8.44241C59.2345 8.49685 59.1985 8.53172 59.1757 8.54705C59.1484 8.56732 59.1189 8.59007 59.0872 8.61529C59.0604 8.64498 59.0288 8.67491 58.9926 8.70509L58.8148 8.82745C58.7924 8.85219 58.7672 8.86529 58.7389 8.86673C58.729 8.85779 58.7241 8.85333 58.7241 8.85333C58.5954 8.73717 58.4205 8.5927 58.1992 8.41991C58.1201 8.34843 58.0488 8.29307 57.9854 8.25382C57.9265 8.20963 57.8726 8.1699 57.8236 8.13464L57.4984 7.86803C57.4494 7.83277 57.3977 7.79057 57.3433 7.74143C57.2933 7.68734 57.2315 7.6315 57.1577 7.5739L56.9216 7.38771C56.8231 7.30777 56.7368 7.2343 56.6626 7.16729C56.5928 7.09533 56.531 7.03948 56.477 6.99975C56.4523 6.97742 56.4203 6.95309 56.3812 6.92676C56.3416 6.89102 56.2798 6.83518 56.1957 6.75923C56.1066 6.67882 55.9779 6.56266 55.8097 6.41077C55.3396 5.98635 54.9633 5.64212 54.6808 5.37805C54.3977 5.10457 54.1563 4.85965 53.9565 4.64329C53.907 4.59861 53.9183 4.49655 53.9904 4.33711C54.0301 4.28315 54.079 4.22402 54.1371 4.15969C54.1947 4.08594 54.2503 4.01938 54.3039 3.96C54.4871 3.75712 54.6434 3.58393 54.773 3.44043C54.9021 3.28751 55.0041 3.15957 55.0791 3.05662C55.3377 2.7602 55.5653 2.50313 55.7619 2.2854C55.9535 2.06321 56.1186 1.87541 56.2571 1.72202L56.5519 1.39543C56.7395 1.1876 56.9076 1.01145 57.0559 0.866988C57.2043 0.722525 57.3326 0.600329 57.4408 0.500402C57.5078 0.426177 57.6507 0.451919 57.8696 0.57763C57.8983 0.585604 57.9347 0.604986 57.9787 0.635778C58.0228 0.666569 58.0936 0.712517 58.1911 0.773619C58.3089 0.862007 58.402 0.928058 58.4703 0.971771C58.5386 1.01548 58.6044 1.05696 58.6678 1.09621C58.6822 1.1002 58.7116 1.12229 58.7561 1.1625C58.7566 1.17192 58.7742 1.19226 58.8088 1.22353C58.8489 1.26869 58.8466 1.31601 58.8019 1.36549C58.788 1.37092 58.761 1.3959 58.7208 1.44044C58.6225 1.5493 58.5227 1.67476 58.4214 1.81682C58.3196 1.94946 58.2022 2.09943 58.0691 2.26671L57.7503 2.67948L57.439 3.09896C57.4256 3.1138 57.4349 3.15817 57.467 3.23205C57.4882 3.27817 57.4996 3.31535 57.501 3.3436C57.4975 3.36738 57.5158 3.40185 57.5559 3.447L57.7948 3.68969C57.8547 3.75272 57.9035 3.78327 57.9411 3.78134C57.9788 3.77942 58.0222 3.75124 58.0713 3.69681L58.6677 3.03621C58.8375 2.84817 59.0512 2.64138 59.3087 2.41582L59.3757 2.34159C59.4606 2.24757 59.5664 2.23981 59.6931 2.3183L60.4413 2.96688L60.4636 2.98698C60.5527 3.0674 60.5262 3.1962 60.3842 3.37337C60.3589 3.43131 60.3084 3.50705 60.233 3.60059C60.1575 3.69412 60.0371 3.83244 59.8718 4.01552C59.7065 4.19861 59.5971 4.31985 59.5435 4.37923C59.4943 4.43366 59.4561 4.47101 59.4288 4.49128C59.335 4.5952 59.2747 4.662 59.2479 4.69169C59.2211 4.72138 59.2057 4.74341 59.2017 4.75777C59.1669 4.81619 59.148 4.862 59.145 4.89519C59.1415 4.91897 59.167 4.95543 59.2214 5.00458C59.2709 5.04925 59.3627 5.13661 59.4967 5.26665C59.5121 5.28947 59.5348 5.31898 59.565 5.35521C59.5947 5.38201 59.664 5.44456 59.7728 5.54284C60.0409 5.24594 60.2484 5.01114 60.3953 4.83843C60.5423 4.66571 60.6557 4.53012 60.7356 4.43163C60.8602 4.28366 60.9739 4.15277 61.0767 4.03896C61.1789 3.91573 61.2725 3.80711 61.3574 3.71309C61.3708 3.69825 61.406 3.69409 61.463 3.70062C61.5155 3.7121 61.6291 3.7653 61.8039 3.86022C61.9787 3.95514 62.2121 4.08954 62.5042 4.26344C62.5379 4.27588 62.5795 4.30443 62.6289 4.34911C62.7329 4.44293 62.7424 4.53684 62.6575 4.63086C62.5145 4.78921 62.3634 4.97158 62.204 5.17796C62.1776 5.21707 62.1354 5.26879 62.0774 5.33311C62.0238 5.39249 61.9098 5.51868 61.7356 5.71166C61.5792 5.88485 61.405 6.07784 61.2129 6.29061C61.0253 6.49844 60.851 6.69143 60.6902 6.86957C60.5388 7.04723 60.4229 7.18059 60.3425 7.26966Z" fill="var(--fill-0, white)"/>
<path id="I" d="M7.81046 15.4395L7.56693 15.3401C7.4869 15.292 7.4526 15.2131 7.46404 15.1034C7.47776 15.0028 7.50805 14.9004 7.55493 14.7964C7.61095 14.6901 7.6544 14.6112 7.68527 14.5597C7.75044 14.4511 7.78531 14.3865 7.78989 14.3659C7.84248 14.2653 7.91051 14.139 7.99397 13.9869C8.08086 13.8292 8.17748 13.6422 8.28381 13.4261L8.47589 13.0283C8.63138 12.7173 8.76801 12.4572 8.88577 12.2479C9.00696 12.033 9.11043 11.8541 9.19618 11.7112L10.6316 9.31875C10.6659 9.26159 10.734 9.25187 10.8357 9.2896C10.9409 9.32161 11.0535 9.37363 11.1736 9.44566C11.2079 9.46624 11.2479 9.49025 11.2936 9.51769C11.3394 9.54513 11.3834 9.57543 11.4257 9.60859C11.468 9.64175 11.5046 9.67147 11.5354 9.69777C11.5697 9.71835 11.5983 9.7355 11.6212 9.74922C11.6635 9.78238 11.7229 9.82582 11.7995 9.87956C11.8796 9.92758 11.971 9.98246 12.0739 10.0442L12.1237 10.0391L12.5524 10.2963C12.5707 10.3306 12.5913 10.3546 12.6142 10.3683L12.6485 10.3889C12.6667 10.3843 12.7073 10.4009 12.7702 10.4386C12.7794 10.4364 12.7868 10.4369 12.7925 10.4404L12.8097 10.4507C12.8325 10.4644 12.8537 10.481 12.8731 10.5004L12.9229 10.5536L13.4459 10.8674C13.526 10.9154 13.5683 10.968 13.5728 11.0252C13.5808 11.0766 13.5763 11.1166 13.5591 11.1452L12.6536 12.7127C12.6433 12.7299 12.6302 12.7453 12.6141 12.759L12.501 12.8894C12.4061 12.9957 12.3295 13.0974 12.2711 13.1946C12.2163 13.2861 12.1682 13.3661 12.1271 13.4347L10.9746 15.3555L10.7277 15.7088C10.6705 15.7911 10.6185 15.8649 10.5716 15.93C10.5247 15.9952 10.4887 16.0552 10.4635 16.1101C10.3092 16.3673 10.1749 16.52 10.0605 16.568C9.99535 16.5989 9.92275 16.5903 9.84272 16.5423L9.84443 16.52L9.8067 16.4857C9.79527 16.4788 9.78784 16.4782 9.78441 16.484L9.74153 16.4582C9.72095 16.4537 9.70323 16.4508 9.68837 16.4497C9.6735 16.4485 9.6615 16.4491 9.65235 16.4514C9.6352 16.4411 9.60833 16.4211 9.57175 16.3914C9.53516 16.3616 9.49172 16.3239 9.44141 16.2782L9.30936 16.1873C9.28077 16.1701 9.25505 16.1741 9.23218 16.1993L8.34897 15.6693L8.06599 15.5579L7.81046 15.4395Z" fill="var(--fill-0, white)"/>
<path id="F" d="M0.419233 6.77933L0.297076 6.66068C0.238561 6.59675 0.218139 6.52506 0.235808 6.44563C0.262896 6.36661 0.303904 6.29292 0.358832 6.22457C0.423179 6.15664 0.475024 6.10467 0.514365 6.06866L0.669274 5.92687C0.748374 5.84543 0.832392 5.75949 0.921328 5.66906C1.01518 5.57411 1.09899 5.49289 1.17276 5.42537C1.38013 5.21748 1.55309 5.0411 1.69162 4.89623C1.83957 4.75178 1.9533 4.63412 2.03281 4.54327C2.11642 4.46675 2.20043 4.38081 2.28487 4.28545C2.3693 4.1901 2.42648 4.1242 2.4564 4.08778L4.89068 1.85971C4.93986 1.81469 4.98266 1.80715 5.01908 1.83707L5.05959 1.88133L5.07247 1.91021C5.14899 1.99381 5.23697 2.085 5.33642 2.18377C5.43586 2.28254 5.55105 2.39853 5.682 2.53172C5.84446 2.69934 5.99321 2.85692 6.12824 3.00445C6.2727 3.1524 6.40119 3.28784 6.51372 3.41079L6.58123 3.48455C6.59432 3.50872 6.63012 3.55277 6.68864 3.61671L6.87093 3.81587C6.93845 3.88964 6.99922 3.95603 7.05323 4.01504C7.10725 4.07405 7.14755 4.12302 7.17414 4.16195L7.83581 4.88485C7.8714 4.93361 7.91825 4.99467 7.97634 5.06802C8.03936 5.13687 8.11813 5.22293 8.21265 5.3262C8.25317 5.37046 8.27771 5.40222 8.2863 5.42147C8.29939 5.44564 8.31247 5.46981 8.32556 5.49399C8.34807 5.51858 8.37057 5.54316 8.39308 5.56775C8.41108 5.58742 8.43421 5.59788 8.46247 5.59913C8.55699 5.70241 8.50794 5.85123 8.31532 6.04562C8.30015 6.06854 8.28027 6.09125 8.25568 6.11376C8.23559 6.14118 8.21571 6.1639 8.19604 6.1819C8.18129 6.1954 8.14462 6.22445 8.08602 6.26905C8.03234 6.30914 7.98337 6.34944 7.93911 6.38995C7.89977 6.42596 7.84834 6.46852 7.78483 6.51761C7.72582 6.57163 7.65451 6.63689 7.57091 6.71341C7.52173 6.75842 7.46993 6.75613 7.4155 6.70654C7.36107 6.65695 7.30909 6.6051 7.25958 6.55101L6.87473 6.13054L6.67831 5.93075C6.62304 5.89999 6.54815 5.83298 6.45363 5.72971C6.3546 5.62152 6.3053 5.56271 6.30571 5.55329C6.27787 5.54262 6.26395 5.53729 6.26395 5.53729C6.25453 5.53687 6.24532 5.53175 6.23632 5.52191C6.22157 5.53541 6.20948 5.54196 6.20006 5.54154C6.19064 5.54112 6.1761 5.54992 6.15643 5.56792C6.13676 5.58593 6.07324 5.63502 5.96589 5.71521C5.86303 5.80032 5.74563 5.89422 5.61368 5.99691C5.48624 6.10452 5.37088 6.20559 5.26761 6.30011L5.2461 6.30624C5.22152 6.32875 5.20839 6.35884 5.20672 6.39651L5.97642 7.23744C6.07094 7.34072 6.09503 7.43615 6.04869 7.52376C6.0126 7.59294 5.88145 7.73106 5.65523 7.93811L5.05773 8.485C4.96596 8.53285 4.89532 8.52973 4.84581 8.47563C4.8278 8.45596 4.80734 8.43854 4.78441 8.42337C4.77091 8.40862 4.7527 8.39366 4.72978 8.37849L4.4382 8.08955L4.30992 7.94939C4.2469 7.88055 4.19697 7.83587 4.16013 7.81537L4.00972 7.69547L3.92195 7.59957C3.84993 7.52089 3.79508 7.48071 3.7574 7.47905C3.74799 7.47863 3.73161 7.47555 3.70827 7.4698C3.68493 7.46404 3.65646 7.4675 3.62287 7.48017C3.41141 7.67372 3.22966 7.83556 3.07763 7.96567C2.93052 8.09129 2.81516 8.19236 2.73156 8.26888C2.61886 8.36299 2.51868 8.44113 2.43099 8.50331C2.3433 8.5655 2.26341 8.61151 2.19131 8.64135C2.1508 8.59709 2.10129 8.543 2.04277 8.47907C1.98384 8.42455 1.91366 8.35775 1.83222 8.27865C1.79621 8.23931 1.76695 8.20734 1.74445 8.18275C1.71702 8.16267 1.69635 8.14995 1.68243 8.14462L1.61491 8.07085C1.59241 8.04627 1.58136 8.02926 1.58178 8.01984C1.5822 8.01042 1.57565 7.99834 1.56215 7.98358L1.54927 7.9547C1.55419 7.9502 1.5499 7.94057 1.53639 7.92582C1.51839 7.90615 1.49055 7.89548 1.45287 7.89382L0.993252 7.24355C0.983833 7.24313 0.972372 7.23555 0.958869 7.22079L0.875973 7.17466L0.419233 6.77933Z" fill="var(--fill-0, white)"/>
</g>
</svg>
