<svg preserveAspectRatio="none" width="100%" height="100%" overflow="visible" style="display: block;" viewBox="0 0 17.5393 17.9084" fill="none" xmlns="http://www.w3.org/2000/svg">
<g id="Group 906">
<g id="Group 886">
<path id="Vector 112" d="M2.51561 7.57953C2.81044 6.54474 4.07993 4.84283 6.79927 6.3135C7.71183 5.75182 9.83185 4.91155 11.0115 6.04397C12.203 7.18788 12.9067 8.90956 13.1329 9.78754C13.1187 9.50908 13.193 9.29179 13.5026 9.47279C14.105 9.82495 18.7658 16.4279 11.0115 17.4714C3.35876 18.5013 1.75377 16.5444 0.924314 13.5681C0.859189 13.2993 0.92578 12.6239 1.71314 12.0728C1.46891 11.7921 0.912655 11.2001 0.641452 11.0776C0.37025 10.9552 0.324319 10.4798 0.335254 10.2575C0.206523 10.1522 0.0110007 9.84614 0.258756 9.46418C0.568451 8.98674 1.3013 7.86274 2.51561 7.57953Z" fill="var(--fill-0, #62D732)"/>
<path id="Vector 133" d="M1.09914 13.9426C1.30181 12.7618 1.71955 12.3704 2.2342 12.2717L1.8685 12.1145C1.1283 12.3876 0.957934 13.2637 0.965278 13.6676L1.09914 13.9426Z" fill="var(--fill-0, #FFE598)"/>
<path id="Vector 130" d="M4.41652 7.6917C2.26475 7.84221 1.80358 8.23492 1.50756 8.50167H1.15332C1.72909 7.94541 2.50004 7.77951 2.68546 7.69169C2.83379 7.62143 4.30592 7.63315 4.41652 7.6917Z" fill="var(--fill-0, #FFE598)"/>
<path id="Vector 129" d="M4.80646 7.46095C4.80646 6.81656 5.40716 6.21859 5.70751 6.00015C5.87233 5.86324 6.54393 6.18364 6.85912 6.36095C6.38454 6.71488 6.19215 7.48039 6.15529 7.8189C5.72896 8.05218 5.32073 8.66016 5.16991 8.93499L4.44596 8.61324C4.04377 8.25931 4.51871 7.69758 4.80646 7.46095Z" fill="var(--fill-0, #226D29)"/>
<path id="Vector 119 (Stroke)" fill-rule="evenodd" clip-rule="evenodd" d="M9.98602 9.50461C7.5179 7.85214 5.82136 8.5291 5.30438 9.02289L5.23798 9.0863L5.15649 9.04402C3.26977 8.06506 1.51139 8.58724 0.880448 8.96073C0.819394 8.99687 0.740601 8.97667 0.70446 8.91562C0.668319 8.85456 0.688515 8.77577 0.74957 8.73963C1.43186 8.33575 3.24511 7.80287 5.19547 8.77559C5.87546 8.20116 7.66972 7.64458 10.129 9.29112C10.1879 9.33059 10.2037 9.41038 10.1642 9.46933C10.1248 9.52829 10.045 9.54408 9.98602 9.50461Z" fill="var(--fill-0, black)"/>
<path id="Vector 115" d="M7.98032 9.41652C6.67057 9.05015 5.35854 9.56917 4.86624 9.87448C4.78382 10.076 4.96928 10.4469 5.07232 10.6072C6.60188 11.807 9.03743 10.8553 10.064 10.2294C9.43432 10.2637 9.6175 9.87448 7.98032 9.41652Z" fill="var(--fill-0, white)"/>
<path id="Vector 115 (Stroke)" fill-rule="evenodd" clip-rule="evenodd" d="M4.9565 9.94484C4.95182 9.96968 4.9509 10.0011 4.95524 10.0395C4.96144 10.0945 4.97753 10.1564 5.00031 10.2206C5.043 10.3409 5.10529 10.4584 5.1525 10.5343C5.88112 11.097 6.82938 11.1603 7.73761 10.9977C8.49459 10.8622 9.21047 10.5718 9.72045 10.3012C9.70093 10.2951 9.68181 10.2883 9.66292 10.2808C9.57019 10.2436 9.48488 10.1891 9.39144 10.1294C9.37538 10.1191 9.35907 10.1087 9.34245 10.0981C9.1131 9.95307 8.7591 9.74571 7.95118 9.51971C6.70986 9.17249 5.45888 9.64654 4.9565 9.94484ZM4.80953 9.78362C5.31635 9.4693 6.65983 8.93619 8.00885 9.31354C8.83811 9.54551 9.21111 9.76175 9.45689 9.91721C9.47544 9.92895 9.49291 9.94009 9.5095 9.95067C9.60406 10.0109 9.66997 10.053 9.74249 10.082C9.82202 10.1138 9.9125 10.1305 10.0579 10.1226L10.1194 10.3209C9.59714 10.6393 8.71922 11.0394 7.77534 11.2084C6.83277 11.3771 5.80501 11.3183 5.00595 10.6915L4.99174 10.6804L4.98197 10.6652C4.92701 10.5797 4.8508 10.4395 4.79855 10.2922C4.77238 10.2184 4.75112 10.1399 4.74251 10.0635C4.734 9.98815 4.73694 9.90723 4.76687 9.83406L4.78002 9.80192L4.80953 9.78362Z" fill="var(--fill-0, black)"/>
<path id="Vector 114" d="M4.85964 9.8212C2.37256 8.6696 0.775005 9.56717 0.287109 10.1599C1.20645 11.5631 3.9282 11.0994 5.17415 10.6922C4.92254 10.547 4.85964 10.051 4.85964 9.8212Z" fill="var(--fill-0, white)"/>
<path id="Vector 114 (Stroke)" fill-rule="evenodd" clip-rule="evenodd" d="M0.422507 10.1674C0.864828 10.7713 1.6987 10.9895 2.609 10.9977C3.46201 11.0054 4.35119 10.8278 4.96781 10.6441C4.89633 10.5472 4.8499 10.4277 4.81925 10.3167C4.77771 10.1662 4.75922 10.0094 4.75406 9.89043C2.4288 8.83898 0.930747 9.6198 0.422507 10.1674ZM0.20435 10.0917C0.72619 9.45768 2.37763 8.55382 4.9045 9.72384L4.96656 9.75258L4.96656 9.82098C4.96656 9.9284 4.9815 10.1 5.02561 10.2597C5.0714 10.4256 5.14054 10.549 5.22753 10.5992L5.43538 10.7191L5.2073 10.7937C4.57649 10.9999 3.57275 11.2205 2.60707 11.2118C1.64776 11.2031 0.688101 10.9672 0.197459 10.2183L0.154297 10.1525L0.20435 10.0917Z" fill="var(--fill-0, black)"/>
<path id="Vector 128" d="M12.2669 10.3428C11.0105 9.18568 12.2669 8.72014 10.8492 5.99485C11.8631 6.16317 12.6138 8.24302 12.9905 9.33215C13.8321 9.62827 14.4559 10.5335 14.6626 10.9491C16.0814 13.9102 15.0212 15.2107 14.6626 15.8383C14.3039 16.466 12.6003 17.0937 10.2017 17.542C7.80316 17.9903 5.28467 17.5685 4.5441 17.3914C3.95165 17.2497 3.2991 16.7206 3.04688 16.4737C4.65663 17.0363 8.55884 17.8493 11.2897 16.6009C14.7033 15.0404 13.8373 11.7893 12.2669 10.3428Z" fill="var(--fill-0, #226D29)"/>
<path id="Vector 131" d="M5.87733 5.96682C3.5422 5.88631 3.00759 6.93097 2.8165 7.60431L2.52225 7.71145C2.23707 7.27529 3.47845 5.84939 3.36102 6.18489C4.44807 5.56756 5.4915 5.78229 5.87733 5.96682Z" fill="var(--fill-0, #FFE598)"/>
<path id="Vector 113 (Stroke)" fill-rule="evenodd" clip-rule="evenodd" d="M11.1283 8.30608C8.96355 6.76977 7.03054 7.41623 6.34973 7.91162L6.29665 7.95024L6.23426 7.92986C5.84336 7.80218 5.1913 7.72253 4.50365 7.70023C3.8179 7.67799 3.11363 7.71329 2.62217 7.8078C1.4174 8.03949 0.752372 8.95351 0.371248 9.54251C0.237475 9.74925 0.242518 9.90307 0.279502 10.0096C0.319136 10.1237 0.402965 10.2039 0.454143 10.2412L0.303026 10.449C0.226486 10.3933 0.0994588 10.2743 0.0367954 10.0939C-0.0285166 9.90582 -0.0172109 9.66991 0.155538 9.40293C0.540719 8.80766 1.25647 7.8088 2.57365 7.55549C3.09097 7.45601 3.81615 7.42087 4.51198 7.44344C5.17317 7.46488 5.82321 7.53888 6.25197 7.6663C7.05042 7.12283 9.06277 6.52512 11.277 8.09655C11.3349 8.13761 11.3485 8.2178 11.3075 8.27566C11.2664 8.33352 11.1862 8.34714 11.1283 8.30608Z" fill="var(--fill-0, black)"/>
<path id="Vector 116 (Stroke)" fill-rule="evenodd" clip-rule="evenodd" d="M10.5969 10.2472C10.3663 10.2891 10.1218 10.3442 9.96743 10.382L9.90625 10.1325C10.0643 10.0938 10.3141 10.0375 10.551 9.99448C10.6694 9.97298 10.7861 9.95449 10.8873 9.9432C10.9849 9.93233 11.0799 9.92666 11.1487 9.93632C11.219 9.94618 11.2679 10.0111 11.2581 10.0814C11.2482 10.1516 11.1833 10.2006 11.113 10.1907C11.0791 10.186 11.0125 10.1877 10.9158 10.1985C10.8227 10.2089 10.7123 10.2263 10.5969 10.2472Z" fill="var(--fill-0, black)"/>
<path id="Vector 132" d="M10.912 6.05488C8.65472 5.23296 7.02547 6.43816 6.34708 7.62853C6.26215 6.92056 6.94547 6.32144 7.30231 6.11139C9.41662 4.94392 10.6025 5.63337 10.7036 5.67933C10.7845 5.7161 10.8315 5.88229 10.912 6.05488Z" fill="var(--fill-0, #FFE598)"/>
<path id="Vector 120 (Stroke)" fill-rule="evenodd" clip-rule="evenodd" d="M7.34648 6.1131C7.37212 6.16636 7.34974 6.23033 7.29647 6.25598C7.1253 6.3384 6.86886 6.51746 6.66934 6.78139C6.47118 7.04352 6.33192 7.38512 6.38131 7.79926L6.39046 7.87597L6.32055 7.90882C6.1876 7.97129 5.97395 8.10044 5.77565 8.28086C5.57663 8.46192 5.40172 8.68672 5.33126 8.93892C5.31535 8.99585 5.25629 9.02911 5.19936 9.0132C5.14242 8.9973 5.10916 8.93824 5.12507 8.88131C5.21061 8.57517 5.41715 8.3176 5.63158 8.12251C5.81654 7.95423 6.0138 7.82658 6.16146 7.749C6.12887 7.3022 6.28673 6.9325 6.49856 6.65229C6.72086 6.35824 7.00529 6.15857 7.2036 6.06309C7.25686 6.03745 7.32083 6.05983 7.34648 6.1131Z" fill="var(--fill-0, black)"/>
<path id="Vector 117 (Stroke)" fill-rule="evenodd" clip-rule="evenodd" d="M8.8905 5.6808C8.10716 5.80097 7.38157 6.16517 6.93336 6.48539L6.84197 6.55069L6.75364 6.48129C6.55113 6.32217 6.25411 6.19445 5.95428 6.09991C5.65965 6.00701 5.37612 5.95038 5.20589 5.92666C4.24498 5.85617 3.62092 6.14057 3.22517 6.51421C2.8242 6.89279 2.64525 7.37481 2.6002 7.71067C2.58919 7.7927 2.51376 7.85029 2.43172 7.83928C2.34968 7.82828 2.2921 7.75285 2.30311 7.67081C2.35571 7.27873 2.56043 6.72958 3.01939 6.29626C3.48293 5.85861 4.19368 5.55069 5.23283 5.62808L5.23749 5.62843L5.24212 5.62906C5.42751 5.65455 5.73007 5.71492 6.04442 5.81403C6.31939 5.90074 6.6145 6.02049 6.84834 6.17953C7.32956 5.85457 8.05622 5.50553 8.84505 5.38452C9.68773 5.25524 10.6141 5.38538 11.3761 6.0989C12.0884 6.76586 12.5234 7.38094 12.8165 8.058C13.1081 8.73156 13.256 9.45943 13.4036 10.3418C13.4172 10.4234 13.3621 10.5007 13.2805 10.5144C13.1988 10.528 13.1216 10.4729 13.1079 10.3912C12.9606 9.51013 12.8172 8.81415 12.5414 8.1771C12.2671 7.54356 11.8585 6.96128 11.1712 6.3177C10.4947 5.68424 9.67042 5.56116 8.8905 5.6808Z" fill="var(--fill-0, black)"/>
<path id="Vector 118 (Stroke)" fill-rule="evenodd" clip-rule="evenodd" d="M9.87323 9.84891C7.65849 8.37647 5.72156 8.96926 5.04431 9.43232L4.99555 9.46566L4.94135 9.44219C2.60271 8.42958 0.881965 9.18635 0.327809 9.66962C0.283249 9.70848 0.215623 9.70386 0.176763 9.6593C0.137903 9.61474 0.142524 9.54712 0.187084 9.50825C0.798925 8.97468 2.58541 8.2117 4.97297 9.22282C5.75404 8.72248 7.74717 8.17901 9.99053 9.66978C9.99032 9.66961 9.99067 9.66972 9.99169 9.67004C9.99659 9.67158 10.0168 9.67793 10.0643 9.6814C10.1183 9.68534 10.1934 9.6848 10.2914 9.67809C10.487 9.66472 10.7643 9.62753 11.1274 9.55961C11.1855 9.54874 11.2415 9.58704 11.2523 9.64516C11.2632 9.70327 11.2249 9.7592 11.1668 9.77007C10.7993 9.8388 10.5131 9.87755 10.306 9.8917C10.2027 9.89877 10.1166 9.89989 10.0487 9.89494C9.98689 9.89042 9.92103 9.87994 9.87421 9.84956L9.87372 9.84924L9.87323 9.84891Z" fill="var(--fill-0, black)"/>
<path id="Ellipse 17" d="M8.05795 10.2362C8.05795 10.6992 7.65082 11.0745 7.1486 11.0745C6.64639 11.0745 6.23926 10.6992 6.23926 10.2362C6.23926 9.77325 6.64639 9.39793 7.1486 9.39793C7.65082 9.39793 8.05795 9.77325 8.05795 10.2362Z" fill="var(--fill-0, black)"/>
<path id="Ellipse 19" d="M7.53622 9.98556C7.5188 10.0681 7.42503 10.1183 7.32677 10.0975C7.22851 10.0768 7.16297 9.99308 7.18039 9.91051C7.1978 9.82793 7.29157 9.7778 7.38983 9.79852C7.48809 9.81924 7.55363 9.90298 7.53622 9.98556Z" fill="var(--fill-0, white)"/>
<path id="Ellipse 20" d="M7.19321 10.5049C7.16838 10.6227 7.03464 10.6942 6.8945 10.6646C6.75436 10.6351 6.66089 10.5156 6.68573 10.3979C6.71056 10.2801 6.8443 10.2086 6.98444 10.2382C7.12458 10.2677 7.21805 10.3872 7.19321 10.5049Z" fill="var(--fill-0, white)"/>
<path id="Vector 121 (Stroke)" fill-rule="evenodd" clip-rule="evenodd" d="M12.958 9.27124C12.9923 9.19588 13.0811 9.16253 13.1565 9.19676C14.0577 9.60606 15.854 11.1633 15.5283 14.2764C15.3502 15.9787 13.8531 16.9039 12.1317 17.3905C10.4011 17.8796 8.3759 17.9478 7.00555 17.8921C6.11549 17.88 4.74176 17.6675 3.49869 17.0671C2.25316 16.4654 1.12272 15.4653 0.764326 13.8733C0.673177 13.4943 0.707733 12.6602 1.45998 12.0821C1.23927 11.9136 0.968472 11.6817 0.729684 11.4254C0.576629 11.2611 0.433838 11.0836 0.325801 10.9036C0.218623 10.725 0.1397 10.5341 0.12708 10.3448C0.121574 10.2622 0.184063 10.1908 0.266654 10.1852C0.349245 10.1797 0.420662 10.2422 0.426168 10.3248C0.434373 10.4479 0.488166 10.5916 0.582823 10.7493C0.676621 10.9056 0.804782 11.0662 0.949026 11.2211C1.23769 11.531 1.57919 11.8057 1.80401 11.9626L1.99037 12.0927L1.79743 12.2128C1.01045 12.7026 0.978961 13.4856 1.05597 13.804L1.05626 13.8052L1.05652 13.8064C1.38799 15.2805 2.43407 16.2199 3.62906 16.7972C4.82584 17.3752 6.1558 17.581 7.01158 17.5924L7.01365 17.5924L7.01571 17.5925C8.3716 17.6478 10.3622 17.5791 12.0501 17.102C13.748 16.6221 15.0726 15.7509 15.2301 14.2453C15.5404 11.2796 13.8349 9.83411 13.0325 9.46968C12.9572 9.43545 12.9238 9.34661 12.958 9.27124Z" fill="var(--fill-0, black)"/>
<path id="Ellipse 18" d="M3.64005 10.2361C3.64005 10.6991 3.23292 11.0744 2.7307 11.0744C2.22848 11.0744 1.82136 10.6991 1.82136 10.2361C1.82136 9.77315 2.22848 9.39783 2.7307 9.39783C3.23292 9.39783 3.64005 9.77315 3.64005 10.2361Z" fill="var(--fill-0, black)"/>
<path id="Ellipse 21" d="M3.12117 10.0156C3.10376 10.0981 3.00998 10.1483 2.91172 10.1275C2.81346 10.1068 2.74793 10.0231 2.76534 9.94051C2.78276 9.85794 2.87653 9.8078 2.97479 9.82852C3.07305 9.84924 3.13859 9.93298 3.12117 10.0156Z" fill="var(--fill-0, white)"/>
<path id="Ellipse 22" d="M2.7799 10.5348C2.75506 10.6526 2.62132 10.7241 2.48118 10.6946C2.34104 10.665 2.24757 10.5456 2.27241 10.4278C2.29725 10.31 2.43099 10.2385 2.57113 10.2681C2.71127 10.2977 2.80474 10.4171 2.7799 10.5348Z" fill="var(--fill-0, white)"/>
<path id="Vector 122" d="M0.687558 13.779C1.26416 14.1197 2.33657 14.4342 2.8007 14.5489C4.55887 15.0089 8.91787 13.9598 10.0153 13.779C11.8103 13.4833 11.4354 15.509 10.6124 15.4929C9.78932 15.4767 7.77207 15.8641 6.85221 16.1115C5.93234 16.359 2.60662 16.5081 1.67663 16.1115C0.746642 15.7149 1.44413 15.0995 1.3484 15.0721C1.27181 15.0502 0.875927 14.8452 0.687558 14.7455C-0.0463106 14.1164 0.38178 13.8391 0.687558 13.779Z" fill="var(--fill-0, #FC6745)"/>
<path id="Vector 122 (Stroke)" fill-rule="evenodd" clip-rule="evenodd" d="M11.2263 15.2617C11.088 15.4676 10.8741 15.6262 10.6107 15.6211C10.2131 15.6133 9.51421 15.7038 8.79152 15.8297C8.0719 15.955 7.3416 16.1129 6.88647 16.2353C6.41004 16.3635 5.33488 16.4626 4.27135 16.4813C3.73724 16.4906 3.20106 16.4798 2.73856 16.4414C2.28051 16.4034 1.88018 16.3374 1.62712 16.2295C1.37974 16.124 1.22219 15.9963 1.13658 15.8505C1.04928 15.7018 1.04691 15.5518 1.07517 15.4251C1.10064 15.311 1.15198 15.2115 1.18913 15.1436C1.18796 15.143 1.18679 15.1425 1.18563 15.1419C1.13327 15.1174 1.06953 15.086 1.00304 15.0525C0.869922 14.9855 0.723026 14.9089 0.628315 14.8588L0.615688 14.8521L0.60484 14.8428C0.234227 14.5251 0.0949248 14.2456 0.177103 14.0068C0.216589 13.8921 0.301245 13.8114 0.388719 13.7574C0.476422 13.7032 0.57585 13.6699 0.663683 13.6527L0.711683 13.6433L0.753798 13.6682C1.31254 13.9983 2.36831 14.3093 2.8324 14.4239L2.83325 14.4242L2.8341 14.4244C3.25383 14.5342 3.8397 14.5559 4.50931 14.5196C5.17626 14.4834 5.91551 14.3904 6.63671 14.2771C7.35759 14.1638 8.05838 14.0305 8.64826 13.914C8.8137 13.8813 8.9708 13.8499 9.11732 13.8206C9.49121 13.7458 9.79623 13.6848 9.99526 13.652C10.4652 13.5746 10.8167 13.6454 11.0578 13.82C11.2999 13.9953 11.4091 14.2598 11.4247 14.5232C11.4403 14.7849 11.3648 15.0552 11.2263 15.2617ZM1.23346 15.0604C1.23344 15.0604 1.23342 15.0605 1.2334 15.0605C1.23423 15.0578 1.23459 15.0576 1.23346 15.0604ZM10.9071 14.0281C10.7393 13.9066 10.4646 13.8351 10.037 13.9055C9.84262 13.9375 9.54461 13.9971 9.17342 14.0714C9.02588 14.1009 8.86678 14.1327 8.69803 14.166C8.10702 14.2827 7.40241 14.4168 6.6766 14.5309C5.95111 14.6449 5.20236 14.7393 4.52322 14.7761C3.84716 14.8128 3.2292 14.7932 2.76993 14.6732C2.31678 14.5612 1.27067 14.256 0.668087 13.9154C0.617318 13.9291 0.566645 13.9494 0.523766 13.9759C0.467906 14.0104 0.434073 14.0497 0.420048 14.0904C0.39545 14.1619 0.408525 14.3329 0.761323 14.6384C0.855076 14.688 0.99327 14.76 1.11852 14.823C1.18412 14.856 1.24549 14.8862 1.29479 14.9094C1.31948 14.9209 1.34043 14.9304 1.357 14.9375C1.36527 14.941 1.37194 14.9437 1.37709 14.9457C1.38261 14.9478 1.3848 14.9484 1.38458 14.9484C1.4085 14.9552 1.43646 14.9699 1.45798 14.998C1.47895 15.0254 1.48544 15.0545 1.48675 15.0758C1.489 15.1123 1.47707 15.1432 1.472 15.1559C1.46149 15.1821 1.4436 15.2144 1.42851 15.2416C1.4265 15.2452 1.42453 15.2487 1.42264 15.2521C1.38525 15.3199 1.3446 15.3975 1.32594 15.4811C1.30804 15.5613 1.31165 15.6412 1.35813 15.7204C1.40628 15.8024 1.5103 15.9003 1.72791 15.9931C1.93985 16.0835 2.30398 16.1476 2.75981 16.1854C3.21118 16.2228 3.7383 16.2336 4.26685 16.2244C5.32865 16.2057 6.37628 16.1065 6.81972 15.9872C7.28445 15.8622 8.02271 15.7027 8.74744 15.5765C9.4691 15.4509 10.1904 15.3559 10.6158 15.3642C10.7639 15.3671 10.9055 15.2786 11.0129 15.1185C11.12 14.9589 11.1805 14.7443 11.1682 14.5385C11.1561 14.3345 11.0739 14.1489 10.9071 14.0281Z" fill="var(--fill-0, black)"/>
<path id="Vector 123 (Stroke)" fill-rule="evenodd" clip-rule="evenodd" d="M9.2536 14.9267C8.70923 15.0143 8.08376 15.141 7.67398 15.2311L7.67034 15.2319L7.66666 15.2325C4.1005 15.8019 1.72697 15.3322 0.968285 15.0138C0.902863 14.9863 0.872085 14.911 0.899539 14.8456C0.926994 14.7802 1.00229 14.7494 1.06771 14.7769C1.76872 15.071 4.08911 15.5429 7.62248 14.9794C8.0352 14.8887 8.66365 14.7614 9.2128 14.6731C9.4878 14.6288 9.7456 14.5939 9.94733 14.5786C10.0478 14.571 10.1379 14.5679 10.2108 14.5717C10.2471 14.5736 10.2823 14.5773 10.3138 14.5841C10.343 14.5904 10.381 14.6018 10.4139 14.6262C10.4709 14.6685 10.4828 14.7489 10.4405 14.8059C10.3999 14.8606 10.3242 14.8737 10.2678 14.8373C10.2661 14.8368 10.2634 14.8361 10.2595 14.8352C10.2463 14.8324 10.226 14.8297 10.1974 14.8283C10.1404 14.8253 10.0627 14.8275 9.96681 14.8348C9.77572 14.8493 9.52617 14.8829 9.2536 14.9267Z" fill="var(--fill-0, black)"/>
<path id="Vector 124 (Stroke)" fill-rule="evenodd" clip-rule="evenodd" d="M5.21374 11.8096C5.241 11.8751 5.21 11.9503 5.1445 11.9775C3.21887 12.7789 1.8008 12.3199 1.3115 11.9627C1.25421 11.9208 1.24167 11.8405 1.28351 11.7832C1.32534 11.7259 1.4057 11.7134 1.46299 11.7552C1.87111 12.0532 3.19258 12.5115 5.0458 11.7403C5.1113 11.7131 5.18649 11.7441 5.21374 11.8096Z" fill="var(--fill-0, black)"/>
<path id="Vector 125 (Stroke)" fill-rule="evenodd" clip-rule="evenodd" d="M10.4447 10.5683C10.4791 10.6304 10.4567 10.7086 10.3946 10.743C8.6857 11.6908 7.46885 11.9127 6.63983 11.8666C5.80744 11.8203 5.37948 11.5044 5.25077 11.4079C5.12529 11.3138 5.05776 11.1716 5.01949 11.0365C4.98081 10.9 4.96757 10.7549 4.96206 10.6366C4.95876 10.5658 5.01353 10.5056 5.08439 10.5023C5.15525 10.499 5.21538 10.5538 5.21868 10.6247C5.22387 10.7361 5.23597 10.8582 5.26666 10.9665C5.29775 11.0762 5.3436 11.1564 5.4049 11.2023L5.40583 11.203C5.5119 11.2826 5.89196 11.5677 6.6541 11.6101C7.42185 11.6528 8.59052 11.4499 10.27 10.5183C10.3321 10.4839 10.4103 10.5063 10.4447 10.5683Z" fill="var(--fill-0, black)"/>
<path id="Vector 126 (Stroke)" fill-rule="evenodd" clip-rule="evenodd" d="M5.31008 11.7998C5.34045 11.864 5.31309 11.9405 5.24898 11.9709C4.96632 12.1048 4.53814 12.3212 4.17282 12.5346C3.98983 12.6415 3.82557 12.7459 3.70392 12.8376C3.64295 12.8836 3.59547 12.9243 3.56234 12.9586C3.54586 12.9757 3.53444 12.9897 3.52701 13.0005C3.52042 13.0101 3.51871 13.0147 3.51868 13.0147C3.49901 13.0827 3.42808 13.122 3.36001 13.1025C3.2918 13.083 3.2523 13.0119 3.27179 12.9437C3.28977 12.8808 3.33432 12.825 3.37742 12.7803C3.42357 12.7325 3.48274 12.6826 3.54927 12.6325C3.68262 12.532 3.85675 12.4217 4.04324 12.3128C4.41689 12.0945 4.85208 11.8747 5.13901 11.7387C5.20312 11.7084 5.27971 11.7357 5.31008 11.7998Z" fill="var(--fill-0, black)"/>
<path id="Vector 127 (Stroke)" fill-rule="evenodd" clip-rule="evenodd" d="M5.73362 12.0197C5.76225 11.9548 5.83808 11.9254 5.90299 11.9541C6.13946 12.0584 6.53605 12.2116 6.95238 12.33C7.37314 12.4497 7.79608 12.5284 8.09332 12.4971C8.16387 12.4897 8.22709 12.5409 8.23451 12.6114C8.24194 12.682 8.19077 12.7452 8.12022 12.7526C7.77055 12.7894 7.30685 12.6979 6.8821 12.5771C6.45293 12.455 6.04515 12.2976 5.79929 12.1891C5.73439 12.1605 5.70498 12.0846 5.73362 12.0197Z" fill="var(--fill-0, black)"/>
</g>
<path id="Vector 380" d="M7.86798 2.05262C11.4867 1.4277 19.8732 4.64902 16.646 13.0563C13.6972 8.2749 6.996 6.55201 7.86798 2.05262Z" fill="var(--fill-0, #A2A6A9)"/>
<path id="Vector 380 (Stroke)" fill-rule="evenodd" clip-rule="evenodd" d="M8.01274 2.20059C7.66812 4.28221 9.02694 5.75275 10.9312 7.31842C11.2839 7.60839 11.6546 7.90091 12.034 8.20031C13.6337 9.4628 15.3885 10.8477 16.605 12.6797C17.2912 10.7434 17.3404 9.10633 16.9814 7.74542C16.6029 6.31062 15.7669 5.16808 14.7163 4.29744C12.6526 2.5871 9.78261 1.94344 8.01274 2.20059ZM17.3078 7.65932C17.7074 9.17395 17.6205 10.9882 16.8034 13.1169L16.6812 13.4353L16.5022 13.145C15.3179 11.2247 13.5228 9.80703 11.8427 8.48016C11.4585 8.17672 11.0804 7.87804 10.7169 7.57918C8.78648 5.99208 7.2455 4.37681 7.70213 2.0206L7.7243 1.90621L7.83912 1.88638C9.69955 1.5651 12.7502 2.22955 14.9318 4.03752C16.0268 4.945 16.9084 6.1451 17.3078 7.65932Z" fill="var(--fill-0, black)"/>
<path id="Vector 362" d="M15.8886 15.5644C16.7838 14.5839 16.4392 11.1651 16.155 9.57835C16.155 8.72607 15.5147 7.28354 15.1945 6.66881C13.8828 6.43032 9.65421 3.51483 7.70388 2.08691C7.39847 2.26025 6.18345 2.98085 3.7666 4.47652C1.34975 5.9722 0.56033 8.1745 0.467728 9.08869C5.50642 3.77227 12.9499 10.0038 13.1853 10.2055C13.3735 10.3669 13.9173 13.2888 14.1656 14.7295C14.3669 15.4164 14.9933 16.5449 15.8886 15.5644Z" fill="var(--fill-0, #D9D9D9)"/>
<path id="Vector 362 (Stroke)" fill-rule="evenodd" clip-rule="evenodd" d="M7.71472 1.88632L7.8028 1.95081C8.77596 2.66331 10.3177 3.74703 11.7788 4.68181C12.5096 5.1493 13.2181 5.57821 13.8242 5.90456C14.4369 6.23444 14.9255 6.44859 15.2239 6.50284L15.3052 6.51763L15.3434 6.59094C15.5064 6.90384 15.7496 7.42474 15.9524 7.97632C16.1512 8.51654 16.3192 9.10707 16.323 9.56315C16.4656 10.3639 16.6223 11.6171 16.6321 12.7974C16.637 13.3909 16.6049 13.9715 16.513 14.4693C16.4222 14.9617 16.2687 15.3976 16.0124 15.6783C15.7728 15.9407 15.531 16.0844 15.2883 16.112C15.0421 16.14 14.8291 16.0449 14.6578 15.9018C14.3254 15.624 14.1065 15.1308 14.0028 14.7771L14.0001 14.7678L13.9984 14.7583C13.8745 14.0389 13.6768 12.9501 13.4868 12.0217C13.3917 11.5572 13.2989 11.1349 13.2186 10.8197C13.1783 10.6617 13.1419 10.5336 13.1107 10.4416C13.0949 10.3953 13.0816 10.3616 13.071 10.339C13.0679 10.3324 13.0655 10.3277 13.0637 10.3245C12.8726 10.163 11.0023 8.62333 8.56915 7.73648C6.07971 6.82912 3.04266 6.61647 0.589448 9.2049L0.249155 9.56394L0.299009 9.07178C0.396421 8.11009 1.21169 5.85874 3.67698 4.33309C6.09382 2.83742 7.31129 2.1153 7.61978 1.94021L7.71472 1.88632ZM7.69208 2.28801C7.27436 2.53019 6.07077 3.24868 3.85463 4.62015C1.87358 5.84613 1.01535 7.55316 0.736236 8.58595C3.24829 6.27085 6.26132 6.53601 8.68475 7.41931C11.2332 8.34818 13.1711 9.9719 13.2943 10.0775C13.336 10.1132 13.3618 10.1641 13.3765 10.1954C13.3947 10.2341 13.4126 10.281 13.4303 10.3329C13.4657 10.4372 13.5046 10.5752 13.5457 10.7363C13.628 11.0593 13.722 11.4878 13.8175 11.954C14.0076 12.8829 14.205 13.9698 14.3295 14.6913C14.428 15.0228 14.6217 15.4317 14.8743 15.6428C14.9967 15.7451 15.1208 15.7913 15.2501 15.7766C15.3829 15.7614 15.5551 15.6785 15.7631 15.4507C15.9545 15.2411 16.0936 14.882 16.1811 14.408C16.2675 13.9394 16.2993 13.3823 16.2945 12.8002C16.2848 11.6365 16.129 10.3949 15.9881 9.60821L15.9854 9.59345V9.57845C15.9854 9.18428 15.8349 8.6346 15.6356 8.09286C15.453 7.59628 15.2362 7.12429 15.0803 6.81747C14.726 6.73358 14.2285 6.50566 13.6642 6.20179C13.0476 5.86978 12.3311 5.43586 11.5969 4.96618C10.172 4.05455 8.67256 3.00322 7.69208 2.28801Z" fill="var(--fill-0, black)"/>
<path id="Vector 371" d="M4.677 6.40734C4.75612 5.53676 5.69458 3.96521 5.71719 3.94824C4.69058 4.37335 4.28319 4.82259 4.20783 4.99407C4.12115 5.20323 3.9297 5.67357 3.85734 5.8816C3.76689 6.14165 3.67077 6.49779 3.78383 6.53171C3.87428 6.55884 4.41696 6.4601 4.677 6.40734Z" fill="var(--fill-0, #94989D)"/>
<path id="Vector 371 (Stroke)" fill-rule="evenodd" clip-rule="evenodd" d="M4.24686 5.01064C4.15998 5.22031 3.96926 5.68894 3.89743 5.89545C3.85244 6.02478 3.80672 6.17619 3.78611 6.29845C3.77573 6.36004 3.77231 6.41097 3.77698 6.44695C3.78194 6.48524 3.79321 6.49039 3.79619 6.49128C3.8009 6.49269 3.81369 6.49432 3.83739 6.49412C3.85974 6.49392 3.88808 6.49219 3.92132 6.48912C3.98772 6.48297 4.07119 6.47167 4.16058 6.45778C4.32577 6.43211 4.50923 6.3979 4.6384 6.3721C4.68761 5.93076 4.93925 5.33082 5.18064 4.83908C5.30474 4.58629 5.42703 4.36032 5.51976 4.19642C5.55461 4.13481 5.58532 4.08191 5.61041 4.0396C5.16545 4.23408 4.84866 4.43051 4.63198 4.59952C4.3949 4.78444 4.28062 4.93421 4.24686 5.01064ZM4.58008 4.53298C4.8231 4.34342 5.18501 4.12303 5.70128 3.90925L5.74274 3.98198C5.74568 3.97977 5.74783 3.97747 5.74876 3.97637C5.74851 3.97671 5.74803 3.97737 5.74727 3.97845C5.74528 3.98131 5.74233 3.98575 5.73838 3.99189C5.73054 4.00409 5.71948 4.0219 5.70559 4.04488C5.67786 4.09077 5.63924 4.1566 5.5932 4.23797C5.50113 4.40071 5.37963 4.62521 5.25639 4.87626C5.00891 5.38041 4.75802 5.98454 4.71925 6.41114L4.71641 6.44243L4.68562 6.44867C4.55519 6.47514 4.35385 6.51314 4.17353 6.54116C4.08344 6.55516 3.99802 6.56676 3.92911 6.57314C3.89469 6.57633 3.86376 6.57828 3.83811 6.5785C3.8138 6.57871 3.78985 6.57748 3.77194 6.57211L3.78367 6.53303L3.77194 6.57211C3.71839 6.55604 3.69928 6.50396 3.69329 6.4578C3.68701 6.40934 3.69208 6.34862 3.7029 6.28442C3.7247 6.15513 3.77226 5.99844 3.81773 5.86773C3.89057 5.65831 4.08253 5.18677 4.16909 4.9779L4.16943 4.97707L4.16944 4.97708C4.21127 4.8819 4.33838 4.72151 4.58008 4.53298ZM5.74894 3.97614C5.74947 3.97546 5.74937 3.97566 5.74876 3.97637C5.74885 3.97625 5.74891 3.97618 5.74894 3.97614Z" fill="var(--fill-0, black)"/>
<path id="Vector 372" d="M3.3163 6.58219C3.33487 6.39668 3.50567 5.45368 3.58875 5.00537C3.24092 5.09812 2.70179 5.64306 2.696 5.71843C2.69136 5.77872 2.60903 6.56287 2.56844 6.94742C2.56844 6.8964 3.06701 6.68268 3.3163 6.58219Z" fill="var(--fill-0, #94989D)"/>
<path id="Vector 372 (Stroke)" fill-rule="evenodd" clip-rule="evenodd" d="M3.64065 4.94751L3.62849 5.01317C3.54515 5.46284 3.37487 6.40328 3.35653 6.58651L3.35398 6.6119L3.33032 6.62144C3.20606 6.67153 3.01982 6.74978 2.86491 6.82173C2.78731 6.85778 2.71845 6.89184 2.66934 6.91975C2.6446 6.93381 2.62618 6.94558 2.61442 6.95468C2.60856 6.95922 2.60568 6.96208 2.60464 6.96329C2.60566 6.96177 2.60782 6.95787 2.6086 6.95195L2.5245 6.94753C2.5245 6.94493 2.5247 6.94242 2.52506 6.94002C2.56582 6.55375 2.64761 5.77464 2.65218 5.7153C2.65325 5.7014 2.65933 5.68836 2.66418 5.67926C2.66973 5.66888 2.67713 5.65746 2.68571 5.64549C2.70293 5.62145 2.72694 5.59235 2.7559 5.56015C2.81395 5.49563 2.89396 5.41639 2.98451 5.33683C3.07506 5.25728 3.17683 5.17681 3.27844 5.11015C3.37953 5.04383 3.48283 4.98959 3.57613 4.96471L3.64065 4.94751ZM2.61928 6.85119C2.62202 6.8496 2.62481 6.848 2.62764 6.84639C2.6798 6.81674 2.75116 6.78153 2.82936 6.7452C2.9766 6.67681 3.15119 6.60307 3.27546 6.5526C3.30314 6.32919 3.44953 5.51788 3.53248 5.06827C3.46796 5.09406 3.3973 5.13309 3.32473 5.1807C3.22724 5.24466 3.12864 5.32253 3.04021 5.40023C2.95178 5.47792 2.87418 5.55485 2.81864 5.61659C2.7908 5.64753 2.76903 5.67409 2.7543 5.69464C2.7469 5.70496 2.74179 5.71307 2.73863 5.719C2.73719 5.72169 2.73645 5.72339 2.73611 5.72422C2.73021 5.79489 2.66149 6.45059 2.61928 6.85119ZM2.60457 6.96336C2.60459 6.96334 2.60462 6.96331 2.60464 6.96329C2.60403 6.96419 2.60383 6.96424 2.60457 6.96336Z" fill="var(--fill-0, black)"/>
<path id="Vector 373" d="M2.10608 7.22389C2.10988 6.87361 2.1152 6.15933 2.10608 6.10449C1.87573 6.36721 1.41389 6.90977 1.40933 6.97831C1.40361 7.06397 1.40359 7.61224 1.50068 7.61796C1.57835 7.62252 1.93664 7.35715 2.10608 7.22389Z" fill="var(--fill-0, #94989D)"/>
<path id="Vector 373 (Stroke)" fill-rule="evenodd" clip-rule="evenodd" d="M2.13336 6.00952L2.14798 6.09739C2.14971 6.10774 2.15062 6.12824 2.15131 6.1526C2.15205 6.17846 2.15257 6.21254 2.15294 6.25271C2.15366 6.33312 2.15373 6.43868 2.1534 6.55334C2.15274 6.7827 2.15045 7.04896 2.14855 7.22417L2.14833 7.24438L2.13245 7.25688C2.04726 7.32388 1.91455 7.42413 1.79308 7.50725C1.73243 7.54875 1.67386 7.58648 1.62506 7.61372C1.60072 7.6273 1.57797 7.63875 1.5581 7.64676C1.53991 7.65409 1.51827 7.66106 1.49849 7.6599C1.46479 7.65792 1.44405 7.63301 1.4326 7.61363C1.42031 7.59282 1.41118 7.56609 1.40403 7.53783C1.38956 7.48073 1.38043 7.4061 1.37467 7.33117C1.36313 7.18103 1.3645 7.0205 1.36751 6.97532C1.36836 6.96259 1.37351 6.95034 1.37752 6.94187C1.38214 6.9321 1.38833 6.92116 1.39551 6.90953C1.4099 6.88619 1.43 6.85729 1.45403 6.82462C1.50221 6.75914 1.5681 6.67604 1.64066 6.58733C1.78589 6.40978 1.95928 6.20807 2.07464 6.0765L2.13336 6.00952ZM1.45157 6.98316C1.44896 7.02689 1.44771 7.18043 1.45881 7.3247C1.46446 7.39826 1.47317 7.46713 1.48583 7.51711C1.49223 7.5424 1.49899 7.5601 1.50525 7.57071C1.50626 7.57242 1.50714 7.57375 1.50788 7.57478C1.51153 7.5739 1.51759 7.57211 1.52655 7.56849C1.54181 7.56234 1.56112 7.55276 1.58394 7.54003C1.62946 7.51463 1.68561 7.47854 1.74542 7.43761C1.85761 7.36085 1.98011 7.26881 2.06439 7.203C2.06624 7.0281 2.06838 6.77349 2.06902 6.5531C2.06935 6.43855 2.06928 6.33337 2.06856 6.25348C2.06842 6.23889 2.06827 6.22516 2.06809 6.2124C1.95951 6.33756 1.82339 6.49722 1.70598 6.64076C1.63372 6.72909 1.5689 6.8109 1.522 6.87463C1.49849 6.90658 1.47996 6.93336 1.46732 6.95384C1.46098 6.96411 1.45656 6.97211 1.4538 6.97795C1.45252 6.98066 1.45187 6.98235 1.45157 6.98316ZM1.51056 7.57792C1.51056 7.57794 1.51043 7.57785 1.5102 7.57762C1.51044 7.57779 1.51056 7.57791 1.51056 7.57792Z" fill="var(--fill-0, black)"/>
<path id="Vector 376" d="M1.69428 6.84259C1.70526 6.80227 1.95393 6.54174 2.07689 6.41651V6.20117L1.73579 6.59088L1.44913 6.97775C1.41536 7.20174 1.49038 7.57794 1.511 7.59169C1.52749 7.60268 1.64006 7.52449 1.69428 7.48402C1.6897 7.28701 1.68329 6.88291 1.69428 6.84259Z" fill="var(--fill-0, #444D56)"/>
<path id="Vector 374" d="M4.43217 5.21732C4.46601 5.09887 4.99151 4.83423 5.25003 4.71672L5.61871 4.03125C5.36708 4.16175 4.81483 4.46051 4.61879 4.61148C4.37374 4.8002 4.22675 5.03591 4.22126 5.05514C4.21577 5.07436 3.83386 6.07934 3.7954 6.21642C3.76462 6.32609 3.78257 6.44267 3.7954 6.48725C3.85023 6.50864 4.11584 6.44864 4.2418 6.41596C4.29115 6.06577 4.39833 5.33578 4.43217 5.21732Z" fill="var(--fill-0, #444D56)"/>
<g id="Vector 366">
<path d="M11.9532 6.09148C11.854 6.16864 11.3608 7.45087 11.1266 8.08234C11.2139 8.1696 11.4587 8.37855 11.7397 8.51633C12.091 8.68855 12.3459 8.041 12.3804 7.95834C12.4148 7.87567 12.9108 6.49103 12.8282 6.36703C12.7455 6.24303 12.0773 5.99503 11.9532 6.09148Z" fill="var(--fill-0, #798088)"/>
<path d="M10.424 4.87215C10.3523 4.89419 9.79248 6.33717 9.52152 7.0559C9.47326 7.359 9.74888 7.58635 10.1347 7.63457C10.4433 7.67315 10.525 7.57717 10.5273 7.52435C10.6926 7.10873 11.0343 6.24992 11.0784 6.1397C11.1335 6.00193 11.4022 5.44392 11.3471 5.37503C11.292 5.30615 10.5135 4.84459 10.424 4.87215Z" fill="var(--fill-0, #798088)"/>
<path d="M9.05822 3.98221C8.63552 4.1838 8.05296 5.88705 7.81452 6.71348C7.95272 6.93296 8.87937 7.0559 9.0013 6.92482C9.12323 6.79374 9.89547 4.55122 9.82231 4.41303C9.76378 4.30248 9.28853 4.07975 9.05822 3.98221Z" fill="var(--fill-0, #798088)"/>
<path d="M8.53934 3.41004C8.50864 3.50212 7.59293 5.50747 7.13892 6.49864C7.02376 6.60392 6.45151 6.54251 6.17977 6.49864C6.20854 6.29081 6.29102 5.73896 6.39078 5.19414C6.51548 4.51311 7.69528 2.71942 7.81452 2.70983C7.93375 2.70024 8.5777 3.29494 8.53934 3.41004Z" fill="var(--fill-0, #798088)"/>
</g>
<path id="Vector 366 (Stroke)" fill-rule="evenodd" clip-rule="evenodd" d="M8.62084 3.36277C8.62541 3.38125 8.62896 3.4082 8.61948 3.43663C8.61405 3.45293 8.5941 3.49927 8.5663 3.56244C8.5373 3.62832 8.49714 3.71831 8.44848 3.82659C8.35114 4.0432 8.21955 4.33361 8.07478 4.65202C7.78522 5.28886 7.44275 6.03806 7.21573 6.53369L7.20859 6.54926L7.19595 6.56082C7.16834 6.58606 7.13326 6.60128 7.10054 6.61127C7.06669 6.62162 7.02832 6.62846 6.98824 6.63298C6.90805 6.64204 6.81242 6.64271 6.71477 6.6388C6.51901 6.63094 6.3045 6.60414 6.16641 6.58185L6.08496 6.5687L6.09627 6.48697C6.12517 6.27823 6.20784 5.72514 6.30786 5.17885C6.3413 4.99624 6.44308 4.74747 6.57346 4.48264C6.70489 4.21566 6.86911 3.92503 7.0327 3.65623C7.19629 3.38743 7.36002 3.1392 7.49083 2.95698C7.55609 2.86607 7.61404 2.79036 7.66021 2.73643C7.68311 2.70967 7.70458 2.68655 7.72359 2.66928C7.73301 2.66072 7.74354 2.65203 7.75466 2.64485C7.76357 2.63911 7.78279 2.62764 7.80784 2.62563C7.83213 2.62367 7.85444 2.62954 7.87017 2.63493C7.88725 2.64078 7.90466 2.64896 7.92153 2.65803C7.95533 2.67621 7.99365 2.70164 8.0335 2.7309C8.11356 2.78969 8.20675 2.86914 8.29411 2.95178C8.38132 3.03429 8.46505 3.12218 8.52529 3.19825C8.55516 3.23598 8.58134 3.2734 8.59906 3.3075C8.6079 3.32451 8.61603 3.34332 8.62084 3.36277ZM7.8301 2.80079C7.81935 2.81129 7.80546 2.82628 7.78841 2.84619C7.74675 2.89485 7.69199 2.96616 7.62793 3.0554C7.50009 3.23348 7.33872 3.47803 7.17687 3.74397C7.01501 4.00993 6.85345 4.29601 6.72487 4.55718C6.59524 4.82051 6.50279 5.05134 6.47387 5.20924C6.3856 5.69138 6.31085 6.17924 6.27512 6.4276C6.40359 6.44581 6.56931 6.46406 6.72153 6.47016C6.81531 6.47392 6.90131 6.47295 6.96931 6.46528C7.00331 6.46144 7.03066 6.45615 7.05122 6.44987C7.06048 6.44704 7.06725 6.44434 7.07205 6.44209C7.29901 5.94657 7.63579 5.20975 7.92115 4.58216C8.06589 4.26382 8.19736 3.97368 8.29454 3.75742C8.34314 3.64926 8.38309 3.55974 8.41182 3.49445C8.4262 3.46179 8.43767 3.4354 8.44598 3.41588C8.44935 3.40795 8.45214 3.4013 8.45435 3.39592C8.45318 3.39315 8.45155 3.38964 8.44931 3.38534C8.4387 3.36492 8.41993 3.33707 8.39297 3.30301C8.33952 3.23551 8.26201 3.15374 8.17812 3.07438C8.09439 2.99517 8.00662 2.92054 7.93361 2.86693C7.89692 2.83999 7.86567 2.81963 7.84158 2.80667C7.83733 2.80438 7.8335 2.80244 7.8301 2.80079ZM7.81187 2.79353C7.81187 2.79352 7.81201 2.79355 7.81231 2.79362C7.81202 2.79357 7.81188 2.79354 7.81187 2.79353ZM8.457 3.40327C8.45709 3.40363 8.45712 3.4038 8.45711 3.40379C8.4571 3.40379 8.45706 3.40361 8.457 3.40327ZM9.05625 3.88961L9.09122 3.90441C9.20785 3.95381 9.38652 4.03489 9.54413 4.11801C9.62279 4.15949 9.69786 4.20234 9.75782 4.2427C9.78777 4.26286 9.81532 4.28331 9.83814 4.3035C9.85973 4.32262 9.88255 4.34621 9.89697 4.37346C9.90722 4.39281 9.90991 4.41266 9.91093 4.42503C9.91208 4.43908 9.91175 4.4539 9.91075 4.46832C9.90875 4.49724 9.90345 4.53225 9.896 4.57107C9.88102 4.64914 9.85569 4.7511 9.82346 4.86774C9.75889 5.1015 9.66488 5.40044 9.56506 5.69831C9.4652 5.9963 9.35913 6.29438 9.2702 6.52658C9.22578 6.64257 9.18534 6.7429 9.15191 6.81884C9.13522 6.85673 9.11987 6.88948 9.10633 6.91545C9.09422 6.93869 9.07949 6.96467 9.06318 6.9822C9.03021 7.01764 8.98163 7.03474 8.94035 7.04443C8.89569 7.05492 8.84292 7.06037 8.78671 7.06221C8.67391 7.0659 8.53683 7.05536 8.40092 7.03386C8.26501 7.01237 8.12664 6.97934 8.01172 6.9365C7.95428 6.91509 7.90078 6.89052 7.85574 6.86253C7.81165 6.83514 7.77009 6.80106 7.7432 6.75835L7.72304 6.72634L7.73353 6.68999C7.85332 6.2748 8.05954 5.63929 8.28933 5.08131C8.40415 4.80252 8.52576 4.54082 8.64638 4.33504C8.70668 4.23217 8.76776 4.14149 8.82875 4.06909C8.88887 3.99773 8.95341 3.93865 9.02198 3.90595L9.05625 3.88961ZM9.06391 4.07632C9.03306 4.09756 8.99748 4.13075 8.95782 4.17783C8.90512 4.24039 8.84947 4.32231 8.79198 4.42038C8.67704 4.61648 8.55886 4.87005 8.44539 5.14557C8.22653 5.677 8.02862 6.28171 7.90842 6.69293C7.91764 6.70089 7.92959 6.70972 7.94481 6.71918C7.97738 6.73942 8.0199 6.75944 8.07068 6.77836C8.17218 6.81621 8.29901 6.84688 8.42728 6.86717C8.55555 6.88746 8.68163 6.89679 8.78119 6.89353C8.83115 6.89189 8.87186 6.88716 8.90176 6.88013C8.92843 6.87387 8.93825 6.86767 8.93982 6.86682C8.93986 6.86677 8.93989 6.86671 8.93993 6.86665C8.94149 6.8643 8.94703 6.85594 8.95668 6.83742C8.96781 6.81608 8.98149 6.78707 8.99745 6.75083C9.02929 6.6785 9.06862 6.58106 9.1126 6.46622C9.20047 6.23676 9.30574 5.94099 9.40504 5.64469C9.50437 5.34827 9.59733 5.05248 9.66079 4.8228C9.69258 4.70773 9.71653 4.61079 9.73025 4.53927C9.73715 4.50329 9.74106 4.47582 9.74239 4.45665C9.74268 4.4524 9.74282 4.44892 9.74287 4.44615C9.73908 4.44186 9.73367 4.43642 9.72627 4.42987C9.711 4.41635 9.69002 4.4005 9.66358 4.38271C9.61078 4.34716 9.54167 4.30751 9.46541 4.26729C9.3295 4.19562 9.17613 4.12492 9.06391 4.07632ZM9.74257 4.43759C9.74259 4.4376 9.74263 4.43788 9.74269 4.43846C9.74259 4.43789 9.74256 4.43758 9.74257 4.43759ZM10.4309 4.95511C10.4309 4.95508 10.4313 4.9551 10.4322 4.95523C10.4314 4.95519 10.4309 4.95513 10.4309 4.95511ZM10.4608 4.96308C10.4863 4.97176 10.5208 4.98621 10.5625 5.00574C10.6462 5.0449 10.7515 5.10098 10.8569 5.16074C10.9622 5.22039 11.0661 5.28291 11.1468 5.33452C11.1872 5.36037 11.2211 5.38306 11.2462 5.40101C11.2554 5.40763 11.2631 5.41334 11.2692 5.41813C11.2674 5.43279 11.2628 5.45371 11.255 5.48096C11.238 5.5406 11.2093 5.61771 11.176 5.69968C11.1429 5.78113 11.1063 5.86499 11.0743 5.93765C11.0688 5.95016 11.0634 5.9624 11.0581 5.97428C11.0333 6.03032 11.0121 6.07837 11.0002 6.10827C10.956 6.21859 10.6143 7.07752 10.449 7.49307L10.4437 7.50633L10.4433 7.51551C10.4409 7.51891 10.4333 7.52711 10.4123 7.53625C10.3723 7.55363 10.2918 7.56907 10.1452 7.55075C9.96482 7.5282 9.81721 7.46447 9.7221 7.37822C9.63112 7.2957 9.58788 7.19333 9.60375 7.07713C9.73916 6.71812 9.9448 6.18323 10.1258 5.73423C10.2171 5.50782 10.3018 5.30407 10.368 5.15589C10.4011 5.08159 10.429 5.02262 10.4504 4.98214C10.4542 4.97499 10.4577 4.96865 10.4608 4.96308ZM10.4443 7.51384C10.4443 7.51384 10.4442 7.514 10.4441 7.5143C10.4442 7.51398 10.4443 7.51383 10.4443 7.51384ZM11.3821 5.29232C11.3915 5.29995 11.4037 5.3105 11.4131 5.32223C11.4299 5.3433 11.4354 5.36662 11.4375 5.3823C11.4397 5.39889 11.4391 5.41547 11.4377 5.4302C11.4348 5.45968 11.427 5.49326 11.4173 5.52725C11.3978 5.59592 11.3662 5.67984 11.3324 5.7632C11.2983 5.84709 11.2608 5.93287 11.2287 6.00573C11.2229 6.01892 11.2173 6.03162 11.2119 6.04377C11.1872 6.09981 11.1676 6.14411 11.1569 6.17095C11.1132 6.28016 10.7768 7.12558 10.61 7.54503C10.6 7.60631 10.5517 7.65968 10.4796 7.69103C10.401 7.72521 10.2863 7.73847 10.1243 7.71822C9.9189 7.69254 9.73581 7.61848 9.60873 7.50323C9.47962 7.38614 9.40905 7.22611 9.43827 7.04254L9.43962 7.03407L9.44265 7.02604C9.57825 6.66634 9.7862 6.12526 9.96931 5.67112C10.0608 5.44418 10.1464 5.23814 10.2139 5.08709C10.2475 5.01178 10.2772 4.94879 10.3012 4.90333C10.3131 4.88084 10.3246 4.86071 10.3352 4.84497C10.3405 4.83723 10.3469 4.82855 10.3542 4.82067C10.359 4.81549 10.3745 4.799 10.3992 4.7914C10.4248 4.78352 10.4498 4.78692 10.4633 4.78931C10.4797 4.79222 10.4971 4.79722 10.5142 4.80298C10.5485 4.81456 10.5897 4.83211 10.6341 4.8529C10.7233 4.89468 10.8329 4.95313 10.9401 5.01392C11.0476 5.07482 11.1542 5.13889 11.2377 5.19234C11.2795 5.21902 11.3161 5.24347 11.3445 5.26383C11.3587 5.27398 11.3715 5.28361 11.3821 5.29232ZM12.0061 6.15831C12.0048 6.16004 12.003 6.16256 12.0006 6.16609C11.9935 6.17686 11.9844 6.19239 11.9733 6.21309C11.9511 6.25433 11.9237 6.31124 11.8921 6.38104C11.829 6.52035 11.7512 6.70631 11.6689 6.91051C11.5131 7.2968 11.3422 7.74531 11.2252 8.05954C11.3299 8.15562 11.5408 8.32471 11.7769 8.44047C11.8381 8.47044 11.8918 8.46537 11.9448 8.43821C12.0021 8.40893 12.0587 8.35327 12.1112 8.2825C12.2103 8.14913 12.2772 7.98731 12.2992 7.9339C12.3005 7.93083 12.3016 7.92812 12.3026 7.92579C12.3183 7.88803 12.45 7.52412 12.5678 7.15258C12.6266 6.96719 12.6812 6.78222 12.7159 6.63669C12.7333 6.56364 12.7452 6.50285 12.7503 6.45791C12.7529 6.4353 12.7535 6.4192 12.7529 6.4088C12.7529 6.40856 12.7529 6.40833 12.7529 6.4081C12.7519 6.4071 12.7507 6.406 12.7494 6.40479C12.7433 6.39923 12.7348 6.39249 12.7237 6.38471C12.7014 6.36912 12.6715 6.35156 12.6355 6.33305C12.5636 6.29609 12.4724 6.25803 12.3792 6.2264C12.2857 6.19467 12.1933 6.17049 12.1188 6.15985C12.0814 6.15451 12.0513 6.153 12.0293 6.15461C12.0165 6.15554 12.0094 6.1573 12.0061 6.15831ZM12.7521 6.40118C12.7521 6.40119 12.7522 6.40139 12.7523 6.40178C12.7521 6.40138 12.7521 6.40117 12.7521 6.40118ZM12.8203 6.24636C12.849 6.26642 12.8791 6.29116 12.8985 6.32013C12.9168 6.3476 12.9204 6.37959 12.9215 6.39986C12.9227 6.42341 12.9211 6.44986 12.918 6.47713C12.9117 6.53197 12.8981 6.60034 12.8801 6.67583C12.8439 6.82739 12.7879 7.01699 12.7287 7.2036C12.6106 7.57605 12.4771 7.94579 12.4584 7.9907C12.4574 7.99298 12.4563 7.99576 12.4549 7.999C12.4329 8.05246 12.359 8.23198 12.2467 8.38314C12.1873 8.46306 12.1122 8.54217 12.0217 8.58845C11.9271 8.63685 11.8172 8.64815 11.7027 8.59201C11.4111 8.44909 11.1589 8.2338 11.067 8.14192L11.0288 8.10365L11.0476 8.05291C11.1648 7.73673 11.347 7.25751 11.5124 6.8474C11.595 6.64246 11.6738 6.45393 11.7384 6.31139C11.7706 6.24026 11.7998 6.1794 11.8246 6.13329C11.8369 6.1103 11.8488 6.08976 11.8599 6.07296C11.8695 6.05849 11.8836 6.03873 11.9015 6.02478C11.9367 5.99745 11.9808 5.98893 12.017 5.98629C12.0555 5.98348 12.0987 5.98649 12.1427 5.99278C12.231 6.00539 12.334 6.03287 12.4334 6.06658C12.5331 6.1004 12.6322 6.14156 12.7127 6.18296C12.7529 6.20363 12.7898 6.22503 12.8203 6.24636Z" fill="var(--fill-0, black)"/>
<path id="Vector 367" d="M12.1827 6.51729C12.0679 6.52549 11.6223 7.66543 11.4138 8.23437L11.1934 8.0601C11.3745 7.4399 11.786 6.19129 11.9828 6.15849C12.1796 6.12568 12.591 6.30542 12.7721 6.39939L12.7106 6.73769C12.5825 6.66081 12.2975 6.50909 12.1827 6.51729Z" fill="var(--fill-0, #444D56)"/>
<path id="Vector 364" d="M13.4512 6.85219C13.2261 6.88123 12.7283 8.20735 12.5075 8.86678C12.4855 8.93192 13.1245 9.44755 13.2879 9.41125C13.4512 9.37496 14.3224 7.61447 14.3133 7.46927C14.3043 7.32408 13.7326 6.81589 13.4512 6.85219Z" fill="var(--fill-0, #94989D)"/>
<path id="Vector 364 (Stroke)" fill-rule="evenodd" clip-rule="evenodd" d="M13.4642 6.93557C13.4631 6.93607 13.4602 6.9375 13.4554 6.94094C13.4462 6.94747 13.434 6.95855 13.4188 6.97579C13.3883 7.01033 13.3527 7.0619 13.3129 7.12925C13.2338 7.26343 13.1452 7.44874 13.0556 7.65643C12.8822 8.05831 12.7089 8.53467 12.5983 8.86259C12.6106 8.87778 12.6299 8.8984 12.656 8.92344C12.7123 8.97743 12.7924 9.04464 12.8791 9.10935C12.9659 9.17416 13.0567 9.23462 13.1342 9.27619C13.1731 9.29705 13.2065 9.31199 13.2331 9.32061C13.2483 9.32557 13.2583 9.32744 13.2641 9.32817C13.2652 9.32713 13.2665 9.3259 13.268 9.32446C13.2791 9.3137 13.2939 9.29657 13.3124 9.27219C13.3493 9.22376 13.3949 9.15434 13.4465 9.06909C13.5496 8.89908 13.6725 8.67305 13.7906 8.44253C13.9086 8.21217 14.021 7.97876 14.1032 7.7944C14.1444 7.70209 14.1776 7.62302 14.2 7.56321C14.2112 7.5332 14.2193 7.50923 14.2243 7.49149C14.227 7.48199 14.2283 7.47618 14.2289 7.47326C14.2275 7.46951 14.2238 7.45998 14.2138 7.4437C14.2 7.42136 14.1791 7.39365 14.1514 7.36208C14.0961 7.29913 14.0189 7.22664 13.9327 7.15896C13.8464 7.09121 13.7535 7.03028 13.6672 6.98885C13.5793 6.94664 13.5098 6.93035 13.4642 6.93557ZM14.3575 7.35528C14.3762 7.38569 14.3955 7.42425 14.398 7.46391C14.3995 7.48911 14.3924 7.51732 14.3867 7.53754C14.3799 7.56156 14.37 7.59034 14.358 7.62243C14.3339 7.68683 14.2992 7.76941 14.2574 7.86313C14.1737 8.05083 14.0599 8.28703 13.9408 8.51948C13.8218 8.75177 13.6968 8.98174 13.5909 9.15657C13.538 9.24374 13.4889 9.31895 13.4468 9.37431C13.4259 9.40183 13.4053 9.42638 13.3857 9.44547C13.3694 9.46123 13.3418 9.48572 13.3066 9.49354C13.2634 9.50313 13.2177 9.49307 13.1809 9.48111C13.1413 9.46823 13.0981 9.44833 13.0545 9.42493C12.9669 9.37799 12.8688 9.31227 12.7781 9.24457C12.6873 9.17678 12.6016 9.10512 12.5392 9.04525C12.5083 9.01562 12.4811 8.98698 12.4617 8.96194C12.4522 8.9497 12.4423 8.93544 12.4351 8.92034C12.4303 8.91033 12.4152 8.87759 12.4279 8.8399M14.3575 7.35528C14.3371 7.32217 14.3097 7.28664 14.2782 7.25072ZM14.2782 7.25072C14.2149 7.17868 14.1299 7.09917 14.0369 7.02619ZM14.0369 7.02619C13.944 6.95329 13.8406 6.88491 13.7403 6.83672ZM13.7403 6.83672C13.6428 6.78989 13.5359 6.75614 13.4408 6.76841ZM13.4408 6.76841C13.4081 6.77263 13.3799 6.78749 13.3573 6.80359ZM13.3573 6.80359C13.3343 6.82 13.3126 6.84103 13.2922 6.86412ZM13.2922 6.86412C13.2515 6.91023 13.2096 6.97218 13.1676 7.04354ZM13.1676 7.04354C13.0831 7.18679 12.9912 7.37967 12.9007 7.58956ZM12.9007 7.58956C12.7192 8.01002 12.5387 8.50875 12.4279 8.8398Z" fill="var(--fill-0, black)"/>
<path id="Vector 377" d="M13.8052 12.1394C13.7487 11.9222 13.711 11.7202 13.6895 11.5488L13.8052 12.1394C14.0741 13.1738 14.7681 14.5549 16.1498 14.6377C16.1054 14.9021 15.8973 15.4972 15.42 15.7622C14.9427 16.0273 14.5058 15.3021 14.347 14.9064L13.8052 12.1394Z" fill="var(--fill-0, #A5A3A2)"/>
<path id="Vector 363 (Stroke)" fill-rule="evenodd" clip-rule="evenodd" d="M4.87215 6.8922C5.31769 4.35157 6.89151 2.59196 7.63643 2.02051L7.84188 2.28832C7.15034 2.81882 5.63282 4.50873 5.20462 6.9505L4.87215 6.8922Z" fill="var(--fill-0, black)"/>
<path id="Ellipse 38" d="M15.9956 13.7713C15.9956 14.5949 15.6862 15.2625 15.3045 15.2625C14.9228 15.2625 14.6134 14.5949 14.6134 13.7713C14.6134 12.9477 14.9228 12.28 15.3045 12.28C15.6862 12.28 15.9956 12.9477 15.9956 13.7713Z" fill="var(--fill-0, #AAACAE)"/>
<path id="Ellipse 38 (Stroke)" fill-rule="evenodd" clip-rule="evenodd" d="M15.5635 14.7193C15.6699 14.4898 15.7424 14.1548 15.7424 13.7713C15.7424 13.3877 15.6699 13.0528 15.5635 12.8233C15.4473 12.5726 15.3376 12.5332 15.3045 12.5332C15.2713 12.5332 15.1617 12.5726 15.0455 12.8233C14.9391 13.0528 14.8665 13.3877 14.8665 13.7713C14.8665 14.1548 14.9391 14.4898 15.0455 14.7193C15.1617 14.97 15.2713 15.0094 15.3045 15.0094C15.3376 15.0094 15.4473 14.97 15.5635 14.7193ZM15.3045 15.2625C15.6862 15.2625 15.9956 14.5949 15.9956 13.7713C15.9956 12.9477 15.6862 12.28 15.3045 12.28C14.9228 12.28 14.6134 12.9477 14.6134 13.7713C14.6134 14.5949 14.9228 15.2625 15.3045 15.2625Z" fill="var(--fill-0, black)"/>
<path id="Ellipse 38_2" d="M15.6242 13.7712C15.6242 14.2257 15.4812 14.5942 15.3047 14.5942C15.1283 14.5942 14.9853 14.2257 14.9853 13.7712C14.9853 13.3167 15.1283 12.9483 15.3047 12.9483C15.4812 12.9483 15.6242 13.3167 15.6242 13.7712Z" fill="var(--fill-0, #939393)"/>
<path id="Ellipse 38 (Stroke)_2" fill-rule="evenodd" clip-rule="evenodd" d="M15.3047 14.2338C15.3434 14.1212 15.371 13.9593 15.371 13.7712C15.371 13.5832 15.3434 13.4213 15.3047 13.3086C15.2661 13.4213 15.2384 13.5832 15.2384 13.7712C15.2384 13.9593 15.2661 14.1212 15.3047 14.2338ZM15.3047 14.5942C15.4812 14.5942 15.6242 14.2257 15.6242 13.7712C15.6242 13.3167 15.4812 12.9483 15.3047 12.9483C15.1283 12.9483 14.9853 13.3167 14.9853 13.7712C14.9853 14.2257 15.1283 14.5942 15.3047 14.5942Z" fill="var(--fill-0, black)"/>
<path id="Vector 365" d="M13.6009 7.40944C13.4648 7.41642 12.9623 8.51508 12.728 9.06354C12.7147 9.06354 12.6206 8.94424 12.5753 8.8846C12.6761 8.37737 13.1146 7.38039 13.4469 6.91187C13.7044 6.91187 14.2206 7.3789 14.2468 7.44873C14.2678 7.50459 14.1886 7.64657 14.1464 7.71058C14.0213 7.60729 13.7371 7.40246 13.6009 7.40944Z" fill="var(--fill-0, #444D56)"/>
<path id="Vector 368" d="M10.5261 5.44727C10.4158 5.44727 9.92164 6.73107 9.68833 7.37298C9.56891 7.2728 9.58062 7.12142 9.56963 7.0738C9.56083 7.03569 10.1537 5.64336 10.4513 4.95196C10.5395 4.95196 11.2768 5.38198 11.284 5.40012C11.2898 5.41462 11.2236 5.60925 11.1897 5.70475C11.0144 5.61892 10.6363 5.44726 10.5261 5.44727Z" fill="var(--fill-0, #444D56)"/>
<path id="Vector 369" d="M9.11691 4.57682C8.88217 4.5932 8.40043 6.08084 8.1889 6.82261C8.12894 6.82261 7.95459 6.76755 7.87492 6.74003C8.33213 5.18414 8.98724 4.07182 9.05548 4.05135C9.12372 4.03088 9.66937 4.37066 9.74499 4.42227C9.81302 4.46869 9.73488 4.69884 9.68029 4.81712C9.58475 4.72614 9.35165 4.56044 9.11691 4.57682Z" fill="var(--fill-0, #444D56)"/>
<path id="Vector 370" d="M7.76441 3.45675C7.80694 3.42638 8.13637 3.65666 8.29577 3.77559L8.46756 3.41188C8.40509 3.20978 8.00059 2.92348 7.80615 2.80559C7.48923 3.12251 6.66916 4.66286 6.57124 4.87932C6.4929 5.05249 6.34274 5.99256 6.27745 6.44095C6.34342 6.5028 6.52485 6.46672 6.60731 6.44095C6.68462 5.79156 7.71125 3.49471 7.76441 3.45675Z" fill="var(--fill-0, #444D56)"/>
<path id="Vector 375" d="M2.89609 5.86313C2.92703 5.77501 3.29205 5.54854 3.4707 5.44632L3.54514 5.06822C3.15453 5.25162 2.84054 5.58328 2.73236 5.72618L2.61028 6.86347L2.84551 6.74439C2.84948 6.48735 2.86516 5.95126 2.89609 5.86313Z" fill="var(--fill-0, #444D56)"/>
<path id="Vector 378" d="M15.706 9.33712C16.0168 10.6468 16.1499 13.3247 16.1777 14.6473C16.2689 13.8781 16.3804 13.7295 16.1777 11.0807C15.9748 8.43065 15.5249 7.60529 15.0879 6.80533C14.0964 6.53888 11.0037 4.56031 9.58136 3.60432L7.76926 2.31494L7.38973 2.6625C7.509 2.58157 7.66992 2.53088 7.73547 2.51566C8.66716 3.64699 12.9016 5.88681 14.9023 6.8653C15.0407 7.14355 15.3952 8.02748 15.706 9.33712Z" fill="var(--fill-0, white)"/>
<path id="Vector 379" d="M2.11532 6.06343C3.057 5.16456 5.52425 3.71691 6.64016 3.10544L6.97651 2.68506C6.15102 3.17933 4.33953 4.27183 3.69749 4.68763C3.05544 5.10343 2.37519 5.77808 2.11532 6.06343Z" fill="var(--fill-0, white)"/>
<path id="Vector 381" d="M12.6956 3.33133C11.1853 2.58897 9.19712 2.40339 8.39184 2.4034L8.15825 2.19623C9.90232 2.04234 12.5779 2.4034 15.1119 4.68243C17.1392 6.50566 17.3504 9.21796 17.2026 10.3462C17.2285 6.5653 14.5834 4.25927 12.6956 3.33133Z" fill="var(--fill-0, white)"/>
<path id="Vector 382" d="M15.4798 6.16352C14.3141 5.72638 11.1012 3.55153 9.6405 2.51875C9.60396 2.49294 8.78882 2.43852 8.38582 2.41454C8.68556 2.60225 9.71919 3.2756 11.4558 4.46728C13.1925 5.65896 14.7666 6.3334 15.3366 6.52167C15.5421 7.01289 15.995 8.11657 16.1623 8.60152C16.3295 9.08647 16.5425 11.4383 16.6281 12.5536L16.8827 11.9108C17.1832 9.54988 16.0726 7.09556 15.4798 6.16352Z" fill="var(--fill-0, #7F7F81)"/>
<path id="Vector 383" d="M9.09422 1.5389L9.0514 2.01931C9.21033 1.93232 11.2163 2.41034 12.1994 2.66022C12.309 2.51981 12.4789 2.33631 12.0496 1.99234C11.6739 1.69126 10.3096 1.35996 9.45403 1.24375C9.27134 1.21894 9.11059 1.35526 9.09422 1.5389Z" fill="var(--fill-0, #A2A6A9)"/>
<path id="Vector 383 (Stroke)" fill-rule="evenodd" clip-rule="evenodd" d="M9.43083 1.41084C9.34949 1.39979 9.2702 1.45988 9.26184 1.55374L9.2358 1.84579C9.3095 1.8525 9.39878 1.86474 9.49851 1.88086C9.72876 1.91807 10.0286 1.97823 10.3516 2.04837C10.9521 2.17873 11.6409 2.34534 12.1308 2.46874C12.1491 2.44034 12.1569 2.42025 12.1574 2.3985C12.158 2.37232 12.1451 2.28536 11.9436 2.1239C11.8708 2.06558 11.7354 1.99593 11.5444 1.92192C11.3575 1.84949 11.1309 1.77795 10.8869 1.7114C10.3987 1.57825 9.85093 1.4679 9.43083 1.41084ZM8.92563 1.52377C8.95 1.25035 9.19222 1.0378 9.47625 1.07637C9.91172 1.13552 10.4739 1.24892 10.9757 1.38575C11.2266 1.45419 11.4651 1.52919 11.6664 1.60718C11.8636 1.68361 12.0396 1.76827 12.1547 1.8605C12.3824 2.043 12.4992 2.21977 12.4948 2.40644C12.4911 2.56549 12.394 2.68647 12.3445 2.74818C12.3398 2.75396 12.3356 2.75922 12.3319 2.76395L12.2641 2.85078L12.1573 2.82364C11.6669 2.69899 10.9217 2.51752 10.28 2.37822C9.95885 2.30849 9.66595 2.24984 9.44466 2.21408C9.33358 2.19612 9.24396 2.18451 9.17924 2.1798C9.14661 2.17743 9.12416 2.17711 9.11032 2.17783C9.10952 2.17787 9.10878 2.17791 9.10809 2.17795C9.05871 2.19574 9.00324 2.18966 8.95849 2.16038C8.90637 2.12627 8.87728 2.06622 8.88281 2.00418L8.92563 1.52377ZM9.10044 2.17877C9.1004 2.17874 9.10118 2.17858 9.10292 2.17839C9.10136 2.1787 9.10049 2.1788 9.10044 2.17877Z" fill="var(--fill-0, black)"/>
<path id="Vector 384" d="M12.1518 2.39913C11.8093 2.11668 10.0866 1.74907 9.26799 1.60057L9.27226 1.50831C9.35346 1.41058 9.43718 1.40346 9.46889 1.41212C9.77259 1.45642 10.5654 1.60365 11.3073 1.83817C12.0492 2.07268 12.1794 2.30986 12.1518 2.39913Z" fill="var(--fill-0, white)"/>
</g>
</svg>
