<svg preserveAspectRatio="none" width="100%" height="100%" overflow="visible" style="display: block;" viewBox="0 0 51.2861 51.4684" fill="none" xmlns="http://www.w3.org/2000/svg">
<g id="Group 914">
<path id="Vector 385" d="M8.33672 0.279797C6.77147 -0.71226 5.46161 1.17081 5.00234 2.23636C4.89075 1.97352 4.18331 1.56893 2.24623 2.0532C0.30914 2.53747 1.7471 5.28945 2.70821 6.6049C0.839557 9.22 -1.92377 15.3962 1.97214 19.1804C5.86806 22.9646 15.3646 20.65 19.6258 19.0196C20.7252 19.8991 21.3318 25.1164 20.5711 25.5321C19.8103 25.9478 14.2056 26.2447 10.108 27.1355C6.01038 28.0262 0.962592 33.0816 1.97214 40.1409C2.9817 47.2001 15.0952 48.2952 16.588 48.935C17.7822 49.4468 19.019 50.6836 19.4882 51.2381C23.0025 52.4323 21.6744 48.6933 20.5711 46.6745C22.54 45.69 21.3818 43.7211 21.0343 43.3736C20.6869 43.0262 14.8959 43.0841 13.5061 42.6787C12.1162 42.2733 4.35628 35.0925 13.1586 31.6758C21.9609 28.2591 25.9906 33.4313 26.4222 33.0816C26.8538 32.732 31.0353 22.9817 39.3091 23.0683C47.5829 23.1549 45.3627 30.9537 44.6289 33.0816C43.8951 35.2095 37.1078 39.869 39.3091 42.217C41.5104 44.5651 45.7295 39.7956 46.2432 39.2086C46.7568 38.6216 48.261 39.7956 50.4623 39.2086C52.2234 38.739 50.7563 35.8751 49.8026 34.5018C50.677 30.4213 52.5224 23.6265 45.9356 19.1804C40.6661 15.6235 31.4446 20.6624 27.4925 23.6265C26.241 22.2762 26.2575 19.5235 26.4222 18.3159C38.3607 15.4342 40.9899 10.5727 42.1135 8.62131C43.237 6.66995 43.7386 7.7113 44.9914 5.93231C46.2442 4.15333 43.304 4.25041 42.2925 3.93198C41.281 3.61355 42.8357 2.28362 41.3185 1.64676C39.8013 1.00989 39.6146 2.95961 39.0571 3.83467C38.4996 4.70972 37.8027 3.30806 36.4785 3.83467C35.1544 4.36127 37.8723 6.30475 37.8027 8.81361C37.733 11.3225 26.6522 13.8313 25.3978 13.6919C24.1433 13.5526 26.2271 7.13451 21.9852 7.07303C17.7433 7.01155 19.6491 13.0362 19.0343 14.4502C18.4196 15.8642 7.04644 17.524 5.63248 15.6183C4.21853 13.7125 5.69125 8.96029 8.9981 7.60999C12.305 6.25969 9.21856 4.22047 8.9981 3.83467C8.77764 3.44887 10.2933 1.51987 8.33672 0.279797Z" fill="var(--fill-0, #812F45)"/>
<circle id="Ellipse 40" cx="15.9784" cy="4.5881" r="2.3328" fill="var(--fill-0, #812F45)"/>
<circle id="Ellipse 40_2" cx="26.8886" cy="3.14996" r="2.3328" fill="var(--fill-0, #812F45)"/>
</g>
</svg>
