<svg preserveAspectRatio="none" width="100%" height="100%" overflow="visible" style="display: block;" viewBox="0 0 117.826 97.5053" fill="none" xmlns="http://www.w3.org/2000/svg">
<g id="Group 908">
<path id="Vector 380" d="M51.919 1.66415C76.5791 -2.59445 133.73 19.3576 111.738 76.65C91.6428 44.0666 45.9768 32.3258 51.919 1.66415Z" fill="var(--fill-0, #A2A6A9)"/>
<path id="Vector 380 (Stroke)" fill-rule="evenodd" clip-rule="evenodd" d="M52.9063 2.67183C50.5578 16.8572 59.8176 26.8784 72.7947 37.5479C75.1981 39.5238 77.724 41.5173 80.3093 43.5576C91.2107 52.161 103.169 61.5988 111.459 74.0827C116.135 60.8878 116.471 49.7317 114.024 40.4577C111.445 30.6801 105.748 22.8941 98.5887 16.961C84.525 5.30575 64.9672 0.919446 52.9063 2.67183ZM116.249 39.8709C118.971 50.1926 118.38 62.5557 112.811 77.0621L111.978 79.2319L110.758 77.2537C102.688 64.1677 90.4553 54.5067 79.0062 45.4646C76.388 43.3968 73.8108 41.3614 71.3337 39.3248C58.179 28.5093 47.6778 17.5019 50.7896 1.44525L50.9407 0.665752L51.7231 0.530634C64.4012 -1.65878 85.1901 2.8692 100.057 15.1898C107.519 21.3739 113.527 29.5521 116.249 39.8709Z" fill="var(--fill-0, black)"/>
<path id="Vector 362" d="M106.571 93.741C112.672 87.0593 110.323 63.762 108.387 52.9486C108.387 47.1406 104.023 37.3104 101.841 33.1213C92.9023 31.496 64.0861 11.6281 50.7954 1.89735C48.7142 3.07861 40.4342 7.98922 23.9644 18.1817C7.49447 28.3741 2.1149 43.3819 1.48386 49.6118C35.8206 13.3825 86.5449 55.8478 88.1488 57.2226C89.4319 58.3224 93.1371 78.2337 94.8293 88.0519C96.2012 92.7323 100.47 100.423 106.571 93.741Z" fill="var(--fill-0, #D9D9D9)"/>
<path id="Vector 362 (Stroke)" fill-rule="evenodd" clip-rule="evenodd" d="M50.8749 0.529765L51.4752 0.969245C58.1068 5.82461 68.6131 13.2098 78.5704 19.5799C83.55 22.7657 88.3783 25.6885 92.5087 27.9125C96.6839 30.1605 100.014 31.6198 102.047 31.9895L102.601 32.0903L102.862 32.5899C103.972 34.7222 105.629 38.2719 107.012 42.0308C108.366 45.7121 109.511 49.7363 109.537 52.8443C110.509 58.3015 111.576 66.8412 111.643 74.8846C111.677 78.9292 111.458 82.8858 110.832 86.2776C110.213 89.6334 109.167 92.6039 107.421 94.5166C105.788 96.305 104.14 97.2839 102.486 97.472C100.808 97.6628 99.3564 97.0151 98.1894 96.0399C95.9239 94.1466 94.4323 90.7858 93.7258 88.3754L93.7073 88.3122L93.6961 88.2472C92.8512 83.3451 91.5041 75.9253 90.2091 69.5985C89.5611 66.4329 88.9291 63.5551 88.3817 61.407C88.1073 60.3303 87.8593 59.4575 87.6461 58.8306C87.539 58.5154 87.4483 58.2852 87.3759 58.1313C87.3548 58.0863 87.3381 58.0543 87.3264 58.0329C86.0237 56.9321 73.2786 46.4398 56.6975 40.3963C39.733 34.213 19.0366 32.7639 2.31897 50.403L1.01115e-05 52.8498L0.339743 49.4958C1.00357 42.9423 6.55931 27.6003 23.3593 17.2035C39.8291 7.01116 48.1257 2.09015 50.2279 0.896983L50.8749 0.529765ZM50.7206 3.26711C47.874 4.91745 39.672 9.81373 24.5699 19.1597C11.0698 27.5143 5.22132 39.147 3.31927 46.1851C20.4379 30.4086 40.9706 32.2156 57.4853 38.2349C74.8519 44.5648 88.0583 55.6298 88.8977 56.3492C89.1818 56.5928 89.3577 56.9394 89.458 57.153C89.5818 57.4164 89.7039 57.7363 89.8241 58.0901C90.0658 58.8009 90.331 59.7408 90.6109 60.8389C91.1719 63.0403 91.8125 65.9602 92.4628 69.1372C93.7584 75.4671 95.1038 82.874 95.9517 87.7906C96.623 90.0497 97.9434 92.8363 99.6646 94.2746C100.499 94.9719 101.344 95.2865 102.226 95.1862C103.131 95.0833 104.304 94.5178 105.722 92.9654C107.026 91.5372 107.974 89.0899 108.57 85.8603C109.159 82.6667 109.376 78.8703 109.343 74.9037C109.277 66.9733 108.215 58.5123 107.255 53.1514L107.237 53.0508V52.9486C107.237 50.2625 106.211 46.5166 104.853 42.8249C103.608 39.4409 102.131 36.2245 101.069 34.1336C98.6538 33.5619 95.264 32.0087 91.4181 29.938C87.2161 27.6755 82.3337 24.7185 77.3306 21.5178C67.6201 15.3054 57.4022 8.141 50.7206 3.26711Z" fill="var(--fill-0, black)"/>
<path id="Vector 371" d="M30.1756 31.3407C30.7148 25.4073 37.1108 14.6965 37.265 14.5809C30.2682 17.4782 27.4917 20.5399 26.978 21.7087C26.3873 23.1342 25.0825 26.3397 24.5893 27.7576C23.9729 29.5299 23.3177 31.9572 24.0883 32.1883C24.7048 32.3733 28.4034 31.7003 30.1756 31.3407Z" fill="var(--fill-0, #94989D)"/>
<path id="Vector 371 (Stroke)" fill-rule="evenodd" clip-rule="evenodd" d="M27.2427 21.8219C26.6505 23.2509 25.3507 26.4448 24.8611 27.8523C24.5546 28.7337 24.2429 29.7656 24.1025 30.5989C24.0317 31.0186 24.0084 31.3657 24.0402 31.611C24.074 31.8719 24.1509 31.907 24.1712 31.9131C24.2032 31.9227 24.2904 31.9338 24.4519 31.9324C24.6043 31.9311 24.7975 31.9193 25.024 31.8983C25.4765 31.8564 26.0454 31.7794 26.6546 31.6848C27.7805 31.5098 29.0308 31.2767 29.9111 31.1008C30.2466 28.0929 31.9616 24.0041 33.6068 20.6526C34.4525 18.9298 35.286 17.3897 35.918 16.2726C36.1556 15.8527 36.3649 15.4922 36.5359 15.2039C33.5032 16.5293 31.3442 17.8681 29.8674 19.02C28.2516 20.2803 27.4727 21.301 27.2427 21.8219ZM29.5137 18.5665C31.17 17.2746 33.6366 15.7725 37.1552 14.3154L37.4377 14.8112C37.4578 14.7961 37.4724 14.7804 37.4788 14.7729C37.4771 14.7752 37.4738 14.7797 37.4686 14.7871C37.455 14.8066 37.4349 14.8368 37.408 14.8787C37.3545 14.9619 37.2792 15.0833 37.1845 15.2398C36.9955 15.5526 36.7323 16.0012 36.4186 16.5558C35.7911 17.665 34.963 19.1951 34.1231 20.9061C32.4363 24.3421 30.7264 28.4594 30.4622 31.3669L30.4428 31.5801L30.233 31.6227C29.3441 31.8031 27.9718 32.0621 26.7429 32.2531C26.1289 32.3485 25.5467 32.4275 25.077 32.471C24.8424 32.4927 24.6317 32.506 24.4569 32.5075C24.2912 32.5089 24.1279 32.5006 24.0059 32.464L24.0858 32.1977L24.0059 32.464C23.6409 32.3545 23.5107 31.9995 23.4699 31.6849C23.4271 31.3546 23.4616 30.9408 23.5354 30.5033C23.6839 29.6221 24.0081 28.5542 24.318 27.6633C24.8144 26.236 26.1227 23.0223 26.7126 21.5988L26.7149 21.5931L26.715 21.5932C27.0001 20.9445 27.8664 19.8514 29.5137 18.5665ZM37.48 14.7713C37.4836 14.7668 37.4829 14.7681 37.4788 14.7729C37.4794 14.7721 37.4798 14.7716 37.48 14.7713Z" fill="var(--fill-0, black)"/>
<path id="Vector 372" d="M20.8954 32.5326C21.022 31.2683 22.1861 24.8413 22.7523 21.7859C20.3817 22.418 16.7073 26.132 16.6678 26.6457C16.6362 27.0566 16.0751 32.4009 15.7985 35.0218C15.7985 34.6741 19.1964 33.2175 20.8954 32.5326Z" fill="var(--fill-0, #94989D)"/>
<path id="Vector 372 (Stroke)" fill-rule="evenodd" clip-rule="evenodd" d="M23.1184 21.3907L23.0355 21.8382C22.4675 24.9029 21.3069 31.3123 21.1819 32.5611L21.1646 32.7342L21.0033 32.7992C20.1564 33.1406 18.8871 33.6739 17.8314 34.1643C17.3025 34.4099 16.8332 34.6421 16.4984 34.8323C16.3298 34.9282 16.2043 35.0084 16.1241 35.0704C16.0842 35.1013 16.0646 35.1208 16.0575 35.129C16.0644 35.1187 16.0792 35.0921 16.0845 35.0518L15.5113 35.0216C15.5113 35.0039 15.5127 34.9868 15.5151 34.9705C15.793 32.3379 16.3504 27.0279 16.3815 26.6235C16.3888 26.5287 16.4302 26.4399 16.4633 26.3779C16.5011 26.3071 16.5515 26.2293 16.61 26.1477C16.7274 25.9839 16.8911 25.7855 17.0884 25.5661C17.484 25.1263 18.0293 24.5863 18.6465 24.0441C19.2637 23.5019 19.9572 22.9534 20.6497 22.4991C21.3387 22.0471 22.0427 21.6775 22.6786 21.5079L23.1184 21.3907ZM16.1573 34.3651C16.176 34.3542 16.195 34.3433 16.2143 34.3323C16.5698 34.1303 17.0561 33.8903 17.5891 33.6427C18.5926 33.1766 19.7825 32.674 20.6294 32.3301C20.8181 30.8074 21.8158 25.278 22.3812 22.2137C21.9414 22.3894 21.4598 22.6555 20.9652 22.98C20.3008 23.4159 19.6288 23.9466 19.0261 24.4761C18.4234 25.0056 17.8945 25.5299 17.516 25.9507C17.3263 26.1616 17.1779 26.3426 17.0775 26.4827C17.0271 26.553 16.9922 26.6083 16.9707 26.6487C16.9609 26.667 16.9559 26.6786 16.9536 26.6843C16.9134 27.1659 16.445 31.6348 16.1573 34.3651ZM16.0571 35.1295C16.0572 35.1294 16.0574 35.1292 16.0575 35.129C16.0534 35.1352 16.052 35.1355 16.0571 35.1295Z" fill="var(--fill-0, black)"/>
<path id="Vector 373" d="M12.6578 36.904C12.6837 34.5167 12.72 29.6485 12.6578 29.2748C11.0879 31.0653 7.94028 34.7632 7.90914 35.2302C7.87022 35.8141 7.87003 39.5508 8.53173 39.5897C9.0611 39.6209 11.503 37.8122 12.6578 36.904Z" fill="var(--fill-0, #94989D)"/>
<path id="Vector 373 (Stroke)" fill-rule="evenodd" clip-rule="evenodd" d="M12.8409 28.629L12.9405 29.2279C12.9523 29.2985 12.9585 29.4381 12.9632 29.6042C12.9682 29.7804 12.9718 30.0127 12.9743 30.2865C12.9792 30.8345 12.9797 31.554 12.9774 32.3354C12.9729 33.8986 12.9574 35.7133 12.9444 36.9074L12.9429 37.0451L12.8346 37.1303C12.2541 37.5869 11.3495 38.2702 10.5217 38.8367C10.1084 39.1195 9.70914 39.3767 9.37657 39.5623C9.21066 39.6549 9.05562 39.7329 8.92023 39.7875C8.79624 39.8375 8.64874 39.885 8.51392 39.877C8.28427 39.8635 8.14291 39.6938 8.0649 39.5617C7.98111 39.4199 7.91891 39.2377 7.87014 39.0451C7.77156 38.6559 7.70932 38.1473 7.67006 37.6366C7.59139 36.6134 7.60076 35.5193 7.62129 35.2114C7.62707 35.1246 7.66218 35.0411 7.68946 34.9834C7.72096 34.9168 7.76317 34.8422 7.81207 34.763C7.9102 34.6039 8.04713 34.4069 8.21094 34.1843C8.5393 33.738 8.98837 33.1716 9.48292 32.567C10.4727 31.357 11.6544 29.9823 12.4406 29.0855L12.8409 28.629ZM8.19417 35.2648C8.1764 35.5628 8.16789 36.6093 8.24348 37.5926C8.28202 38.0939 8.34137 38.5633 8.42765 38.9039C8.4713 39.0762 8.51734 39.1969 8.56004 39.2692C8.56694 39.2808 8.57292 39.2899 8.57792 39.297C8.60285 39.2909 8.6441 39.2787 8.7052 39.2541C8.80919 39.2122 8.94079 39.1469 9.0963 39.0601C9.40655 38.887 9.78924 38.641 10.1969 38.3621C10.9615 37.8389 11.7964 37.2116 12.3708 36.7631C12.3834 35.5711 12.398 33.8358 12.4023 32.3337C12.4046 31.553 12.4041 30.8362 12.3992 30.2917C12.3983 30.1923 12.3972 30.0987 12.396 30.0117C11.656 30.8648 10.7283 31.9529 9.92807 32.9312C9.43559 33.5332 8.9938 34.0907 8.67417 34.5251C8.51398 34.7428 8.38763 34.9254 8.30153 35.0649C8.25832 35.135 8.22818 35.1895 8.20938 35.2293C8.20063 35.2478 8.1962 35.2592 8.19417 35.2648ZM8.5962 39.3183C8.59618 39.3184 8.59536 39.3179 8.59375 39.3163C8.59541 39.3175 8.59621 39.3182 8.5962 39.3183Z" fill="var(--fill-0, black)"/>
<path id="Vector 376" d="M9.84292 34.3044C9.91778 34.0296 11.6125 32.254 12.4506 31.4005V29.9329L10.1259 32.589L8.17212 35.2256C7.94199 36.7522 8.45329 39.3162 8.5938 39.4098C8.70622 39.4848 9.47339 38.9519 9.84292 38.676C9.81173 37.3333 9.76806 34.5793 9.84292 34.3044Z" fill="var(--fill-0, #444D56)"/>
<path id="Vector 374" d="M28.5063 23.2306C28.7369 22.4233 32.3184 20.6197 34.0803 19.8188L36.593 15.147C34.8781 16.0365 31.1142 18.0726 29.7781 19.1015C28.108 20.3877 27.1063 21.9942 27.0688 22.1252C27.0314 22.2563 24.4285 29.1056 24.1664 30.0399C23.9566 30.7873 24.079 31.5818 24.1664 31.8857C24.5401 32.0315 26.3504 31.6225 27.2088 31.3998C27.5452 29.0131 28.2756 24.0379 28.5063 23.2306Z" fill="var(--fill-0, #444D56)"/>
<g id="Vector 366">
<path d="M79.7595 29.1893C79.0832 29.7152 75.7218 38.4541 74.1256 42.7579C74.7203 43.3526 76.3887 44.7767 78.3042 45.7157C80.6987 46.8894 82.4359 42.4761 82.6706 41.9127C82.9054 41.3493 86.2858 31.9124 85.7224 31.0673C85.159 30.2222 80.6048 28.532 79.7595 29.1893Z" fill="var(--fill-0, #798088)"/>
<path d="M69.3368 20.879C68.8485 21.0293 65.033 30.8638 63.1863 35.7623C62.8574 37.828 64.7359 39.3775 67.3651 39.7062C69.4684 39.9691 70.0256 39.3149 70.0412 38.955C71.168 36.1223 73.4968 30.2692 73.7972 29.518C74.1728 28.579 76.0039 24.7759 75.6283 24.3064C75.2527 23.8369 69.9471 20.6912 69.3368 20.879Z" fill="var(--fill-0, #798088)"/>
<path d="M60.0287 14.8138C57.1479 16.1877 53.1774 27.7961 51.5524 33.4285C52.4943 34.9243 58.8098 35.7623 59.6408 34.8689C60.4718 33.9755 65.7349 18.6918 65.2363 17.75C64.8374 16.9965 61.5984 15.4786 60.0287 14.8138Z" fill="var(--fill-0, #798088)"/>
<path d="M56.4923 10.9142C56.2831 11.5418 50.0422 25.2091 46.9479 31.9643C46.163 32.6818 42.2629 32.2633 40.4109 31.9643C40.607 30.5479 41.1691 26.7867 41.849 23.0736C42.6988 18.4321 50.7397 6.20735 51.5524 6.14197C52.365 6.0766 56.7538 10.1297 56.4923 10.9142Z" fill="var(--fill-0, #798088)"/>
</g>
<path id="Vector 366 (Stroke)" fill-rule="evenodd" clip-rule="evenodd" d="M57.047 10.5927C57.0782 10.7186 57.1024 10.9023 57.0378 11.0961C57.0008 11.2071 56.8648 11.5229 56.6753 11.9535C56.4777 12.4025 56.204 13.0158 55.8723 13.7538C55.2089 15.2301 54.3121 17.2094 53.3254 19.3794C51.3519 23.7198 49.0179 28.8259 47.4706 32.2038L47.422 32.3099L47.3358 32.3887C47.1477 32.5608 46.9085 32.6644 46.6855 32.7326C46.4549 32.8031 46.1933 32.8497 45.9202 32.8806C45.3737 32.9422 44.7219 32.9468 44.0564 32.9202C42.7222 32.8666 41.2602 32.684 40.3191 32.5321L39.764 32.4424L39.8411 31.8854C40.038 30.4628 40.6014 26.6932 41.2832 22.97C41.511 21.7254 42.2047 20.03 43.0933 18.2251C43.9891 16.4055 45.1083 14.4247 46.2232 12.5928C47.3382 10.7607 48.454 9.06893 49.3456 7.82704C49.7903 7.20746 50.1853 6.69145 50.4999 6.32389C50.6561 6.14155 50.8024 5.98397 50.9319 5.86627C50.9961 5.80793 51.0679 5.74865 51.1437 5.69977C51.2044 5.6606 51.3354 5.58246 51.5061 5.56873C51.6717 5.55541 51.8237 5.5954 51.9309 5.63213C52.0473 5.67201 52.166 5.72776 52.281 5.7896C52.5113 5.91351 52.7725 6.08676 53.0441 6.28619C53.5898 6.68688 54.2248 7.22835 54.8202 7.79162C55.4146 8.35396 55.9853 8.95292 56.3958 9.47141C56.5994 9.72855 56.7778 9.98361 56.8986 10.216C56.9589 10.3319 57.0143 10.4601 57.047 10.5927ZM51.6578 6.76257C51.5846 6.83411 51.4899 6.93627 51.3737 7.07195C51.0898 7.40357 50.7166 7.8896 50.2799 8.49781C49.4087 9.71149 48.3088 11.3782 47.2058 13.1907C46.1027 15.0033 45.0015 16.9531 44.1252 18.7331C43.2417 20.5278 42.6116 22.101 42.4146 23.1772C41.8129 26.4631 41.3035 29.7881 41.06 31.4808C41.9356 31.6049 43.065 31.7292 44.1025 31.7708C44.7416 31.7965 45.3278 31.7899 45.7912 31.7376C46.0229 31.7114 46.2093 31.6754 46.3494 31.6326C46.4126 31.6133 46.4587 31.5949 46.4914 31.5796C48.0382 28.2023 50.3335 23.1806 52.2783 18.9033C53.2648 16.7337 54.1608 14.7563 54.8232 13.2824C55.1544 12.5452 55.4267 11.9351 55.6225 11.4902C55.7205 11.2675 55.7987 11.0877 55.8553 10.9547C55.8783 10.9006 55.8973 10.8553 55.9124 10.8186C55.9044 10.7997 55.8933 10.7758 55.878 10.7465C55.8057 10.6073 55.6778 10.4175 55.494 10.1854C55.1298 9.72534 54.6014 9.16803 54.0298 8.6272C53.4591 8.0873 52.8609 7.57872 52.3633 7.21332C52.1132 7.02971 51.9003 6.89091 51.7361 6.80261C51.7071 6.78701 51.681 6.77375 51.6578 6.76257ZM51.5336 6.71306C51.5336 6.71302 51.5345 6.7132 51.5365 6.71369C51.5346 6.71335 51.5336 6.7131 51.5336 6.71306ZM55.9304 10.8687C55.931 10.8711 55.9312 10.8723 55.9312 10.8723C55.9311 10.8722 55.9308 10.871 55.9304 10.8687ZM60.0146 14.1833L60.2529 14.2842C61.0478 14.6209 62.2655 15.1735 63.3397 15.7399C63.8757 16.0226 64.3874 16.3147 64.7961 16.5897C65.0002 16.7271 65.1879 16.8665 65.3435 17.0042C65.4906 17.1345 65.6461 17.2952 65.7444 17.4809C65.8143 17.6128 65.8326 17.7481 65.8395 17.8324C65.8474 17.9282 65.8452 18.0292 65.8384 18.1274C65.8247 18.3246 65.7885 18.5631 65.7378 18.8277C65.6357 19.3598 65.463 20.0547 65.2434 20.8497C64.8033 22.4428 64.1626 24.4803 63.4823 26.5104C62.8017 28.5413 62.0788 30.5728 61.4727 32.1553C61.17 32.9459 60.8944 33.6297 60.6665 34.1472C60.5528 34.4055 60.4482 34.6287 60.3559 34.8057C60.2733 34.964 60.1729 35.1411 60.0618 35.2606C59.8371 35.5021 59.506 35.6187 59.2246 35.6848C58.9203 35.7562 58.5606 35.7934 58.1775 35.8059C57.4088 35.8311 56.4745 35.7592 55.5482 35.6127C54.6219 35.4662 53.6789 35.2411 52.8957 34.9492C52.5042 34.8032 52.1395 34.6357 51.8326 34.445C51.5321 34.2583 51.2488 34.026 51.0656 33.735L50.9282 33.5168L50.9996 33.2691C51.8161 30.4393 53.2216 26.1081 54.7877 22.3052C55.5702 20.4051 56.3991 18.6216 57.2211 17.2191C57.6321 16.518 58.0483 15.9 58.464 15.4065C58.8738 14.9202 59.3137 14.5176 59.781 14.2947L60.0146 14.1833ZM60.0668 15.4558C59.8565 15.6006 59.614 15.8268 59.3437 16.1476C58.9845 16.574 58.6052 17.1323 58.2135 17.8007C57.4301 19.1372 56.6246 20.8654 55.8513 22.7432C54.3597 26.3651 53.0108 30.4865 52.1916 33.2891C52.2545 33.3434 52.3359 33.4035 52.4397 33.468C52.6616 33.6059 52.9514 33.7424 53.2974 33.8714C53.9893 34.1293 54.8536 34.3383 55.7279 34.4766C56.602 34.6149 57.4614 34.6785 58.1399 34.6563C58.4804 34.6451 58.7579 34.6128 58.9617 34.565C59.1434 34.5223 59.2103 34.48 59.221 34.4742C59.2213 34.4739 59.2215 34.4735 59.2218 34.4731C59.2324 34.457 59.2702 34.4001 59.336 34.2739C59.4118 34.1284 59.505 33.9307 59.6138 33.6837C59.8308 33.1908 60.0988 32.5266 60.3986 31.744C60.9975 30.1801 61.715 28.1643 62.3917 26.1449C63.0687 24.1247 63.7023 22.1088 64.1347 20.5434C64.3514 19.7591 64.5146 19.0985 64.6081 18.611C64.6552 18.3658 64.6818 18.1785 64.6909 18.0479C64.6929 18.0189 64.6938 17.9953 64.6942 17.9764C64.6684 17.9471 64.6314 17.91 64.581 17.8654C64.4769 17.7733 64.334 17.6652 64.1538 17.544C63.7939 17.3017 63.3229 17.0315 62.8031 16.7574C61.8768 16.2689 60.8316 15.787 60.0668 15.4558ZM64.6921 17.918C64.6922 17.9181 64.6925 17.92 64.6929 17.924C64.6922 17.9201 64.692 17.918 64.6921 17.918ZM69.3832 21.4451C69.383 21.445 69.3859 21.4451 69.3921 21.4459C69.3865 21.4457 69.3834 21.4453 69.3832 21.4451ZM69.587 21.4995C69.7611 21.5586 69.9962 21.6571 70.2805 21.7902C70.8505 22.0571 71.5682 22.4393 72.2868 22.8466C73.0041 23.2532 73.7127 23.6792 74.2626 24.031C74.5381 24.2071 74.7692 24.3618 74.94 24.4842C75.0029 24.5292 75.0551 24.5682 75.0969 24.6008C75.0841 24.7007 75.0533 24.8433 75.0003 25.029C74.8843 25.4355 74.6885 25.961 74.4615 26.5197C74.236 27.0748 73.9866 27.6463 73.7682 28.1416C73.7307 28.2268 73.6938 28.3102 73.658 28.3912C73.4893 28.7731 73.3446 29.1006 73.2631 29.3044C72.9624 30.0563 70.6333 35.9102 69.5067 38.7424L69.4707 38.8328L69.468 38.8953C69.4518 38.9185 69.4 38.9744 69.2566 39.0367C68.9842 39.1551 68.4353 39.2604 67.4363 39.1355C66.2068 38.9818 65.2008 38.5475 64.5526 37.9596C63.9325 37.3972 63.6378 36.6995 63.746 35.9076C64.6688 33.4608 66.0704 29.8153 67.3042 26.7551C67.9263 25.2121 68.5036 23.8234 68.9545 22.8136C69.1805 22.3072 69.3707 21.9053 69.5165 21.6294C69.5422 21.5807 69.5657 21.5374 69.587 21.4995ZM69.4746 38.8839C69.4746 38.884 69.4743 38.8851 69.4732 38.8871C69.4739 38.8849 69.4745 38.8839 69.4746 38.8839ZM75.8664 23.7434C75.93 23.7954 76.0133 23.8673 76.0773 23.9472C76.1921 24.0908 76.2296 24.2497 76.2438 24.3566C76.2587 24.4697 76.255 24.5827 76.2451 24.6831C76.2253 24.884 76.1725 25.1128 76.1064 25.3445C75.9729 25.8125 75.758 26.3845 75.5272 26.9526C75.2949 27.5244 75.0396 28.109 74.8207 28.6056C74.7811 28.6955 74.7429 28.782 74.7063 28.8648C74.5376 29.2468 74.4042 29.5487 74.3311 29.7316C74.0334 30.4759 71.7409 36.2378 70.6037 39.0965C70.5362 39.5142 70.2068 39.8779 69.7152 40.0916C69.1793 40.3245 68.398 40.4149 67.2936 40.2769C65.8938 40.1019 64.646 39.5971 63.7799 38.8116C62.9 38.0136 62.419 36.923 62.6182 35.6719L62.6274 35.6141L62.648 35.5594C63.5722 33.1079 64.9894 29.4202 66.2374 26.325C66.861 24.7784 67.4446 23.3741 67.9042 22.3446C68.1333 21.8314 68.3357 21.4021 68.4993 21.0922C68.5803 20.939 68.6586 20.8017 68.7313 20.6945C68.767 20.6418 68.8105 20.5826 68.8606 20.5289C68.8935 20.4936 68.9991 20.3812 69.1675 20.3294C69.3421 20.2757 69.512 20.2988 69.604 20.3152C69.716 20.335 69.8346 20.369 69.9508 20.4083C70.1847 20.4873 70.4657 20.6069 70.7682 20.7485C71.3764 21.0333 72.123 21.4316 72.854 21.8459C73.5864 22.261 74.3128 22.6977 74.8824 23.062C75.1666 23.2438 75.4164 23.4105 75.61 23.5492C75.7066 23.6184 75.7938 23.684 75.8664 23.7434ZM80.1187 29.6455C80.11 29.6572 80.0977 29.6744 80.0818 29.6985C80.0332 29.7718 79.971 29.8777 79.8953 30.0188C79.7445 30.2999 79.5576 30.6878 79.3421 31.1634C78.9119 32.1129 78.382 33.3803 77.8208 34.772C76.7591 37.4047 75.5939 40.4615 74.7965 42.6031C75.5106 43.258 76.9478 44.4103 78.5573 45.1993C78.9739 45.4036 79.3397 45.369 79.7015 45.1839C80.0915 44.9844 80.4772 44.605 80.8355 44.1227C81.5108 43.2137 81.9663 42.1108 82.1167 41.7469C82.1253 41.7259 82.133 41.7074 82.1396 41.6915C82.2468 41.4342 83.1444 38.954 83.9475 36.4218C84.3481 35.1583 84.7202 33.8976 84.9567 32.9058C85.0754 32.408 85.156 31.9937 85.1911 31.6874C85.2088 31.5332 85.2128 31.4235 85.2091 31.3526C85.209 31.351 85.2089 31.3494 85.2088 31.3479C85.2019 31.3411 85.1939 31.3335 85.1849 31.3253C85.1432 31.2874 85.0854 31.2415 85.0096 31.1885C84.8574 31.0822 84.6542 30.9626 84.4088 30.8364C83.9188 30.5845 83.2971 30.3251 82.6617 30.1095C82.0243 29.8933 81.3946 29.7285 80.8871 29.656C80.6323 29.6196 80.4274 29.6093 80.2769 29.6203C80.1901 29.6266 80.1414 29.6386 80.1187 29.6455ZM85.2035 31.3007C85.2035 31.3008 85.2039 31.3021 85.2044 31.3048C85.2036 31.3021 85.2034 31.3007 85.2035 31.3007ZM85.6683 30.2455C85.864 30.3823 86.0692 30.5509 86.2008 30.7483C86.3256 30.9356 86.3504 31.1535 86.3577 31.2917C86.3662 31.4522 86.3552 31.6325 86.3339 31.8183C86.291 32.1921 86.1982 32.6581 86.0755 33.1726C85.8293 34.2055 85.4472 35.4977 85.0439 36.7695C84.2389 39.3079 83.3289 41.8279 83.2014 42.1339C83.1949 42.1495 83.1871 42.1684 83.178 42.1905C83.028 42.5549 82.5242 43.7784 81.7589 44.8086C81.3542 45.3533 80.842 45.8924 80.2255 46.2079C79.5808 46.5378 78.8315 46.6147 78.051 46.2321C76.0639 45.258 74.3451 43.7908 73.7188 43.1646L73.458 42.9038L73.5862 42.5579C74.3855 40.403 75.6269 37.137 76.754 34.3419C77.3172 32.9452 77.8542 31.6602 78.2944 30.6887C78.514 30.2039 78.7131 29.7892 78.8818 29.4749C78.9659 29.3183 79.0468 29.1783 79.1225 29.0638C79.1878 28.9652 79.284 28.8305 79.4063 28.7354C79.6458 28.5491 79.9465 28.491 80.1934 28.4731C80.456 28.4539 80.7499 28.4745 81.0498 28.5173C81.6515 28.6032 82.3541 28.7905 83.0313 29.0203C83.7105 29.2507 84.3859 29.5313 84.9347 29.8134C85.2087 29.9543 85.4602 30.1002 85.6683 30.2455Z" fill="var(--fill-0, black)"/>
<path id="Vector 367" d="M81.3221 32.089C80.5397 32.1449 77.5027 39.914 76.082 43.7916L74.5799 42.6039C75.8142 38.3769 78.6182 29.8672 79.9596 29.6436C81.3011 29.42 84.105 30.645 85.3394 31.2855L84.9202 33.5911C84.0468 33.0671 82.1045 32.0331 81.3221 32.089Z" fill="var(--fill-0, #444D56)"/>
<path id="Vector 364" d="M89.9689 34.3696C88.435 34.5675 85.0418 43.6056 83.537 48.0999C83.3872 48.5438 87.7426 52.0581 88.8559 51.8107C89.9691 51.5633 95.9066 39.5648 95.8447 38.5753C95.7829 37.5857 91.8864 34.1222 89.9689 34.3696Z" fill="var(--fill-0, #94989D)"/>
<path id="Vector 364 (Stroke)" fill-rule="evenodd" clip-rule="evenodd" d="M90.0553 34.9384C90.0477 34.9418 90.0278 34.9515 89.9949 34.975C89.9327 35.0195 89.8491 35.095 89.7454 35.2125C89.5377 35.4479 89.2948 35.7994 89.0242 36.2584C88.4851 37.1729 87.8812 38.4358 87.2704 39.8514C86.0885 42.5903 84.9073 45.8369 84.1534 48.0719C84.2371 48.1754 84.3688 48.3159 84.5467 48.4865C84.9305 48.8545 85.4767 49.3125 86.0673 49.7536C86.6587 50.1953 87.2777 50.6074 87.8062 50.8907C88.0713 51.0328 88.299 51.1347 88.4797 51.1934C88.5836 51.2272 88.6517 51.24 88.691 51.2449C88.6989 51.2379 88.7078 51.2295 88.7179 51.2197C88.7934 51.1463 88.8945 51.0296 89.0208 50.8635C89.2716 50.5333 89.5826 50.0602 89.9347 49.4792C90.637 48.3206 91.4746 46.78 92.2794 45.209C93.0837 43.6389 93.8502 42.0481 94.4104 40.7917C94.6909 40.1625 94.9168 39.6237 95.0696 39.216C95.1462 39.0115 95.2014 38.8481 95.2357 38.7272C95.254 38.6624 95.2625 38.6229 95.2665 38.603C95.2574 38.5774 95.2318 38.5124 95.1636 38.4015C95.0699 38.2492 94.9273 38.0604 94.7384 37.8452C94.3616 37.4162 93.8357 36.9222 93.2479 36.4609C92.6596 35.9991 92.0265 35.5838 91.4386 35.3015C90.8395 35.0138 90.3661 34.9028 90.0553 34.9384ZM96.1433 37.7989C96.2708 38.0062 96.4021 38.2689 96.419 38.5393C96.4298 38.711 96.3814 38.9032 96.3423 39.0411C96.2958 39.2048 96.2287 39.4009 96.1467 39.6196C95.9822 40.0585 95.7457 40.6213 95.4609 41.2601C94.8905 42.5394 94.1147 44.1492 93.3031 45.7334C92.4922 47.3165 91.6406 48.8839 90.9184 50.0754C90.5583 50.6695 90.2233 51.1821 89.9366 51.5594C89.794 51.747 89.6535 51.9143 89.5197 52.0444C89.4093 52.1518 89.2208 52.3187 88.981 52.372C88.6868 52.4374 88.3748 52.3688 88.124 52.2873C87.8541 52.1995 87.56 52.0639 87.2626 51.9044C86.666 51.5845 85.9968 51.1366 85.379 50.6752C84.7603 50.2131 84.1761 49.7248 83.7506 49.3168C83.54 49.1148 83.3546 48.9196 83.2225 48.7489C83.1579 48.6655 83.0905 48.5683 83.0413 48.4654C83.0087 48.3972 82.9059 48.174 82.992 47.9172M96.1433 37.7989C96.0045 37.5732 95.8176 37.3311 95.6026 37.0863ZM95.6026 37.0863C95.1715 36.5953 94.5918 36.0534 93.9581 35.556ZM93.9581 35.556C93.3249 35.0591 92.6205 34.5931 91.9366 34.2647ZM91.9366 34.2647C91.2719 33.9455 90.5439 33.7155 89.8957 33.7991ZM89.8957 33.7991C89.6725 33.8279 89.4802 33.9292 89.3266 34.0389ZM89.3266 34.0389C89.1699 34.1507 89.0218 34.294 88.883 34.4514ZM88.883 34.4514C88.6056 34.7657 88.32 35.1879 88.0333 35.6743ZM88.0333 35.6743C87.4577 36.6506 86.8316 37.9651 86.2143 39.3956ZM86.2143 39.3956C84.9777 42.2612 83.7477 45.6602 82.9922 47.9165Z" fill="var(--fill-0, black)"/>
<path id="Vector 377" d="M92.376 70.4C91.9911 68.9197 91.734 67.5436 91.5879 66.3753L92.376 70.4C94.209 77.4503 98.9386 86.8626 108.356 87.4274C108.053 89.2294 106.635 93.2851 103.382 95.0914C100.129 96.8977 97.1508 91.9554 96.0685 89.2586L92.376 70.4Z" fill="var(--fill-0, #A5A3A2)"/>
<path id="Vector 363 (Stroke)" fill-rule="evenodd" clip-rule="evenodd" d="M31.5068 34.6483C34.5433 17.3328 45.2695 5.34035 50.3465 1.44566L51.7467 3.27091C47.0335 6.88652 36.691 18.404 33.7727 35.0456L31.5068 34.6483Z" fill="var(--fill-0, black)"/>
<path id="Ellipse 38" d="M107.309 81.5216C107.309 87.1347 105.201 91.6851 102.599 91.6851C99.9978 91.6851 97.889 87.1347 97.889 81.5216C97.889 75.9084 99.9978 71.358 102.599 71.358C105.201 71.358 107.309 75.9084 107.309 81.5216Z" fill="var(--fill-0, #AAACAE)"/>
<path id="Ellipse 38 (Stroke)" fill-rule="evenodd" clip-rule="evenodd" d="M104.364 87.9828C105.089 86.4183 105.584 84.1357 105.584 81.5216C105.584 78.9074 105.089 76.6248 104.364 75.0603C103.573 73.3517 102.825 73.0834 102.599 73.0834C102.373 73.0834 101.626 73.3517 100.834 75.0603C100.109 76.6248 99.6143 78.9074 99.6143 81.5216C99.6143 84.1357 100.109 86.4183 100.834 87.9828C101.626 89.6914 102.373 89.9597 102.599 89.9597C102.825 89.9597 103.573 89.6914 104.364 87.9828ZM102.599 91.6851C105.201 91.6851 107.309 87.1347 107.309 81.5216C107.309 75.9084 105.201 71.358 102.599 71.358C99.9978 71.358 97.889 75.9084 97.889 81.5216C97.889 87.1347 99.9978 91.6851 102.599 91.6851Z" fill="var(--fill-0, black)"/>
<path id="Ellipse 38_2" d="M104.776 81.5216C104.776 84.6191 103.801 87.1301 102.599 87.1301C101.396 87.1301 100.422 84.6191 100.422 81.5216C100.422 78.4241 101.396 75.913 102.599 75.913C103.801 75.913 104.776 78.4241 104.776 81.5216Z" fill="var(--fill-0, #939393)"/>
<path id="Ellipse 38 (Stroke)_2" fill-rule="evenodd" clip-rule="evenodd" d="M102.599 84.6743C102.862 83.9065 103.051 82.8032 103.051 81.5216C103.051 80.24 102.862 79.1367 102.599 78.3689C102.335 79.1367 102.147 80.24 102.147 81.5216C102.147 82.8032 102.335 83.9065 102.599 84.6743ZM102.599 87.1301C103.801 87.1301 104.776 84.6191 104.776 81.5216C104.776 78.4241 103.801 75.913 102.599 75.913C101.396 75.913 100.422 78.4241 100.422 81.5216C100.422 84.6191 101.396 87.1301 102.599 87.1301Z" fill="var(--fill-0, black)"/>
<path id="Vector 365" d="M90.988 38.1683C90.0601 38.2159 86.6353 45.7037 85.0389 49.4417C84.9481 49.4417 84.307 48.6286 83.9978 48.2221C84.6847 44.7651 87.6737 37.9703 89.9386 34.7771C91.6935 34.7771 95.2116 37.9601 95.3901 38.436C95.5329 38.8168 94.9935 39.7845 94.706 40.2207C93.8533 39.5168 91.9159 38.1207 90.988 38.1683Z" fill="var(--fill-0, #444D56)"/>
<path id="Vector 368" d="M70.0308 24.7965C69.2795 24.7966 65.9115 33.5462 64.3214 37.9211C63.5074 37.2383 63.5873 36.2067 63.5123 35.882C63.4524 35.6223 67.4933 26.133 69.5213 21.4209C70.1227 21.4209 75.1471 24.3516 75.1965 24.4752C75.2361 24.5741 74.7846 25.9005 74.5539 26.5514C73.3593 25.9665 70.7821 24.7965 70.0308 24.7965Z" fill="var(--fill-0, #444D56)"/>
<path id="Vector 369" d="M60.4311 18.8652C58.8312 18.9768 55.548 29.1157 54.1063 34.1711C53.6976 34.1711 52.5094 33.7959 51.9664 33.6083C55.0825 23.0043 59.5473 15.4234 60.0124 15.2839C60.4775 15.1443 64.1963 17.4601 64.7117 17.8118C65.1754 18.1282 64.6428 19.6968 64.2707 20.5029C63.6196 19.8828 62.0309 18.7535 60.4311 18.8652Z" fill="var(--fill-0, #444D56)"/>
<path id="Vector 370" d="M51.2113 11.2332C51.5012 11.0262 53.7464 12.5957 54.8328 13.4063L56.0036 10.9274C55.5779 9.54999 52.821 7.59872 51.4958 6.79525C49.3358 8.95523 43.7467 19.4533 43.0794 20.9286C42.5454 22.1089 41.522 28.5158 41.0771 31.5718C41.5267 31.9933 42.7632 31.7474 43.3252 31.5718C43.8521 27.1459 50.849 11.4919 51.2113 11.2332Z" fill="var(--fill-0, #444D56)"/>
<path id="Vector 375" d="M18.037 27.63C18.2479 27.0294 20.7357 25.4859 21.9532 24.7893L22.4606 22.2124C19.7984 23.4623 17.6584 25.7227 16.9212 26.6967L16.0891 34.4478L17.6923 33.6361C17.7194 31.8844 17.8262 28.2306 18.037 27.63Z" fill="var(--fill-0, #444D56)"/>
<path id="Vector 378" d="M105.331 51.3043C107.449 60.229 108.357 78.478 108.546 87.4909C109.168 82.2495 109.927 81.2363 108.546 63.1863C107.163 45.127 104.098 39.5025 101.12 34.0511C94.3628 32.2354 73.2876 18.7521 63.5946 12.2375L51.2459 3.45086L48.6595 5.81932C49.4723 5.26781 50.5689 4.92241 51.0156 4.81865C57.3647 12.5283 86.2205 27.7917 99.8548 34.4598C100.798 36.356 103.214 42.3796 105.331 51.3043Z" fill="var(--fill-0, white)"/>
<path id="Vector 379" d="M12.7192 28.9989C19.1371 22.8727 35.9525 13.0063 43.5579 8.83894L45.8502 5.97384C40.2242 9.34252 27.8781 16.7883 23.5023 19.6222C19.1265 22.4561 14.4903 27.0541 12.7192 28.9989Z" fill="var(--fill-0, white)"/>
<path id="Vector 381" d="M84.8149 10.3777C74.5228 5.31885 60.9744 4.0542 55.4867 4.05424L53.8949 2.64246C65.7801 1.59377 84.0129 4.05424 101.282 19.585C115.097 32.0096 116.536 50.4928 115.529 58.1814C115.705 32.416 97.68 16.7013 84.8149 10.3777Z" fill="var(--fill-0, white)"/>
<path id="Vector 382" d="M103.792 29.6783C95.8484 26.6993 73.954 11.8786 63.9998 4.84058C63.7509 4.66471 58.196 4.29388 55.4497 4.13044C57.4923 5.40964 64.5361 9.99823 76.3707 18.119C88.2053 26.2399 98.9323 30.836 102.817 32.1189C104.217 35.4664 107.304 42.9875 108.443 46.2923C109.583 49.597 111.034 65.6238 111.617 73.2241L113.353 68.844C115.4 52.755 107.832 36.0298 103.792 29.6783Z" fill="var(--fill-0, #7F7F81)"/>
</g>
</svg>
