<svg preserveAspectRatio="none" width="100%" height="100%" overflow="visible" style="display: block;" viewBox="0 0 37.5088 37.6421" fill="none" xmlns="http://www.w3.org/2000/svg">
<g id="Group 914">
<path id="Vector 385" d="M6.09717 0.204633C4.9524 -0.52092 3.99442 0.856289 3.65853 1.63559C3.57692 1.44336 3.05952 1.14746 1.64281 1.50163C0.226093 1.85581 1.27776 3.86851 1.98069 4.83058C0.614021 6.74317 -1.40698 11.2602 1.44235 14.0278C4.29168 16.7954 11.2371 15.1026 14.3536 13.9103C15.1577 14.5535 15.6013 18.3692 15.0449 18.6732C14.4885 18.9772 10.3894 19.1944 7.3926 19.8459C4.39577 20.4974 0.704004 24.1947 1.44235 29.3576C2.1807 34.5204 11.0401 35.3214 12.1318 35.7893C13.0052 36.1636 13.9098 37.0682 14.2529 37.4737C16.8232 38.347 15.8519 35.6125 15.0449 34.136C16.4849 33.416 15.6379 31.976 15.3837 31.7219C15.1296 31.4678 10.8943 31.5101 9.87783 31.2136C8.86135 30.9172 3.18603 25.6654 9.62371 23.1665C16.0614 20.6677 19.0085 24.4504 19.3242 24.1947C19.6398 23.939 22.6981 16.808 28.7492 16.8713C34.8004 16.9346 33.1766 22.6384 32.6399 24.1947C32.1033 25.751 27.1393 29.1587 28.7492 30.876C30.3592 32.5932 33.4449 29.105 33.8206 28.6757C34.1962 28.2464 35.2964 29.105 36.9063 28.6757C38.1943 28.3322 37.1213 26.2377 36.4238 25.2334C37.0633 22.249 38.4129 17.2795 33.5956 14.0278C29.7417 11.4265 22.9974 15.1117 20.107 17.2795C19.1917 16.292 19.2038 14.2787 19.3242 13.3956C28.0556 11.288 29.9785 7.73247 30.8002 6.30531C31.6219 4.87815 31.9888 5.63976 32.905 4.33868C33.8213 3.03759 31.671 3.1086 30.9312 2.87571C30.1914 2.64282 31.3285 1.67016 30.2188 1.20438C29.1092 0.738597 28.9727 2.16455 28.5649 2.80453C28.1572 3.44452 27.6475 2.4194 26.6791 2.80453C25.7106 3.18967 27.6984 4.61106 27.6475 6.44595C27.5965 8.28084 19.4924 10.1157 18.575 10.0138C17.6575 9.91184 19.1815 5.21792 16.0792 5.17296C12.9768 5.12799 14.3706 9.53423 13.921 10.5683C13.4714 11.6025 5.15351 12.8164 4.11939 11.4226C3.08528 10.0288 4.16237 6.55323 6.58088 5.56567C8.99939 4.57811 6.74211 3.08669 6.58088 2.80453C6.41964 2.52238 7.52813 1.11157 6.09717 0.204633Z" fill="var(--fill-0, #51102E)"/>
<circle id="Ellipse 40" cx="11.686" cy="3.3554" r="1.70613" fill="var(--fill-0, #51102E)"/>
<circle id="Ellipse 40_2" cx="19.6655" cy="2.30363" r="1.70613" fill="var(--fill-0, #51102E)"/>
</g>
</svg>
